<svg id="balloon" xmlns="http://www.w3.org/2000/svg" viewBox="0 0 100 100"><path id="lower-cloud" fill="#C1CE20" d="M30.2 87.2H10.7c-3.3 0-6-2.7-6-6s2.7-6 6-6c1.1-3.3 4.2-5.6 7.8-5.6 4.2 0 7.7 3.2 8.1 7.4 2.2.2 4 1.8 4.6 3.8 1.3.4 2.2 1.6 2.2 3.1 0 1.9-1.4 3.3-3.2 3.3zm-19.5-9.3c-1.9 0-3.4 1.5-3.4 3.4s1.5 3.4 3.4 3.4h19.5c.3 0 .6-.3.6-.6s-.3-.6-.6-.6h-.1l-1.4.1v-1.4c0-1.3-1.1-2.4-2.5-2.4-.2 0-.4 0-.6.1l-1.8.4.2-1.8V78c0-3.1-2.5-5.6-5.6-5.6-2.7 0-5 1.9-5.5 4.6l-.2 1.3-1.3-.3c-.2-.1-.4-.1-.7-.1z"/><g id="lower-dashes" fill="#C1CE20"><path id="dashes-five" d="M26.1 65.2h-3c-.7 0-1.3-.6-1.3-1.3 0-.7.6-1.3 1.3-1.3h3c.7 0 1.3.6 1.3 1.3 0 .7-.5 1.3-1.3 1.3zm-6.9 0h-3c-.7 0-1.3-.6-1.3-1.3 0-.7.6-1.3 1.3-1.3h3c.7 0 1.3.6 1.3 1.3 0 .7-.6 1.3-1.3 1.3zm-7 0h-3c-.7 0-1.3-.6-1.3-1.3 0-.7.6-1.3 1.3-1.3h3c.7 0 1.3.6 1.3 1.3 0 .7-.6 1.3-1.3 1.3z"/><path id="dashes-four" d="M21.8 59.2h-3c-.7 0-1.3-.6-1.3-1.3 0-.7.6-1.3 1.3-1.3h3c.7 0 1.3.6 1.3 1.3 0 .7-.6 1.3-1.3 1.3zm-7 0h-3c-.7 0-1.3-.6-1.3-1.3 0-.7.6-1.3 1.3-1.3h3c.7 0 1.3.6 1.3 1.3 0 .7-.5 1.3-1.3 1.3zm-6.9 0h-3c-.7 0-1.3-.6-1.3-1.3 0-.7.6-1.3 1.3-1.3h3c.7 0 1.3.6 1.3 1.3 0 .7-.6 1.3-1.3 1.3z"/></g><g id="top-balloon"><path id="inner-balloon" fill="#FFF" d="M24.9 42.6c0 4.1 3.3 7.5 7.5 7.5 2.7 0 5.2-1.5 6.5-3.8l1.1-2 1.1 2c1.3 2.4 3.8 3.8 6.5 3.8 2.8 0 5.3-1.5 6.6-3.9l1.1-2.1 1.1 2.1c1.3 2.4 3.8 3.9 6.6 3.9 2.7 0 5.2-1.5 6.5-3.8l1.1-2 1.1 2c1.3 2.4 3.8 3.8 6.5 3.8 4.1 0 7.5-3.3 7.5-7.5 0-.2 0-.3.1-.5.1-.7.1-1.5.1-2.3 0-8.8-3.8-17.1-10.4-23-5.5-4.9-12.7-7.6-20.1-7.6-16.9 0-30.6 13.7-30.6 30.6 0 .8 0 1.5.1 2.3v.5z"/><path id="dot" fill="#C1CE20" d="M43.9 90.6h.3c.3 0 .7-.1.9-.4l.2-.2c0-.1.1-.1.1-.2s.1-.2.1-.2v-.3-.3c0-.1 0-.2-.1-.2 0-.1-.1-.2-.1-.2 0-.1-.1-.1-.2-.2l-.2-.2c-.1 0-.1-.1-.2-.1s-.2-.1-.2-.1H44c-.1 0-.2 0-.2.1-.1 0-.2.1-.2.1-.1 0-.1.1-.2.2l-.2.2c0 .1-.1.1-.1.2s-.1.2-.1.2v.6c0 .1 0 .2.1.2 0 .1.1.2.1.2 0 .1.1.1.2.2l.2.2c.1 0 .1.1.2.1 0 .1 0 .1.1.1z"/><path id="outter-balloon" fill="#C1CE20" d="M85.6 53.6c0-.1.1-.2.1-.3 1.8-4.1 2.9-8.7 2.9-13.5 0-9.5-4.1-18.6-11.2-24.9-6.1-5.4-13.9-8.3-22-8.3-18.4 0-33.3 14.9-33.3 33.2 0 4 .7 7.8 2 11.4 0 .1.1.2.1.2 1.2 3.2 2.9 6.2 4.9 8.8L41 81.3l1.1 4.2c.2.7.9 1.1 1.6.9.7-.2 1.1-.9.9-1.6l-.7-2.7h23l-3.1 13.5H46.9l-.7-2.4c-.2-.7-.9-1.1-1.6-.9-.7.2-1.1.9-.9 1.6l1.2 4.3h20.8l3.9-16.9 12.9-22.6c1.3-1.6 2.2-3.3 3.1-5.1zm-5.2 3.8c-3.3 4.7-7.9 8.4-13.3 10.7l4.2-18.3c1.9 1.8 4.4 2.9 7 2.9 2 0 4-.6 5.5-1.7l-.6 1.5-2.8 4.9zm-49.1 1.4L27 51c1.6 1 3.4 1.6 5.4 1.6 2.7 0 5.2-1.1 7-2.9L43.6 68c-4.8-1.9-9.1-5.2-12.3-9.2zm11-7.7c1.6 1 3.4 1.5 5.3 1.5 2.4 0 4.6-.8 6.4-2.3v20.1c-2.6-.1-5.2-.5-7.6-1.3l-4.1-18zm14.4-.8c1.8 1.5 4 2.3 6.4 2.3 1.9 0 3.7-.5 5.3-1.5l-4.1 18c-2.4.7-5 1.2-7.6 1.3V50.3zM55.4 9.2c7.5 0 14.7 2.7 20.3 7.7C82.2 22.6 86 31 86 39.8c0 .8 0 1.5-.1 2.3-.1.2-.1.3-.1.5 0 4.1-3.3 7.5-7.5 7.5-2.7 0-5.2-1.5-6.5-3.8l-1.1-2-1.1 2c-1.3 2.4-3.8 3.8-6.5 3.8-2.8 0-5.3-1.5-6.6-3.9l-1.1-2.1-1.1 2.1c-1.3 2.4-3.8 3.9-6.6 3.9-2.7 0-5.2-1.5-6.5-3.8l-1.1-2-1.1 2c-1.3 2.4-3.8 3.8-6.5 3.8-4.1 0-7.5-3.3-7.5-7.5 0-.2 0-.3-.1-.5-.1-.7-.1-1.5-.1-2.3-.1-16.9 13.7-30.6 30.6-30.6zM43 79.5l-7.3-13c2.6 1.9 5.5 3.5 8.6 4.6l1.9 8.4H43zm5.9 0L47.2 72c2.2.6 4.5.9 6.9 1v6.5h-5.2zm13 0h-5.3V73c2.4-.1 4.7-.4 7-1l-1.7 7.5zm5.9 0h-3.2l1.9-8.4c3.2-1.1 6.2-2.7 8.8-4.7l-7.5 13.1z"/></g><g id="top-cloud"><path id="panel" fill="#FFF" d="M60.1 21h.2c.1-3 2.5-5.5 5.6-5.5.5 0 .9.1 1.4.2v-.9c0-5.6 4.5-10.2 10.2-10.2 5 0 9.2 3.6 10 8.4.5-.1.9-.2 1.4-.2 3.8 0 6.9 3.1 6.9 6.9 0 3.8-3.1 6.9-6.9 6.9H60.1c-1.6 0-2.8-1.3-2.8-2.8 0-1.5 1.2-2.8 2.8-2.8z"/><path id="cloud" fill="#C1CE20" d="M88.8 28H60.1c-2.3 0-4.1-1.9-4.1-4.1 0-2 1.4-3.6 3.2-4 .6-3.2 3.4-5.6 6.7-5.6.3-6.1 5.3-10.9 11.4-10.9 5.2 0 9.6 3.4 11 8.2h.4c4.5 0 8.2 3.7 8.2 8.2S93.3 28 88.8 28zm-28.7-5.7c-.9 0-1.5.7-1.5 1.5 0 .9.7 1.5 1.5 1.5h28.7c3.1 0 5.6-2.5 5.6-5.6s-2.5-5.6-5.6-5.6c-.4 0-.8 0-1.2.1l-1.3.3-.2-1.3C85.4 9.1 81.7 6 77.4 6c-4.9 0-8.9 4-8.9 8.9v.8l.2 1.8-1.8-.5c-.3-.1-.7-.1-1-.1-2.3 0-4.2 1.9-4.3 4.2v1.4l-1.4-.1c0-.1 0-.1-.1-.1z"/></g><g id="top-dashes" fill="#C1CE20"><path id="dashes-three" d="M25.2 20.5h-3c-.7 0-1.3-.6-1.3-1.3s.6-1.3 1.3-1.3h3c.7 0 1.3.6 1.3 1.3s-.6 1.3-1.3 1.3zm-7 0h-3c-.7 0-1.3-.6-1.3-1.3s.6-1.3 1.3-1.3h3c.7 0 1.3.6 1.3 1.3s-.6 1.3-1.3 1.3zm-6.9 0h-3c-.7 0-1.3-.6-1.3-1.3s.6-1.3 1.3-1.3h3c.7 0 1.3.6 1.3 1.3s-.6 1.3-1.3 1.3z"/><path id="dashes-two" d="M29.8 13.9h-2.6c-.7 0-1.3-.6-1.3-1.3s.6-1.3 1.3-1.3h2.6c.7 0 1.3.6 1.3 1.3s-.6 1.3-1.3 1.3zm-6.6 0h-3c-.7 0-1.3-.6-1.3-1.3s.6-1.3 1.3-1.3h3c.7 0 1.3.6 1.3 1.3s-.6 1.3-1.3 1.3zm-7 0h-3c-.7 0-1.3-.6-1.3-1.3s.6-1.3 1.3-1.3h3c.7 0 1.3.6 1.3 1.3s-.6 1.3-1.3 1.3zm-7 0h-3c-.7 0-1.3-.6-1.3-1.3s.6-1.3 1.3-1.3h3c.7 0 1.3.6 1.3 1.3s-.5 1.3-1.3 1.3z"/><path id="dashes-one" d="M22.3 7.4h-3c-.7 0-1.3-.6-1.3-1.3s.6-1.3 1.3-1.3h3c.7 0 1.3.6 1.3 1.3s-.6 1.3-1.3 1.3zm-7 0h-3c-.7 0-1.3-.6-1.3-1.3s.6-1.3 1.3-1.3h3c.7 0 1.3.6 1.3 1.3s-.6 1.3-1.3 1.3z"/></g></svg>