<?xml version="1.0" encoding="utf-8"?>
<!-- Generator: Adobe Illustrator 20.1.0, SVG Export Plug-In . SVG Version: 6.00 Build 0)  -->
<svg version="1.1" id="billboard" xmlns="http://www.w3.org/2000/svg" xmlns:xlink="http://www.w3.org/1999/xlink" x="0px" y="0px"
	 viewBox="0 0 100 100" enable-background="new 0 0 100 100" xml:space="preserve">
<g id="big-board">
	<path id="dot" fill="#C1CE20" d="M20.2,59.1c0-0.1-0.1-0.1-0.2-0.2l-0.2-0.2c-0.1,0-0.1-0.1-0.2-0.1s-0.2-0.1-0.2-0.1h-0.5
		c-0.1,0-0.2,0-0.2,0.1c-0.1,0-0.2,0.1-0.2,0.1c-0.1,0-0.1,0.1-0.2,0.2C18.1,59,18.1,59,18,59.1c0,0.1-0.1,0.1-0.1,0.2
		s-0.1,0.2-0.1,0.2v0.3c0,0.3,0.1,0.7,0.4,0.9c0.2,0.2,0.6,0.4,0.9,0.4h0.3c0.1,0,0.2,0,0.2-0.1c0.1,0,0.2-0.1,0.2-0.1
		c0.1,0,0.1-0.1,0.2-0.2c0.2-0.2,0.4-0.6,0.4-0.9v-0.3c0,0,0-0.2-0.1-0.2C20.3,59.3,20.2,59.2,20.2,59.1z"/>
	<path id="top-section" fill="#C1CE20" d="M56.8,11.4h13.9c0.7,0,1.3-0.6,1.3-1.3s-0.6-1.3-1.3-1.3H56.8V7.4c0-3.4-2.8-6.2-6.2-6.2
		h-1.5c-3.4,0-6.2,2.8-6.2,6.2v8h13.9C56.8,15.4,56.8,11.4,56.8,11.4z M54.2,12.8h-8.7V7.4c0-2,1.6-3.6,3.6-3.6h1.5
		c2,0,3.6,1.6,3.6,3.6C54.2,7.4,54.2,12.8,54.2,12.8z"/>
	<path id="body" fill="#C1CE20" d="M95.9,58.5V8.8h-7.2V7.4c0-3.4-2.8-6.2-6.2-6.2H81c-3.4,0-6.2,2.8-6.2,6.2v8h13.9v-4h4.6v47.2
		H24.4c-0.7,0-1.3,0.6-1.3,1.3s0.6,1.3,1.3,1.3h72.1v2.7c0,0.6-0.5,1.1-1.1,1.1H56.7c-0.7,0-1.3,0.6-1.3,1.3c0,0.1,0,0.3,0.1,0.4
		v28.1c-0.5,0.3-2,1.1-5.6,1.1s-5.1-0.8-5.6-1.1V66.3c0-0.7-0.6-1.3-1.3-1.3H4.8c-0.5,0-1-0.4-1-1v-2.9h10c0.7,0,1.3-0.6,1.3-1.3
		s-0.6-1.3-1.3-1.3H6.7V11.4h4.5v4H25v-4h17.9V8.8H25V7.4c0-3.4-2.8-6.2-6.2-6.2h-1.5c-3.4,0-6.2,2.8-6.2,6.2v1.3h-7v49.8H1.2V64
		c0,2,1.6,3.6,3.6,3.6h36.9v28.1l0.2,0.3c0.3,0.4,1.9,2.5,8,2.5s7.7-2.1,8-2.5l0.2-0.3V67.6h37.3c2.1,0,3.7-1.7,3.7-3.7v-5.3
		L95.9,58.5z M86.1,12.8h-8.7V7.4c0-2,1.6-3.6,3.6-3.6h1.5c2,0,3.6,1.6,3.6,3.6V12.8z M13.7,7.4c0-2,1.6-3.6,3.6-3.6h1.5
		c2,0,3.6,1.6,3.6,3.6v5.4h-8.7V7.4z"/>
</g>
<g id="bushes">
	<path id="pair" fill="#C1CE20" d="M92.1,83.8c-0.9-2.4-3.2-4.2-5.9-4.2c-0.3,0-0.6,0-1,0.1c-1-3.2-4-5.4-7.5-5.4s-6.5,2.3-7.5,5.6
		c-3.7,0-6.7,3-6.7,6.7s3,6.7,6.7,6.7c0.3,0,0.5,0,0.8-0.1c1.4,2.3,4,3.8,6.8,3.8c1.6,0,3.1-0.5,4.3-1.3c1.1,1,2.6,1.6,4.1,1.6
		c2.1,0,4.1-1.1,5.2-2.8H92c2.9,0,5.3-2.4,5.3-5.3C97.3,86.2,95,83.9,92.1,83.8L92.1,83.8z M72.9,91.2l-0.5-1.1l-1.1,0.3
		c-0.4,0.1-0.8,0.2-1.2,0.2c-2.3,0-4.1-1.8-4.1-4.1s1.8-4.1,4.1-4.1c0.3,0,0.5,0,0.8,0.1l1.4,0.3l0.2-1.4c0.4-2.6,2.6-4.6,5.2-4.6
		c2.4,0,4.4,1.6,5.1,3.8c-1.1,0.7-2,1.8-2.5,3.2c-2.8,0.1-5.1,2.5-5.1,5.3c0,2.4,1.6,4.5,3.9,5.1c-0.4,0.1-0.9,0.2-1.3,0.2
		C75.6,94.4,73.7,93.2,72.9,91.2z M92,91.9c-0.3,0-0.6,0-0.8-0.1L90,91.4l-0.5,1.1c-0.6,1.3-1.9,2.2-3.3,2.2s-2.8-0.9-3.3-2.2
		l-0.5-1.1l-1.1,0.3c-0.3,0.1-0.5,0.1-0.8,0.1c-1.5,0-2.7-1.2-2.7-2.7s1.2-2.7,2.7-2.7c0.2,0,0.4,0,0.5,0.1l1.4,0.3l0.2-1.4
		c0.2-1.3,1-2.3,2.2-2.8c0.3-0.1,0.5-0.2,0.8-0.3h0.6c1.8,0,3.3,1.4,3.6,3.1l0.2,1.4l1.4-0.3c0.2,0,0.4-0.1,0.6-0.1
		c1.5,0,2.7,1.2,2.7,2.7S93.5,91.9,92,91.9L92,91.9z"/>
	<path id="single" fill="#C1CE20" d="M20.2,96.1c-2.1,0-4.1-1.1-5.2-2.8h-0.4c-2.9,0-5.3-2.4-5.3-5.3s2.3-5.2,5.1-5.3
		c0.9-2.4,3.2-4.2,5.9-4.2s5,1.7,5.9,4.2c2.9,0,5.2,2.4,5.2,5.3s-2.4,5.3-5.3,5.3h-0.6C24.3,95,22.3,96.1,20.2,96.1z M16.4,90.3
		l0.5,1.1c0.6,1.3,1.9,2.2,3.3,2.2c1.5,0,2.8-0.9,3.3-2.2l0.5-1.1l1.1,0.4c0.3,0.1,0.6,0.1,0.8,0.1c1.5,0,2.7-1.2,2.7-2.7
		s-1.2-2.7-2.7-2.7c-0.2,0-0.4,0-0.6,0.1L24,85.6l-0.2-1.4c-0.2-1.8-1.8-3.1-3.6-3.1s-3.3,1.3-3.6,3.1l-0.2,1.4L15,85.3
		c-0.2,0-0.4-0.1-0.5-0.1c-1.5,0-2.7,1.2-2.7,2.7s1.2,2.7,2.7,2.7c0.3,0,0.5,0,0.8-0.1L16.4,90.3z"/>
</g>
<path id="third-row" fill="#C1CE20" opacity="0" d="M86.2,46.2h-3c-0.7,0-1.3-0.6-1.3-1.3s0.6-1.3,1.3-1.3h3
	c0.7,0,1.3,0.6,1.3,1.3S86.9,46.2,86.2,46.2z M79.2,46.2h-3c-0.7,0-1.3-0.6-1.3-1.3s0.6-1.3,1.3-1.3h3c0.7,0,1.3,0.6,1.3,1.3
	S79.9,46.2,79.2,46.2z M72.2,46.2h-3c-0.7,0-1.3-0.6-1.3-1.3s0.6-1.3,1.3-1.3h3c0.7,0,1.3,0.6,1.3,1.3S72.9,46.2,72.2,46.2z
	 M65.2,46.2h-3c-0.7,0-1.3-0.6-1.3-1.3s0.6-1.3,1.3-1.3h3c0.7,0,1.3,0.6,1.3,1.3S65.9,46.2,65.2,46.2z M58.2,46.2h-3
	c-0.7,0-1.3-0.6-1.3-1.3s0.6-1.3,1.3-1.3h3c0.7,0,1.3,0.6,1.3,1.3S58.9,46.2,58.2,46.2z"/>
<path id="second-row" fill="#C1CE20" opacity="0" d="M86.2,38.4h-3c-0.7,0-1.3-0.6-1.3-1.3s0.6-1.3,1.3-1.3h3
	c0.7,0,1.3,0.6,1.3,1.3S86.9,38.4,86.2,38.4z M79.2,38.4h-3c-0.7,0-1.3-0.6-1.3-1.3s0.6-1.3,1.3-1.3h3c0.7,0,1.3,0.6,1.3,1.3
	S79.9,38.4,79.2,38.4z M72.2,38.4h-3c-0.7,0-1.3-0.6-1.3-1.3s0.6-1.3,1.3-1.3h3c0.7,0,1.3,0.6,1.3,1.3S72.9,38.4,72.2,38.4z
	 M65.2,38.4h-3c-0.7,0-1.3-0.6-1.3-1.3s0.6-1.3,1.3-1.3h3c0.7,0,1.3,0.6,1.3,1.3S65.9,38.4,65.2,38.4z M58.2,38.4h-3
	c-0.7,0-1.3-0.6-1.3-1.3s0.6-1.3,1.3-1.3h3c0.7,0,1.3,0.6,1.3,1.3S58.9,38.4,58.2,38.4z"/>
<g id="first-row">
	<path id="dash-four" fill="#C1CE20" d="M79.2,28.1h-3c-0.7,0-1.3,0.6-1.3,1.3c0,0.7,0.6,1.3,1.3,1.3h3c0.7,0,1.3-0.6,1.3-1.3
		S79.9,28.1,79.2,28.1z"/>
	<path id="dash-three" fill="#C1CE20" d="M72.2,28.1h-3c-0.7,0-1.3,0.6-1.3,1.3c0,0.7,0.6,1.3,1.3,1.3h3c0.7,0,1.3-0.6,1.3-1.3
		S72.9,28.1,72.2,28.1z"/>
	<path id="dash-two" fill="#C1CE20" d="M65.2,28.1h-3c-0.7,0-1.3,0.6-1.3,1.3c0,0.7,0.6,1.3,1.3,1.3h3c0.7,0,1.3-0.6,1.3-1.3
		S65.9,28.1,65.2,28.1z"/>
	<path id="dash-one" fill="#C1CE20" d="M58.2,28.1h-3c-0.7,0-1.3,0.6-1.3,1.3c0,0.7,0.6,1.3,1.3,1.3h3c0.7,0,1.3-0.6,1.3-1.3
		S58.9,28.1,58.2,28.1z"/>
</g>
<path id="right-poly" fill="#C1CE20" d="M46.2,42.6H32.5l-6.8-11.9l6.8-11.9h13.7L53,30.7L46.2,42.6z M34,40h10.7l5.3-9.3l-5.3-9.3
	H34l-5.3,9.3L34,40z"/>
<path id="left-poly" fill="#C1CE20" d="M31.2,52.6H17.5l-6.8-11.9l6.8-11.9h13.7L38,40.7L31.2,52.6z M19,50h10.7l5.3-9.3l-5.3-9.3
	H19l-5.3,9.3L19,50z"/>
</svg>
