<?xml version="1.0" encoding="utf-8"?>
<!-- Generator: Adobe Illustrator 20.1.0, SVG Export Plug-In . SVG Version: 6.00 Build 0)  -->
<svg version="1.1" id="bomb" xmlns="http://www.w3.org/2000/svg" xmlns:xlink="http://www.w3.org/1999/xlink" x="0px" y="0px"
	 width="100px" height="100px" viewBox="0 0 100 100" enable-background="new 0 0 100 100" xml:space="preserve">
<g id="wick">
	<path id="fire-eight" fill="#C1CE20" d="M97.5,21.6c-0.2,0-0.5-0.1-0.7-0.2l-5.3-3.3c-0.6-0.4-0.8-1.2-0.4-1.8
		c0.4-0.6,1.2-0.8,1.8-0.4l5.3,3.3c0.6,0.4,0.8,1.2,0.4,1.8C98.3,21.4,97.9,21.6,97.5,21.6z"/>
	<path id="fire-seven" fill="#C1CE20" d="M90.3,10.6c-0.2,0-0.5-0.1-0.7-0.2C89,10,88.8,9.2,89.2,8.6l3.3-5.3
		c0.4-0.6,1.2-0.8,1.8-0.4c0.6,0.4,0.8,1.2,0.4,1.8L91.4,10C91.2,10.4,90.7,10.6,90.3,10.6z"/>
	<path id="fire-six" fill="#C1CE20" d="M81.1,25.5c-0.2,0-0.5-0.1-0.7-0.2c-0.6-0.4-0.8-1.2-0.4-1.8l3.3-5.3
		c0.4-0.6,1.2-0.8,1.8-0.4c0.6,0.4,0.8,1.2,0.4,1.8l-3.3,5.3C82,25.2,81.5,25.5,81.1,25.5z"/>
	<path id="fire-four" fill="#C1CE20" d="M92.8,14.1c-0.6,0-1.1-0.4-1.3-1c-0.2-0.7,0.3-1.4,1-1.6l4-0.9c0.7-0.2,1.4,0.3,1.6,1
		s-0.3,1.4-1,1.6l-4,0.9C93.1,14.1,92.8,14.1,92.8,14.1z"/>
	<path id="fire-three" fill="#C1CE20" d="M89.6,24.7c-0.6,0-1.1-0.4-1.3-1l-0.9-3.9c-0.2-0.7,0.3-1.4,1-1.6s1.4,0.3,1.6,1l0.9,3.9
		c0.2,0.7-0.3,1.4-1,1.6C89.9,24.7,89.6,24.7,89.6,24.7z"/>
	<path id="fire-two" fill="#C1CE20" d="M86,9.9c-0.6,0-1.1-0.4-1.3-1l-0.9-4c-0.2-0.7,0.3-1.4,1-1.6c0.7-0.2,1.4,0.3,1.6,1l0.9,4
		c0.2,0.7-0.3,1.4-1,1.6H86z"/>
	<path id="fire-one" fill="#C1CE20" d="M78,17.5c-0.6,0-1.1-0.4-1.3-1c-0.2-0.7,0.3-1.4,1-1.6l3.9-0.9c0.7-0.2,1.4,0.3,1.6,1
		s-0.3,1.4-1,1.6l-3.9,0.9H78z"/>
	<path id="string" fill="#C1CE20" d="M50.2,26.3H50c-0.7-0.1-1.2-0.7-1.1-1.5c1.6-11.6,9.8-19.6,20.4-19.7c4.8-0.1,9.4,1.4,13.4,4.2
		c0.6,0.4,0.7,1.2,0.3,1.8c-0.4,0.6-1.2,0.7-1.8,0.3C77.7,9,73.7,7.7,69.4,7.8c-4.7,0.1-8.9,1.8-12.2,5.1c-3.1,3.1-5.1,7.5-5.7,12.3
		C51.4,25.8,50.8,26.3,50.2,26.3z"/>
</g>
<g id="body">
	<path id="panel" fill="#FFFFFF" d="M40.6,22.9l19.8,8.2l-1.3,10.1l-1.6,24.5l4.4,7.2l-27,8.2l-18.6-8.2L7.4,57l27.5-23.4L40.6,22.9
		z"/>
	<path id="device" fill="#C1CE20" d="M67.4,55.3C65.8,50,63,45.1,59.1,41.2l4.7-11.5L39.1,19.5L34.4,31C21.3,31.2,8.9,39.1,3.6,52
		C-3.5,69.2,4.7,89,22,96.2c4.1,1.7,8.5,2.6,12.9,2.6c1.4,0,2.8-0.1,4.2-0.3c5.6-0.7,11-2.8,15.6-6.2c0.6-0.4,0.7-1.2,0.3-1.8
		c-0.4-0.6-1.2-0.7-1.8-0.3c-4.2,3.1-9.2,5-14.4,5.7C33.5,96.6,28,95.8,23,93.8C7,87.2-0.6,68.9,6,52.9C12.6,37,30.9,29.4,46.8,36
		c0.5,0.2,0.9,0.4,1.4,0.6c0.6,0.3,1.4,0,1.7-0.6s0-1.4-0.6-1.7c-0.5-0.2-1-0.4-1.5-0.7c-3.5-1.4-7.1-2.2-10.6-2.5l3.4-8.2l19.9,8.2
		l-3.4,8.2c-0.8-0.7-1.7-1.4-2.6-2c-0.6-0.4-1.4-0.3-1.8,0.3c-0.4,0.6-0.3,1.4,0.3,1.8c5.7,4,9.9,9.9,11.9,16.6
		c2,6.8,1.6,14.2-1.1,20.8c-1.1,2.6-2.5,5.1-4.2,7.3c-0.4,0.6-0.3,1.4,0.2,1.8c0.2,0.2,0.5,0.3,0.8,0.3c0.4,0,0.8-0.2,1-0.5
		c1.9-2.4,3.4-5,4.6-7.9C69.1,70.6,69.5,62.7,67.4,55.3L67.4,55.3z"/>
	<path id="mark-three" fill="#C1CE20" d="M25.3,41.4c-1.9,0.8-3.7,1.8-5.3,2.9c-0.6,0.4-0.7,1.2-0.3,1.8c0.3,0.4,0.6,0.5,1.1,0.5
		c0.3,0,0.5-0.1,0.8-0.2c1.5-1.1,3.1-2,4.8-2.6c0.7-0.3,1-1,0.7-1.7C26.7,41.4,26,41.1,25.3,41.4z"/>
	<path id="mark-two" fill="#C1CE20" d="M18.4,49.1c0.5-0.5,0.5-1.3,0-1.8s-1.3-0.5-1.8,0c-2.3,2.3-4,5-5.3,8.1
		c-0.6,1.5-1.1,3.1-1.4,4.6c-0.1,0.7,0.3,1.4,1,1.5h0.3c0.6,0,1.1-0.4,1.3-1c0.3-1.4,0.7-2.8,1.3-4.2C14.8,53.6,16.4,51.2,18.4,49.1
		z"/>
	<path id="mark-one" fill="#C1CE20" d="M10.6,65.7c-0.7,0.1-1.2,0.7-1.2,1.4c0.1,1.6,0.4,3.3,0.9,4.9c0.2,0.6,0.7,0.9,1.2,0.9h0.3
		c0.7-0.2,1.1-0.9,0.9-1.6c-0.4-1.4-0.7-2.9-0.8-4.4C12,66.1,11.3,65.6,10.6,65.7z"/>
	<path id="dot" fill="#C1CE20" d="M58.7,87.8c0-0.1-0.1-0.2-0.1-0.2c0-0.1-0.1-0.1-0.2-0.2c-0.3-0.3-0.7-0.4-1.2-0.4
		c-0.1,0-0.2,0-0.2,0.1c-0.1,0-0.2,0.1-0.2,0.1c-0.1,0-0.1,0.1-0.2,0.2l-0.2,0.2c0,0.1-0.1,0.1-0.1,0.2S56.2,88,56.2,88v0.6
		c0,0.1,0,0.2,0.1,0.2c0,0.1,0.1,0.2,0.1,0.2c0,0.1,0.1,0.1,0.2,0.2c0.2,0.2,0.6,0.4,0.9,0.4c0.3,0,0.7-0.1,0.9-0.4l0.2-0.2
		c0-0.1,0.1-0.1,0.1-0.2s0.1-0.2,0.1-0.2v-0.3V88C58.8,88,58.8,87.9,58.7,87.8L58.7,87.8z"/>
</g>
</svg>
