<svg id="botany" xmlns="http://www.w3.org/2000/svg" viewBox="0 0 100 100"><g id="vase" fill="#C1CE20"><path id="bowl" d="M78.2 58.7c0-.1-.1-.2-.1-.3-2.7-7-8.1-12.9-15.1-16.3v-1.8h.9c2.1 0 3.9-1.7 3.9-3.9 0-2.1-1.7-3.9-3.9-3.9H36.2c-2.1 0-3.9 1.7-3.9 3.9 0 2.1 1.7 3.9 3.9 3.9h.8v1.8c-7 3.4-12.4 9.3-15.1 16.3-.1.1-.1.2-.1.3-1.2 3.3-1.9 6.9-1.9 10.5 0 6 1.8 11.8 5.1 16.7.4.6 1.2.7 1.8.3.6-.4.7-1.2.3-1.8-3-4.5-4.6-9.8-4.6-15.3 0-3.1.5-6.1 1.5-9h52.1c1 2.8 1.5 5.9 1.5 9 0 15.2-12.4 27.6-27.6 27.6-6.2 0-12.1-2-17-5.8-.6-.4-1.3-.3-1.8.2-.4.6-.3 1.3.2 1.8 5.3 4.2 11.7 6.4 18.5 6.4C66.5 99.3 80 85.8 80 69.2c.1-3.6-.6-7.1-1.8-10.5zM25 57.8c2.8-6 7.6-10.9 13.8-13.7l.8-.3v-6h-3.4c-.8 0-1.4-.6-1.4-1.4 0-.8.6-1.4 1.4-1.4h27.7c.8 0 1.4.6 1.4 1.4 0 .8-.6 1.4-1.4 1.4h-3.4v6l.8.3c6.2 2.8 11.1 7.7 13.8 13.7H25z"/><path id="vase-dot" d="M28.7 90.2c-.3 0-.7-.1-.9-.4-.2-.2-.4-.6-.4-.9v-.2c0-.1 0-.2.1-.2 0-.1.1-.1.1-.2s.1-.1.2-.2l.2-.2c.1 0 .1-.1.2-.1s.2-.1.2-.1h.5c.1 0 .2 0 .2.1.1 0 .1.1.2.1s.1.1.2.2l.2.2c0 .1.1.1.1.2s.1.2.1.2v.2c0 .3-.1.7-.4.9-.2.2-.5.4-.8.4z"/></g><path id="lower-bubble" fill="#C1CE20" d="M34.8 85.5c-1.7 0-3.1-1.4-3.1-3.1 0-1.7 1.4-3.1 3.1-3.1 1.7 0 3.1 1.4 3.1 3.1 0 1.7-1.4 3.1-3.1 3.1zm0-3.7c-.3 0-.6.3-.6.6s.3.6.6.6.6-.3.6-.6-.3-.6-.6-.6z"/><path id="upper-bubble" fill="#C1CE20" d="M39.3 72.6c-2.2 0-3.9-1.8-3.9-3.9s1.8-3.9 3.9-3.9 3.9 1.8 3.9 3.9-1.7 3.9-3.9 3.9zm0-5.4c-.8 0-1.4.6-1.4 1.4 0 .8.6 1.4 1.4 1.4.8 0 1.4-.6 1.4-1.4 0-.7-.6-1.4-1.4-1.4z"/><path id="right-bubble" fill="#C1CE20" d="M63.4 79.9c-2.1 0-3.7-1.7-3.7-3.7 0-2.1 1.7-3.7 3.7-3.7s3.7 1.7 3.7 3.7c.1 2-1.6 3.7-3.7 3.7zm0-4.9c-.7 0-1.2.5-1.2 1.2s.5 1.2 1.2 1.2 1.2-.5 1.2-1.2-.5-1.2-1.2-1.2z"/><path id="stem" fill="#C1CE20" d="M50 75.6c-1.7 0-3.2-1.4-3.2-3.2V12c0-1.7 1.4-3.2 3.2-3.2 1.7 0 3.2 1.4 3.2 3.2v60.4c0 1.8-1.5 3.2-3.2 3.2zm0-64.2c-.3 0-.6.3-.6.6v60.4c0 .3.3.6.6.6s.6-.3.6-.6V12c0-.4-.3-.6-.6-.6z"/><g id="right_leaf" fill="#C1CE20" ><path id="leaf-body" d="M54.5 31.7c-.9 0-1.5-.1-1.6-.1l-1.1-.2v-1.1c.1-4 1.4-7.1 3.8-9.3 3.9-3.6 9.4-3.3 9.6-3.3l1.2.1V19c0 1.5-.1 3-.4 4.3-.2.7-.8 1.1-1.5 1-.7-.2-1.1-.8-1-1.5.2-.7.3-1.5.3-2.4-1.6.1-4.4.7-6.6 2.6-1.6 1.5-2.6 3.6-2.9 6.2 1.7 0 4.7-.3 6.8-2.3.5-.5 1.3-.5 1.8.1.5.5.5 1.3-.1 1.8-2.6 2.5-6.2 2.9-8.3 2.9z"/><path id="leaf-dot" d="M64.1 27h-.2c-.1 0-.2 0-.2-.1-.1 0-.2-.1-.2-.1-.1 0-.1-.1-.2-.2-.2-.2-.4-.6-.4-.9v-.2c0-.1 0-.2.1-.2 0-.1.1-.1.1-.2s.1-.1.2-.2l.2-.2c.1 0 .1-.1.2-.1s.2-.1.2-.1h.5c.1 0 .2 0 .2.1.1 0 .2.1.2.1.1 0 .1.1.2.2l.2.2c0 .1.1.1.1.2s.1.2.1.2v.2c0 .3-.1.7-.4.9l-.2.2c-.1 0-.1.1-.2.1s-.2.1-.2.1h-.3z"/></g><path id="left-leaf" fill="#C1CE20" d="M45.9 25.7c-2 0-5.6-.4-8.3-2.8-2.5-2.2-3.7-5.5-3.6-9.9v-1.2l1.2-.1c.2 0 5.7-.3 9.6 3.3 2.4 2.2 3.7 5.3 3.8 9.3v1.1l-1.1.2c-.1 0-.7.1-1.6.1zm-9.4-11.4c.1 3 1.1 5.2 2.7 6.7 2.2 1.9 5.1 2.2 6.7 2.2-.3-2.7-1.3-4.8-2.9-6.3-2.1-1.9-4.9-2.5-6.5-2.6z"/></svg>
