<svg id="clock" xmlns="http://www.w3.org/2000/svg" viewBox="0 0 100 100"><g id="numbers" fill="#C1CE20"><path id="twelve" d="M49.9 23.5c-.7 0-1.3-.6-1.3-1.3v-6.6c0-.7.6-1.3 1.3-1.3.7 0 1.3.6 1.3 1.3v6.6c0 .7-.5 1.3-1.3 1.3z"/><path id="eleven" d="M36 27.2c-.4 0-.9-.2-1.1-.6l-3.3-5.7c-.4-.6-.1-1.4.5-1.8.6-.4 1.4-.1 1.8.5l3.3 5.7c.4.6.1 1.4-.5 1.8-.2.1-.4.1-.7.1z"/><path id="ten" d="M25.9 37.4c-.2 0-.4-.1-.6-.2l-5.7-3.3c-.6-.4-.8-1.1-.5-1.8.4-.6 1.1-.8 1.8-.5l5.7 3.3c.6.4.8 1.1.5 1.8-.4.5-.8.7-1.2.7z"/><path id="nine" d="M22.1 51.3h-6.6c-.7 0-1.3-.6-1.3-1.3 0-.7.6-1.3 1.3-1.3h6.6c.7 0 1.3.6 1.3 1.3 0 .7-.5 1.3-1.3 1.3z"/><path id="eight" d="M20.2 68.5c-.4 0-.9-.2-1.1-.6-.4-.6-.1-1.4.5-1.8l5.7-3.3c.6-.4 1.4-.1 1.8.5.4.6.1 1.4-.5 1.8l-5.7 3.3c-.3 0-.5.1-.7.1z"/><path id="seven" d="M32.8 81.1c-.2 0-.4-.1-.6-.2-.6-.4-.8-1.1-.5-1.8l3.3-5.7c.4-.6 1.1-.8 1.8-.5.6.4.8 1.1.5 1.8L34 80.4c-.4.4-.8.7-1.2.7z"/><path id="six" d="M49.9 85.7c-.7 0-1.3-.6-1.3-1.3v-6.6c0-.7.6-1.3 1.3-1.3.7 0 1.3.6 1.3 1.3v6.6c0 .7-.5 1.3-1.3 1.3z"/><path id="five" d="M67.1 81.1c-.4 0-.9-.2-1.1-.6l-3.3-5.7c-.4-.6-.1-1.4.5-1.8.6-.4 1.4-.1 1.8.5l3.3 5.7c.4.6.1 1.4-.5 1.8-.2 0-.4.1-.7.1z"/><path id="four" d="M79.7 68.5c-.2 0-.4-.1-.6-.2L73.4 65c-.6-.4-.8-1.1-.5-1.8.4-.6 1.1-.8 1.8-.5l5.7 3.3c.6.4.8 1.1.5 1.8-.3.5-.7.7-1.2.7z"/><path id="three" d="M84.3 51.3h-6.6c-.7 0-1.3-.6-1.3-1.3 0-.7.6-1.3 1.3-1.3h6.6c.7 0 1.3.6 1.3 1.3 0 .7-.5 1.3-1.3 1.3z"/><path id="two" d="M74 37.4c-.4 0-.9-.2-1.1-.6-.4-.6-.1-1.4.5-1.8l5.7-3.3c.6-.4 1.4-.1 1.8.5.4.6.1 1.4-.5 1.8l-5.7 3.3c-.2 0-.4.1-.7.1z"/><path id="one" d="M63.9 27.2c-.2 0-.4-.1-.6-.2-.6-.4-.8-1.1-.5-1.8l3.3-5.7c.4-.6 1.1-.8 1.8-.5.6.4.8 1.1.5 1.8L65 26.6c-.3.4-.7.6-1.1.6z"/></g><g fill="#C1CE20"><path id="outer-ring" d="M49.9 98.4c-12.9 0-25.1-5-34.2-14.2C6.6 75.1 1.6 62.9 1.6 50c0-12.9 5-25.1 14.2-34.2C24.9 6.6 37 1.6 49.9 1.6s25.1 5 34.2 14.2c9.1 9.1 14.2 21.3 14.2 34.2 0 14.8-6.7 28.7-18.3 37.9-.6.4-1.4.4-1.8-.2-.4-.6-.4-1.4.2-1.8 11-8.8 17.3-21.8 17.3-35.9 0-12.2-4.8-23.7-13.4-32.4C73.7 9 62.2 4.2 49.9 4.2 37.7 4.2 26.2 9 17.6 17.6 8.9 26.3 4.1 37.8 4.1 50s4.8 23.7 13.4 32.4c8.7 8.7 20.2 13.4 32.4 13.4 7.2 0 14.2-1.6 20.6-4.9.6-.3 1.4-.1 1.7.6s.1 1.4-.6 1.7c-6.7 3.5-14 5.2-21.7 5.2z"/><path id="inner-ring" d="M49.9 92.3c-6.6 0-13.2-1.7-20.7-5.4-4.2-2.1-7.8-5.6-8.2-6-4.2-3.9-7.5-8.6-9.9-13.8C8.8 61.8 7.6 56 7.6 50c0-23.4 19-42.3 42.3-42.3 23.4 0 42.3 19 42.3 42.3.1 23.4-18.9 42.3-42.3 42.3zm-19.5-7.7c7.1 3.5 13.3 5.1 19.6 5.1 21.9 0 39.8-17.8 39.8-39.8C89.8 28 72 10.1 50 10.1S10.2 28.1 10.2 50c0 5.6 1.1 11.1 3.4 16.2 2.2 4.9 5.3 9.3 9.3 13 0 0 3.6 3.5 7.5 5.4z"/><path id="dot" d="M75.2 90.9h-.3c-.1 0-.2 0-.2-.1-.1 0-.2-.1-.2-.1-.1 0-.1-.1-.2-.2-.2-.2-.4-.6-.4-.9v-.3c0-.1 0-.2.1-.2 0-.1.1-.2.1-.2 0-.1.1-.1.2-.2l.2-.2c.1 0 .1-.1.2-.1s.2-.1.2-.1h.5c.1 0 .2 0 .2.1.1 0 .2.1.2.1.1 0 .1.1.2.2l.2.2c0 .1.1.1.1.2s.1.2.1.2v.3c0 .3-.1.7-.4.9l-.2.2c-.1 0-.1.1-.2.1s-.2.1-.2.1h-.2z"/></g><path id="little-hand" fill="#C1CE20" d="M49.9 51.3c-.7 0-1.3-.6-1.3-1.3V34.5c0-.7.6-1.3 1.3-1.3.7 0 1.3.6 1.3 1.3V50c0 .7-.5 1.3-1.3 1.3z"/><path id="big-hand" fill="#C1CE20" d="M61.5 71.2c-.4 0-.9-.2-1.1-.6L48.8 50.7c-.4-.6-.2-1.4.5-1.8.6-.4 1.4-.2 1.8.5l11.6 19.9c.4.6.2 1.4-.5 1.8-.2.1-.4.1-.7.1z"/></svg>