<?xml version="1.0" encoding="utf-8"?>
<!-- Generator: Adobe Illustrator 20.1.0, SVG Export Plug-In . SVG Version: 6.00 Build 0)  -->
<svg version="1.1" id="contentlife" xmlns="http://www.w3.org/2000/svg" xmlns:xlink="http://www.w3.org/1999/xlink" x="0px"
	 y="0px" width="100px" height="100px" viewBox="0 0 100 100" enable-background="new 0 0 100 100" xml:space="preserve">
<g id="book">
	<path id="line-six" fill="#C1CE20" d="M45.4,69.4c-0.2,0-0.5-0.1-0.7-0.2c-6.4-4-12.7-1.4-13-1.3c-0.7,0.3-1.4,0-1.7-0.7
		c-0.3-0.7,0-1.4,0.7-1.7c0.3-0.1,7.8-3.2,15.4,1.5c0.6,0.4,0.8,1.2,0.4,1.8C46.3,69.1,45.8,69.4,45.4,69.4z"/>
	<path id="line-five" fill="#C1CE20" d="M44.5,75.3c-0.2,0-0.5-0.1-0.7-0.2c-7.9-5.1-16.1-1.4-16.1-1.3c-0.6,0.3-1.4,0-1.7-0.6
		c-0.3-0.6,0-1.4,0.6-1.7C27,71.3,36.1,67,45.2,73c0.6,0.4,0.8,1.2,0.4,1.8C45.4,75.1,45,75.3,44.5,75.3z"/>
	<path id="line-four" fill="#C1CE20" d="M44.3,81.5c-0.2,0-0.4,0-0.6-0.2C33.8,76.1,24,80,23.9,80.1c-0.7,0.3-1.4,0-1.7-0.7
		c-0.3-0.7,0-1.4,0.7-1.7c0.4-0.2,11-4.4,22,1.5c0.6,0.3,0.9,1.1,0.5,1.8C45.3,81.3,44.8,81.5,44.3,81.5L44.3,81.5z"/>
	<path id="line-three" fill="#C1CE20" d="M53.3,69.4c-0.4,0-0.9-0.2-1.1-0.6c-0.4-0.6-0.2-1.4,0.4-1.8c7.6-4.7,15.1-1.6,15.4-1.5
		c0.7,0.3,1,1,0.7,1.7s-1,1-1.7,0.7c-0.3-0.1-6.6-2.7-13,1.3C53.7,69.3,53.5,69.4,53.3,69.4z"/>
	<path id="line-two" fill="#C1CE20" d="M54.1,75.3c-0.4,0-0.8-0.2-1.1-0.6c-0.4-0.6-0.2-1.4,0.4-1.8c9.1-5.9,18.3-1.7,18.7-1.5
		c0.6,0.3,0.9,1.1,0.6,1.7S71.6,74,71,73.7c-0.3-0.2-8.3-3.8-16.1,1.3C54.6,75.3,54.4,75.3,54.1,75.3L54.1,75.3z"/>
	<path id="line-one" fill="#C1CE20" d="M54.3,81.5c-0.5,0-0.9-0.3-1.1-0.7c-0.3-0.6-0.1-1.4,0.5-1.8c11-5.8,21.5-1.6,22-1.5
		c0.7,0.3,1,1,0.7,1.7s-1,1-1.7,0.7c-0.1,0-9.9-3.9-19.8,1.3C54.8,81.5,54.5,81.5,54.3,81.5z"/>
	<path id="cover_1_" fill="#C1CE20" d="M80.3,63h-7.6L72,62l-0.1-0.2l-0.2-0.1c-4.7-3.1-9.6-4.2-14.7-3.2c-3.4,0.7-6,2.1-7.4,3
		c-1.4-0.9-4.1-2.4-7.4-3c-5.1-1-10,0.1-14.7,3.2l-0.2,0.1l-1,1.4h-6.6l-19,24.6v6.8h41.6c1.5,2.9,4.4,4.7,7.7,4.7s6.2-1.8,7.7-4.7
		H71c0.7,0,1.3-0.6,1.3-1.3c0-0.7-0.6-1.3-1.3-1.3H56l-0.3,0.8c-0.9,2.3-3.1,3.9-5.6,3.9s-4.7-1.5-5.6-3.9L44,92H3.3v-3.3l17.5-22.9
		h3.4l-5,6.6c-0.4,0.6-0.3,1.4,0.2,1.8c0.6,0.4,1.4,0.3,1.8-0.2L29,63.8c9.4-6.2,17.5-1.3,19.8,0.4l0.8,0.6l0.8-0.6
		c2.3-1.7,10.3-6.6,19.8-0.4l0.7,0.9c0.1,0.3,0.3,0.6,0.6,0.7l14.5,19c-2.6-0.5-6.4-1.1-10.7-1.5c-10.7-0.8-19.3,0.5-25.6,4
		c-6.3-3.5-14.9-4.8-25.6-4c-4.3,0.3-8.1,1-10.7,1.5l5.2-6.8c0.4-0.6,0.3-1.4-0.2-1.8c-0.6-0.4-1.4-0.3-1.8,0.2l-10,12.7l3.7-1
		c0.2-0.1,23.8-6.2,37.9,1.4c0.5,0.4,0.9,0.6,1.3,0.6h0.1c0.4,0,0.8-0.2,1.3-0.6c14-7.6,37.6-1.5,37.9-1.4l3.7,1L74.7,65.6H79
		l17.7,23.1V92H79.4c-0.7,0-1.3,0.6-1.3,1.3c0,0.7,0.6,1.3,1.3,1.3h19.9v-6.8L80.3,63z"/>
	<path id="book-dot" fill="#C1CE20" d="M75.9,92.3c-0.1,0-0.1-0.1-0.2-0.1s-0.2-0.1-0.2-0.1H75c-0.1,0-0.2,0-0.2,0.1
		c-0.1,0-0.2,0.1-0.2,0.1c-0.1,0-0.1,0.1-0.2,0.2c-0.2,0.2-0.4,0.6-0.4,0.9v0.3c0,0.1,0,0.2,0.1,0.2c0,0.1,0.1,0.2,0.1,0.2
		c0,0.1,0.1,0.1,0.2,0.2c0.2,0.2,0.6,0.4,0.9,0.4h0.3c0.1,0,0.2,0,0.2-0.1c0.1,0,0.2-0.1,0.2-0.1c0.1,0,0.1-0.1,0.2-0.2
		c0.2-0.2,0.4-0.6,0.4-0.9s-0.1-0.7-0.4-0.9C76.1,92.4,76,92.3,75.9,92.3z"/>
</g>
<g id="cloud">
	<path id="puff" fill="#C1CE20" d="M49.7,57.4c-5.3,0-10.2-2.7-13.1-7.1c-2,1.1-4.3,1.7-6.6,1.7c-7.6,0-13.8-6.1-14-13.6
		c-6-0.1-10.9-5-10.9-11.1s5-11.1,11.1-11.1h0.3C18,10.1,23.5,5.8,30,5.8c2.4,0,4.7,0.6,6.7,1.7c2.9-4.3,7.8-6.9,13-6.9
		s10,2.6,12.9,6.8c2-1,4.1-1.5,6.3-1.5c6.5,0,12,4.3,13.6,10.5h0.3c6.1,0,11.1,5,11.1,11.1c0,0.7-0.6,1.3-1.3,1.3
		c-0.7,0-1.3-0.6-1.3-1.3c0-4.7-3.8-8.5-8.5-8.5c-0.4,0-0.7,0-1.1,0.1l-1.2,0.2L80.2,18c-0.9-5.5-5.6-9.5-11.2-9.5
		c-2.2,0-4.3,0.6-6.1,1.8L61.7,11L61,9.8c-2.3-4.1-6.7-6.6-11.3-6.6c-4.7,0-9.1,2.6-11.4,6.7l-0.7,1.2l-1.2-0.8
		c-1.9-1.3-4.1-2-6.4-2c-5.6,0-10.3,4-11.2,9.5L18.6,19h-1.3c-0.4-0.1-0.8-0.1-1.1-0.1c-4.7,0-8.5,3.8-8.5,8.5s3.8,8.5,8.5,8.5
		c0.3,0,0.7,0,1-0.1l1.6-0.2l-0.1,1.6v0.9c0,6.3,5.1,11.4,11.4,11.4c2.3,0,4.5-0.7,6.3-1.9l1.2-0.8l0.7,1.3C40.6,52.3,45,55,49.8,55
		c4.7,0,9-2.5,11.4-6.6l0.7-1.2l1.1,0.7c1.8,1.1,3.9,1.8,6.1,1.8c6.3,0,11.4-5.1,11.4-11.4v-0.9l-0.1-1.6L82,36c0.4,0,0.7,0.1,1,0.1
		c1.7,0,3.3-0.5,4.7-1.4c0.6-0.4,1.4-0.2,1.8,0.3c0.4,0.6,0.2,1.4-0.3,1.8c-1.8,1.2-3.9,1.9-6,1.9c-0.2,7.5-6.4,13.6-14,13.6
		c-2.2,0-4.4-0.5-6.3-1.5C59.7,54.8,54.8,57.4,49.7,57.4z"/>
	<path id="dot-cloud" fill="#C1CE20" d="M91.8,33.6c-0.3,0-0.7-0.1-0.9-0.4L90.7,33c0-0.1-0.1-0.1-0.1-0.2s-0.1-0.2-0.1-0.2v-0.3V32
		c0-0.1,0-0.2,0.1-0.2c0-0.1,0.1-0.2,0.1-0.2c0-0.1,0.1-0.1,0.2-0.2l0.2-0.2c0.1,0,0.1-0.1,0.2-0.1s0.2-0.1,0.2-0.1H92
		c0.1,0,0.2,0,0.2,0.1c0.1,0,0.2,0.1,0.2,0.1c0.1,0,0.1,0.1,0.2,0.2l0.2,0.2c0,0.1,0.1,0.1,0.1,0.2S93,32,93,32v0.6
		c0,0.1,0,0.2-0.1,0.2c0,0.1-0.1,0.2-0.1,0.2c0,0.1-0.1,0.1-0.2,0.2l-0.2,0.2c-0.1,0-0.1,0.1-0.2,0.1S92,33.6,92,33.6
		S91.8,33.6,91.8,33.6z"/>
</g>
<path id="wolf" opacity="0" fill="#C1CE20" d="M49.5,24.2L49.4,24l-4.1-3.8l-1.1-6.4c-0.1-0.6-0.5-1.1-1.1-1.2
	c-0.6-0.2-1.2,0-1.6,0.4l-0.1,0.1l-4,6.2c-0.9,0.3-2.8,1.3-4.8,3c-2.1,1.8-4.6,4.8-5.5,9.3c-0.4-0.3-0.7-0.7-1-1
	c-0.4-0.5-1-0.7-1.6-0.6s-1.1,0.4-1.4,1c-0.6,1-1.2,2.6-0.8,4.6c0.4,2.2,1.8,4.3,4.2,6.3c-0.2,0-0.4,0-0.6-0.1
	c-1.1-0.2-1.8-0.8-1.8-0.9c-0.5-0.5-1.3-0.5-1.8,0.1c-0.5,0.5-0.5,1.3,0.1,1.8c0,0,4.1,3.7,8.6,0c1,0.7,2.6,1.7,4.5,1.6
	c1.3,0,2.6-0.5,3.7-1.5c0.9,0.8,2.3,1.7,4.1,1.8h0.4c1.6,0,3.1-0.6,4.5-1.9c0.5-0.5,0.6-1.3,0.1-1.8s-1.3-0.6-1.8-0.1
	c-1,0.9-1.9,1.3-2.9,1.2c-1.9-0.1-3.3-1.9-3.3-1.9l-0.4-0.5c3.4-3.6,3.5-4.5,3.3-5.2c-0.1-0.4-0.4-0.8-0.7-1s-0.9-0.5-3.8,0
	c0.1-2.7,0.9-5.3,2.2-7.5c0.1-0.1,0.3-0.2,0.4-0.2h0.1l6.7,0.7c0.5,0.1,1.1-0.1,1.4-0.6C49.8,25.4,49.8,24.7,49.5,24.2L49.5,24.2z
	 M41.7,23.1c-1.3-0.2-2.5,0.3-3.2,1.4c-1.6,2.8-2.5,6-2.6,9.4c-0.5,0.1-1.1,0.3-1.8,0.5S33,35.3,33.2,36c0.2,0.7,0.9,1.1,1.6,0.9
	c1.8-0.5,3.6-0.9,4.7-1.1c-1.1,1.4-3.1,3.5-5,5.3c-0.1,0.1-0.2,0.3-0.3,0.5c-1.5-0.4-2.6-1.5-2.6-1.5l-0.9-1l-0.9,1
	c-0.3,0.3-0.6,0.6-0.9,0.8v-0.5L28.5,40c-3.8-2.9-4.1-5.4-3.6-7c1.2,1.1,2.4,2,2.5,2l1.9,1.3l0.2-2.3c0.7-9.5,9-12.4,9.4-12.5
	l0.4-0.1l2.9-4.5l0.8,4.6l2,1.9C45,23.4,41.7,23.1,41.7,23.1z"/>
<path id="dolphin" opacity="0" fill="#C1CE20" d="M79.1,39.3L79.1,39.3L75,33.1c0-0.9,0-3.1-0.8-5.6c-0.8-2.6-2.5-6.2-6.3-8.8
	c0.4-0.2,0.9-0.4,1.4-0.5c0.6-0.2,1.1-0.6,1.2-1.2c0.2-0.6,0.1-1.2-0.3-1.7c-0.7-0.9-1.9-2.1-3.9-2.6c-2.2-0.6-4.7-0.1-7.4,1.3
	c-1.6-0.5-6.3-1.6-10.1,0.4c-2.1,1.1-3.6,3-4.4,5.7c-0.9,0.7-2.7,2.2-3,4c-0.1,0.6,0,1.1,0.4,1.6c1,1.1,3.1,0.9,6.4,0.6
	c1-0.1,2-0.2,2.5-0.2h0.2c0.8,0,2.3,0.1,4.3,0.4l0.3,0.6c2,4.6,2.7,5,3.4,5.2h0.3c0.3,0,0.6-0.1,0.9-0.3c0.3-0.2,0.9-0.6,1.6-3.4
	c2.4,1.2,4.5,2.9,6,5.1c0.1,0.1,0.1,0.3,0,0.5v0.1l-3.4,5.9c-0.3,0.5-0.3,1,0,1.5c0.3,0.5,0.7,0.7,1.3,0.7H66l5.2-2.2l6.3,1.6
	c0.6,0.2,1.2,0,1.6-0.5C79.3,40.5,79.4,39.9,79.1,39.3z M70.8,37.1l-2.6,1.1l1.6-2.8c0.7-1,0.7-2.4,0-3.5c-1.9-2.6-4.4-4.7-7.6-6.2
	l0.3-1.8c0.1-0.7-0.4-1.4-1.1-1.5c-0.7-0.1-1.4,0.4-1.5,1.1c-0.3,1.9-0.6,3.6-0.9,4.8c-0.8-1.6-1.9-4.3-2.8-6.7
	c-0.3-0.7-1-1-1.7-0.8c-0.7,0.3-1,1-0.8,1.7c0,0,0.1,0.4,0.4,0.9c-1.4-0.2-2.5-0.2-3.1-0.2h-0.2c-0.7,0-1.7,0.1-2.9,0.2
	c-0.9,0.1-2.6,0.3-3.7,0.2c0.5-0.7,1.4-1.5,2-1.9l0.4-0.3l0.1-0.5c0.5-2.2,1.6-3.6,3.2-4.5c3.5-1.9,8.5-0.1,8.5-0.1l0.6,0.2l0.5-0.3
	c4.2-2.3,6.6-1.5,7.8-0.4c-1.5,0.6-2.8,1.4-2.9,1.4l-1.9,1.2l2,1.1c8.4,4.4,7.7,13.3,7.6,13.6v0.5l3,4.5
	C75.1,38.1,70.8,37.1,70.8,37.1z"/>
</svg>
