<?xml version="1.0" encoding="utf-8"?>
<!-- Generator: Adobe Illustrator 20.1.0, SVG Export Plug-In . SVG Version: 6.00 Build 0)  -->
<svg version="1.1" id="cupcake" xmlns="http://www.w3.org/2000/svg" xmlns:xlink="http://www.w3.org/1999/xlink" x="0px" y="0px"
	 width="100px" height="100px" viewBox="0 0 100 100" enable-background="new 0 0 100 100" xml:space="preserve">
<g>
	<path fill="#C1CE20" d="M77.3,71.3c-0.8-0.2-1.6,0.3-1.8,1.1l-4.3,18.2V91c0,1-1.7,2.5-5.6,3.7c-4.1,1.3-9.7,2.1-15.6,2.1
		s-11.4-0.7-15.6-2.1c-3.9-1.2-5.6-2.8-5.6-3.7v-0.2l-0.9-4c-0.2-0.8-1-1.3-1.8-1.2c-0.8,0.2-1.3,1-1.2,1.8l0.8,3.7
		c0.2,5.7,12.3,8.6,24.2,8.6c6.2,0,12.1-0.8,16.5-2.2c6.1-2,7.6-4.5,7.7-6.4L78.4,73C78.6,72.3,78.1,71.5,77.3,71.3z M25.4,84.3h0.3
		c0.4,0,0.8-0.2,1.1-0.4c0.3-0.3,0.4-0.7,0.4-1.1v-0.3c0-0.1,0-0.2-0.1-0.3c0-0.1-0.1-0.2-0.1-0.3c-0.1-0.1-0.1-0.2-0.2-0.2
		c-0.3-0.3-0.9-0.5-1.4-0.4c-0.1,0-0.2,0-0.3,0.1c-0.1,0-0.2,0.1-0.3,0.1c-0.1,0.1-0.2,0.1-0.2,0.2l-0.2,0.2
		c-0.1,0.1-0.1,0.2-0.1,0.3c0,0.1-0.1,0.2-0.1,0.3v0.6c0,0.1,0,0.2,0.1,0.3c0,0.1,0.1,0.2,0.1,0.3c0.1,0.1,0.1,0.2,0.2,0.2l0.2,0.2
		c0.1,0.1,0.2,0.1,0.3,0.1C25.2,84.3,25.3,84.3,25.4,84.3L25.4,84.3z"/>
	<path fill="#C1CE20" d="M50,93.5c0.8,0,1.5-0.7,1.5-1.5V78.7c0-0.8-0.7-1.5-1.5-1.5s-1.5,0.7-1.5,1.5V92
		C48.5,92.8,49.1,93.5,50,93.5z M37.1,91.5c0.1,0.8,0.7,1.3,1.5,1.3h0.2c0.8-0.1,1.4-0.9,1.3-1.7L38.4,78c-0.1-0.8-0.9-1.4-1.7-1.3
		s-1.4,0.9-1.3,1.7C35.4,78.4,37.1,91.5,37.1,91.5z M61.1,92.8h0.2c0.7,0,1.4-0.6,1.5-1.3l1.7-13.2c0.1-0.8-0.5-1.6-1.3-1.7
		s-1.6,0.5-1.7,1.3l-1.7,13.2C59.7,92,60.3,92.7,61.1,92.8z"/>
</g>
<path fill="#C1CE20" d="M83.8,52.9c-0.4-6.7-2.7-13.1-6.8-18.4c-0.5-0.7-1.4-0.8-2.1-0.3s-0.8,1.4-0.3,2.1
	c3.9,5.2,6.1,11.4,6.2,17.9v1.4l1.4,0.1c2.2,0.1,4,1.9,4,4.2v0.3c0,2.2-1.8,4.1-4,4.2H81l-0.2,1.2c-0.6,3.7-3.8,6.5-7.7,6.5
	c-2.6,0-5-1.3-6.4-3.4l-1.2-1.8l-1.2,1.8c-1.5,2.1-3.9,3.4-6.4,3.4s-4.9-1.2-6.4-3.3l-1.2-1.7l-1.2,1.7c-1.5,2.1-3.8,3.3-6.4,3.3
	c-2.6,0-5-1.3-6.4-3.4l-1.2-1.8l-1.2,1.8c-1.5,2.1-3.9,3.4-6.4,3.4c-3.9,0-7.1-2.7-7.7-6.5l-0.2-1.2h-1.2c-2.2-0.1-4-1.9-4-4.2v-0.3
	c0-2.2,1.7-4,4-4.2l1.4-0.1v-1.4c0.1-4.6,1.2-9,3.2-13c3.1-6.1,8.2-11.2,14.4-14.1h0.2c0.1,0,7.2-4.4,18.8-2.6
	c3.5,0.6,10.4,3.7,11.9,5.2c0.6,0.6,1.5,0.6,2.1,0s0.6-1.5,0-2.1c-1.4-1.4-4.8-3-6.2-3.6c-2.8-1.2-5.6-2.2-7.4-2.4
	c-12.2-1.9-19.9,2.4-20.8,3c-6.8,3.2-12.3,8.7-15.7,15.4c-2,4.1-3.2,8.5-3.5,13c-3.1,0.8-5.4,3.6-5.4,6.9v0.3c0,3.4,2.5,6.3,5.7,7
	c0.9,3.2,3.1,5.7,6.1,7l0.8,4.5c0.1,0.7,0.8,1.2,1.5,1.2h0.3c0.8-0.1,1.4-0.9,1.2-1.7L26.1,75c0.4,0,0.7,0.1,1.1,0.1
	c2.9,0,5.7-1.2,7.7-3.2c2,2,4.8,3.2,7.7,3.2s5.6-1.1,7.6-3.1c2,2,4.7,3.1,7.6,3.1c2.9,0,5.7-1.2,7.7-3.2c2,2,4.8,3.2,7.7,3.2
	c4.9,0,9.2-3.2,10.4-7.9c3.2-0.7,5.7-3.6,5.7-7v-0.3C89.3,56.5,87,53.7,83.8,52.9z"/>
<path id="frosting-dot" fill="#C1CE20" d="M71.2,32.2c0,0.1,0.1,0.2,0.1,0.3c0.1,0.1,0.1,0.2,0.2,0.2l0.2,0.2C71.8,33,71.9,33,72,33
	c0.1,0,0.2,0.1,0.3,0.1h0.6c0.1,0,0.2,0,0.3-0.1c0.1,0,0.2-0.1,0.3-0.1c0.1-0.1,0.2-0.1,0.2-0.2l0.2-0.2c0.1-0.1,0.1-0.2,0.1-0.3
	s0.1-0.2,0.1-0.3v-0.3v-0.3c0-0.1,0-0.2-0.1-0.3c0-0.1-0.1-0.2-0.1-0.3c-0.1-0.1-0.1-0.2-0.2-0.2l-0.2-0.2c-0.1-0.1-0.2-0.1-0.3-0.1
	c-0.1,0-0.2-0.1-0.3-0.1h-0.6c-0.1,0-0.2,0-0.3,0.1c-0.1,0-0.2,0.1-0.3,0.1c-0.1,0.1-0.2,0.1-0.2,0.2l-0.2,0.2
	c-0.1,0.1-0.1,0.2-0.1,0.3c0,0.1-0.1,0.2-0.1,0.3v0.6C71.1,32,71.2,32.1,71.2,32.2z"/>
<g id="splash" opacity="0">
	<path id="right-splash" fill="#C1CE20" d="M76.1,21.4c-0.3,0-0.7-0.1-0.9-0.3c-0.5-0.4-0.6-1-0.4-1.6c0.8-1.8,3.7-7.9,8.8-8.9
		c1.2-0.3,2.3-0.2,3.4,0.3c1.3,0.6,2.3,1.7,2.7,3.1c0.4,1.4,0.3,2.9-0.4,4.1c-1.8,3.1-5.6,2.5-5.8,2.4c-3.7-0.8-6.1,0.4-6.7,0.7
		C76.6,21.4,76.4,21.4,76.1,21.4z M84.1,17.9c0.2,0,2.2,0.3,3.1-1.2c0.3-0.6,0.4-1.3,0.2-2s-0.7-1.2-1.3-1.5
		c-0.5-0.2-1.1-0.3-1.7-0.1h-0.1c-2.5,0.5-4.4,2.8-5.6,4.7C80.1,17.6,81.9,17.5,84.1,17.9z"/>
	<path id="left-splash" fill="#C1CE20" d="M15.3,17.5c-1.2,0-2.5-0.3-3.7-1.5c-1-1-1.5-2.5-1.3-3.9c0.1-1.4,0.8-2.8,2-3.6
		c0.9-0.7,2.1-1.1,3.3-1.1c4.8-0.1,8.8,4.3,10.2,6.2c0.4,0.5,0.5,1.3,0.1,1.8c-0.4,0.6-1,0.8-1.7,0.7c-1.1-0.3-3.4-0.5-6.3,0.9
		C17.8,17,16.7,17.5,15.3,17.5z M15.4,9.9c-0.6,0-1.1,0.2-1.5,0.5c-0.6,0.4-0.9,1.1-1,1.8s0.2,1.4,0.7,1.9c1.2,1.2,3,0.5,3.2,0.4
		c2-1,3.8-1.3,5.3-1.3c-3.1-3.1-5.7-3.4-6.5-3.3C15.6,9.9,15.4,9.9,15.4,9.9z"/>
</g>
<g id="new-frosting" opacity="0">
	<path id="panel-top" fill="#FFFFFF" d="M69.7,25.8L60.9,20H48.5l-9.7,2.2L33.4,27v3.6l9.8-3.6c0,0,11.6-1.3,12-1.3S61,26,61,26
		l2.6,2.2l5.6,3.3l1.8-3.2L69.7,25.8z"/>
	<path id="panel-lower" fill="#FFFFFF" d="M28.4,39.2c-0.4,0,3.4-1.3,3.1-1.5c-0.6-0.5,5.1-2.7,5.7-3.3c1.8-2,6.4-5.2,11-2.6
		c3.4,1.9,7,2.5,9.7,1.6c1.3-0.4,2.2-1.1,2.6-1.9c0.4-0.7,1.3-1.1,2-0.7s4.4,3.5,4,4.3c-0.8,1.6,2.1,9.6,0,10.3
		c-3.5,1.1-20.9,4.6-25,2.3c-3.7-2-9.8-2.1-10-1.9C31.3,46,28.8,39.2,28.4,39.2z"/>
	<path id="left-frost" fill="#C1CE20" d="M33.3,32.9c-0.6,0-1.2-0.4-1.4-1c-0.4-1.1-0.5-2.3-0.4-3.5c0.4-3.8,3.4-6.8,7.2-7.2
		c0.8-0.1,1.6,0.5,1.7,1.3c0.1,0.8-0.5,1.6-1.3,1.7c-2.4,0.3-4.3,2.2-4.5,4.5c-0.1,0.8,0,1.5,0.2,2.2c0.3,0.8-0.2,1.6-0.9,1.9
		C33.6,32.9,33.5,32.9,33.3,32.9z"/>
	<path id="right-frost" fill="#C1CE20" d="M66,32.9c-0.2,0-0.3,0-0.5-0.1c-0.8-0.3-1.2-1.1-0.9-1.9c0.2-0.7,0.3-1.4,0.2-2.2
		c-0.3-2.4-2.2-4.3-4.5-4.5c-0.8-0.1-1.4-0.8-1.3-1.7c0.1-0.8,0.8-1.4,1.7-1.3c3.8,0.4,6.8,3.4,7.2,7.2c0.1,1.2,0,2.4-0.4,3.5
		C67.3,32.5,66.7,32.9,66,32.9z"/>
	<path id="center-frost" fill="#C1CE20" d="M38.4,36.9c-0.4,0-0.7-0.1-1-0.4c-0.6-0.5-0.7-1.5-0.1-2.1c1.8-2,6.4-5.2,11-2.6
		c3.4,1.9,7,2.5,9.7,1.6c1.3-0.4,2.2-1.1,2.6-1.9c0.4-0.7,1.3-1.1,2-0.7s1.1,1.3,0.7,2c-0.8,1.6-2.3,2.8-4.4,3.5
		c-3.5,1.1-7.9,0.4-12.1-1.9c-3.7-2-7.2,1.8-7.4,2C39.2,36.7,38.8,36.9,38.4,36.9z"/>
</g>
<g id="cherry">
	<path id="panel" fill="#FFFFFF" d="M51.8,13.4c-0.8-0.3-1.2-1.2-0.9-1.9c0.3-0.8,1.2-1.2,1.9-0.9c0.1,0,1.8,0.6,4.2,0.6
		c0-1.6-0.7-3.2-1.8-4.6c-1.5-1.8-3.5-2.8-5.8-3.1h-0.8c-2,0-3.9,0.7-5.5,2c-3.6,3-4.1,8.4-1.1,12.1c3,3.6,8.4,4.1,12.1,1.1
		c1.4-1.2,2.4-2.8,2.8-4.5C54,14.2,52,13.5,51.8,13.4z"/>
	<path id="fruit" fill="#C1CE20" d="M67.2,9.4c-0.4-0.7-1.3-0.9-2.1-0.5c-1.8,1.1-3.5,1.7-5,2c-0.2-2.2-1.1-4.4-2.6-6.2
		c-2-2.4-4.8-3.8-7.8-4.1s-6.1,0.7-8.5,2.6c-4.9,4.1-5.6,11.4-1.5,16.3c2.3,2.7,5.6,4.2,8.9,4.2c2.6,0,5.2-0.9,7.4-2.7
		c2.2-1.9,3.6-4.4,4-7c2-0.3,4.3-1.1,6.6-2.5C67.4,11,67.6,10.1,67.2,9.4z M54.1,18.7c-3.6,3-9.1,2.5-12.1-1.1s-2.5-9.1,1.1-12.1
		c1.6-1.3,3.5-2,5.5-2h0.8c2.3,0.2,4.3,1.3,5.8,3.1c1.1,1.4,1.8,3,1.9,4.6c-2.5,0-4.1-0.6-4.2-0.6c-0.8-0.3-1.6,0.1-1.9,0.9
		c-0.3,0.8,0.1,1.6,0.9,1.9c0.2,0.1,2.1,0.8,5.1,0.8C56.5,15.9,55.5,17.5,54.1,18.7z"/>
</g>
<g id="jimmies">
	<path id="five" fill="#C1CE20" d="M35.6,41.7c0-2.2-1.8-4-4-4s-4,1.8-4,4s1.8,4,4,4S35.6,43.9,35.6,41.7z M31.6,42.7
		c-0.5,0-1-0.4-1-1c0-0.5,0.4-1,1-1c0.5,0,1,0.4,1,1C32.6,42.2,32.1,42.7,31.6,42.7z"/>
	<path id="four" fill="#C1CE20" d="M46,47.6c0,2.2,1.8,4,4,4s4-1.8,4-4s-1.8-4-4-4S46,45.4,46,47.6z M50.9,47.6c0,0.5-0.4,1-1,1
		s-1-0.4-1-1c0-0.5,0.4-1,1-1S50.9,47,50.9,47.6z"/>
	<path id="three" fill="#C1CE20" d="M58.6,58.4c0,2.2,1.8,4,4,4c2.2,0,4-1.8,4-4s-1.8-4-4-4S58.6,56.2,58.6,58.4z M63.6,58.4
		c0,0.5-0.4,1-1,1s-1-0.4-1-1s0.4-1,1-1S63.6,57.9,63.6,58.4z"/>
	<path id="two" fill="#C1CE20" d="M64.3,41.7c0,2.2,1.8,4,4,4s4-1.8,4-4s-1.8-4-4-4S64.3,39.5,64.3,41.7z M69.2,41.7
		c0,0.5-0.4,1-1,1c-0.5,0-1-0.4-1-1c0-0.5,0.4-1,1-1S69.2,41.1,69.2,41.7z"/>
	<path id="one" fill="#C1CE20" d="M36.6,62.4c2.2,0,4-1.8,4-4s-1.8-4-4-4s-4,1.8-4,4S34.4,62.4,36.6,62.4z M36.6,57.4
		c0.5,0,1,0.4,1,1s-0.4,1-1,1c-0.5,0-1-0.4-1-1S36,57.4,36.6,57.4z"/>
</g>
</svg>
