<svg id="delivermoney" xmlns="http://www.w3.org/2000/svg" viewBox="0 0 100 100"><g id="delivermoney-icon"><path id="lower-money" fill="#C1CE20" d="M80.1 55.5l-2.2-4.9-1.1-.7c0-.2.1-.4.1-.6.2-.3.2-.7 0-1l-.3-.7-2-4.3-1.5-.6c.1-.6.1-1.2 0-1.7h.1l-2.3-4.9-1.1-.7c0-.2.1-.4.1-.6.2-.3.2-.7 0-1L67.6 29l-1.9-.8c-.6-.2-1.3 0-1.5.6-.2.6 0 1.3.6 1.5l1.1.5 1.6 3.5c.4.9-.5 2.5-2.3 4.3-.5.4-.5 1.2 0 1.6.2.2.5.3.8.3.3 0 .6-.1.8-.3.9-.9 1.6-1.7 2.1-2.5l.3.2 1.7 3.6c.3.7-.1 2.1-2.2 4.2s-5.2 4.1-8.7 5.8c-3.6 1.7-7.1 2.7-10.1 3-2.9.2-4.3-.4-4.6-1L43.7 50l.1-.3c.5.1 1 .1 1.5.1.4 0 .9 0 1.4-.1 3.2-.3 7-1.4 10.8-3.2 1.8-.8 3.5-1.8 5-2.8.5-.3.7-1.1.3-1.6-.3-.5-1.1-.7-1.6-.3-1.5.9-3 1.8-4.7 2.6-3.6 1.7-7.1 2.7-10.1 3-2.9.2-4.3-.4-4.6-1l-1.6-3.5.4-1.2c.2-.6-.2-1.3-.8-1.4-.6-.2-1.3.2-1.4.8l-.6 2.1 2.3 4.9c.1.3.4.5.7.6.2.1.4.3.6.4l-.4 1.2 2.3 4.9h.1c.4.5.9.9 1.7 1.2l-.3 1.1 2.3 4.9c.1.3.4.5.7.6.2.1.4.3.6.4l-.4 1.2 2.3 4.9h.1c.7.9 2.2 1.8 5 1.8.4 0 .9 0 1.4-.1 3.2-.3 7-1.4 10.8-3.2 7.1-3.4 13.4-8.6 12.5-12.5zm-4.4 4.4C73.6 62 70.5 64 67 65.7c-3.6 1.7-7.1 2.7-10.1 3-2.9.2-4.3-.4-4.6-1l-1.6-3.5.1-.3c.5.1 1 .1 1.5.1.4 0 .9 0 1.4-.1 3.2-.3 7-1.4 10.8-3.2 1.8-.8 3.5-1.8 5-2.8.5-.3.7-1.1.3-1.6-.3-.5-1.1-.7-1.6-.3-1.5.9-3 1.8-4.7 2.6-3.6 1.7-7.1 2.7-10.1 3-2.9.2-4.3-.4-4.6-1L47.3 57l.1-.5h1.1c.4 0 .9 0 1.4-.1 3.2-.3 7-1.4 10.8-3.2 3.8-1.8 7.1-4 9.4-6.3.8-.8 1.4-1.6 1.9-2.3l.7.3 1.6 3.5c.4.9-.5 2.5-2.3 4.3-.5.4-.5 1.2 0 1.6.2.2.5.3.8.3.3 0 .6-.1.8-.3.9-.9 1.6-1.7 2.1-2.5l.3.2 1.7 3.6c.4.8 0 2.2-2 4.3z"/><g id="truck" fill="#C1CE20"><path id="outer-wheel" d="M29.7 94.2c-5.6 0-10.2-4.6-10.2-10.2s4.6-10.2 10.2-10.2S39.9 78.4 39.9 84s-4.6 10.2-10.2 10.2zm0-18c-4.3 0-7.9 3.5-7.9 7.9 0 4.3 3.5 7.9 7.9 7.9s7.9-3.5 7.9-7.9-3.6-7.9-7.9-7.9z"/><path id="inner-wheel" d="M29.7 88.2c-2.3 0-4.1-1.8-4.1-4.1s1.8-4.1 4.1-4.1 4.1 1.8 4.1 4.1-1.8 4.1-4.1 4.1zm0-5.9c-1 0-1.8.8-1.8 1.8s.8 1.8 1.8 1.8 1.8-.8 1.8-1.8-.8-1.8-1.8-1.8z"/><path id="dot" d="M29 46.8v-.2-.2c0-.1 0-.1-.1-.2 0-.1-.1-.1-.1-.2s-.1-.1-.1-.2c-.1-.1-.1-.1-.2-.1s-.1-.1-.2-.1-.1 0-.2-.1h-.5c-.1 0-.1 0-.2.1-.1 0-.1.1-.2.1s-.1.1-.2.1c-.1.1-.1.1-.1.2s-.1.1-.1.2 0 .1-.1.2v.4c0 .1 0 .1.1.2 0 .1.1.1.1.2s.1.1.1.2c.2.2.5.3.8.3h.2c.1 0 .1 0 .2-.1.1 0 .1-.1.2-.1s.1-.1.2-.1c.1-.1.1-.1.1-.2s.1-.1.1-.2c.2-.1.2-.2.2-.2z"/><path id="body" d="M84.8 64.7L50.1 80.8 26.2 29.4l-4.1-8.8-20.9 9.7 1.7 3.6c.7 1.4 1.8 2.5 3.3 3 .6.2 1.3.4 2 .4.8 0 1.7-.2 2.4-.5l9.7-4.5v.1L25.1 43c.2.4.6.7 1 .7.2 0 .3 0 .5-.1.6-.3.8-.9.6-1.5l-4.9-10.7s0-.1-.1-.1l1.8-.8 25 53.4 34.7-16.1 1 2.1-36.9 17-16.7-36.5c-.3-.6-.9-.8-1.5-.6-.6.3-.8.9-.6 1.5l17.7 38.6 41-19-2.9-6.2zM9.5 34.6c-1.7.8-3.8.1-4.6-1.7l-.7-1.5L21 23.6l2.1 4.5.1.1-13.7 6.4z"/></g><g id="top-money"><path id="panel" fill="#FFF" d="M60.3 20.1l-.4-.1c-.3.8-.8 1.6-1.5 2.6-1.9 2.6-4.8 5.3-8.3 7.7-4.3 2.9-9.4 5.1-13 5.2l-.1.5 2.1 3.2c1 1.5 7 .6 14.2-4.2 3.3-2.2 6-4.7 7.7-7.1 1.7-2.4 1.9-3.8 1.5-4.4l-2.2-3.4z"/><path id="upper-money" fill="#C1CE20" d="M64.8 22.8l-2.9-4.5-1.3-.5c0-.6-.1-1.2-.2-1.6h.1l-5-7.4c-.8-1.2-2.7-2.4-7.1-1.3-3.1.8-6.7 2.5-10.2 4.8-3.5 2.3-6.4 5.1-8.3 7.7-2.7 3.7-2.3 5.9-1.5 7.1l4.6 6.8.4.6h.1c.4.4.9.7 1.6.9l-.2 1.3 2.6 3.9.4.6h.1c.8.8 2 1.1 3.5 1.1 3.7 0 9-2.2 13.4-5.3 5.9-4.3 11.3-10.5 9.9-14.2zm-8.2-1.6c-1.7 2.4-4.5 4.9-7.7 7.1-7.1 4.8-13.1 5.7-14.2 4.2l-2.6-3.9c3.7 0 9-2.2 13.4-5.3 3.5-2.3 6.4-5.1 8.3-7.7.8-1.1 1.3-2 1.6-2.8l2.6 3.9c.4.6.3 2.1-1.4 4.5zm-25.1 0c1.7-2.4 4.5-4.9 7.7-7.1 3.3-2.2 6.6-3.8 9.5-4.5 1.1-.3 1.9-.4 2.6-.4 1.1 0 1.8.3 2.1.7.4.6.2 2.1-1.5 4.5s-4.5 4.9-7.7 7.1c-7.1 4.8-13.1 5.7-14.2 4.2-.3-.6-.2-2.1 1.5-4.5zm29.6 6.6c-1.7 2.4-4.5 4.9-7.7 7.1-7.1 4.8-13.1 5.7-14.2 4.2L37 36l.1-.5c3.7-.1 8.7-2.3 13-5.2 3.5-2.3 6.4-5.1 8.3-7.7.7-.9 1.2-1.8 1.5-2.6l.4.2 2.2 3.3c.4.5.3 2-1.4 4.3z"/><path id="dollar-sign" fill="#C1CE20" d="M37 19.6l.9-.6c-.4-.5-.6-1.1-.6-1.6l.7-.2c0 .5.2 1 .5 1.5.4.6 1.1.8 1.6.4.5-.3.5-.9.3-1.7-.3-1.1-.3-2 .5-2.5.7-.5 1.6-.4 2.3.3l.9-.6.4.5-.8.6c.4.5.5 1 .5 1.3l-.7.2c0-.3-.1-.7-.5-1.3-.5-.7-1.1-.6-1.4-.4-.4.3-.4.8-.2 1.8.3 1.1.2 1.9-.6 2.5-.7.5-1.7.5-2.4-.3l-.9.6-.5-.5z"/></g></g></svg>
