<?xml version="1.0" encoding="utf-8"?>
<!-- Generator: Adobe Illustrator 20.1.0, SVG Export Plug-In . SVG Version: 6.00 Build 0)  -->
<svg version="1.1" id="desk-bell" xmlns="http://www.w3.org/2000/svg" xmlns:xlink="http://www.w3.org/1999/xlink" x="0px" y="0px"
	 width="100px" height="100px" viewBox="0 0 100 100" enable-background="new 0 0 100 100" xml:space="preserve">
<g id="noise" opacity="0">
	<path id="top-noise" fill="#C1CE20" d="M30.8,31.3c-0.4,0-0.7-0.2-1-0.5l-1.9-2.3c-0.5-0.5-0.4-1.4,0.2-1.8
		c0.5-0.5,1.4-0.4,1.8,0.2l1.9,2.3c0.5,0.5,0.4,1.4-0.2,1.8C31.4,31.2,31.1,31.3,30.8,31.3z M26.4,26c-0.4,0-0.7-0.2-1-0.5l-1.9-2.3
		c-0.5-0.5-0.4-1.4,0.2-1.8c0.5-0.5,1.4-0.4,1.8,0.2l1.9,2.3c0.5,0.5,0.4,1.4-0.2,1.8C27,25.9,26.7,26,26.4,26z M21.9,20.8
		c-0.4,0-0.7-0.2-1-0.5L19,18c-0.5-0.5-0.4-1.4,0.2-1.8c0.5-0.5,1.4-0.4,1.8,0.2l1.9,2.3c0.5,0.5,0.4,1.4-0.2,1.8
		C22.5,20.7,22.2,20.8,21.9,20.8z"/>
	<path id="bottom-noise" fill="#C1CE20" d="M6.8,45.7c-0.7,0-1.2-0.5-1.3-1.2c0-0.7,0.5-1.3,1.2-1.4l3-0.2c0.7,0,1.3,0.5,1.4,1.2
		c0,0.7-0.5,1.3-1.2,1.4L6.8,45.7C6.9,45.7,6.8,45.7,6.8,45.7z M13.7,45.3c-0.7,0-1.2-0.5-1.3-1.2c0-0.7,0.5-1.3,1.2-1.4l3-0.2
		c0.7,0,1.3,0.5,1.4,1.2c0,0.7-0.5,1.3-1.2,1.4L13.7,45.3C13.8,45.3,13.8,45.3,13.7,45.3z M20.6,44.9c-0.7,0-1.2-0.5-1.3-1.2
		c0-0.7,0.5-1.3,1.2-1.4l3-0.2c0.7,0,1.3,0.5,1.4,1.2c0,0.7-0.5,1.3-1.2,1.4L20.6,44.9C20.7,44.9,20.7,44.9,20.6,44.9z"/>
	<path id="center-noise" fill="#C1CE20" d="M25,36.9c-0.2,0-0.4,0-0.6-0.1l-2.6-1.3c-0.6-0.3-0.9-1.1-0.6-1.7
		c0.3-0.6,1.1-0.9,1.7-0.6l2.6,1.3c0.6,0.3,0.9,1.1,0.6,1.7C25.9,36.7,25.4,36.9,25,36.9z M18.8,33.8c-0.2,0-0.4,0-0.6-0.1l-2.6-1.3
		c-0.6-0.3-0.9-1.1-0.6-1.7c0.3-0.6,1.1-0.9,1.7-0.6l2.6,1.3c0.6,0.3,0.9,1.1,0.6,1.7C19.7,33.6,19.2,33.8,18.8,33.8z M12.6,30.7
		c-0.2,0-0.4,0-0.6-0.1l-2.6-1.3c-0.6-0.3-0.9-1.1-0.6-1.7c0.3-0.6,1.1-0.9,1.7-0.6l2.6,1.3c0.6,0.3,0.9,1.1,0.6,1.7
		C13.5,30.4,13.1,30.7,12.6,30.7z"/>
</g>
<g id="bell">
	<path fill="none" d="M11.3,91.8h77.2v2.4H11.3V91.8z M19.1,85.1h60.7v4H19.1V85.1z"/>
	<path fill="#C1CE20" d="M91,85.1v-7.6h-5.4C85,58.3,69.1,42.9,49.7,42.9c-5,0-9.9,1-14.4,3c-4.4,1.9-8.3,4.7-11.6,8.2
		c-0.5,0.5-0.5,1.3,0,1.8s1.3,0.5,1.8,0c6.4-6.7,14.9-10.4,24.2-10.4C68.1,45.5,83,60.4,83,78.8v1.4h5.4v2.4H11.3v-2.4h5.2v-1.4
		c0-5.2,1.1-10.1,3.4-14.7c0.3-0.6,0.1-1.4-0.6-1.7c-0.6-0.3-1.4-0.1-1.7,0.6c-2.3,4.6-3.5,9.5-3.7,14.6H8.7v7.6h7.9v4H8.7v7.6H91
		v-7.6h-8.6v-4H91C91,85.2,91,85.1,91,85.1z M88.4,91.8v2.4H11.3v-2.4H88.4z M79.8,89.2H19.1v-4h60.7V89.2z"/>
	<path id="dot" fill="#C1CE20" d="M21.3,60.2H21c-0.1,0-0.2,0-0.2-0.1c-0.1,0-0.2-0.1-0.2-0.1c-0.1,0-0.1-0.1-0.2-0.2l-0.2-0.2
		c0-0.1-0.1-0.1-0.1-0.2S20,59.2,20,59.2v-0.3v-0.3c0,0,0-0.2,0.1-0.2c0-0.1,0.1-0.2,0.1-0.2c0-0.1,0.1-0.1,0.2-0.2l0.2-0.2
		c0.1,0,0.1-0.1,0.2-0.1s0.2-0.1,0.2-0.1h0.5c0.1,0,0.2,0,0.2,0.1c0.1,0,0.2,0.1,0.2,0.1c0.1,0,0.1,0.1,0.2,0.2l0.2,0.2
		c0,0.1,0.1,0.1,0.1,0.2s0.1,0.2,0.1,0.2v0.6c0,0,0,0.2-0.1,0.2c0,0.1-0.1,0.2-0.1,0.2c0,0.1-0.1,0.1-0.2,0.2
		C22,60.1,21.7,60.2,21.3,60.2z"/>
	<path id="shine" fill="#C1CE20" d="M75.2,74.2c-0.6,0-1.1-0.4-1.2-1c-1.6-6.8-4.8-12-9.1-15.1c-3.3-2.3-6.1-2.6-6.1-2.6
		c-0.7-0.1-1.2-0.7-1.2-1.4c0.1-0.7,0.7-1.2,1.4-1.2c0.1,0,3.4,0.3,7.2,3c6.2,4.3,9,11.5,10.3,16.7c0.2,0.7-0.3,1.4-1,1.5
		C75.4,74.2,75.3,74.2,75.2,74.2z"/>
</g>
<path id="ringer" fill="#C1CE20" d="M49.7,45.5c-0.7,0-1.3-0.5-1.3-1.1v-4.8c0-0.6,0.6-1.1,1.3-1.1S51,39,51,39.6v4.8
	C51,45,50.5,45.5,49.7,45.5z"/>
<g id="ding">
	<circle id="button-panel" fill="#FFFFFF" cx="49.7" cy="34.3" r="4.1"/>
	<path id="button" fill="#C1CE20" d="M49.8,39.9c-3.1,0-5.7-2.5-5.7-5.7s2.5-5.7,5.7-5.7s5.7,2.5,5.7,5.7S53,39.9,49.8,39.9z
		 M49.8,31.2c-1.7,0-3.1,1.4-3.1,3.1c0,1.7,1.4,3.1,3.1,3.1s3.1-1.4,3.1-3.1C52.9,32.6,51.5,31.2,49.8,31.2z"/>
</g>
<g id="whole-finger">
	<path id="skin" fill="#FFFFFF" d="M85.9,12.5H43.1c0,0-4.3,5.7-3.3,7.4c2.7,4.8,21.9,2.4,21.9,2.4l17.2-4.9
		C78.9,17.4,85.9,12.5,85.9,12.5z"/>
	<path id="finger" fill="#C1CE20" d="M94.4,21H72.1l-3.9-1.6L64.3,21H45c-4.1,0-7.4-3.3-7.4-7.4c0-3.1,1.9-5.8,4.7-6.9
		c0.5,0,2.2,0.1,3.4,1.2c0.8,0.8,1.2,2,1.1,3.6v1.3h12.4l0.3-0.7c0.1-0.1,1.2-2.7,0.2-5l4.1-1.5l30.6-1.5c0.7,0,1.3-0.6,1.2-1.3
		c0-0.7-0.6-1.3-1.3-1.2L63.5,3h-0.2l-4.6,1.7l-1.9-0.4C56.5,4.1,56,4,55.5,3.8c-0.2-0.1-0.5,0-0.7,0l-0.4-0.1H45
		c-5.5,0-9.9,4.5-9.9,9.9s4.5,9.9,9.9,9.9h19.8l3.4-1.4l3.4,1.4h22.8c0.7,0,1.3-0.6,1.3-1.3C95.6,21.6,95.1,21,94.4,21z M57.4,10.3
		h-8.1c-0.2-1.6-0.7-3-1.7-4h6.5l2,0.4c0.6,0.3,1,0.7,1.3,1.2C57.7,8.8,57.6,9.7,57.4,10.3z"/>
</g>
</svg>
