<svg id="diamond_1_" xmlns="http://www.w3.org/2000/svg" viewBox="0 0 100 100"><g id="diamond-body" fill="#C1CE20"><path id="body" d="M73.1 41.4l-.4-.5H30.1l-.4.5-12.4 18.1-.6.8 13.2 14.4c.5.5 1.3.6 1.8.1s.6-1.3.1-1.8L21.3 61.5h15.5l11.1 29.1-10.4-11.3c-.5-.5-1.3-.6-1.8-.1s-.6 1.3-.1 1.8l15.8 17.3L86 60.4l-12.9-19zm-19.7 2h16.8l-5.4 14.3-11.4-14.3zM62.5 59H40.1l10.7-14.7L62.5 59zM38 57.6l-5.4-14.2h15.7L38 57.6zm25.3 3.9L51.4 92.8 39.5 61.5h23.8zm2.8 0h15.5L55 90.6l11.1-29.1zM67 59l5.4-14.1L82 59H67zm-46.2 0l9.7-14.1L35.8 59h-15z"/><path id="dot" d="M33.7 78.3c-.3 0-.7-.1-.9-.4l-.2-.2c0-.1-.1-.1-.1-.2s-.1-.2-.1-.2v-.2-.2c0-.1 0-.2.1-.2 0-.1.1-.2.1-.2 0-.1.1-.1.2-.2l.2-.2c.1 0 .1-.1.2-.1s.2-.1.2-.1c.4-.1.9.1 1.1.3.2.2.4.6.4.9 0 .3-.1.7-.4.9l-.2.2c-.1 0-.1.1-.2.1s-.2.1-.2.1c0-.1-.1-.1-.2-.1z"/></g><g id="shine" fill="#C1CE20"><path id="three" d="M50.8 31.6c-.7 0-1.3-.6-1.3-1.3V18.9c0-.7.6-1.3 1.3-1.3.7 0 1.3.6 1.3 1.3v11.4c0 .7-.6 1.3-1.3 1.3z"/><path id="four" d="M66.1 34.1c-.2 0-.4 0-.5-.1-.6-.3-.9-1-.6-1.7l4.7-10.4c.3-.6 1-.9 1.7-.6s.9 1 .6 1.7l-4.7 10.4c-.2.4-.7.7-1.2.7z"/><path id="five" d="M78.7 41.3c-.4 0-.8-.2-1-.5-.4-.6-.3-1.4.2-1.8l9.1-6.9c.6-.4 1.4-.3 1.8.2.4.6.3 1.4-.2 1.8L79.5 41c-.2.2-.5.3-.8.3z"/><path id="two" d="M35.1 34.1c-.5 0-.9-.3-1.2-.7L29.2 23c-.3-.6 0-1.4.6-1.7.6-.3 1.4 0 1.7.6l4.7 10.4c.3.6 0 1.4-.6 1.7-.2.1-.3.1-.5.1z"/><path id="one" d="M22.5 41.3c-.3 0-.5-.1-.8-.3l-9.1-6.9c-.6-.4-.7-1.2-.2-1.8.4-.6 1.2-.7 1.8-.2l9.1 6.9c.6.4.7 1.2.2 1.8-.3.3-.6.5-1 .5z"/></g></svg>
