<svg id="educationallearning" xmlns="http://www.w3.org/2000/svg" viewBox="0 0 100 100"><g id="diploma" fill="#C1CE20"><path id="pages" d="M94.4 45.8V41H70.6c-2.3 0-4.4 1.2-5.7 2.9-1.3-1.8-3.3-2.9-5.7-2.9H35.5v4.8h-4.8V99H41c.7 0 1.3-.6 1.3-1.3 0-.7-.6-1.3-1.3-1.3h-7.7v-48h2.2v45.9h59V48.4h2.2v47.9H49.4c-.7 0-1.3.6-1.3 1.3 0 .7.6 1.3 1.3 1.3h49.7V45.8h-4.7zm-30.7 46H38.1V43.7h21.2c2.4 0 4.4 2 4.4 4.4v43.7zm28.1 0H66.3V48.1c0-2.4 2-4.4 4.4-4.4h21.2v48.1z"/><path id="line-thirteen" d="M49.9 55.4h-7.1c-.7 0-1.3-.6-1.3-1.3 0-.7.6-1.3 1.3-1.3h7.1c.7 0 1.3.6 1.3 1.3 0 .7-.6 1.3-1.3 1.3z"/><path id="line-twelve" d="M59.1 61H42.8c-.7 0-1.3-.6-1.3-1.3s.6-1.3 1.3-1.3h16.3c.7 0 1.3.6 1.3 1.3s-.6 1.3-1.3 1.3z"/><path id="line-eleven" d="M59.1 66.6H42.8c-.7 0-1.3-.6-1.3-1.3 0-.7.6-1.3 1.3-1.3h16.3c.7 0 1.3.6 1.3 1.3 0 .8-.6 1.3-1.3 1.3z"/><path id="line-nine" d="M59.1 72.2H42.8c-.7 0-1.3-.6-1.3-1.3 0-.7.6-1.3 1.3-1.3h16.3c.7 0 1.3.6 1.3 1.3 0 .8-.6 1.3-1.3 1.3z"/><path id="line-eight" d="M53.6 77.8H42.8c-.7 0-1.3-.6-1.3-1.3 0-.7.6-1.3 1.3-1.3h10.8c.7 0 1.3.6 1.3 1.3 0 .8-.6 1.3-1.3 1.3z"/><path id="line-seven" d="M59.1 77.8h-3.2c-.7 0-1.3-.6-1.3-1.3 0-.7.6-1.3 1.3-1.3h3.2c.7 0 1.3.6 1.3 1.3 0 .8-.6 1.3-1.3 1.3z"/><path id="line-six_1_" d="M59.1 83.4H42.8c-.7 0-1.3-.6-1.3-1.3 0-.7.6-1.3 1.3-1.3h16.3c.7 0 1.3.6 1.3 1.3 0 .8-.6 1.3-1.3 1.3z"/><path id="line-five_1_" d="M87.2 66.6h-11c-.7 0-1.3-.6-1.3-1.3 0-.7.6-1.3 1.3-1.3h11c.7 0 1.3.6 1.3 1.3 0 .8-.6 1.3-1.3 1.3z"/><path id="line-four_1_" d="M73.4 66.6h-2.5c-.7 0-1.3-.6-1.3-1.3 0-.7.6-1.3 1.3-1.3h2.5c.7 0 1.3.6 1.3 1.3 0 .8-.6 1.3-1.3 1.3z"/><path id="line-three_1_" d="M87.2 72.2H70.9c-.7 0-1.3-.6-1.3-1.3 0-.7.6-1.3 1.3-1.3h16.3c.7 0 1.3.6 1.3 1.3 0 .8-.6 1.3-1.3 1.3z"/><path id="line-two_1_" d="M87.2 77.8H70.9c-.7 0-1.3-.6-1.3-1.3 0-.7.6-1.3 1.3-1.3h16.3c.7 0 1.3.6 1.3 1.3 0 .8-.6 1.3-1.3 1.3z"/><path id="line-one_1_" d="M85.1 83.4H70.9c-.7 0-1.3-.6-1.3-1.3 0-.7.6-1.3 1.3-1.3h14.3c.7 0 1.3.6 1.3 1.3-.1.8-.6 1.3-1.4 1.3z"/><path id="inner-dot" d="M87.1 83.4h-.3c-.1 0-.2 0-.2-.1-.1 0-.2-.1-.2-.1-.1 0-.1-.1-.2-.2l-.2-.2c0-.1-.1-.1-.1-.2s-.1-.2-.1-.2v-.3-.3c0-.1 0-.2.1-.2 0-.1.1-.2.1-.2 0-.1.1-.1.2-.2.2-.2.6-.4.9-.4.3 0 .7.1.9.4l.2.2c0 .1.1.1.1.2s.1.2.1.2v.6c0 .1 0 .2-.1.2 0 .1-.1.2-.1.2 0 .1-.1.1-.2.2l-.2.2c-.1 0-.1.1-.2.1s-.2.1-.2.1h-.3z"/><path id="pic" d="M86.2 61H76.1V49.7c0-1.3 1-2.3 2.3-2.3h7.8c1.3 0 2.3 1 2.3 2.3v9c0 1.3-1.1 2.3-2.3 2.3zm-7.5-2.6h7.1V50h-7.1v8.4z"/><path id="outer-dot" d="M45.2 99c-.3 0-.7-.1-.9-.4-.2-.2-.4-.6-.4-.9v-.3c0-.1 0-.2.1-.2 0-.1.1-.2.1-.2 0-.1.1-.1.2-.2l.2-.2c.1 0 .1-.1.2-.1s.2-.1.2-.1h.5c.1 0 .2 0 .2.1.1 0 .2.1.2.1.1 0 .1.1.2.2l.2.2c0 .1.1.1.1.2s.1.2.1.2v.3c0 .3-.1.7-.4.9-.1.3-.4.4-.8.4z"/></g><g id="cap"><path id="panel" fill="#FFF" d="M60.4 13.7L64.3 30S58 39.1 43.6 42.6c-4.7 1.1-8.9 1.3-12.5 1.1 0 0-5.1-.6-7.7-1.4s-4-1.5-4-1.5l-3.8-16"/><path id="hat" fill="#C1CE20" d="M73.1 7l-.4-1.8-38.5-4.1-.5-.1L1.6 21.9l-.8.5.4 1.8 13.2 1.3 3.9 16.1.5.3c.1 0 1.6.8 4.3 1.6 2.7.8 7.7 1.4 7.9 1.4h.1c.9.1 1.9.1 2.8.1 3.3 0 6.7-.4 10-1.2 14.7-3.5 21.2-12.7 21.5-13.1l.3-.5-3.8-16 10.4-6.8.8-.4zM39.6 25.7l-11-1.2c-.7-.1-1.4.4-1.4 1.2s.4 1.4 1.2 1.4l11.9 1.3.4-.2 19-12.4L63 29.7c-1.5 1.8-7.7 8.8-19.6 11.6-4 1-8.1 1.3-12 1-.4-.1-5.1-.6-7.4-1.3-1.5-.5-2.7-.9-3.3-1.2l-3.4-14.1 2 .2c.7.1 1.3-.5 1.4-1.2.1-.7-.5-1.4-1.2-1.4L6.1 22 34.3 3.7l33.5 3.6-28.2 18.4z"/><path id="string" fill="#C1CE20" d="M23.1 32.6c-.1 0-.1 0 0 0-.7 0-1.3-.6-1.3-1.3v-7.1l14.4-10.5c.6-.4 1.4-.3 1.8.3.4.6.3 1.4-.3 1.8l-13.4 9.7v5.8c0 .7-.5 1.3-1.2 1.3z"/><path id="cap-dot" fill="#C1CE20" d="M23 36.7c-.7 0-1.3-.6-1.3-1.3s.6-1.3 1.3-1.3c.7 0 1.3.6 1.3 1.3s-.5 1.3-1.3 1.3z"/></g><path id="tassel" fill="#C1CE20" d="M28.6 65.3l-1.5-8.2c.4-.7.6-1.4.6-2.3 0-1.9-1.3-3.4-2.9-4l-.3-11.6c0-.7-.6-1.3-1.3-1.3-.7 0-1.3.6-1.3 1.3l.3 11.5c-1.8.5-3.1 2.3-3.1 4.2 0 .9.3 1.8.9 2.5l-1.1 8.1c-.1.7.4 1.4 1.1 1.5h.2c.6 0 1.2-.5 1.3-1.1l.7-5.7.2 8.3c0 .7.6 1.3 1.3 1.3.7 0 1.3-.6 1.3-1.3l-.2-9.5 1.3 6.8c.1.6.7 1.1 1.3 1.1h.2c.7-.2 1.2-.9 1-1.6zm-5.2-8.7c-.4 0-.7-.1-1-.3l-.3-.3c-.2-.3-.3-.6-.4-1 0-.9.7-1.7 1.7-1.7.9 0 1.7.7 1.7 1.7 0 .8-.7 1.6-1.7 1.6z"/></svg>