<svg id="engage" xmlns="http://www.w3.org/2000/svg" viewBox="0 0 100 100"><g id="girl" fill="#C1CE20"><path id="head" d="M50.5 2.7c-11.9 0-21.7 9.7-21.7 21.6-.1.7-.2 2.9-.1 12.8 0 5.9.1 11.8.1 11.9 0 .7.6 1.3 1.3 1.3.7 0 1.3-.6 1.3-1.3-.1-8.6-.3-22.6-.1-24.1l.1-.1v-.2C31.4 14 40 5.5 50.5 5.5c10.6 0 19.1 8.6 19.1 19.1v26c0 .7.6 1.3 1.3 1.3.7 0 1.3-.6 1.3-1.3v-26c0-12.1-9.7-21.9-21.7-21.9z"/><path id="face" d="M67.6 26.5c0-.7-.7-1.3-1.4-1.2-8.6.4-15.3-2.1-19.4-4.3-4.5-2.4-7-4.9-7-5-.5-.5-1.3-.5-1.8 0s-.5 1.3 0 1.8c.1.1 1.7 1.7 4.6 3.7-4.8 3.9-9.6 3.8-9.7 3.8-.7 0-1.3.5-1.3 1.3 0 .7.5 1.3 1.3 1.3h.5v7.5c0 9.4 7.7 17.1 17.1 17.1 9.4 0 17.1-7.7 17.1-17.1v-8.1-.3-.5zM50.5 49.8c-8 0-14.5-6.5-14.5-14.5v-7.8c2.3-.5 5.7-1.7 8.9-4.6l.6.3c4.1 2.2 10.6 4.7 18.8 4.7h.7v7.4c0 8-6.5 14.5-14.5 14.5z"/><path id="eye-left" d="M42.4 34h-.3c-.1 0-.2 0-.2-.1-.1 0-.2-.1-.2-.1-.1 0-.1-.1-.2-.2l-.2-.2c0-.1-.1-.1-.1-.2s-.1-.2-.1-.2v-.3-.3c0-.1 0-.2.1-.2 0-.1.1-.2.1-.2 0-.1.1-.1.2-.2l.2-.2c.1 0 .1-.1.2-.1s.2-.1.2-.1h.5c.1 0 .2 0 .2.1.1 0 .2.1.2.1.1 0 .1.1.2.2l.2.2c0 .1.1.1.1.2s.1.2.1.2v.6c0 .1 0 .2-.1.2 0 .1-.1.2-.1.2 0 .1-.1.1-.2.2l-.2.2c-.1 0-.1.1-.2.1s-.2.1-.2.1c-.1-.1-.2 0-.2 0z"/><path id="eye-right" d="M58.7 34h-.3c-.1 0-.2 0-.2-.1-.1 0-.2-.1-.2-.1-.1 0-.1-.1-.2-.2l-.2-.2c0-.1-.1-.1-.1-.2s-.1-.2-.1-.2v-.3-.3c0-.1 0-.2.1-.2 0-.1.1-.2.1-.2 0-.1.1-.1.2-.2l.2-.2c.1 0 .1-.1.2-.1s.2-.1.2-.1h.5c.1 0 .2 0 .2.1.1 0 .2.1.2.1.1 0 .1.1.2.2l.2.2c0 .1.1.1.1.2s.1.2.1.2v.6c0 .1 0 .2-.1.2 0 .1-.1.2-.1.2 0 .1-.1.1-.2.2l-.2.2c-.1 0-.1.1-.2.1s-.2.1-.2.1c0-.1-.1 0-.2 0z"/><path id="nose" d="M52.1 36h-1.4c.3-.2.6-.5.7-.9.2-.2.3-.5.3-.8v-3.8c0-.7-.6-1.3-1.3-1.3s-1.4.5-1.4 1.3v3.3c-.9.4-1.5 1.3-1.5 2.3 0 1.4 1.1 2.5 2.5 2.5h2.1c.7 0 1.3-.6 1.3-1.3 0-.7-.6-1.3-1.3-1.3z"/><path id="brow-left" d="M45.2 30.5c-.2 0-.5-.1-.7-.2-2.5-1.6-4.1-.2-4.1-.1-.5.5-1.3.5-1.8-.1-.5-.5-.5-1.3.1-1.8 1.1-1 3.9-2.3 7.3-.1.6.4.8 1.2.4 1.8-.4.3-.8.5-1.2.5z"/><path id="brow-right" d="M61.6 30.5c-.2 0-.5-.1-.7-.2-2.5-1.6-4.1-.2-4.1-.1-.5.5-1.3.5-1.8-.1-.5-.5-.5-1.3.1-1.8 1.1-1 3.9-2.3 7.3-.1.6.4.8 1.2.4 1.8-.4.3-.8.5-1.2.5z"/></g><g id="computer_1_"><path id="table" fill="#C1CE20" d="M91.8 97.3H8.2c-2 0-3.6-1.6-3.6-3.6v-2.6c0-2 1.6-3.6 3.6-3.6h83.7c2 0 3.6 1.6 3.6 3.6v2.6c-.1 2-1.7 3.6-3.7 3.6zM8.2 90.1c-.5 0-1 .4-1 1v2.6c0 .5.4 1 1 1h83.7c.5 0 1-.4 1-1v-2.6c0-.5-.4-1-1-1H8.2z"/><path id="top-cover" fill="#FFF" d="M91.2 38.2H8.8c-1.6 0-2.9 1.3-2.9 2.9v40.4c0 1.6 1.3 2.9 2.9 2.9h10.3v4.2h14.1v-4.2h34.5v4.2h14.1v-4.2h9.4c1.6 0 2.9-1.3 2.9-2.9V41.1c0-1.6-1.3-2.9-2.9-2.9z"/><path id="cover" fill="#C1CE20" d="M83.1 89.9H66.4v-4.2H34.5v4.2H17.8v-4.2h-9c-2.3 0-4.2-1.9-4.2-4.2V41.1c0-2.3 1.9-4.2 4.2-4.2h82.4c2.3 0 4.2 1.9 4.2 4.2v40.4c0 2.3-1.9 4.2-4.2 4.2h-8.1v4.2zM69 87.3h11.5v-4.2h10.7c.9 0 1.6-.7 1.6-1.6V41.1c0-.9-.7-1.6-1.6-1.6H8.8c-.9 0-1.6.7-1.6 1.6v40.4c0 .9.7 1.6 1.6 1.6h11.6v4.2h11.5v-4.2H69v4.2z"/><path id="label" fill="#C1CE20" d="M50 67.7c-3.8 0-6.9-3.1-6.9-6.9 0-3.8 3.1-6.9 6.9-6.9 3.8 0 6.9 3.1 6.9 6.9 0 3.8-3.1 6.9-6.9 6.9zm0-11.2c-2.4 0-4.3 1.9-4.3 4.3s1.9 4.3 4.3 4.3 4.3-1.9 4.3-4.3-1.9-4.3-4.3-4.3z"/></g></svg>