<svg id="ferriswheel" xmlns="http://www.w3.org/2000/svg" viewBox="0 0 100 100"><path id="base" fill="#C1CE20" d="M78.7 96.6H72c0-.1 0-.3-.1-.4L51.1 44.9v-.1-.1c-.1-.2-.2-.3-.4-.4 0 0-.1 0-.1-.1h-.1-.1-.1-.1-.1-.1-.1-.1-.1-.1-.1-.1-.1-.1-.1-.1s-.1 0-.1.1c0 0-.1 0-.1.1l-.3.3v.2L27.9 96.2c-.1.1-.1.3-.1.4h-7.5c-.7 0-1.3.6-1.3 1.3 0 .7.6 1.3 1.3 1.3h58.5c.7 0 1.3-.6 1.3-1.3-.1-.7-.7-1.3-1.4-1.3zM49.9 48.8l19.4 47.7H30.5l19.4-47.7z"/><g id="wheel" fill="#C1CE20"><path id="body" d="M86.9 38.6c-1.9 0-3.6.8-4.8 2-.8-5.2-2.8-10.2-5.9-14.4 1.8 0 3.5-.7 4.8-2 1.3-1.3 2-3 2-4.9 0-1.8-.7-3.6-2-4.9-1.3-1.3-3-2-4.9-2-1.8 0-3.6.7-4.9 2-1.3 1.3-2 3-2 4.8-4.3-3.2-9.2-5.2-14.5-6 1.2-1.2 1.9-2.9 1.9-4.8 0-3.8-3.1-6.9-6.9-6.9-3.8 0-6.9 3.1-6.9 6.9 0 1.9.7 3.5 1.9 4.8-5.2.8-10.1 2.8-14.4 6 0-1.7-.7-3.4-2-4.7-2.7-2.7-7-2.7-9.7 0-1.3 1.3-2 3-2 4.9 0 1.8.7 3.6 2 4.9 1.3 1.3 3 2 4.7 2-2.3 3.1-4 6.6-5.1 10.3v.1c0 .1-.1.2-.1.4-.3 1.2-.6 2.4-.8 3.7-1.2-1.2-3-2-4.9-2-3.8 0-6.9 3.1-6.9 6.9 0 3.8 3.1 6.9 6.9 6.9 1.9 0 3.6-.8 4.9-2 .8 5.4 3 10.5 6.2 14.7-1.8 0-3.7.6-5 2-2.7 2.7-2.7 7 0 9.7 1.3 1.3 3 2 4.9 2 1.8 0 3.6-.7 4.9-2 1.4-1.4 2.1-3.2 2-5.1 4.2 3.2 9.3 5.3 14.8 6.1-1.3 1.3-2.2 3-2.2 5 0 3.8 3.1 6.9 6.9 6.9 3.8 0 6.9-3.1 6.9-6.9 0-2-.8-3.8-2.2-5 5.5-1 10.5-3.1 14.7-6.3v.1c0 1.8.7 3.6 2 4.9 1.3 1.3 3.1 2 4.9 2 1 0 2.1-.2 3-.7.6-.3.9-1.1.6-1.7-.3-.6-1.1-.9-1.7-.6-1.7.8-3.6.5-4.9-.8-1.7-1.7-1.7-4.4 0-6.1.8-.8 1.9-1.3 3-1.3s2.2.4 3 1.3c.4.4.7.9.9 1.4.3.7 1 1 1.7.7.7-.3 1-1 .7-1.7-.3-.9-.9-1.6-1.5-2.3-1.3-1.3-3-2-4.9-2h-.1c0-.1.1-.1.1-.2.1-.1.2-.3.3-.4 3-4.1 4.9-8.9 5.6-13.9 1.2 1.2 2.9 2 4.8 2 3.8 0 6.9-3.1 6.9-6.9.2-3.8-2.9-6.9-6.7-6.9zM74.4 62.8c-.1.1-.2.3-.3.4v.1c-.6.9-1.3 1.7-2.1 2.5l-19-19h26.8c-.2 5.9-2.2 11.4-5.4 16zM20.8 37.7c0-.2.1-.3.1-.5 1.3-4.5 3.7-8.7 6.8-12l19.1 19.1h-27c.1-2.3.4-4.5 1-6.6zm27.8 10.9v26.9c-7.1-.3-13.8-3-19-7.8l19-19.1zM27.7 65.8c-4.8-5.2-7.6-11.9-7.9-19h27l-19.1 19zm1.8-42.5c5.1-4.6 11.7-7.6 19.1-7.9v26.9l-19.1-19zm21.7 25.3l19 19c-5.2 4.8-11.9 7.6-19 7.9V48.6zm0-33.1c7.3.3 13.9 3.3 19 7.9l-19 19V15.5zM53 44.2l19-19c4.6 5.1 7.5 11.7 7.8 19H53zm20.1-28c.8-.8 1.9-1.3 3-1.3s2.2.4 3 1.3c.8.8 1.3 1.9 1.3 3s-.4 2.2-1.3 3c-.8.8-1.9 1.3-3 1.3s-2.2-.4-3-1.3c-1.7-1.6-1.7-4.3 0-6zM49.8 4.1c2.4 0 4.3 1.9 4.3 4.3s-1.9 4.3-4.3 4.3-4.3-1.9-4.3-4.3 1.9-4.3 4.3-4.3zM20.6 22.3c-.8-.8-1.3-1.9-1.3-3s.4-2.2 1.3-3c.8-.8 1.9-1.3 3-1.3s2.2.4 3 1.3c1.7 1.7 1.7 4.4 0 6.1-1.6 1.6-4.4 1.6-6-.1zm-7.9 27.5c-2.4 0-4.3-1.9-4.3-4.3s1.9-4.3 4.3-4.3 4.3 1.9 4.3 4.3-2 4.3-4.3 4.3zm13.8 25.1c-.8.8-1.9 1.3-3 1.3s-2.2-.4-3-1.3c-1.7-1.7-1.7-4.4 0-6.1.8-.8 1.9-1.3 3-1.3s2.2.4 3 1.3c1.7 1.7 1.7 4.5 0 6.1zm23.3 12.2c-2.4 0-4.3-1.9-4.3-4.3s1.9-4.3 4.3-4.3 4.3 1.9 4.3 4.3-1.9 4.3-4.3 4.3zm37.1-37.3c-2.4 0-4.3-1.9-4.3-4.3s1.9-4.3 4.3-4.3 4.3 1.9 4.3 4.3-1.9 4.3-4.3 4.3z"/><path id="dot" d="M82.7 73.2c0-.1-.1-.2-.1-.2 0-.1-.1-.1-.2-.2l-.2-.2c-.1 0-.1-.1-.2-.1s-.2-.1-.2-.1c-.4-.1-.9.1-1.2.4l-.2.2c0 .1-.1.1-.1.2s-.1.2-.1.2v.3c0 .3.1.7.4.9l.2.2c.1 0 .1.1.2.1s.2.1.2.1h.6c.1 0 .2 0 .2-.1.1 0 .2-.1.2-.1.1 0 .1-.1.2-.2.2-.2.4-.6.4-.9v-.3c0-.1 0-.2-.1-.2z"/></g></svg>