<svg id="funnel" xmlns="http://www.w3.org/2000/svg" viewBox="0 0 100 100"><g id="tube" fill="#C1CE20"><path id="funnel-body" d="M77.1 23.7c-7.3-1.8-16.9-2.8-27.1-2.8-10.2 0-19.8 1-27.1 2.8-8 2-12.1 4.6-12.1 7.8v10.1c0 1.8.9 3.4 2.3 4.4l23.6 15.8c.8.5 1.2 1.4 1.2 2.3v11c0 .3.1.5.2.7 1 2.7 5.3 4.6 10.8 4.6s9.9-1.9 10.8-4.6c.1-.2.2-.4.2-.7v-11c0-.9.5-1.8 1.3-2.3L86 46.4c2-1.2 3.1-3.4 3.1-5.7v-9.2c.1-3.2-4-5.8-12-7.8zm7.6 20.6L60 59.7c-1.5 1-2.5 2.6-2.5 4.5v10.5c0 .7-.8 1.5-2.1 2.1-1.7.8-4 1.2-6.4 1.2-2.4 0-4.7-.4-6.4-1.2-1.3-.6-2.1-1.4-2.1-2.1V64.1c0-1.8-.9-3.4-2.3-4.4L14.6 43.9c-.8-.5-1.2-1.4-1.2-2.3v-6c4 2.9 11.8 4.5 17 5.2.7.1 1.3-.4 1.4-1.1.1-.7-.4-1.3-1.1-1.4-5.4-.8-9.9-1.9-13.1-3.2-2.7-1.1-4.3-2.5-4.3-3.5 0-1.3 2.7-3.5 10.1-5.4 7.1-1.7 16.5-2.7 26.5-2.7s19.4 1 26.5 2.7c7.5 1.8 10.1 4 10.1 5.4 0 1.3-2.7 3.5-10.1 5.4-7 1.6-16.4 2.6-26.4 2.6-3.6 0-7.2-.1-10.7-.4-.7-.1-1.3.5-1.3 1.2-.1.7.5 1.3 1.2 1.3 3.5.3 7.2.4 10.8.4 10.2 0 19.8-1 27.1-2.8 4.4-1.1 7.5-2.3 9.5-3.8v5.2c0 1.5-.7 2.8-1.9 3.6z"/><path id="dot" d="M34.9 41.3h-.2c-.1 0-.2 0-.2-.1-.1 0-.1-.1-.2-.1-.2-.1-.3-.1-.3-.2l-.2-.2c0-.1-.1-.1-.1-.2s-.1-.2-.1-.2v-.2-.2c0-.1 0-.2.1-.2 0-.1.1-.1.1-.2s.1-.1.2-.2l.2-.2c.1 0 .1-.1.2-.1s.2-.1.2-.1h.5c.1 0 .2 0 .2.1.1 0 .1.1.2.1s.1.1.2.2l.2.2c0 .1.1.1.1.2s.1.2.1.2v.4c0 .1 0 .2-.1.2 0 .1-.1.1-.1.2s-.1.1-.2.2l-.2.2c-.1 0-.1.1-.2.1s-.2.1-.2.1h-.2z"/></g><g id="center-drip"><circle id="center-drip-inner" fill="#FFF" cx="49" cy="40.8" r="6.2"/><path id="center-drip-outer" fill="#C1CE20" d="M49 48.2c-4.1 0-7.4-3.3-7.4-7.4s3.3-7.4 7.4-7.4 7.4 3.3 7.4 7.4-3.3 7.4-7.4 7.4zm0-12.3c-2.7 0-4.9 2.2-4.9 4.9s2.2 4.9 4.9 4.9 4.9-2.2 4.9-4.9-2.2-4.9-4.9-4.9z"/></g><g id="left-drip"><circle id="left-drip-inner" fill="#FFF" cx="36.7" cy="9.5" r="6.2"/><path id="left-drip-outer" fill="#C1CE20" d="M36.7 16.9c-4.1 0-7.4-3.3-7.4-7.4S32.6 2 36.7 2s7.4 3.3 7.4 7.4-3.3 7.5-7.4 7.5zm0-12.3c-2.7 0-4.9 2.2-4.9 4.9s2.2 4.9 4.9 4.9 4.9-2.2 4.9-4.9-2.2-4.9-4.9-4.9z"/></g><g id="right-drip"><circle id="right-drip-inner" fill="#FFF" cx="69.3" cy="17.4" r="6.2"/><path id="right-drip-outer" fill="#C1CE20" d="M69.3 24.8c-4.1 0-7.4-3.3-7.4-7.4s3.3-7.4 7.4-7.4 7.4 3.3 7.4 7.4-3.3 7.4-7.4 7.4zm0-12.3c-2.7 0-4.9 2.2-4.9 4.9s2.2 4.9 4.9 4.9 4.9-2.2 4.9-4.9-2.2-4.9-4.9-4.9z"/></g><path id="panel_1_" fill="#FFF" d="M77.1 39.3c-7.3 1.8-16.9 2.8-27.1 2.8-3.7 0-7.3-.1-10.8-.4-.7-.1-8.1-.8-8.8-.9-5.2-.8-13-2.3-17-5.2v6c0 .9.5 1.8 1.2 2.3l23.6 15.8c1.5 1 2.3 2.6 2.3 4.4v10.5c0 .7.8 1.5 2.1 2.1 1.7.8 4 1.2 6.4 1.2 2.4 0 4.7-.4 6.4-1.2 1.3-.6 2.1-1.4 2.1-2.1V64.1c0-1.8.9-3.5 2.5-4.5l24.6-15.4c1.2-.8 2-2.1 2-3.6v-5.2c-2 1.6-5.1 2.8-9.5 3.9z"/></svg>