<?xml version="1.0" encoding="utf-8"?>
<!-- Generator: Adobe Illustrator 20.1.0, SVG Export Plug-In . SVG Version: 6.00 Build 0)  -->
<svg version="1.1" id="gavel" xmlns="http://www.w3.org/2000/svg" xmlns:xlink="http://www.w3.org/1999/xlink" x="0px" y="0px"
	 viewBox="0 0 100 100" enable-background="new 0 0 100 100" xml:space="preserve">
<g id="noise" opacity="0">
	<path id="lower-noise" fill="#C1CE20" d="M32.1,82.9c-0.5,0-1-0.4-1.2-0.9c-0.2-0.7,0.2-1.3,0.9-1.5l2.1-0.5
		c0.7-0.2,1.3,0.2,1.5,0.9c0.2,0.7-0.2,1.3-0.9,1.5l-2.1,0.5H32.1z M37.8,81.4c-0.5,0-1-0.4-1.2-0.9c-0.2-0.7,0.2-1.3,0.9-1.5
		l2.8-0.7c0.7-0.2,1.3,0.2,1.5,0.9c0.2,0.7-0.2,1.3-0.9,1.5l-2.8,0.7H37.8z M44.2,79.8c-0.5,0-1-0.4-1.2-0.9
		c-0.2-0.7,0.2-1.3,0.9-1.5l2.8-0.7c0.7-0.2,1.3,0.2,1.5,0.9c0.2,0.7-0.2,1.3-0.9,1.5l-2.8,0.7C44.5,79.7,44.3,79.8,44.2,79.8z"/>
	<path id="upper-noise" fill="#C1CE20" d="M47.4,66.1c-0.1,0-0.3,0-0.4-0.1l-2.7-0.9c-0.6-0.2-1-0.9-0.8-1.6c0.2-0.6,0.9-1,1.6-0.8
		l2.7,0.9c0.6,0.2,1,0.9,0.8,1.6C48.4,65.8,47.9,66.1,47.4,66.1z M41,64.1c-0.1,0-0.3,0-0.4-0.1l-2.7-0.9c-0.6-0.2-1-0.9-0.8-1.6
		c0.2-0.6,0.9-1,1.6-0.8l2.7,0.9c0.6,0.2,1,0.9,0.8,1.6C42,63.7,41.5,64.1,41,64.1z M34.7,62c-0.1,0-0.3,0-0.4-0.1l-1.9-0.6
		c-0.6-0.2-1-0.9-0.8-1.6c0.2-0.6,0.9-1,1.6-0.8l1.9,0.6c0.6,0.2,1,0.9,0.8,1.6C35.7,61.7,35.2,62,34.7,62z"/>
	<path id="mid-noise" fill="#C1CE20" d="M47.4,72.9C47.3,72.9,47.3,72.9,47.4,72.9h-2.9c-0.7,0-1.2-0.6-1.2-1.2
		c0-0.7,0.6-1.2,1.2-1.2h2.9c0.7,0,1.2,0.6,1.2,1.2S48,72.9,47.4,72.9z M40.7,72.8h-2.9c-0.7,0-1.2-0.6-1.2-1.2
		c0-0.7,0.6-1.2,1.2-1.2h2.9c0.7,0,1.2,0.6,1.2,1.2C41.9,72.3,41.4,72.8,40.7,72.8z M34.1,72.8C34,72.8,34,72.8,34.1,72.8h-2.9
		c-0.7,0-1.2-0.6-1.2-1.2c0-0.7,0.6-1.2,1.2-1.2h2.9c0.7,0,1.2,0.6,1.2,1.2S34.7,72.8,34.1,72.8z M27.4,72.7h-2.1
		c-0.7,0-1.2-0.6-1.2-1.2c0-0.7,0.6-1.2,1.2-1.2h2.1c0.7,0,1.2,0.6,1.2,1.2C28.6,72.2,28.1,72.7,27.4,72.7z"/>
</g>
<g id="down-gavel">
	<path id="dot" fill="#C1CE20" d="M73.8,21.3c-0.1,0-0.2-0.1-0.2-0.1h-0.4c-0.1,0-0.2,0-0.2,0.1c-0.2,0.1-0.3,0.1-0.4,0.3l-0.2,0.2
		c0,0.1-0.1,0.1-0.1,0.2s-0.1,0.2-0.1,0.2v0.4c0,0.1,0,0.2,0.1,0.2c0,0.1,0.1,0.1,0.1,0.2s0.1,0.1,0.1,0.2l0.2,0.2
		c0.1,0,0.1,0.1,0.2,0.1s0.1,0.1,0.2,0.1h0.4c0.1,0,0.2,0,0.2-0.1c0.1,0,0.2-0.1,0.2-0.1c0.1,0,0.1-0.1,0.2-0.1l0.2-0.2
		c0-0.1,0.1-0.1,0.1-0.2s0.1-0.2,0.1-0.2c0.1-0.3,0-0.7-0.2-0.9c0-0.1-0.1-0.1-0.1-0.2L74,21.4C73.9,21.4,73.9,21.3,73.8,21.3z"/>
	<path id="hammer" fill="#C1CE20" d="M88.4,41.5l-1.5,0.9L76.3,25.3c-0.4-0.6-1.1-0.8-1.7-0.4s-0.8,1.1-0.4,1.7l10.6,17.2l-18,11.1
		L48.1,24.5l18-11.1l4,6.5c0.4,0.6,1.1,0.8,1.7,0.4s0.8-1.1,0.4-1.7l-4-6.5l1.3-0.8c1.3-0.8,1.7-2.4,0.9-3.7l-3-4.9
		C66.6,1.4,65,1,63.7,1.8L39,17c-1.3,0.8-1.7,2.4-0.9,3.7l3,4.9c0.8,1.3,2.4,1.7,3.7,0.9l1.2-0.7l10.3,16.7l-12.7,7.8l-1-1.6l-1-1.6
		l9.7-5.9c0.6-0.4,0.8-1.1,0.4-1.7c-0.4-0.6-1.1-0.8-1.7-0.4l-10.2,6.3c-1-0.5-2.2-0.4-3.3,0.1L8.4,60.8c-0.9,0.5-1.5,1.3-1.8,2.3
		S6.5,65.1,7,66l4.1,6.7c0.5,0.9,1.4,1.5,2.4,1.7c0.9,0.2,1.9,0,2.7-0.5c0.1,0,0.1-0.1,0.2-0.1l26.3-18.2c1-0.7,1.5-1.7,1.6-2.9
		l13.2-8.1l7.1,11.5L63.1,57c-0.5,0.3-0.9,0.9-1.1,1.5c-0.1,0.6,0,1.2,0.3,1.8l3.3,5.4c0.7,1.1,2.1,1.5,3.2,0.8L94.1,51
		c0.5-0.3,0.9-0.9,1.1-1.5c0.1-0.6,0-1.2-0.3-1.8l-3.3-5.4C90.9,41.1,89.5,40.8,88.4,41.5z M43.5,24.4c-0.1,0.1-0.3,0-0.3-0.1
		l-3-4.9c-0.1-0.1,0-0.3,0.1-0.3L64.9,4h0.2c0,0,0.1,0,0.1,0.1l3,4.9c0.1,0.1,0,0.3-0.1,0.3L43.5,24.4z M41.4,53.6L15,71.8
		C14.8,72,14.4,72,14.1,72c-0.3-0.1-0.6-0.3-0.8-0.6l-4.1-6.7c-0.2-0.3-0.2-0.6-0.1-1c0.1-0.3,0.3-0.6,0.5-0.7h0.1l28.1-15.3
		c0.6-0.3,1.3-0.1,1.6,0.4l1.2,1.9l1.2,1.9C42.1,52.5,41.9,53.2,41.4,53.6L41.4,53.6z M67.7,64.3l-3.2-5.2l25.1-15.4l3.2,5.2
		L67.7,64.3z"/>
</g>
<g id="base" opacity="0.95">
	<path id="main-base" fill="#C1CE20" d="M89.1,87.3h-1.2V83c0-3.6-2.9-6.5-6.5-6.5h-23c-3.6,0-6.5,2.9-6.5,6.5v4.3h-1.2
		c-2.8,0-5,2.2-5,5v4.1H94v-4.1C94.1,89.5,91.8,87.3,89.1,87.3z M91.6,94H48.2v-1.7c0-1.4,1.1-2.5,2.5-2.5H59c0.7,0,1.2-0.6,1.2-1.2
		c0-0.7-0.6-1.2-1.2-1.2h-4.6V83c0-2.2,1.8-4,4-4h23.1c2.2,0,4,1.8,4,4v4.3H67.6c-0.7,0-1.2,0.6-1.2,1.2c0,0.7,0.6,1.2,1.2,1.2H89
		c1.4,0,2.5,1.1,2.5,2.5L91.6,94L91.6,94z"/>
	<path id="base-dot" fill="#C1CE20" d="M64.4,88.1c0-0.1-0.1-0.1-0.1-0.2s-0.1-0.1-0.2-0.2c-0.3-0.3-0.7-0.4-1.1-0.3
		c-0.1,0-0.2,0-0.2,0.1c-0.1,0-0.1,0.1-0.2,0.1s-0.1,0.1-0.2,0.2L62.2,88c0,0.1-0.1,0.1-0.1,0.2S62,88.4,62,88.4v0.4
		c0,0.1,0,0.2,0.1,0.2c0,0.1,0.1,0.1,0.1,0.2s0.1,0.1,0.2,0.2l0.2,0.2c0.1,0,0.1,0.1,0.2,0.1s0.2,0.1,0.2,0.1h0.4
		c0.1,0,0.2,0,0.2-0.1c0.1,0,0.1-0.1,0.2-0.1s0.1-0.1,0.2-0.2l0.2-0.2c0-0.1,0.1-0.1,0.1-0.2s0.1-0.2,0.1-0.2v-0.2v-0.2
		C64.5,88.2,64.5,88.1,64.4,88.1z"/>
</g>
<g id="lower-spark" opacity="0">
	<path fill="#C1CE20" d="M14.2,86.4c-0.7,0-1.2-0.6-1.2-1.2c0-0.7,0.6-1.2,1.2-1.2c2.2,0,3.8-0.6,4.8-1.7c1.3-1.5,0.9-3.8,0.9-3.8
		c-0.1-0.7,0.3-1.3,1-1.4s1.3,0.3,1.4,1c0,0.1,0.6,3.3-1.4,5.8C19.5,85.6,17.3,86.4,14.2,86.4z"/>
	<path fill="#C1CE20" d="M21.1,93.4c-0.7,0-1.2-0.6-1.2-1.2c0-2.2-0.6-3.8-1.7-4.8c-1.5-1.3-3.8-0.9-3.8-0.9c-0.7,0.1-1.3-0.3-1.4-1
		c-0.1-0.7,0.3-1.3,1-1.4c0.1,0,3.3-0.6,5.8,1.4c1.7,1.4,2.6,3.7,2.6,6.7C22.4,92.8,21.8,93.4,21.1,93.4z"/>
	<path fill="#C1CE20" d="M21.2,93.3c-0.6,0-1.1-0.4-1.2-1c0-0.1-0.6-3.3,1.4-5.8c1.4-1.7,3.7-2.6,6.7-2.6c0.7,0,1.2,0.6,1.2,1.2
		c0,0.7-0.6,1.2-1.2,1.2c-2.3,0-3.9,0.6-4.8,1.7c-1.3,1.5-0.9,3.7-0.9,3.8c0.1,0.7-0.3,1.3-1,1.4C21.4,93.3,21.3,93.3,21.2,93.3z"/>
	<path fill="#C1CE20" d="M27.1,86.4c-1.2,0-3-0.2-4.6-1.5c-1.7-1.4-2.6-3.7-2.6-6.7c0-0.7,0.6-1.2,1.2-1.2c0.7,0,1.2,0.6,1.2,1.2
		c0,2.2,0.6,3.8,1.7,4.8c1.5,1.3,3.8,0.9,3.8,0.9c0.7-0.1,1.3,0.3,1.4,1s-0.3,1.3-1,1.4C28.3,86.4,27.8,86.4,27.1,86.4z"/>
</g>
<g id="upper-spark" opacity="0">
	<path fill="none" d="M15.6,65.8c-0.5-0.4-0.9-0.9-1.3-1.5c-0.1,0.1-0.2,0.3-0.3,0.4c-0.4,0.5-0.9,1-1.5,1.3
		c0.1,0.1,0.3,0.2,0.4,0.3c0.5,0.4,0.9,0.9,1.3,1.5c0.1-0.1,0.2-0.3,0.3-0.4c0.4-0.5,0.9-1,1.5-1.3C15.9,66,15.7,65.9,15.6,65.8z"/>
	<path fill="#C1CE20" d="M22.4,65.9L22.4,65.9c-0.1-0.8-0.8-1.2-1.4-1.1c0,0-2.2,0.4-3.8-0.9c-1.1-0.9-1.7-2.5-1.7-4.8
		c0-0.7-0.6-1.2-1.2-1.2c-0.2,0-0.5,0.1-0.7,0.2c-0.5,0.2-0.7,0.8-0.6,1.3c0,0,0.4,2.2-0.9,3.8c-0.9,1.1-2.5,1.7-4.8,1.7
		c-0.7,0-1.2,0.6-1.2,1.2v0.3c0.1,0.7,0.8,1.1,1.4,1c0,0,2.2-0.4,3.8,0.9c1.1,0.9,1.7,2.5,1.7,4.8c0,0.7,0.6,1.2,1.2,1.2
		c0.2,0,0.5-0.1,0.7-0.2c0.5-0.2,0.7-0.8,0.6-1.3c0,0-0.4-2.2,0.9-3.8c0.9-1.1,2.5-1.7,4.8-1.7c0.7,0,1.2-0.6,1.2-1.2
		C22.4,66.1,22.4,65.9,22.4,65.9z M14.5,67.4c-0.1,0.1-0.2,0.3-0.3,0.4c-0.4-0.6-0.8-1.1-1.3-1.5c-0.1-0.1-0.3-0.2-0.4-0.3
		c0.6-0.4,1.1-0.8,1.5-1.3c0.1-0.1,0.2-0.3,0.3-0.4c0.4,0.6,0.8,1.1,1.3,1.5c0.1,0.1,0.3,0.2,0.4,0.3C15.4,66.5,14.9,66.9,14.5,67.4
		z"/>
</g>
</svg>
