<svg id="glasses" xmlns="http://www.w3.org/2000/svg" viewBox="0 0 100 100"><g id="dashes" fill="#C1CE20" opacity="0"><path id="dash-six" d="M5.4 93.9c-.2 0-.5-.1-.7-.2-.6-.4-.8-1.2-.4-1.8L6 89.4c.4-.6 1.2-.8 1.8-.4s.8 1.2.4 1.8l-1.7 2.5c-.3.4-.7.6-1.1.6zm3.9-5.8c-.2 0-.5-.1-.7-.2-.6-.4-.8-1.2-.4-1.8l1.7-2.5c.4-.6 1.2-.8 1.8-.4s.8 1.2.4 1.8l-1.7 2.5c-.3.4-.7.6-1.1.6zm3.8-5.8c-.2 0-.5-.1-.7-.2-.6-.4-.8-1.2-.4-1.8l1.7-2.5c.4-.6 1.2-.8 1.8-.4.6.4.8 1.2.4 1.8l-1.7 2.5c-.2.4-.7.6-1.1.6z"/><path id="dash-five" d="M38.3 93.9c-.4 0-.8-.2-1.1-.6l-1.7-2.5c-.4-.6-.2-1.4.4-1.8.6-.4 1.4-.2 1.8.4l1.7 2.5c.4.6.2 1.4-.4 1.8-.2.1-.5.2-.7.2zm-3.9-5.8c-.4 0-.8-.2-1.1-.6L31.7 85c-.4-.6-.2-1.4.4-1.8.6-.4 1.4-.2 1.8.4l1.7 2.5c.4.6.2 1.4-.4 1.8-.3.1-.5.2-.8.2zm-3.8-5.8c-.4 0-.8-.2-1.1-.6l-1.7-2.5c-.4-.6-.2-1.4.4-1.8s1.4-.2 1.8.4l1.7 2.5c.4.6.2 1.4-.4 1.8-.2.1-.5.2-.7.2z"/><path id="dash-four" d="M21.7 96.1c-.7 0-1.3-.6-1.3-1.3v-3c0-.7.6-1.3 1.3-1.3s1.3.6 1.3 1.3v3c0 .7-.6 1.3-1.3 1.3zm0-7c-.7 0-1.3-.6-1.3-1.3v-3c0-.7.6-1.3 1.3-1.3s1.3.6 1.3 1.3v3c0 .7-.6 1.3-1.3 1.3zm0-6.9c-.7 0-1.3-.6-1.3-1.3v-3c0-.7.6-1.3 1.3-1.3s1.3.6 1.3 1.3v3c0 .7-.6 1.3-1.3 1.3z"/><path id="dash-three" d="M59.3 93.9c-.2 0-.5-.1-.7-.2-.6-.4-.8-1.2-.4-1.8l1.7-2.5c.4-.6 1.2-.8 1.8-.4s.8 1.2.4 1.8l-1.7 2.5c-.3.4-.7.6-1.1.6zm3.9-5.8c-.2 0-.5-.1-.7-.2-.6-.4-.8-1.2-.4-1.8l1.7-2.5c.4-.6 1.2-.8 1.8-.4s.8 1.2.4 1.8l-1.7 2.5c-.3.4-.7.6-1.1.6zm3.8-5.8c-.2 0-.5-.1-.7-.2-.6-.4-.8-1.2-.4-1.8l1.7-2.5c.4-.6 1.2-.8 1.8-.4.6.4.8 1.2.4 1.8l-1.7 2.5c-.2.4-.7.6-1.1.6z"/><path id="dash-two" d="M92.2 93.9c-.4 0-.8-.2-1.1-.6l-1.7-2.5c-.4-.6-.2-1.4.4-1.8s1.4-.2 1.8.4l1.7 2.5c.4.6.2 1.4-.4 1.8-.2.1-.5.2-.7.2zm-3.9-5.8c-.4 0-.8-.2-1.1-.6L85.6 85c-.4-.6-.2-1.4.4-1.8s1.4-.2 1.8.4l1.7 2.5c.4.6.2 1.4-.4 1.8-.3.1-.5.2-.8.2zm-3.9-5.8c-.4 0-.8-.2-1.1-.6l-1.7-2.5c-.4-.6-.2-1.4.4-1.8s1.4-.2 1.8.4l1.7 2.5c.4.6.2 1.4-.4 1.8-.2.1-.4.2-.7.2z"/><path id="dash-one" d="M75.6 96.1c-.7 0-1.3-.6-1.3-1.3v-3c0-.7.6-1.3 1.3-1.3.7 0 1.3.6 1.3 1.3v3c0 .7-.6 1.3-1.3 1.3zm0-7c-.7 0-1.3-.6-1.3-1.3v-3c0-.7.6-1.3 1.3-1.3.7 0 1.3.6 1.3 1.3v3c0 .7-.6 1.3-1.3 1.3zm0-6.9c-.7 0-1.3-.6-1.3-1.3v-3c0-.7.6-1.3 1.3-1.3.7 0 1.3.6 1.3 1.3v3c0 .7-.6 1.3-1.3 1.3z"/></g><g id="eyewear" fill="#C1CE20"><path id="frames" d="M97 38.1c0-.2-.1-.4-.3-.5l-5-5.9c-.5-.5-1.3-.6-1.8-.2-.5.5-.6 1.3-.2 1.8l4 4.8H24.3l13-25c.5.2 1.2.5 2 .8 2.6.9 4.3.9 5.4.1.4-.3 1.1-1.1.8-2.7-.6-2.8-2.7-4.9-5-7.1l-.1-.1c-2-2-3.8-2.9-5.4-2.8-1 .1-1.9.5-2.5 1.4L3.3 37.6c-.1.2-.2.3-.3.5v34.8h39.2l7.9-7.5 8.8 7.5H97V38.1zM34.5 4.4c.3-.4.5-.5.7-.5.8-.1 2 .7 3.4 2.1l.1.1c2.1 2 3.8 3.8 4.2 5.8v.2c-.7.1-3-.4-5.7-1.7l-1.1-.6-14.5 28c0 .1-.1.2-.1.3H6.2L34.5 4.4zm6.6 65.9H5.6V40.7h37.9l10.6 17.5L50 62l-8.9 8.3zm53.3 0H59.8L52 63.6l5.5-4.9-10.9-18h47.9l-.1 29.6z"/><path id="left-eye" d="M39.1 45.6h-2.8c-.7 0-1.3.6-1.3 1.3s.6 1.3 1.3 1.3h2.8c.4 0 .7.3.7.7v11.4c0 .4-.3.7-.7.7H12.2c-.4 0-.7-.3-.7-.7V48.9c0-.4.3-.7.7-.7h13.4c.7 0 1.3-.6 1.3-1.3s-.6-1.3-1.3-1.3H12.2c-1.8 0-3.3 1.5-3.3 3.3v11.4c0 1.8 1.5 3.3 3.3 3.3h26.9c1.8 0 3.3-1.5 3.3-3.3V48.9c-.1-1.8-1.5-3.3-3.3-3.3z"/><path id="dot" d="M30.1 47.4c0 .1.1.2.1.2 0 .1.1.1.2.2l.2.2c.1 0 .1.1.2.1s.2.1.2.1h.6c.1 0 .2 0 .2-.1.1 0 .2-.1.2-.1.1 0 .1-.1.2-.2l.2-.2c0-.1.1-.1.1-.2s.1-.2.1-.2v-.3-.3s0-.2-.1-.2c0-.1-.1-.2-.1-.2 0-.1-.1-.1-.2-.2l-.2-.2c-.1 0-.1-.1-.2-.1s-.2-.1-.2-.1h-.5c-.1 0-.2 0-.2.1-.1 0-.2.1-.2.1-.1 0-.1.1-.2.2l-.2.2c0 .1-.1.1-.1.2s-.1.2-.1.2v.8z"/><path id="right-eye" d="M61.9 63.5h26.9c1.8 0 3.3-1.5 3.3-3.3V48.9c0-1.8-1.5-3.3-3.3-3.3H61.9c-1.8 0-3.3 1.5-3.3 3.3v11.4c0 1.7 1.5 3.2 3.3 3.2zm-.7-14.6c0-.4.3-.7.7-.7h26.9c.4 0 .7.3.7.7v11.4c0 .4-.3.7-.7.7H61.9c-.4 0-.7-.3-.7-.7V48.9z"/><path id="arm" d="M55.4 14.1c1 .8 2.7.8 5.4-.1.7-.3 1.4-.5 2-.8l11.5 22.1c.2.4.7.7 1.1.7.2 0 .4 0 .6-.1.6-.3.9-1.1.6-1.7L63.9 9.7l-1.1.6c-2.2 1.1-4.9 1.9-5.7 1.7v-.2c.4-2 2.2-3.8 4.2-5.8h.1c1.4-1.3 2.6-2.1 3.4-2.1.2 0 .4.1.7.4l17.8 21.3c.5.5 1.3.6 1.8.2.5-.5.6-1.3.2-1.8L67.5 2.7c-.7-.8-1.5-1.3-2.5-1.4-1.6-.1-3.4.8-5.4 2.8l-.1.1c-2.3 2.2-4.4 4.3-5 7.1-.3 1.6.4 2.4.9 2.8z"/><path id="arm-dot" d="M86.1 29.1c0 .1.1.2.1.2 0 .1.1.1.2.2l.2.2c.1 0 .1.1.2.1s.2.1.2.1h.3c.3 0 .7-.1.9-.4l.2-.2c0-.1.1-.1.1-.2s.1-.2.1-.2v-.3-.3c0-.1 0-.2-.1-.2 0-.1-.1-.2-.1-.2 0-.1-.1-.1-.2-.2-.3-.3-.7-.4-1.2-.4-.1 0-.2 0-.2.1-.1 0-.2.1-.2.1-.1 0-.1.1-.2.2l-.2.2c0 .1-.1.1-.1.2s-.1.2-.1.2v.6c.1 0 .1.1.1.2z"/></g></svg>
