<svg id="growmoney" xmlns="http://www.w3.org/2000/svg" viewBox="0 0 100 100"><path id="pot" fill="#C1CE20" d="M74.6 68.6H30.9l2.6 12h2.8l2 18.5h29.1l2-18.5h2.8l2.4-12zm-9.6 28H40.6l-1.7-15.9h27.8L65 96.6zM70 78H35.6l-1.4-6.8h37.2L70 78z"/><path id="stem" fill="#C1CE20" d="M59.3 62.3c-.3-.6-1.1-.9-1.8-.5L54 63.7V43.1c0-.7-.6-1.3-1.3-1.3s-1.3.6-1.3 1.3v17.1l-4.2-2.6c-.6-.4-1.4-.2-1.8.4-.4.6-.2 1.4.4 1.8l5.5 3.5V70c0 .7.6 1.3 1.3 1.3s1.3-.6 1.3-1.3v-3.3l4.8-2.6c.8-.4 1-1.2.6-1.8z"/><path id="flower" fill="#C1CE20" d="M52.8 44.4c-10 0-18-8.1-18-18s8.1-18 18-18c10 0 18 8.1 18 18s-8.1 18-18 18zm0-33.5c-8.5 0-15.4 6.9-15.4 15.4s6.9 15.4 15.4 15.4 15.4-6.9 15.4-15.4-6.9-15.4-15.4-15.4z"/><path id="left-leaf" fill="#C1CE20" d="M38.1 61.5c-3 0-5.7-.7-7.9-2-4.4-2.7-6.9-7.9-7.4-15.5l-.1-1 1-.3c.4-.1 10.2-2.9 17.3 2 4 2.8 6.3 7.4 6.9 13.8l.1.9-.9.4c-.1 0-2.5 1.1-5.7 1.5-1.1.1-2.2.2-3.3.2zM25.5 44.9c.6 6.1 2.6 10.2 6 12.3 4.9 3 11.4 1.2 13.7.4-.6-5-2.5-8.7-5.6-10.8-4.9-3.4-11.6-2.4-14.1-1.9z"/><path id="right-leaf" fill="#C1CE20" d="M63.9 65.1c-3.4 0-6.1-.9-6.3-.9l-1-.3.1-1c.3-5 2.1-8.8 5.3-11.3 5.7-4.5 13.9-3 14.2-3l1.1.2v1.1c0 6-1.8 10.4-5.2 12.9-2.5 1.8-5.5 2.3-8.2 2.3zM59.5 62c2.2.5 7.5 1.3 11.2-1.3 2.5-1.8 3.9-5.1 4.1-9.6-2.2-.2-7.4-.3-11.1 2.6-2.4 1.7-3.8 4.6-4.2 8.3z"/><g id="pedals" fill="#C1CE20"><path id="nine-pedal" d="M73.8 39.8c-.2 0-.4-.1-.6-.2l-3-1.7c-.6-.4-.8-1.2-.5-1.8.4-.6 1.2-.8 1.8-.5l3 1.7c.6.4.8 1.2.5 1.8-.3.4-.7.7-1.2.7z"/><path id="eight-pedal" d="M77.1 27.6h-3.5c-.7 0-1.3-.6-1.3-1.3 0-.7.6-1.3 1.3-1.3h3.5c.7 0 1.3.6 1.3 1.3 0 .7-.6 1.3-1.3 1.3z"/><path id="seven-pedal" d="M71.1 17c-.4 0-.9-.2-1.1-.7-.4-.6-.1-1.4.5-1.8l2.8-1.6c.6-.4 1.4-.1 1.8.5.4.6.1 1.4-.5 1.8l-2.8 1.6c-.3.2-.5.2-.7.2z"/><path id="six-pedal" d="M63.2 9.5c-.2 0-.4-.1-.6-.2-.6-.3-.9-1.1-.5-1.8l1.7-3c.4-.5 1.2-.8 1.8-.4.6.4.8 1.2.5 1.8l-1.7 3c-.3.4-.7.6-1.2.6z"/><path id="five-pedal" d="M52.8 6.9c-.7 0-1.3-.6-1.3-1.3V2c0-.7.6-1.3 1.3-1.3s1.3.6 1.3 1.3v3.7c0 .7-.6 1.2-1.3 1.2z"/><path id="four-pedal" d="M42.5 9.2c-.4 0-.8-.2-1.1-.5L39.5 6c-.4-.6-.3-1.4.3-1.8.6-.4 1.4-.3 1.8.3l1.9 2.7c.5.5.4 1.3-.2 1.8-.3.1-.5.2-.8.2z"/><path id="three-pedal" d="M34.6 17.1c-.2 0-.4-.1-.6-.2l-2.9-1.7c-.6-.4-.8-1.2-.5-1.8.4-.6 1.2-.8 1.8-.5l2.9 1.7c.6.4.8 1.2.5 1.8-.3.5-.8.7-1.2.7z"/><path id="two-pedal" d="M31.8 27.6h-3.4c-.7 0-1.3-.6-1.3-1.3 0-.7.6-1.3 1.3-1.3h3.4c.7 0 1.3.6 1.3 1.3 0 .7-.6 1.3-1.3 1.3z"/><path id="one-pedal" d="M31.5 39.3c-.6 0-1.1-.4-1.3-1-.2-.7.2-1.4.9-1.6l3.2-.9c.7-.2 1.4.2 1.6.9.2.7-.2 1.4-.9 1.6l-3.2.9c0 .1-.2.1-.3.1z"/></g><g id="flower-center" fill="#C1CE20"><path id="dolar-sign" d="M51.6 38.3v-3.1c-1.8 0-3.6-.6-4.7-1.3l.7-2c1.1.7 2.7 1.3 4.4 1.3 2.2 0 3.6-1.3 3.6-3s-1.2-2.7-3.4-3.6c-3.1-1.2-5-2.6-5-5.3 0-2.5 1.8-4.5 4.6-4.9v-3.1h1.9v3c1.8.1 3.1.5 4 1.1l-.8 2c-.6-.4-1.9-1-3.8-1-2.3 0-3.2 1.4-3.2 2.6 0 1.6 1.1 2.4 3.8 3.5 3.1 1.3 4.7 2.9 4.7 5.6 0 2.4-1.7 4.7-4.8 5.2v3.2h-2z"/><path id="left-seed" d="M43.1 34.3c-.4 0-.8-.2-1.1-.6-1.5-2.2-2.3-4.7-2.3-7.4 0-2.6.8-5.1 2.2-7.3.4-.6 1.2-.7 1.8-.3.6.4.7 1.2.3 1.8-1.2 1.7-1.8 3.7-1.8 5.8 0 2.1.6 4.2 1.8 5.9.4.6.3 1.4-.3 1.8-.1.2-.3.3-.6.3z"/><path id="right-seed" d="M62.8 33.5c-.2 0-.5-.1-.7-.2-.6-.4-.8-1.2-.5-1.8.9-1.6 1.4-3.4 1.4-5.3 0-2.1-.6-4.1-1.8-5.8-.4-.6-.2-1.4.3-1.8.6-.4 1.4-.2 1.8.3 1.5 2.2 2.2 4.7 2.2 7.3 0 2.3-.6 4.6-1.8 6.6 0 .5-.5.7-.9.7z"/></g></svg>