<svg id="hands" xmlns="http://www.w3.org/2000/svg" viewBox="0 0 100 100"><path id="left-guy" fill="#C1CE20" d="M34.8 62.8c0-.1-.1-.2-.1-.3l-9.9-14.9v-3.2h1.1v-9.7h-2.4v-5.6c0-.7-.6-1.3-1.3-1.3-.7 0-1.3.6-1.3 1.3v5.6H8.1V2.8c0-.7-.6-1.3-1.3-1.3s-1.3.6-1.3 1.3v31.9H3.1v9.7h1.6v4.2l-3 6.1c-.2.2-.4.5-.4.9v15.8c.2 2 2 3.6 4.1 3.6.5 0 1-.1 1.5-.3v.2c.1 2.2 1.9 4 4.1 4 .7 0 1.3-.2 1.9-.5.7 1.4 2.1 2.4 3.7 2.4 1.2 0 2.3-.5 3.1-1.4.7.6 1.6.9 2.6.9 2.3 0 4.1-1.8 4.1-4.1V65l1.5 2.1c.6.9 1.5 1.5 2.5 1.7.3.1.6.1.9.1.8 0 1.6-.2 2.2-.7.9-.6 1.5-1.5 1.8-2.6.1-.9 0-1.9-.5-2.8zM23.3 37.3v4.5H5.7v-4.5h17.6zm9.4 27.8c-.1.4-.3.7-.7 1-.3.2-.7.3-1.1.2-.4-.1-.7-.3-1-.7l-3.8-5.4v-.1H26h-.1-.1-.1-.1-.1-.1-.1-.1-.1-.1-.1-.1-.1-.1-.1-.1-.1-.1-.1-.1v16.5c0 .8-.7 1.5-1.5 1.5s-1.5-.7-1.5-1.5V68c0-.7-.6-1.3-1.3-1.3-.7 0-1.3.6-1.3 1.3v9.1c0 .8-.7 1.5-1.5 1.5s-1.5-.7-1.5-1.5v-9.5c0-.7-.6-1.3-1.3-1.3-.7 0-1.3.6-1.3 1.3v7.6c0 .8-.7 1.5-1.5 1.5s-1.5-.7-1.5-1.5v-9.3c0-.7-.6-1.3-1.3-1.3-.7 0-1.3.6-1.3 1.3v5.4c0 .8-.7 1.5-1.5 1.5s-1.5-.7-1.5-1.5V56l3.4-6.8v-4.8h15v4l10.2 15.4c0 .1.1.2.1.2-.2.3-.1.7-.2 1.1z"/><path id="upper-girl" fill="#C1CE20" d="M96.7 5.6H62.9c-.4-1.7-1.9-3-3.7-3-1.7 0-3.2 1.2-3.6 2.8l-5.2-.5-6.2-3.1c-.2-.2-.5-.4-.9-.4H27.6c-2 .2-3.6 2-3.6 4.1 0 .5.1 1 .3 1.5h-.1-.1c-2.2.1-4 1.9-4 4.1 0 .7.2 1.3.5 1.9-1.4.7-2.4 2.1-2.4 3.7 0 1.2.5 2.3 1.4 3.1-.6.7-.9 1.6-.9 2.6 0 2.3 1.8 4.1 4.1 4.1H34L31.9 28c-1.8 1.3-2.3 3.8-1.1 5.6.8 1.2 2.1 1.9 3.4 1.9.7 0 1.4-.2 2-.5.1 0 .2-.1.3-.1l15-9.9 4.1-.8c.4 1.7 1.9 2.9 3.7 2.9 1.9 0 3.5-1.4 3.8-3.3h8.2c.7 0 1.3-.6 1.3-1.3 0-.7-.6-1.3-1.3-1.3H63c-.2 0-.3 0-.4.1-.2-.3-.4-.5-.6-.8.8-.7 1.2-1.7 1.2-2.8s-.5-2.1-1.2-2.8c.8-.7 1.2-1.7 1.2-2.8 0-1.1-.5-2.1-1.2-2.8.3-.3.6-.7.8-1H96.9c.7 0 1.3-.6 1.3-1.3s-.8-1.4-1.5-1.4zm-37.5-.4c.7 0 1.2.5 1.2 1.2s-.5 1.2-1.2 1.2S58 7.1 58 6.4s.6-1.2 1.2-1.2zm-8.8 17.2L35.2 32.5c-.1 0-.2.1-.2.1-.7.5-1.6.3-2.1-.4s-.3-1.6.4-2.1l5.4-3.8h.1v-.1-.1-.1-.1-.1-.1-.1-.1-.1-.1-.1-.1-.1-.1-.1-.1-.1-.1-.1-.1-.1-.1h-.1-.1-.1-.1-.1-.1-.1-.1-.1-.1-.1-15c-.8 0-1.5-.7-1.5-1.5s.7-1.5 1.5-1.5h8.6c.7 0 1.3-.6 1.3-1.3 0-.7-.6-1.3-1.3-1.3h-9.1c-.8 0-1.5-.7-1.5-1.5s.7-1.5 1.5-1.5h9.5c.7 0 1.3-.6 1.3-1.3 0-.7-.6-1.3-1.3-1.3h-7.6c-.8 0-1.5-.7-1.5-1.5s.7-1.5 1.5-1.5h9.3c.7 0 1.3-.6 1.3-1.3s-.6-1.3-1.3-1.3H28c-.8 0-1.5-.7-1.5-1.5s.7-1.5 1.5-1.5h14.8l6.8 3.3 6 .6h.1c.2.5.5.9.9 1.2-.8.7-1.2 1.7-1.2 2.8 0 1.1.5 2.1 1.2 2.8-.8.7-1.2 1.7-1.2 2.8s.5 2.1 1.2 2.8c-.3.3-.6.6-.8 1h-.3l-5.1.8zM58 12c0-.7.5-1.2 1.2-1.2s1.2.5 1.2 1.2-.5 1.2-1.2 1.2c-.6 0-1.2-.5-1.2-1.2zm0 5.6c0-.7.5-1.2 1.2-1.2s1.2.5 1.2 1.2-.5 1.2-1.2 1.2c-.6 0-1.2-.5-1.2-1.2zm1.2 6.8c-.7 0-1.2-.5-1.2-1.2s.5-1.2 1.2-1.2 1.2.5 1.2 1.2-.5 1.2-1.2 1.2z"/><g id="right-guy" fill="#C1CE20"><path id="rt-hand" d="M98.7 27.3c-.2-2-2-3.6-4.1-3.6-.5 0-1 .1-1.5.3v-.1-.1c-.1-2.2-1.9-4-4.1-4-.7 0-1.3.2-1.9.5-.7-1.4-2.1-2.4-3.7-2.4-1.2 0-2.3.5-3.1 1.4-.7-.6-1.6-.9-2.6-.9-2.3 0-4.1 1.8-4.1 4.1v11.2l-1.5-2.1c-1.3-1.8-3.8-2.3-5.6-1.1-.9.5-1.5 1.5-1.7 2.5-.2 1-.1 2 .4 2.8 0 .1.1.2.1.3L75.2 51v3.2h-1.1v9.7h2.4v7.3c0 .7.6 1.3 1.3 1.3.7 0 1.3-.6 1.3-1.3v-7.3H92v5.3c0 .7.6 1.3 1.3 1.3s1.3-.6 1.3-1.3v-5.3H97v-9.7h-1.6V50l3-6.1c.2-.2.4-.5.4-.9V27.6c-.1-.1-.1-.2-.1-.3zm-22 34v-4.5h17.6v4.5H76.7zm16-11.9v4.8h-15v-4L67.6 34.9c0-.1-.1-.2-.1-.2-.2-.3-.3-.7-.2-1.1.1-.4.3-.7.7-1 .7-.5 1.6-.3 2.1.4l3.8 5.4s0 .1.1.1l.1.1.1.1s.1 0 .1.1h.8c.1 0 .1 0 .2-.1.1 0 .1-.1.2-.1h.1v-.1-.1-.1-.1-.1-.1-.1-.1-.1-.1-.1-15c0-.8.7-1.5 1.5-1.5s1.5.7 1.5 1.5V31c0 .7.6 1.3 1.3 1.3s1.3-.6 1.3-1.3v-8.6-.3-.2c0-.8.7-1.5 1.5-1.5s1.5.7 1.5 1.5v9.5c0 .7.6 1.3 1.3 1.3.7 0 1.3-.6 1.3-1.3v-7.6c0-.8.7-1.5 1.5-1.5s1.5.7 1.5 1.5v9.3c0 .7.6 1.3 1.3 1.3s1.3-.6 1.3-1.3v-5.4c0-.8.7-1.5 1.5-1.5s1.5.7 1.5 1.5v14.8l-2.7 6.9z"/><path id="shirt" d="M93.2 76.4c-.7 0-1.3.6-1.3 1.3V97c0 .7.6 1.3 1.3 1.3s1.3-.6 1.3-1.3V77.6c0-.7-.6-1.2-1.3-1.2z"/><path id="dot" d="M93.2 72.3c-.3 0-.7.1-.9.4-.2.2-.4.6-.4.9 0 .3.1.7.4.9s.6.4.9.4c.3 0 .7-.1.9-.4s.4-.6.4-.9c0-.3-.1-.7-.4-.9-.2-.3-.5-.4-.9-.4z"/></g><path id="lower-girl" fill="#C1CE20" d="M80.8 83.2c0-1.2-.5-2.3-1.4-3.1.6-.7.9-1.6.9-2.6 0-2.3-1.8-4.1-4.1-4.1H65l2.1-1.5c.9-.6 1.5-1.5 1.7-2.5.2-1.1 0-2.2-.6-3.1-.6-.9-1.5-1.5-2.6-1.8-1-.2-2-.1-2.8.4-.1 0-.2.1-.3.1l-15 9.9-4.1.8c-.4-1.4-1.9-2.7-3.7-2.7-1.9 0-3.5 1.4-3.8 3.3h-7.2c-.7 0-1.3.6-1.3 1.3s.6 1.3 1.3 1.3H36c.2 0 .3 0 .4-.1.2.3.4.5.6.8-.8.7-1.2 1.7-1.2 2.8 0 1.1.5 2.1 1.2 2.8-.8.7-1.2 1.7-1.2 2.8 0 1.1.5 2.1 1.2 2.8-.3.3-.6.7-.8 1H3c-.7 0-1.3.6-1.3 1.3 0 .7.6 1.3 1.3 1.3h33c.4 1.7 1.9 3 3.7 3 1.7 0 3.2-1.2 3.6-2.8l5.2.5 6.2 3.1c.2.2.5.4.9.4H71.3c2-.2 3.6-2 3.6-4.1 0-.5-.1-1-.3-1.5h.2c2.2-.1 4-1.9 4-4.1 0-.7-.2-1.3-.5-1.9 1.5-.8 2.5-2.2 2.5-3.8zm-41.1-7.6c.7 0 1.2.5 1.2 1.2s-.5 1.2-1.2 1.2-1.2-.5-1.2-1.2.5-1.2 1.2-1.2zm0 8c-.7 0-1.2-.5-1.2-1.2s.5-1.2 1.2-1.2 1.2.5 1.2 1.2-.5 1.2-1.2 1.2zm0 5.6c-.7 0-1.2-.5-1.2-1.2s.5-1.2 1.2-1.2 1.2.5 1.2 1.2c0 .6-.5 1.2-1.2 1.2zm0 5.6c-.7 0-1.2-.5-1.2-1.2s.5-1.2 1.2-1.2 1.2.5 1.2 1.2c0 .6-.5 1.2-1.2 1.2zm35.1-4.5h-9.3c-.7 0-1.3.6-1.3 1.3 0 .7.6 1.3 1.3 1.3h5.4c.8 0 1.5.7 1.5 1.5s-.7 1.5-1.5 1.5H56l-6.8-3.3-6-.6h-.1c-.2-.5-.5-.9-.9-1.2.8-.7 1.2-1.7 1.2-2.8 0-1.1-.5-2.1-1.2-2.8.8-.7 1.2-1.7 1.2-2.8 0-1.1-.5-2.1-1.2-2.8.3-.3.6-.6.8-1h.2l5.1-1 15.2-10.1c.1 0 .2-.1.2-.1.3-.2.7-.3 1.1-.2.4.1.7.3 1 .7.2.3.3.7.2 1.1-.1.4-.3.7-.7 1l-5.4 3.8h-.1V75.7s0 .1.1.1l.1.1.1.1s.1 0 .1.1H75.9c.8 0 1.5.7 1.5 1.5s-.7 1.5-1.5 1.5h-8.6c-.7 0-1.3.6-1.3 1.3 0 .7.6 1.3 1.3 1.3h9.1c.8 0 1.5.7 1.5 1.5s-.7 1.5-1.5 1.5h-9.5c-.7 0-1.3.6-1.3 1.3s.6 1.3 1.3 1.3h7.6c.8 0 1.5.7 1.5 1.5s-.4 1.5-1.2 1.5z"/></svg>