<?xml version="1.0" encoding="utf-8"?>
<!-- Generator: Adobe Illustrator 20.1.0, SVG Export Plug-In . SVG Version: 6.00 Build 0)  -->
<svg version="1.1" id="hexes" xmlns="http://www.w3.org/2000/svg" xmlns:xlink="http://www.w3.org/1999/xlink" x="0px" y="0px"
	  viewBox="0 0 1409 145" enable-background="new 0 0 1409 145" xml:space="preserve">
<path class="sprinkle-1" id="hex-t" fill="#ABB3BE" d="M1151.4,58.6l3.8-6.6c0.6-1,1.6-1.5,2.7-1.5h7.6c1.1,0,2.1,0.6,2.7,1.5l3.8,6.6
	c0.6,1,0.6,2.1,0,3.1l-3.8,6.6c-0.6,1-1.6,1.5-2.7,1.5h-7.6c-1.1,0-2.1-0.6-2.7-1.5l-3.8-6.6C1150.9,60.7,1150.9,59.5,1151.4,58.6"
	/>
<path class="sprinkle-2" id="hex-s" fill="#C1CE20" d="M242.1,93.8l-4.5-9.2c-0.9-1.8-0.7-3.9,0.4-5.6l5.7-8.5c1.1-1.7,3-2.6,5-2.5l10.2,0.7
	c2,0.1,3.8,1.3,4.7,3.1l4.5,9.2c0.9,1.8,0.7,3.9-0.4,5.6l-5.7,8.5c-1.1,1.7-3,2.6-5,2.5l-10.2-0.7C244.8,96.8,243,95.6,242.1,93.8"
	/>
<path class="sprinkle-3" id="hex-r" fill="#C1CE20" d="M1016.5,86.8l6.3-10.9c0.7-1.2,2-2,3.4-2h12.5c1.4,0,2.7,0.7,3.4,2l6.3,10.9
	c0.7,1.2,0.7,2.7,0,3.9l-6.3,10.9c-0.7,1.2-2,2-3.4,2h-12.5c-1.4,0-2.7-0.7-3.4-2l-6.3-10.9C1015.8,89.5,1015.8,88,1016.5,86.8"/>
<path class="sprinkle-1" id="hex-ww" fill="#1EAEB4" d="M169.5,126.5h-10.6c-2.4,0-4.6-1.3-5.8-3.3l-5.3-9.1c-1.2-2-1.2-4.6,0-6.6l5.3-9.1
	c1.2-2.1,3.4-3.3,5.8-3.3h10.6c2.4,0,4.6,1.3,5.8,3.3l5.3,9.1c1.2,2,1.2,4.6,0,6.6l-5.3,9.1C174,125.3,171.9,126.5,169.5,126.5z
	 M154.9,122.2c0.8,1.4,2.4,2.3,4,2.3h10.6c1.7,0,3.2-0.9,4-2.3l5.3-9.1c0.8-1.4,0.8-3.2,0-4.6l-5.3-9.1c-0.8-1.4-2.4-2.3-4-2.3
	h-10.6c-1.7,0-3.2,0.9-4,2.3l-5.3,9.1c-0.8,1.4-0.8,3.2,0,4.6L154.9,122.2z"/>
<path class="sprinkle-2" id="hex-p" fill="#1EAEB4" d="M538.4,43.2l3.8-6.7c0.6-1,1.6-1.6,2.7-1.6h7.7c1.1,0,2.1,0.6,2.7,1.6l3.8,6.7
	c0.6,1,0.6,2.1,0,3.1l-3.8,6.7c-0.6,1-1.6,1.6-2.7,1.6H545c-1.1,0-2.1-0.6-2.7-1.6l-3.8-6.7C537.9,45.4,537.9,44.2,538.4,43.2"/>
<path class="sprinkle-1" id="hex-vv" fill="#D0DD27" d="M201.2,39.6h-11.6c-2.1,0-4-1.1-5.1-2.9l-5.8-10c-1.1-1.8-1.1-4,0-5.8l5.8-10
	c1.1-1.8,3-2.9,5.1-2.9h11.6c2.2,0,4.1,1.1,5.1,2.9l5.8,10c1.1,1.8,1.1,4,0,5.8l-5.8,10C205.2,38.5,203.3,39.6,201.2,39.6z
	 M189.6,10c-1.4,0-2.6,0.7-3.3,1.9l-5.8,10c-0.7,1.2-0.7,2.6,0,3.8l5.8,10c0.7,1.2,2,1.9,3.3,1.9h11.6c1.4,0,2.6-0.7,3.3-1.9l5.8-10
	c0.7-1.2,0.7-2.6,0-3.8l-5.8-10c-0.6-1.2-1.9-1.9-3.3-1.9C201.2,10,189.6,10,189.6,10z"/>
<path class="sprinkle-3" id="hex-tt" fill="#D0DD27" d="M827.1,111.3h-11.5c-2.1,0-4-1.1-5.1-2.9l-5.8-10c-1.1-1.8-1.1-4,0-5.8l5.8-10
	c1.1-1.8,3-2.9,5.1-2.9h11.5c2.1,0,4,1.1,5.1,2.9l5.8,10c1.1,1.8,1.1,4,0,5.8l-5.8,10C831.1,110.2,829.2,111.3,827.1,111.3z
	 M815.6,81.7c-1.4,0-2.6,0.7-3.3,1.9l-5.8,10c-0.7,1.2-0.7,2.6,0,3.8l5.8,10c0.7,1.2,2,1.9,3.3,1.9h11.5c1.4,0,2.6-0.7,3.3-1.9
	l5.8-10c0.7-1.2,0.7-2.6,0-3.8l-5.8-10c-0.7-1.2-2-1.9-3.3-1.9H815.6z"/>
<path class="sprinkle-1" id="hex-o" fill="#D0DD27" d="M1313.4,87.3l3.8-6.6c0.6-1,1.6-1.5,2.7-1.5h7.6c1.1,0,2.1,0.6,2.7,1.5l3.8,6.6
	c0.6,1,0.6,2.1,0,3.1l-3.8,6.6c-0.6,1-1.6,1.5-2.7,1.5h-7.6c-1.1,0-2.1-0.6-2.7-1.5l-3.8-6.6C1312.8,89.4,1312.8,88.2,1313.4,87.3"
	/>
<path class="sprinkle-2" id="hex-uu" fill="#1EAEB4" d="M919.5,60.5h-10.6c-2.4,0-4.6-1.3-5.8-3.3l-5.3-9.1c-1.2-2-1.2-4.6,0-6.6l5.3-9.1
	c1.2-2.1,3.4-3.3,5.8-3.3h10.6c2.4,0,4.6,1.3,5.8,3.3l5.3,9.1c1.2,2,1.2,4.6,0,6.6l-5.3,9.1C924,59.3,921.9,60.5,919.5,60.5z
	 M904.9,56.2c0.8,1.4,2.4,2.3,4,2.3h10.6c1.7,0,3.2-0.9,4-2.3l5.3-9.1c0.8-1.4,0.8-3.2,0-4.6l-5.3-9.1c-0.8-1.4-2.4-2.3-4-2.3h-10.6
	c-1.7,0-3.2,0.9-4,2.3l-5.3,9.1c-0.8,1.4-0.8,3.2,0,4.6C899.6,47.1,904.9,56.2,904.9,56.2z"/>
<path class="sprinkle-3" id="hex-xx" fill="#E0E0E1" d="M618.7,81.4h-11.6c-2.1,0-4-1.1-5.1-2.9l-5.8-10c-1-1.8-1-4,0-5.8l5.8-10c1.1-1.8,3-2.9,5.1-2.9
	h11.6c2.1,0,4,1.1,5.1,2.9l5.8,10c1.1,1.8,1.1,4,0,5.8l-5.8,10C622.7,80.3,620.8,81.4,618.7,81.4z M598,63.7c-0.6,1.2-0.6,2.6,0,3.8
	l5.8,10c0.7,1.2,2,1.9,3.3,1.9h11.6c1.4,0,2.6-0.7,3.3-1.9l5.8-10c0.7-1.2,0.7-2.6,0-3.8l-5.8-10c-0.7-1.2-2-1.9-3.3-1.9h-11.6
	c-1.4,0-2.6,0.7-3.3,1.9L598,63.7z"/>
<path class="sprinkle-1" id="hex-yy" fill="#D0DD27" d="M394.8,55.7h-11.6c-2.1,0-4-1.1-5.1-2.9l-5.8-10c-1.1-1.8-1.1-4,0-5.8l5.8-10
	c1.1-1.8,3-2.9,5.1-2.9h11.6c2.1,0,4,1.1,5.1,2.9l5.8,10c1.1,1.8,1.1,4,0,5.8l-5.8,10C398.8,54.6,396.9,55.7,394.8,55.7z
	 M383.2,26.1c-1.4,0-2.6,0.7-3.3,1.9l-5.8,10c-0.7,1.2-0.7,2.6,0,3.8l5.8,10c0.7,1.2,2,1.9,3.3,1.9h11.6c1.4,0,2.6-0.7,3.3-1.9
	l5.8-10c0.7-1.2,0.7-2.6,0-3.8l-5.8-10c-0.7-1.2-2-1.9-3.3-1.9H383.2z"/>
<path class="sprinkle-2" id="hex-k" fill="#D0DD27" d="M5.8,54.1l3.7-6.5c0.6-1,1.6-1.6,2.7-1.6h7.5c1.1,0,2.1,0.6,2.7,1.6l3.7,6.5c0.6,1,0.6,2.1,0,3.1
	l-3.7,6.5c-0.6,1-1.6,1.6-2.7,1.6h-7.5c-1.1,0-2.1-0.6-2.7-1.6l-3.7-6.5C5.2,56.2,5.2,55,5.8,54.1"/>
<path class="sprinkle-3" id="hex-b" fill="#D0DD27" d="M493.3,85.3l3.7-6.5c0.6-1,1.6-1.6,2.7-1.6h7.5c1.1,0,2.1,0.6,2.7,1.6l3.7,6.5
	c0.6,1,0.6,2.1,0,3.1l-3.7,6.5c-0.6,1-1.6,1.6-2.7,1.6h-7.5c-1.1,0-2.1-0.6-2.7-1.6l-3.7-6.5C492.8,87.5,492.8,86.3,493.3,85.3"/>
<path class="sprinkle-1" id="hex-zz" fill="#D0DD27" d="M1388.2,54.4h-10.9c-2.1,0-4-1.1-5.1-2.9l-5.5-9.4c-1.1-1.8-1.1-4,0-5.8l5.5-9.4
	c1.1-1.8,3-2.9,5.1-2.9h10.9c2.1,0,4,1.1,5.1,2.9l5.5,9.4c1.1,1.8,1.1,4,0,5.8l-5.5,9.4C1392.2,53.3,1390.3,54.4,1388.2,54.4z
	 M1377.3,26c-1.4,0-2.6,0.7-3.3,1.9l-5.5,9.4c-0.7,1.2-0.7,2.6,0,3.8l5.5,9.4c0.7,1.2,2,1.9,3.3,1.9h10.9c1.4,0,2.6-0.7,3.3-1.9
	l5.5-9.4c0.7-1.2,0.7-2.6,0-3.8l-5.5-9.4c-0.7-1.2-2-1.9-3.3-1.9H1377.3z"/>
<path class="sprinkle-2" id="hex-i" fill="#D0DD27" d="M990.4,33l3.8-6.6c0.6-1,1.6-1.5,2.7-1.5h7.6c1.1,0,2.1,0.6,2.7,1.5l3.8,6.6c0.6,1,0.6,2.1,0,3.1
	l-3.8,6.6c-0.6,1-1.6,1.5-2.7,1.5h-7.6c-1.1,0-2.1-0.6-2.7-1.5l-3.8-6.6C989.8,35.2,989.8,34,990.4,33"/>
<path class="sprinkle-1" id="hex-h" fill="#1EAEB4" d="M311.6,99.8l6.2-10.7c0.7-1.3,2.1-2.1,3.6-2.1h12.4c1.5,0,2.9,0.8,3.6,2.1l6.2,10.7
	c0.7,1.3,0.7,2.9,0,4.2l-6.2,10.7c-0.7,1.3-2.1,2.1-3.6,2.1h-12.4c-1.5,0-2.9-0.8-3.6-2.1l-6.2-10.7
	C310.8,102.7,310.8,101.1,311.6,99.8"/>
<path class="sprinkle-3" id="hex-g" fill="#CAD1D7" d="M693.4,75.1l3.8-7.1c0.5-1,1.5-1.6,2.6-1.7l8-0.3c1.1,0,2.2,0.5,2.8,1.5l4.3,6.8
	c0.6,0.9,0.6,2.1,0.1,3.1l-3.8,7.1c-0.5,1-1.5,1.6-2.6,1.7l-8,0.3c-1.1,0-2.2-0.5-2.8-1.5l-4.3-6.8C692.9,77.2,692.8,76,693.4,75.1"
	/>
<path class="sprinkle-1" id="hex-f" fill="#1EAEB4" d="M86.4,56.7l-7.6-13.2c-1-1.7-1-3.9,0-5.6l7.6-13.2c1-1.7,2.8-2.8,4.9-2.8h15.2
	c2,0,3.9,1.1,4.9,2.8l7.6,13.2c1,1.7,1,3.9,0,5.6l-7.6,13.2c-1,1.7-2.9,2.8-4.9,2.8H91.2C89.2,59.5,87.4,58.5,86.4,56.7"/>
<path class="sprinkle-1" id="hex-a" fill="#1EAEB4" d="M1237.5,32.8l6.3-10.9c0.7-1.2,2-2,3.4-2h12.5c1.4,0,2.7,0.7,3.4,2l6.3,10.9
	c0.7,1.2,0.7,2.7,0,3.9l-6.3,10.9c-0.7,1.2-2,2-3.4,2h-12.5c-1.4,0-2.7-0.7-3.4-2l-6.3-10.9C1236.8,35.5,1236.8,34,1237.5,32.8"/>
<defs>
	<filter id="Adobe_OpacityMaskFilter" filterUnits="userSpaceOnUse" x="25.2" y="98.5" width="41.7" height="37.6">
		<feColorMatrix  type="matrix" values="1 0 0 0 0  0 1 0 0 0  0 0 1 0 0  0 0 0 1 0"/>
	</filter>
</defs>
<mask maskUnits="userSpaceOnUse" x="25.2" y="98.5" width="41.7" height="37.6" id="mask-2">
	<g filter="url(#Adobe_OpacityMaskFilter)">
		<path id="path-1" fill="#FFFFFF" d="M25.3,136.1h41.6V98.5H25.3V136.1z"/>
	</g>
</mask>
<path class="sprinkle-2" id="hex-d" mask="url(#mask-2)" fill="#CAD1D7" d="M33.6,133.3L26,120.1c-1-1.7-1-3.9,0-5.6l7.6-13.2c1-1.7,2.8-2.8,4.9-2.8
	h15.2c2,0,3.9,1.1,4.9,2.8l7.6,13.2c1,1.7,1,3.9,0,5.6l-7.6,13.2c-1,1.7-2.9,2.8-4.9,2.8H38.5C36.5,136.1,34.6,135,33.6,133.3"/>
</svg>
