<?xml version="1.0" encoding="utf-8"?>
<!-- Generator: Adobe Illustrator 20.1.0, SVG Export Plug-In . SVG Version: 6.00 Build 0)  -->
<svg version="1.1" id="hexes-tablet" xmlns="http://www.w3.org/2000/svg" xmlns:xlink="http://www.w3.org/1999/xlink" x="0px"
	 y="0px"  viewBox="0 0 768 145" enable-background="new 0 0 768 145" xml:space="preserve">
<path class="sprinkle-1" id="hex-r" fill="#C1CE20" d="M706.5,86.8l6.3-10.9c0.7-1.2,2-2,3.4-2h12.5c1.4,0,2.7,0.7,3.4,2l6.3,10.9
	c0.7,1.2,0.7,2.7,0,3.9l-6.3,10.9c-0.7,1.2-2,2-3.4,2h-12.5c-1.4,0-2.7-0.7-3.4-2l-6.3-10.9C705.8,89.5,705.8,88,706.5,86.8"/>
<path class="sprinkle-2" id="hex-p" fill="#1EAEB4" d="M228.4,43.2l3.8-6.7c0.6-1,1.6-1.6,2.7-1.6h7.7c1.1,0,2.1,0.6,2.7,1.6l3.8,6.7
	c0.6,1,0.6,2.1,0,3.1l-3.8,6.7c-0.6,1-1.6,1.6-2.7,1.6H235c-1.1,0-2.1-0.6-2.7-1.6l-3.8-6.7C227.9,45.4,227.9,44.2,228.4,43.2"/>
<path class="sprinkle-3" id="hex-x" fill="#D0DD27" d="M517.1,111.3h-11.5c-2.1,0-4-1.1-5.1-2.9l-5.8-10c-1.1-1.8-1.1-4,0-5.8l5.8-10
	c1.1-1.8,3-2.9,5.1-2.9h11.5c2.1,0,4,1.1,5.1,2.9l5.8,10c1.1,1.8,1.1,4,0,5.8l-5.8,10C521.1,110.2,519.2,111.3,517.1,111.3z
	 M505.6,81.7c-1.4,0-2.6,0.7-3.3,1.9l-5.8,10c-0.7,1.2-0.7,2.6,0,3.8l5.8,10c0.7,1.2,2,1.9,3.3,1.9h11.5c1.4,0,2.6-0.7,3.3-1.9
	l5.8-10c0.7-1.2,0.7-2.6,0-3.8l-5.8-10c-0.7-1.2-2-1.9-3.3-1.9H505.6z"/>
<path class="sprinkle-1" id="hex-v" fill="#1EAEB4" d="M609.5,60.5h-10.6c-2.4,0-4.6-1.3-5.8-3.3l-5.3-9.1c-1.2-2-1.2-4.6,0-6.6l5.3-9.1
	c1.2-2.1,3.4-3.3,5.8-3.3h10.6c2.4,0,4.6,1.3,5.8,3.3l5.3,9.1c1.2,2,1.2,4.6,0,6.6l-5.3,9.1C614,59.3,611.9,60.5,609.5,60.5z
	 M594.9,56.2c0.8,1.4,2.4,2.3,4,2.3h10.6c1.7,0,3.2-0.9,4-2.3l5.3-9.1c0.8-1.4,0.8-3.2,0-4.6l-5.3-9.1c-0.8-1.4-2.4-2.3-4-2.3h-10.6
	c-1.7,0-3.2,0.9-4,2.3l-5.3,9.1c-0.8,1.4-0.8,3.2,0,4.6C589.6,47.1,594.9,56.2,594.9,56.2z"/>
<path class="sprinkle-2" id="hex-s" fill="#E0E0E1" d="M308.7,81.4h-11.6c-2.1,0-4-1.1-5.1-2.9l-5.8-10c-1-1.8-1-4,0-5.8l5.8-10c1.1-1.8,3-2.9,5.1-2.9
	h11.6c2.1,0,4,1.1,5.1,2.9l5.8,10c1.1,1.8,1.1,4,0,5.8l-5.8,10C312.7,80.3,310.8,81.4,308.7,81.4z M288,63.7c-0.6,1.2-0.6,2.6,0,3.8
	l5.8,10c0.7,1.2,2,1.9,3.3,1.9h11.6c1.4,0,2.6-0.7,3.3-1.9l5.8-10c0.7-1.2,0.7-2.6,0-3.8l-5.8-10c-0.7-1.2-2-1.9-3.3-1.9h-11.6
	c-1.4,0-2.6,0.7-3.3,1.9L288,63.7z"/>
<path class="sprinkle-3" id="hex-t" fill="#D0DD27" d="M84.8,55.7H73.2c-2.1,0-4-1.1-5.1-2.9l-5.8-10c-1.1-1.8-1.1-4,0-5.8l5.8-10
	c1.1-1.8,3-2.9,5.1-2.9h11.6c2.1,0,4,1.1,5.1,2.9l5.8,10c1.1,1.8,1.1,4,0,5.8l-5.8,10C88.8,54.6,86.9,55.7,84.8,55.7z M73.2,26.1
	c-1.4,0-2.6,0.7-3.3,1.9l-5.8,10c-0.7,1.2-0.7,2.6,0,3.8l5.8,10c0.7,1.2,2,1.9,3.3,1.9h11.6c1.4,0,2.6-0.7,3.3-1.9l5.8-10
	c0.7-1.2,0.7-2.6,0-3.8l-5.8-10c-0.7-1.2-2-1.9-3.3-1.9H73.2z"/>
<path class="sprinkle-1" id="hex-b" fill="#D0DD27" d="M183.3,85.3l3.7-6.5c0.6-1,1.6-1.6,2.7-1.6h7.5c1.1,0,2.1,0.6,2.7,1.6l3.7,6.5
	c0.6,1,0.6,2.1,0,3.1l-3.7,6.5c-0.6,1-1.6,1.6-2.7,1.6h-7.5c-1.1,0-2.1-0.6-2.7-1.6l-3.7-6.5C182.8,87.5,182.8,86.3,183.3,85.3"/>
<path class="sprinkle-2" id="hex-i" fill="#D0DD27" d="M680.4,33l3.8-6.6c0.6-1,1.6-1.5,2.7-1.5h7.6c1.1,0,2.1,0.6,2.7,1.5L701,33c0.6,1,0.6,2.1,0,3.1
	l-3.8,6.6c-0.6,1-1.6,1.5-2.7,1.5h-7.6c-1.1,0-2.1-0.6-2.7-1.5l-3.8-6.6C679.8,35.2,679.8,34,680.4,33"/>
<path class="sprinkle-3" id="hex-h" fill="#1EAEB4" d="M23.6,99.8l6.2-10.7c0.7-1.3,2.1-2.1,3.6-2.1h12.4c1.5,0,2.9,0.8,3.6,2.1l6.2,10.7
	c0.7,1.3,0.7,2.9,0,4.2l-6.2,10.7c-0.7,1.3-2.1,2.1-3.6,2.1H33.4c-1.5,0-2.9-0.8-3.6-2.1L23.6,104C22.8,102.7,22.8,101.1,23.6,99.8"
	/>
<path class="sprinkle-1" id="hex-g" fill="#CAD1D7" d="M383.4,75.1l3.8-7.1c0.5-1,1.5-1.6,2.6-1.7l8-0.3c1.1,0,2.2,0.5,2.8,1.5l4.3,6.8
	c0.6,0.9,0.6,2.1,0.1,3.1l-3.8,7.1c-0.5,1-1.5,1.6-2.6,1.7l-8,0.3c-1.1,0-2.2-0.5-2.8-1.5l-4.3-6.8C382.9,77.2,382.8,76,383.4,75.1"
	/>
</svg>
