<?xml version="1.0" encoding="utf-8"?>
<!-- Generator: Adobe Illustrator 20.1.0, SVG Export Plug-In . SVG Version: 6.00 Build 0)  -->
<svg version="1.1" id="hexes-mobile" xmlns="http://www.w3.org/2000/svg" xmlns:xlink="http://www.w3.org/1999/xlink" x="0px"
	 y="0px"  viewBox="0 0 375 73" enable-background="new 0 0 375 73" xml:space="preserve">
<path class="sprinkle-1" id="hex-r" fill="#C1CE20" d="M345.1,43.5l3.2-5.5c0.4-0.6,1-1,1.7-1h6.3c0.7,0,1.4,0.4,1.7,1l3.2,5.5c0.4,0.6,0.4,1.4,0,2
	L358,51c-0.4,0.6-1,1-1.7,1H350c-0.7,0-1.4-0.4-1.7-1l-3.2-5.5C344.8,44.8,344.8,44.1,345.1,43.5"/>
<path class="sprinkle-2" id="hex-p" fill="#1EAEB4" d="M105.1,21.6l1.9-3.4c0.3-0.5,0.8-0.8,1.4-0.8h3.9c0.6,0,1.1,0.3,1.4,0.8l1.9,3.4
	c0.3,0.5,0.3,1.1,0,1.6l-1.9,3.4c-0.3,0.5-0.8,0.8-1.4,0.8h-3.8c-0.6,0-1.1-0.3-1.4-0.8l-1.9-3.4C104.8,22.7,104.8,22.1,105.1,21.6"
	/>
<path class="sprinkle-3" id="hex-w" fill="#D0DD27" d="M250,55.8h-5.8c-1,0-2-0.6-2.5-1.4l-2.9-5c-0.5-0.9-0.5-2,0-2.9l2.9-5c0.5-0.9,1.5-1.5,2.5-1.5
	h5.8c1,0,2,0.6,2.5,1.4l2.9,5c0.5,0.9,0.5,2,0,2.9l-2.9,5C252,55.2,251.1,55.8,250,55.8z M244.3,40.9c-0.7,0-1.3,0.4-1.7,1l-2.9,5
	c-0.4,0.6-0.4,1.3,0,1.9l2.9,5c0.4,0.6,1,1,1.7,1h5.8c0.7,0,1.3-0.4,1.7-1l2.9-5c0.4-0.6,0.4-1.3,0-1.9l-2.9-5c-0.4-0.6-1-1-1.7-1
	H244.3z"/>
<path class="sprinkle-1" id="hex-u" fill="#1EAEB4" d="M296.4,30.3h-5.3c-1.2,0-2.3-0.6-2.9-1.7l-2.7-4.6c-0.6-1-0.6-2.3,0-3.3l2.7-4.6
	c0.6-1,1.7-1.7,2.9-1.7h5.3c1.2,0,2.3,0.6,2.9,1.7l2.7,4.6c0.6,1,0.6,2.3,0,3.3l-2.7,4.6C298.7,29.6,297.6,30.3,296.4,30.3z
	 M289.1,28.1c0.4,0.7,1.2,1.2,2,1.2h5.3c0.8,0,1.6-0.4,2-1.2l2.7-4.6c0.4-0.7,0.4-1.6,0-2.3l-2.7-4.6c-0.4-0.7-1.2-1.2-2-1.2h-5.3
	c-0.8,0-1.6,0.4-2,1.2l-2.7,4.6c-0.4,0.7-0.4,1.6,0,2.3L289.1,28.1z"/>
<path class="sprinkle-2" id="hex-y" fill="#E0E0E1" d="M145.4,40.7h-5.8c-1,0-2-0.6-2.5-1.4l-2.9-5c-0.5-0.9-0.5-2,0-2.9l2.9-5c0.5-0.9,1.5-1.5,2.5-1.5
	h5.8c1,0,2,0.6,2.5,1.4l2.9,5c0.5,0.9,0.5,2,0,2.9l-2.9,5C147.4,40.2,146.4,40.7,145.4,40.7z M135,31.9c-0.3,0.6-0.3,1.3,0,1.9
	l2.9,5c0.4,0.6,1,1,1.7,1h5.8c0.7,0,1.3-0.4,1.7-1l2.9-5c0.4-0.6,0.4-1.3,0-1.9l-2.9-5c-0.4-0.6-1-1-1.7-1h-5.8
	c-0.7,0-1.3,0.4-1.7,1L135,31.9z"/>
<path class="sprinkle-3" id="hex-z" fill="#D0DD27" d="M33,27.8h-5.8c-1,0-2-0.6-2.5-1.4l-2.9-5c-0.5-0.9-0.5-2,0-2.9l2.9-5c0.5-0.9,1.5-1.5,2.5-1.5H33
	c1,0,2,0.6,2.5,1.4l2.9,5c0.5,0.9,0.5,2,0,2.9l-2.9,5C35,27.3,34,27.8,33,27.8z M27.2,13c-0.7,0-1.3,0.4-1.7,1l-2.9,5
	c-0.4,0.6-0.4,1.3,0,1.9l2.9,5c0.4,0.6,1,1,1.7,1H33c0.7,0,1.3-0.4,1.7-1l2.9-5c0.4-0.6,0.4-1.3,0-1.9l-2.9-5c-0.4-0.6-1-1-1.7-1
	H27.2z"/>
<path class="sprinkle-1" id="hex-b" fill="#D0DD27" d="M82.4,42.7l1.9-3.3c0.3-0.5,0.8-0.8,1.4-0.8h3.8c0.6,0,1.1,0.3,1.4,0.8l1.9,3.3
	c0.3,0.5,0.3,1.1,0,1.6l-1.9,3.3c-0.3,0.5-0.8,0.8-1.4,0.8h-3.8c-0.6,0-1.1-0.3-1.4-0.8l-1.9-3.3C82.2,43.8,82.2,43.2,82.4,42.7"/>
<path class="sprinkle-2" id="hex-i" fill="#D0DD27" d="M332,16.4l1.9-3.3c0.3-0.5,0.8-0.8,1.4-0.8h3.8c0.6,0,1.1,0.3,1.4,0.8l1.9,3.3
	c0.3,0.5,0.3,1.1,0,1.6l-1.9,3.3c-0.3,0.5-0.8,0.8-1.4,0.8h-3.8c-0.6,0-1.1-0.3-1.4-0.8L332,18C331.7,17.5,331.7,16.9,332,16.4"/>
<path class="sprinkle-3" id="hex-h" fill="#1EAEB4" d="M14.2,50l3.1-5.4c0.4-0.7,1.1-1.1,1.8-1.1h6.2c0.8,0,1.5,0.4,1.8,1.1l3.1,5.4
	c0.4,0.7,0.4,1.5,0,2.1l-3.1,5.4c-0.4,0.7-1.1,1.1-1.8,1.1h-6.2c-0.8,0-1.5-0.4-1.8-1.1l-3.1-5.4C13.8,51.4,13.8,50.6,14.2,50"/>
<path class="sprinkle-1" id="hex-g" fill="#CAD1D7" d="M182.9,37.6l1.9-3.6c0.3-0.5,0.8-0.8,1.3-0.9l4-0.2c0.6,0,1.1,0.3,1.4,0.8l2.2,3.4
	c0.3,0.5,0.3,1.1,0.1,1.6l-1.9,3.6c-0.3,0.5-0.8,0.8-1.3,0.9l-4,0.2c-0.6,0-1.1-0.3-1.4-0.8l-2.2-3.4
	C182.7,38.6,182.6,38,182.9,37.6"/>
</svg>
