<svg id="high-fives" xmlns="http://www.w3.org/2000/svg" viewBox="0 0 100 100"><g id="noise" fill="#C1CE20" style="opacity:0"><path id="noise-six" d="M78 32.8c-.6 0-1.2-.4-1.3-1-.1-.7.3-1.4 1-1.5l3-.6c.7-.1 1.4.3 1.5 1s-.3 1.4-1 1.5l-3 .6H78zm6.9-1.4c-.6 0-1.2-.4-1.3-1-.1-.7.3-1.4 1-1.5l3-.6c.7-.1 1.4.3 1.5 1s-.3 1.4-1 1.5l-3 .6h-.2zm6.9-1.4c-.6 0-1.2-.4-1.3-1-.1-.7.3-1.4 1-1.5l3-.6c.7-.1 1.4.3 1.5 1s-.3 1.4-1 1.5l-3 .6h-.2z"/><path id="noise-five" d="M76.8 25.4c-.5 0-.9-.2-1.1-.7-.3-.6-.1-1.4.5-1.8l2.6-1.4c.6-.3 1.4-.1 1.8.5.3.6.1 1.4-.5 1.8l-2.6 1.4c-.3.1-.5.2-.7.2zM83 22c-.5 0-.9-.2-1.1-.7-.3-.6-.1-1.4.5-1.8l2.6-1.4c.6-.3 1.4-.1 1.8.5.3.6.1 1.4-.5 1.8l-2.6 1.4c-.3.2-.5.2-.7.2zm6.2-3.4c-.5 0-.9-.2-1.1-.7-.3-.6-.1-1.4.5-1.8l2.6-1.4c.6-.3 1.4-.1 1.8.5.3.6.1 1.4-.5 1.8l-2.6 1.4c-.3.2-.5.2-.7.2z"/><path id="noise-four" d="M71 20c-.3 0-.7-.1-.9-.4-.5-.5-.5-1.3 0-1.8l2.1-2.1c.5-.5 1.3-.5 1.8 0s.5 1.3 0 1.8l-2 2.1c-.3.3-.6.4-1 .4zm5-5c-.3 0-.7-.1-.9-.4-.5-.5-.5-1.3 0-1.8l2.1-2.1c.5-.5 1.3-.5 1.8 0s.5 1.3 0 1.8l-2.1 2.1c-.3.3-.6.4-.9.4zm4.9-5c-.3 0-.7-.1-.9-.4-.5-.5-.5-1.3 0-1.8l2.1-2.1c.5-.5 1.3-.5 1.8 0s.5 1.3 0 1.8l-2.1 2.1c-.2.3-.6.4-.9.4z"/><path id="noise-three" d="M29 20c-.3 0-.7-.1-.9-.4L26 17.5c-.5-.5-.5-1.3 0-1.8s1.3-.5 1.8 0l2.1 2.1c.5.5.5 1.3 0 1.8-.2.3-.6.4-.9.4zm-4.9-5c-.3 0-.7-.1-.9-.4L21 12.5c-.5-.5-.5-1.3 0-1.8s1.3-.5 1.8 0l2.1 2.1c.5.5.5 1.3 0 1.8-.2.3-.5.4-.8.4zm-5-5c-.3 0-.7-.1-.9-.4l-2.1-2.1c-.5-.5-.5-1.3 0-1.8s1.3-.5 1.8 0L20 7.8c.5.5.5 1.3 0 1.8-.2.3-.5.4-.9.4z"/><path id="noise-two" d="M23.2 25.4c-.2 0-.4-.1-.6-.2L20 23.8c-.6-.3-.9-1.1-.5-1.8.3-.6 1.1-.9 1.8-.5l2.6 1.4c.6.3.9 1.1.5 1.8-.3.4-.7.7-1.2.7zM17 22c-.2 0-.4-.1-.6-.2l-2.6-1.4c-.6-.3-.9-1.1-.5-1.8.3-.6 1.1-.9 1.8-.5l2.6 1.4c.6.3.9 1.1.5 1.8-.2.5-.7.7-1.2.7zm-6.1-3.4c-.2 0-.4-.1-.6-.2L7.6 17c-.6-.3-.9-1.1-.5-1.8.3-.6 1.1-.9 1.8-.5l2.6 1.4c.6.3.9 1.1.5 1.8-.2.5-.7.7-1.1.7z"/><path id="noise-one" d="M22 32.8h-.3l-3-.6c-.7-.1-1.2-.8-1-1.5.1-.7.8-1.2 1.5-1l3 .6c.7.1 1.2.8 1 1.5 0 .6-.5 1-1.2 1zm-6.8-1.4h-.3l-3-.6c-.7-.1-1.2-.8-1-1.5.1-.7.8-1.2 1.5-1l3 .6c.7.1 1.2.8 1 1.5-.1.6-.6 1-1.2 1zM8.3 30H8l-3-.6c-.7-.1-1.2-.8-1-1.5.1-.7.8-1.2 1.5-1l3 .6c.7.1 1.2.8 1 1.5-.1.6-.6 1-1.2 1z"/></g><g id="right-hand" fill="#C1CE20"><path id="right-dot" d="M93.1 44.5h-.2c-.1.1-.1.1-.3.1-.3.2-.6.4-.6.7 0 .1-.1.2-.1.3s-.1.2 0 .2v.2c0 .1.1.1.1.3.1.1.1.1.1.3.1 0 .2.2.2.2.1 0 .2.1.2.2.1 0 .2.1.3.1.3.1.7.1 1-.1.1-.1.1-.1.3-.1 0-.1.2-.2.2-.2 0-.1.2-.2.2-.2 0-.1.1-.2.1-.3.1-.3.1-.7-.1-1-.2-.4-.6-.7-1-.7h-.4z"/><path id="inside-right-hand" d="M85.5 51.9c-.4-.7-1.2-.9-1.8-.4-2.9 1.7-4.9 3.7-6.5 5.7-1.5-1-4.1-2.2-6.9-1.5-.7.2-1.2.8-.9 1.6.1.5.4.8.8.9.2.1.5.1.7.1 1.9-.5 3.8.5 4.8 1.2-2.3 3.8-2.6 7.2-2.5 7.4 0 .6.3 1.2.9 1.3.1 0 .2.1.3.1.7.1 1.3-.5 1.4-1.2 0-.1.7-8.1 9.2-13.1.6-.6.8-1.4.5-2.1z"/><path id="outer-right-hand" d="M96.2 82.3l-2.7.3-.5-5.2-.6-6.4 3.7-9.7c.1-.4.1-.7 0-1.1.1-.2 0-.3 0-.4l-1-10.1c-.1-.7-.7-1.2-1.4-1.2-.7.1-1.2.7-1.2 1.4l1 10.1c.1.1.1.4.1.5l-3.9 10.2.7 7L68.6 80l-.6-5.9-16.3-19.9c-.1-.1-.2-.2-.1-.3-.9-1.1-.8-2.8.4-3.7.6-.4 1.2-.6 1.9-.6s1.3.4 1.8 1l6 7h.6s.1 0 .2.1h.5l.1-.1s.1 0 .1-.1l.1-.1.1-.1v-.1-.1-.1-.1-.1-.1-.1-.1-.1-.1-.1-.1-.1-.1-.1-.1-.1-.1L60.5 26c-.1-.7.1-1.4.6-1.9.4-.6 1.1-.9 1.7-1s1.4.1 1.9.6c.6.4.9 1.1 1 1.7l2 20.2c0 .5.4 1 .9 1.1.2.1.3 0 .5.1.7-.1 1.2-.7 1.2-1.4l-2-20.2-.5-4.4c-.1-.1-.1-.3-.2-.4V20c-.1-1.4.9-2.8 2.3-2.9s2.8.9 2.9 2.3L76 44.1c0 .5.4 1 .9 1.1.2.1.3 0 .5.1.7-.1 1.2-.7 1.2-1.4l-2.1-20.7c-.1-1.4.9-2.8 2.3-2.9s2.8.9 2.9 2.3L84 46.2c0 .5.4 1 .9 1.1.2.1.3 0 .5.1.7-.1 1.2-.7 1.2-1.4l-1.3-13.6c-.1-1.4.9-2.8 2.3-2.9.7-.1 1.4.1 1.9.6.5.4.9 1.1 1 1.7l1.1 10.3c0 .5.4 1 .9 1.1.2.1.3 0 .5.1.7-.1 1.2-.7 1.2-1.4l-1-10.1v-.2l-.3-.6c0-.2-.1-.5-.3-.6-.3-.9-.8-1.6-1.6-2.1-1-.9-2.5-1.4-3.9-1.1-1 .1-1.9.5-2.6 1l-.5-5.4v-.3-.5c-.5-2.6-3-4.3-5.6-4-1 .2-2 .5-2.8 1.1-.8-2-3-3.4-5.3-3.2-2.9.3-5 2.8-4.7 5.7.1.1.1.3.2.4v.4c-.9-.4-1.8-.5-2.8-.4-2.9.3-5 2.8-4.7 5.7L61 52.8l-3.3-3.9c-.9-1.1-2.1-1.8-3.4-1.9-1.4-.2-2.8.3-3.8 1.1-2.2 1.8-2.6 4.9-1 7.1.1.1.1.3.2.3l15.9 19.7.4 5.2.1 1.3.1 1.3.3 2.4-2.5.2L65.1 97l32.4-3.4-1.3-11.3zm-5.5-1.9l.2 2.3-22 2.3-.2-2.4 22-2.2zm-24 7.5l27.2-2.8.7 6.2-27.2 2.8-.7-6.2z"/></g><g id="left-hand"><path id="hand-panel" fill="#FFF" d="M35.3 72.2L28 73.7c-5.4 2.1-11.6-.7-13.7-6.1l-9.4-6.9 1.6-18.4c-.7-1.9-.3-13 3.1-13 5.8 0 5.4-3.5 8.3-9 1.7-3.1 3.7.8 5.4.2l3-3.4c4.5-.8 3.7 2.2 6.5 5.3 1.1 1.3 2.5 1 5.5 3L35.5 57c.7 1.8 9.2-8.5 11-8.6 10.4-.2-7.5 22.4-11.2 23.8z"/><path id="outer-left-hand" fill="#C1CE20" d="M49 48.1c-2.3-1.8-5.5-1.3-7.4.9l-3.3 4 1.9-25.5c.2-2.9-2-5.5-4.8-5.6-1-.1-1.9.1-2.7.5.1-.1 0-.3 0-.4.1-.1.1-.3 0-.4.2-2.9-2-5.5-4.8-5.6-2.3-.2-4.5 1.2-5.3 3.3-.8-.6-1.8-1-2.8-1.1-2.6-.2-5.1 1.6-5.6 4.2-.1.1 0 .2-.1.4l-.5 5.8c-.7-.5-1.6-.9-2.6-.9-2.9-.2-5.5 2-5.6 4.8v.2l-1.9 29v.7L7.6 72l-.4 6.4-.4 5.1-2.7-.3-1.2 11.4 32.5 2.6.9-11.4-2.5-.2.2-2.4.1-1.3.1-1.3.4-5.2 1.1-1.4c.4-.6.3-1.4-.3-1.8s-1.4-.3-1.8.3l-1.7 2-.4 5.9-22-1.8.5-7-4-9.9 2.2-28.9v-.1-.1c.1-1.4 1.4-2.6 2.8-2.5s2.6 1.4 2.5 2.8l-1.1 13.7c0 .8.5 1.3 1.2 1.4.2 0 .4 0 .6-.1.5-.2.8-.6.9-1.1l1.8-23.6c.1-1.4 1.4-2.6 2.8-2.5s2.6 1.4 2.5 2.8l-1.6 20.7c0 .8.5 1.3 1.2 1.4.2 0 .4 0 .6-.1.5-.2.8-.6.9-1.1l1.6-20.7.2-2.9c.1-1.4 1.4-2.6 2.8-2.5s2.6 1.4 2.5 2.8c-.1.1 0 .3 0 .4-.1.1-.1.3 0 .4L28.3 47c0 .8.5 1.3 1.2 1.4.2 0 .4 0 .6-.1.5-.2.8-.6.9-1.1L32.6 27c.1-1.4 1.4-2.6 2.8-2.5 1.4.1 2.6 1.4 2.5 2.8L35.5 57V58.8l.1.1.1.1.1.1.1.1h.5c.1 0 .1 0 .2-.1.1 0 .1 0 .2-.1h.5l5.9-7.2c.4-.6 1-.9 1.8-1 .7-.1 1.4.1 1.9.5.6.4.9 1 1 1.8s-.1 1.4-.5 1.9c-.1.1-.2.2-.1.3l-9.5 11.5c-.4.6-.3 1.4.3 1.8.3.3.9.3 1.2.2.2-.1.4-.3.6-.4L50 55.5c.1-.1.1-.3.2-.3.7-1 1-2.3.9-3.6-.2-1.4-.9-2.6-2.1-3.5zM32.9 94.5L5.7 92.2l.5-6.2 27.3 2.2-.6 6.3zm-1.7-9.1l-22-1.8.2-2.3 22 1.8-.2 2.3z"/><path id="left-dot" fill="#C1CE20" d="M37.9 69c0-.1-.2-.2-.2-.2 0-.1-.1-.1-.3-.1-.4-.2-.9-.1-1.3.1-.1 0-.2.1-.2.2-.1 0-.2.2-.2.2-.1 0-.1.1-.1.3s-.1.1-.1.3c0 .1-.1.1 0 .2s0 .2 0 .2c0 .1.1.2.1.3.1.3.3.6.7.7.3.1.7.2 1 .1.1 0 .2-.1.3-.1s.2-.1.2-.2c.1 0 .2-.2.2-.2.1 0 .1-.1.1-.3.1-.3.2-.7.1-1 0-.1-.1-.2-.1-.3-.2 0-.2-.1-.2-.2z"/></g></svg>
