<?xml version="1.0" encoding="utf-8"?>
<!-- Generator: Adobe Illustrator 20.1.0, SVG Export Plug-In . SVG Version: 6.00 Build 0)  -->
<svg version="1.1" id="jumpinphone" xmlns="http://www.w3.org/2000/svg" xmlns:xlink="http://www.w3.org/1999/xlink" x="0px"
	 y="0px" viewBox="0 0 100 100" enable-background="new 0 0 100 100" xml:space="preserve">
<g id="phone">
	<path id="body-dot" fill="#C1CE20" d="M6.1,73.5c0.7,0,1.3-0.6,1.3-1.3s-0.6-1.3-1.3-1.3s-1.3,0.6-1.3,1.3S5.3,73.5,6.1,73.5z"/>
	<path id="body" fill="#C1CE20" d="M44.6,15.2V5.1c0-2.3-1.8-4.1-4.1-4.1H29.1c-0.5,0-1.1,0.1-1.5,0.3l-20,8.2C6,10.1,5,11.6,5,13.3
		L4.8,67.4c0,0.7,0.6,1.3,1.3,1.3s1.3-0.6,1.3-1.3l0.2-54.2c0-0.6,0.4-1.1,0.9-1.4l20-8.2c0.2-0.1,0.4-0.1,0.6-0.1h7.3l-23.9,9.9v81
		C10.4,94,8.9,93.2,8,92.1C7.2,91,7.2,90,7.2,90V77.3c0-0.7-0.6-1.3-1.3-1.3s-1.3,0.6-1.3,1.3v12.6c0,0.3,0,1.9,1.2,3.6
		c2,2.8,5.7,3.6,8.5,3.8h0.3l27.5-13.5c1.4-0.7,2.3-2.1,2.3-3.7V15.2C44.4,15.2,44.6,15.2,44.6,15.2z M41.1,81.6L15.2,94.2V15.3
		l26-10.8c0.2-0.1,0.3-0.2,0.5-0.3C41.8,4.4,42,4.8,42,5.1v9.2L18.1,24.4c-0.7,0.3-1,1.1-0.7,1.7c0.2,0.5,0.7,0.8,1.2,0.8
		c0.2,0,0.3,0,0.5-0.1L42,17.2v49.5L18,78.8c-0.6,0.3-0.9,1.1-0.6,1.8c0.2,0.5,0.7,0.7,1.2,0.7c0.2,0,0.4,0,0.6-0.1L42,69.6v10.6
		C42,80.8,41.6,81.3,41.1,81.6z"/>
	<path id="mic" fill="#C1CE20" d="M26,17.6c0.2,0,0.3,0,0.5-0.1l8-3.4c0.7-0.3,1-1.1,0.7-1.7c-0.3-0.7-1.1-1-1.7-0.7l-8,3.4
		c-0.7,0.3-1,1.1-0.7,1.7C25,17.3,25.5,17.6,26,17.6z"/>
	<path id="top-dot" fill="#C1CE20" d="M21.6,19.2h-0.3c-0.1,0-0.2,0-0.2-0.1C21,19.1,21,19,20.9,19s-0.1-0.1-0.2-0.2l-0.2-0.2
		c0-0.1-0.1-0.1-0.1-0.2s-0.1-0.2-0.1-0.2v-0.3v-0.3c0-0.1,0-0.2,0.1-0.2c0-0.1,0.1-0.2,0.1-0.2c0-0.1,0.1-0.1,0.2-0.2
		c0.2-0.2,0.6-0.4,0.9-0.4s0.7,0.1,0.9,0.4l0.2,0.2c0,0.1,0.1,0.1,0.1,0.2s0.1,0.2,0.1,0.2v0.6c0,0.1,0,0.2-0.1,0.2
		c0,0.1-0.1,0.2-0.1,0.2c0,0.1-0.1,0.1-0.2,0.2L22.3,19c-0.1,0-0.1,0.1-0.2,0.1s-0.2,0.1-0.2,0.1S21.6,19.2,21.6,19.2z"/>
</g>
<g id="lower-star" opacity="0">
	<path id="lower-star-two" fill="#C1CE20" d="M51.1,91.6c-0.5,0-0.9-0.3-1.2-0.7c-0.3-0.6-0.1-1.4,0.6-1.8l2.7-1.4
		c0.6-0.3,1.4-0.1,1.8,0.6c0.3,0.6,0.1,1.4-0.6,1.8l-2.7,1.4C51.5,91.6,51.3,91.6,51.1,91.6z M59.2,87.6c-0.5,0-0.9-0.3-1.2-0.7
		c-0.3-0.6-0.1-1.4,0.6-1.8l2.7-1.4c0.6-0.3,1.4-0.1,1.8,0.6c0.3,0.6,0.1,1.4-0.6,1.8l-2.7,1.4C59.6,87.5,59.4,87.6,59.2,87.6z"/>
	<path id="lower-star-one" fill="#C1CE20" d="M59.1,94.4c-0.5,0-0.9-0.3-1.2-0.7L56.6,91c-0.3-0.6-0.1-1.4,0.6-1.8
		c0.6-0.3,1.4-0.1,1.8,0.6l1.4,2.7c0.3,0.6,0.1,1.4-0.6,1.8C59.5,94.4,59.3,94.4,59.1,94.4z M55.1,86.3c-0.5,0-0.9-0.3-1.2-0.7
		l-1.4-2.7c-0.3-0.6-0.1-1.4,0.6-1.8c0.6-0.3,1.4-0.1,1.8,0.6l1.4,2.7c0.3,0.6,0.1,1.4-0.6,1.8C55.5,86.3,55.3,86.3,55.1,86.3z"/>
</g>
<g id="middle-star" opacity="0">
	<path id="middle-dash-two" fill="#C1CE20" d="M84.4,81.3c-0.5,0-0.9-0.3-1.2-0.7c-0.3-0.6-0.1-1.4,0.6-1.8l2.7-1.4
		c0.6-0.3,1.4-0.1,1.8,0.6c0.3,0.6,0.1,1.4-0.6,1.8L85,81.2C84.8,81.3,84.6,81.3,84.4,81.3z M92.5,77.3c-0.5,0-0.9-0.3-1.2-0.7
		c-0.3-0.6-0.1-1.4,0.6-1.8l2.7-1.4c0.6-0.3,1.4-0.1,1.8,0.6c0.3,0.6,0.1,1.4-0.6,1.8l-2.7,1.4C92.9,77.2,92.7,77.3,92.5,77.3z"/>
	<path id="middle-dash-one" fill="#C1CE20" d="M92.5,84.1c-0.5,0-0.9-0.3-1.2-0.7l-1.4-2.7c-0.3-0.6-0.1-1.4,0.6-1.8
		c0.6-0.3,1.4-0.1,1.8,0.6l1.4,2.7c0.3,0.6,0.1,1.4-0.6,1.8C92.8,84.1,92.6,84.1,92.5,84.1z M88.4,76c-0.5,0-0.9-0.3-1.2-0.7
		l-1.4-2.7c-0.3-0.6-0.1-1.4,0.6-1.8c0.6-0.3,1.4-0.1,1.8,0.6l1.4,2.7c0.3,0.6,0.1,1.4-0.6,1.8C88.8,76,88.6,76,88.4,76z"/>
</g>
<g id="top-star" opacity="0">
	<path id="top-dash-four" fill="#C1CE20" d="M93.6,14.9c-0.3-0.6-1.1-0.9-1.8-0.6l-2.7,1.4c-0.6,0.3-0.9,1.1-0.6,1.8
		c0.2,0.5,0.7,0.7,1.2,0.7c0.2,0,0.4,0,0.6-0.1l2.7-1.4C93.7,16.4,94,15.6,93.6,14.9z"/>
	<path id="top-dash-three" fill="#C1CE20" d="M83.8,18.4l-2.7,1.4c-0.6,0.3-0.9,1.1-0.6,1.8c0.2,0.5,0.7,0.7,1.2,0.7
		c0.2,0,0.4,0,0.6-0.1l2.7-1.4c0.6-0.3,0.9-1.1,0.6-1.8C85.2,18.3,84.4,18.1,83.8,18.4z"/>
	<path id="top-dash-two" fill="#C1CE20" d="M89.6,20.4c-0.3-0.6-1.1-0.9-1.8-0.6c-0.6,0.3-0.9,1.1-0.6,1.8l1.4,2.7
		c0.2,0.5,0.7,0.7,1.2,0.7c0.2,0,0.4,0,0.6-0.1c0.6-0.3,0.9-1.1,0.6-1.8C91,23.1,89.6,20.4,89.6,20.4z"/>
	<path id="top-dash-one" fill="#C1CE20" d="M85.5,12.3c-0.3-0.6-1.1-0.9-1.8-0.6c-0.6,0.3-0.9,1.1-0.6,1.8l1.4,2.7
		c0.2,0.5,0.7,0.7,1.2,0.7c0.2,0,0.4,0,0.6-0.1c0.6-0.3,0.9-1.1,0.6-1.8C86.9,15,85.5,12.3,85.5,12.3z"/>
</g>
<g id="legs">
<g id="lower-leg">
	<path id="lower-leg-panel" fill="#FFFFFF" d="M31.9,46.2l26.6,19.4l-4.6,7.9l-28-13.8"/>
	<path id="lower-pant" fill="#C1CE20" d="M54.4,75.2L25.3,60.8c-0.6-0.3-0.9-1.1-0.6-1.8c0.3-0.6,1.1-0.9,1.8-0.6l26.9,13.3l3.4-5.8
		L31.1,47.2c-0.6-0.4-0.7-1.2-0.3-1.8c0.4-0.6,1.2-0.7,1.8-0.3l27.5,20.2C60.1,65.3,54.4,75.2,54.4,75.2z"/>
	<path id="lower-foot" fill="#C1CE20" d="M71.7,70.9l-5.2-3.1l-1.2-0.7c-0.7-0.4-1.6-0.5-2.4-0.3c-0.8,0.2-1.5,0.7-1.9,1.5l-4.9,8.4
		l2.4,3.1l-2.1,7.7v0.1c-0.6,2.7,0.6,5.4,3,6.8l3.5,2.1l13.4-22.9C76.3,73.6,71.7,70.9,71.7,70.9z M66.9,76.7
		c-0.8-1.1-1.7-3-0.5-5.8l2.9,1.7C69.3,72.6,66.9,76.7,66.9,76.7z M59,88.2l2.4-8.9l-2.1-2.8l4-6.8c0.1-0.2,0.3-0.2,0.3-0.3
		c0.1,0,0.3,0,0.4,0.1l0.1,0.1c-2.2,4.8,0,8.1,1.4,9.5L59,90C58.9,89.5,58.8,88.8,59,88.2z M62,93l-1.2-0.7l10.8-18.4l1.2,0.7L62,93
		z"/>
</g>
<g id="top-leg">
	<path id="top-leg-panel" fill="#FFFFFF" d="M39.6,28.8l28.7,13.5l-3,8.5l-30.8-8.3"/>
	<path id="top-pant" fill="#C1CE20" d="M66.1,52.4l-31.9-8.6c-0.7-0.2-1.1-0.9-0.9-1.6c0.2-0.7,0.9-1.1,1.6-0.9l29.5,8l2.2-6.3
		L39,30c-0.7-0.3-0.9-1.1-0.6-1.7c0.3-0.7,1.1-0.9,1.7-0.6l29.7,13.9C69.8,41.6,66.1,52.4,66.1,52.4z"/>
	<path id="top-foot" fill="#C1CE20" d="M75.3,42.5c-1.7-0.6-3.5,0.3-4.1,2L68,53.6l3,2.6l-0.5,8v0.1c-0.1,2.8,1.6,5.2,4.3,6.1
		l3.9,1.4l8.7-25C87.4,46.8,75.3,42.5,75.3,42.5z M78.6,51.5c-1-0.9-2.2-2.6-1.6-5.6l3.2,1.1L78.6,51.5z M71.1,52.8l2.6-7.5
		c0.1-0.3,0.4-0.5,0.7-0.3h0.1c-1.3,5.1,1.5,7.9,3.2,9.1l-4.2,12c-0.3-0.5-0.4-1.1-0.4-1.8l0.6-9.2C73.7,55.1,71.1,52.8,71.1,52.8z
		 M77,68.4l-1.3-0.5l7-20.1l1.3,0.5L77,68.4z"/>
</g></g>
</svg>
