<svg id="kite" xmlns="http://www.w3.org/2000/svg" viewBox="0 0 100 100"><path id="tail" fill="#C1CE20" d="M64.8 97.6c-.5 0-1.1 0-1.7-.1-.7-.1-1.2-.7-1.1-1.4.1-.7.7-1.2 1.4-1.1.5 0 1 .1 1.4.1.4 0 .8 0 1.3-.1.7-.1 1.3.5 1.4 1.2s-.5 1.3-1.2 1.4h-1.5zm-5.3-.9c-.1 0-.3 0-.4-.1-1-.3-1.9-.7-2.9-1.1-.6-.3-.9-1.1-.6-1.7.3-.6 1.1-.9 1.7-.6.8.4 1.7.7 2.5 1 .7.2 1 .9.8 1.6-.1.6-.6.9-1.1.9zm10.5 0c-.5 0-1-.3-1.2-.9-.2-.7.1-1.4.8-1.6.8-.3 1.7-.6 2.5-1.1.6-.3 1.4-.1 1.7.5.3.6.1 1.4-.5 1.7-.9.5-1.9.9-2.9 1.2-.1.2-.3.2-.4.2zm-16.6-3c-.3 0-.5-.1-.7-.2-.8-.6-1.6-1.3-2.4-2-.1-.1-.1-.2-.2-.3-.7.3-1.4.5-2 .8-.7.2-1.4-.1-1.6-.8-.2-.7.1-1.4.8-1.6.9-.3 1.7-.6 2.6-1 .6-.3 1.4 0 1.7.6 0 .1 0 .1.1.2.2.1.3.2.5.3.7.6 1.4 1.2 2.1 1.7.6.4.7 1.2.3 1.8-.4.3-.8.5-1.2.5zm22.4-.4c-.3 0-.6-.1-.9-.4-.5-.5-.5-1.3 0-1.8.6-.6 1.1-1.3 1.4-2 .3-.6 1.1-.9 1.7-.6s.9 1.1.6 1.7c-.5 1-1.1 1.9-1.9 2.7-.2.3-.6.4-.9.4zm-34.8 0c-.7 0-1.3-.6-1.3-1.2 0-.7.5-1.3 1.2-1.3.9 0 1.8-.1 2.7-.2.7-.1 1.3.4 1.4 1.1.1.7-.4 1.3-1.1 1.4-.8 0-1.9.1-2.9.2zm-3.9-.3h-.2c-1-.2-2-.4-3-.8-.7-.2-1-.9-.8-1.6s.9-1 1.6-.8c.9.3 1.7.5 2.6.7.7.1 1.1.8 1 1.5 0 .5-.6 1-1.2 1zm-6.3-2.4c-.2 0-.4-.1-.6-.2-.9-.5-1.7-1.1-2.5-1.8-.5-.4-.6-1.2-.2-1.8.4-.5 1.2-.6 1.8-.2.7.6 1.5 1.1 2.2 1.6.6.4.8 1.1.4 1.7-.2.5-.7.7-1.1.7zm23-1.5c-.4 0-.8-.2-1.1-.6-.4-.6-.2-1.4.4-1.7.8-.5 1.5-1 2.3-1.6.6-.4 1.3-.3 1.8.2.4.6.3 1.3-.2 1.8-.8.6-1.6 1.2-2.5 1.7-.2.2-.5.2-.7.2zm-5.1-.2c-.4 0-.8-.2-1.1-.6-.6-1-1.1-1.9-1.5-2.9-.2-.7.1-1.4.8-1.6s1.4.1 1.6.8c.3.7.7 1.5 1.2 2.3.4.6.2 1.4-.4 1.8-.1.1-.4.2-.6.2zm29.8-1.7c-.8-.1-1.3-.7-1.3-1.4v-1.3V83c0-.7.5-1.3 1.2-1.3s1.3.5 1.3 1.2c0 .6.1 1.1.1 1.6s0 1-.1 1.5c0 .7-.6 1.2-1.2 1.2zm-52.9-1c-.4 0-.7-.1-1-.4-.7-.8-1.3-1.6-1.9-2.5-.4-.6-.2-1.4.4-1.7.6-.4 1.4-.2 1.7.4.5.8 1 1.5 1.6 2.2.5.5.4 1.3-.1 1.8-.1.1-.4.2-.7.2zm33.5-1.3c-.3 0-.6-.1-.9-.4-.5-.5-.5-1.3 0-1.8.6-.6 1.1-1.3 1.6-2.1.4-.6 1.1-.8 1.7-.5.6.4.8 1.1.5 1.7-.5.9-1.2 1.8-1.9 2.6-.3.4-.6.5-1 .5zm-12.5-2.4c-.6 0-1.2-.5-1.3-1.1-.1-.7-.1-1.4-.1-2.1v-1c0-.7.6-1.2 1.3-1.2s1.2.6 1.2 1.3v.9c0 .6 0 1.2.1 1.8.1.7-.4 1.3-1.1 1.4h-.1zm31.5-2c-.6 0-1.2-.5-1.3-1.1-.1-.9-.2-1.9-.3-3 0-.7.5-1.3 1.2-1.3s1.3.5 1.3 1.2c.1 1 .2 2 .3 2.8.1.7-.4 1.3-1.2 1.4zm-55.9-.1c-.5 0-1-.3-1.2-.9-.3-1-.6-2-.7-3.1-.1-.7.4-1.3 1.1-1.4s1.3.4 1.4 1.1c.1.9.3 1.8.6 2.6.2.7-.1 1.4-.8 1.6-.1.1-.2.1-.4.1zm40-1.4H62c-.7-.1-1.2-.8-1-1.5.1-.4.1-.9.1-1.3s0-.8-.1-1.2c-.1-.7.3-1.3 1-1.5.7-.1 1.3.3 1.5 1 .1.5.1 1.1.1 1.7 0 .5 0 1.1-.1 1.7-.1.6-.7 1.1-1.3 1.1zm-15-3.2c-.1 0-.3 0-.4-.1-.7-.2-1-.9-.8-1.6.4-1.1.9-2.1 1.5-3 .4-.6 1.2-.7 1.8-.3.6.4.7 1.2.3 1.8-.5.6-.8 1.4-1.1 2.3-.3.5-.8.9-1.3.9zm30.7-2.1h-.2c-.7-.1-1.2-.7-1.1-1.4.2-1.1.4-2.2.8-3.1.3-.6 1-.9 1.7-.7.6.3.9 1 .7 1.7-.3.8-.5 1.6-.7 2.5 0 .5-.6 1-1.2 1zm-56.4 0h-.1c-.7-.1-1.2-.7-1.1-1.4.2-1.9.6-3.1.6-3.2.2-.7 1-1 1.6-.8.7.2 1 1 .8 1.6 0 0-.3 1-.5 2.6-.1.7-.6 1.2-1.3 1.2zm39-1.1c-.3 0-.7-.1-.9-.4-.5-.6-1.2-1-1.9-1.3-.6-.3-1-1-.7-1.7.3-.6 1-1 1.7-.7 1.1.5 2.1 1.1 2.8 1.9.5.5.4 1.3-.1 1.8-.3.3-.6.4-.9.4zm-9-1.8c-.5 0-1-.3-1.2-.8-.2-.7.1-1.4.7-1.6.8-.3 1.7-.5 2.6-.5h.7c.7 0 1.3.6 1.3 1.3 0 .7-.6 1.3-1.3 1.3h-.6c-.7 0-1.3.2-1.9.4 0-.1-.2-.1-.3-.1zm29.3-3.1c-.3 0-.7-.1-.9-.4-.5-.5-.5-1.3 0-1.8.7-.7 1.6-1.4 2.5-1.9.6-.4 1.4-.2 1.7.4.4.6.2 1.4-.4 1.7-.8.5-1.5 1-2.1 1.6-.1.3-.4.4-.8.4zm5.9-3.4c-.5 0-1-.3-1.2-.8-.2-.7.1-1.4.8-1.6.9-.3 1.9-.6 2.9-.9.7-.2 1.4.2 1.5.9.2.7-.2 1.4-.9 1.5-1 .2-1.9.5-2.7.8-.1.1-.3.1-.4.1z"/><g id="body"><ellipse id="panel" fill="#FFF" cx="19.3" cy="71.9" rx="10.8" ry="9.8"/><path id="bow" fill="#C1CE20" d="M38.3 73.1l-11.6 1.3-7.2-9.2-5.4 13 4.1-.2c.7 0 1.2-.6 1.2-1.3 0-.7-.6-1.2-1.3-1.2H18l2.2-5.3 3.9 5-2.1.2c-.7.1-1.2.7-1.2 1.4.1.7.7 1.2 1.4 1.2l3.2-.3 7.5 8.5 5.4-13.1zM28 76.7l6.3-.7-2.2 5.3-4.1-4.6z"/><path id="dot" fill="#C1CE20" d="M20.9 52.2h-.2c-.1 0-.2 0-.2-.1-.1 0-.1-.1-.2-.1s-.1-.1-.2-.2l-.2-.2c0-.1-.1-.1-.1-.2s-.1-.2-.1-.2v-.4c0-.1 0-.2.1-.2 0-.1.1-.1.1-.2s.1-.1.2-.2l.2-.2c.1 0 .1-.1.2-.1s.2-.1.2-.1h.5c.1 0 .2 0 .2.1.1 0 .1.1.2.1s.1.1.2.2l.2.2c0 .1.1.1.1.2s.1.2.1.2v.4c0 .1 0 .2-.1.2 0 .1-.1.1-.1.2s-.1.1-.2.2l-.2.2c-.1 0-.1.1-.2.1s-.2.1-.2.1h-.3z"/><path id="kite-frame" fill="#C1CE20" d="M26.8 75l36.1-30-18.2-28.8-31.1 13.7 5.1 17.6c.2.7.9 1.1 1.6.9.7-.2 1.1-.9.9-1.6l-4.5-15.5 25.5-11.2-4.9 16.1-15.8-4.7c-.7-.2-1.4.2-1.6.8-.2.7.2 1.4.8 1.6l15.8 4.7-9.1 29.7-4-13.8c-.2-.7-.9-1.1-1.6-.9-.7.2-1.1.9-.9 1.6l5.2 17.9.7 1.9zm17.8-54.2l13.7 21.7-18.6-5.6 4.9-16.1zm14 24.4L29.9 69.1 39 39.3l19.6 5.9z"/></g></svg>