<svg id="liftweight" xmlns="http://www.w3.org/2000/svg" viewBox="0 0 100 100"><g id="weights"><path id="bar-bell" fill="#C1CE20" d="M94.6 41h-1.3V28.7c0-1.7-1.4-3.1-3.1-3.1h-6.4c-1.7 0-3.1 1.4-3.1 3.1V41H19.4V28.7c0-1.7-1.4-3.1-3.1-3.1H9.9c-1.7 0-3.1 1.4-3.1 3.1V41H5.5c-2.1 0-3.9 1.7-3.9 3.9s1.7 3.9 3.9 3.9h1.3v12.3c0 1.7 1.4 3.1 3.1 3.1h6.4c1.7 0 3.1-1.4 3.1-3.1V48.7h61.3V61c0 1.7 1.4 3.1 3.1 3.1h6.4c1.7 0 3.1-1.4 3.1-3.1V48.8h1.3c2.1 0 3.9-1.7 3.9-3.9S96.8 41 94.6 41zM6.8 46.2H5.5c-.7 0-1.3-.6-1.3-1.3s.6-1.3 1.3-1.3h1.3v2.6zm10 14.9c0 .3-.2.5-.5.5H9.9c-.3 0-.5-.2-.5-.5V28.7c0-.3.2-.5.5-.5h6.4c.3 0 .5.2.5.5v32.4zm63.8-15H19.4v-2.5h61.2v2.5zm10.1 15c0 .3-.2.5-.5.5h-6.4c-.3 0-.5-.2-.5-.5V28.7c0-.3.2-.5.5-.5h6.4c.3 0 .5.2.5.5v32.4zm3.9-14.9h-1.3v-2.6h1.3c.7 0 1.3.6 1.3 1.3s-.6 1.3-1.3 1.3z"/><g id="left-hand_1_"><path id="left-arm-panel_1_" fill="#FFF" d="M26 71.2V42c0-2.4 1.9-4.4 4.2-4.4 2.3 0 4.2 2 4.2 4.4v29.1"/><path id="left-arm_1_" fill="#C1CE20" d="M34.4 72.5c-.7 0-1.3-.6-1.3-1.3V42c0-1.7-1.3-3.1-2.9-3.1s-2.9 1.4-2.9 3.1v29.1c0 .7-.6 1.3-1.3 1.3-.7 0-1.3-.6-1.3-1.3V42c0-3.1 2.5-5.7 5.5-5.7s5.5 2.5 5.5 5.7v29.1c0 .8-.6 1.4-1.3 1.4z"/></g><g id="left-hand"><path id="left-arm-panel" fill="#FFF" d="M65.7 71.2V42c0-2.4 1.9-4.4 4.2-4.4 2.3 0 4.2 2 4.2 4.4v29.1"/><path id="left-arm" fill="#C1CE20" d="M74.1 72.5c-.7 0-1.3-.6-1.3-1.3V42c0-1.7-1.3-3.1-2.9-3.1S67 40.3 67 42v29.1c0 .7-.6 1.3-1.3 1.3s-1.3-.6-1.3-1.3V42c0-3.1 2.5-5.7 5.5-5.7s5.5 2.5 5.5 5.7v29.1c0 .8-.6 1.4-1.3 1.4z"/></g></g><g id="head_1_"><circle id="face-panel" fill="#FFF" cx="50.1" cy="50.7" r="9.8"/><path id="face_1_" fill="#C1CE20" d="M50.1 61.8c-6.1 0-11.1-5-11.1-11.1s5-11.1 11.1-11.1 11.1 5 11.1 11.1-5 11.1-11.1 11.1zm0-19.6c-4.7 0-8.5 3.8-8.5 8.5s3.8 8.5 8.5 8.5 8.5-3.8 8.5-8.5-3.9-8.5-8.5-8.5z"/></g><g id="person"><path id="panel_2_" fill="#FFF" d="M67 52.6c0 9.4-7.6 17-17 17s-17-7.6-17-17H20.7c0 9.2-2.4 20.9 6.7 20.9l45-.1c9.7-.5 7-11.7 7-20.8h-6.6H67z"/><path id="neck" fill="#C1CE20" d="M50.1 69.6c-9.4 0-17-7.6-17-17 0-.7.6-1.3 1.3-1.3s1.3.6 1.3 1.3c0 7.9 6.4 14.4 14.4 14.4 7.9 0 14.4-6.4 14.4-14.4 0-.7.6-1.3 1.3-1.3s1.3.6 1.3 1.3c-.1 9.4-7.7 17-17 17z"/><path id="figure" fill="#C1CE20" d="M59.2 86.2c-.7 0-1.3.6-1.3 1.3v6.3c0 1.2-1 2.2-2.2 2.2H44.5c-1.2 0-2.2-1-2.2-2.2V75.2c.2-.6-.1-1.3-.7-1.6-8.6-3.5-14.1-11.7-14.1-21 0-.7-.6-1.3-1.3-1.3-.7 0-1.3.6-1.3 1.3 0 10 5.8 19 14.9 23v18.1c0 2.6 2.1 4.8 4.8 4.8h11.2c2.6 0 4.8-2.1 4.8-4.8v-6.3c-.1-.7-.7-1.2-1.4-1.2z"/><path id="right-body" fill="#C1CE20" d="M75.3 52.6c0-.7-.6-1.3-1.3-1.3-.7 0-1.3.6-1.3 1.3 0 9.1-5.4 17.3-13.8 20.9-.3.1-.5.3-.6.5-.3.2-.4.6-.4 1v4.1c0 .7.6 1.3 1.3 1.3s1.3-.6 1.3-1.3v-3.4c9-4.2 14.8-13.1 14.8-23.1z"/><path id="body-dot" fill="#C1CE20" d="M59.2 84.5h-.3s-.2 0-.2-.1c-.1 0-.2-.1-.2-.1-.1 0-.1-.1-.2-.2l-.2-.2c0-.1-.1-.1-.1-.2s-.1-.2-.1-.2v-.3-.3c0-.1 0-.2.1-.2 0-.1.1-.2.1-.2 0-.1.1-.1.2-.2.2-.2.6-.4.9-.4.3 0 .7.1.9.4l.2.2c0 .1.1.1.1.2s.1.2.1.2v.6c0 .1 0 .2-.1.2 0 .1-.1.2-.1.2 0 .1-.1.1-.2.2-.3.2-.6.4-.9.4z"/></g></svg>