<?xml version="1.0" encoding="utf-8"?>
<!-- Generator: Adobe Illustrator 20.1.0, SVG Export Plug-In . SVG Version: 6.00 Build 0)  -->
<svg version="1.1" id="lightbulb" xmlns="http://www.w3.org/2000/svg" xmlns:xlink="http://www.w3.org/1999/xlink" x="0px" y="0px"
	 viewBox="0 0 100 100" enable-background="new 0 0 100 100" xml:space="preserve">
<g id="bulb">
	<path id="bulb-glass" fill="#C1CE20" d="M50.8,18.1c-15.5,0-28.2,12.6-28.2,28.2c0,3.9,0.8,7.6,2.3,11.1c0.3,0.7,1,1,1.7,0.7
		s1-1,0.7-1.7c-1.4-3.2-2.1-6.6-2.1-10.1c0-14.1,11.5-25.6,25.6-25.6s25.6,11.5,25.6,25.6c0,9.2-5,17.7-13,22.3L62.7,69v7.9h-9.8
		V58.4c0-0.2,0-0.4-0.1-0.6l7.2-3.5c0.6-0.3,0.9-1.1,0.6-1.7c-0.3-0.6-1.1-0.9-1.7-0.6l-15.7,7.6c-0.6,0.3-0.9,1.1-0.6,1.7
		c0.2,0.5,0.7,0.7,1.2,0.7c0.2,0,0.4,0,0.6-0.1l6-2.9v17.8H38.8v-7.9l-0.7-0.4c-2.3-1.3-4.3-2.9-6.1-4.8c-0.5-0.5-1.3-0.6-1.8-0.1
		c-0.5,0.5-0.6,1.3-0.1,1.8c1.8,1.9,3.8,3.6,6.1,4.9v9h29.1v-9c8.4-5,13.7-14.2,13.7-24.1C79,30.7,66.3,18.1,50.8,18.1z"/>
	<path id="bilb-line" fill="#C1CE20" d="M63.9,82.8H37.6c-0.7,0-1.3,0.6-1.3,1.3c0,0.7,0.6,1.3,1.3,1.3h26.3c0.7,0,1.3-0.6,1.3-1.3
		C65.2,83.3,64.6,82.8,63.9,82.8z"/>
	<path id="base-bulb" fill="#C1CE20" d="M63.9,88.7H37.6c-0.7,0-1.3,0.6-1.3,1.3s0.6,1.3,1.3,1.3h5.3c0.4,4,3.8,7.1,7.8,7.1
		c4.1,0,7.5-3.1,7.8-7.1h5.3c0.7,0,1.3-0.6,1.3-1.3S64.6,88.7,63.9,88.7z M50.8,95.8c-2.7,0-4.9-2-5.2-4.5H56
		C55.6,93.9,53.4,95.8,50.8,95.8z"/>
	<path id="dot" fill="#C1CE20" d="M29,60.4c0-0.1-0.1-0.2-0.1-0.2c0-0.1-0.1-0.1-0.2-0.2l-0.2-0.2c-0.1,0-0.1-0.1-0.2-0.1
		s-0.2-0.1-0.2-0.1h-0.5c-0.1,0-0.2,0-0.2,0.1c-0.1,0-0.2,0.1-0.2,0.1c-0.1,0-0.1,0.1-0.2,0.2l-0.2,0.2c0,0.1-0.1,0.1-0.1,0.2
		s-0.1,0.2-0.1,0.2v0.6c0,0.1,0,0.2,0.1,0.2c0,0.1,0.1,0.2,0.1,0.2c0,0.1,0.1,0.1,0.2,0.2l0.2,0.2c0.1,0,0.1,0.1,0.2,0.1
		s0.2,0.1,0.2,0.1h0.6c0.1,0,0.2,0,0.2-0.1c0.1,0,0.2-0.1,0.2-0.1c0.1,0,0.1-0.1,0.2-0.2c0.2-0.2,0.4-0.6,0.4-0.9v-0.3
		C29.1,60.6,29.1,60.5,29,60.4z"/>
	<path id="stem-three" fill="#C1CE20" d="M43.7,43.8c0.2,0,0.4,0,0.6-0.1L60,36.1c0.6-0.3,0.9-1.1,0.6-1.7c-0.3-0.6-1.1-0.9-1.7-0.6
		l-15.7,7.6c-0.6,0.3-0.9,1.1-0.6,1.7C42.8,43.5,43.2,43.8,43.7,43.8z"/>
	<path id="stem-two" fill="#C1CE20" d="M42.6,49.1c0.2,0.5,0.7,0.7,1.2,0.7c0.2,0,0.4,0,0.6-0.1L60,42.2c0.6-0.3,0.9-1.1,0.6-1.7
		c-0.3-0.6-1.1-0.9-1.7-0.6l-15.7,7.6C42.5,47.7,42.2,48.5,42.6,49.1z"/>
	<path id="stem-one" fill="#C1CE20" d="M42.6,55.2c0.2,0.5,0.7,0.7,1.2,0.7c0.2,0,0.4,0,0.6-0.1L60,48.3c0.6-0.3,0.9-1.1,0.6-1.7
		c-0.3-0.6-1.1-0.9-1.7-0.6l-15.7,7.6C42.5,53.8,42.2,54.6,42.6,55.2z"/>
</g>
<g id="lights" opacity="0">
	<path id="bright-thirteen" fill="#C1CE20" d="M64.8,15.4c0.2,0.1,0.4,0.1,0.5,0.1c0.5,0,1-0.3,1.2-0.8l3.3-7.3
		c0.3-0.7,0-1.4-0.7-1.7c-0.7-0.3-1.4,0-1.7,0.7l-3.3,7.3C63.9,14.3,64.2,15.1,64.8,15.4z"/>
	<path id="bright-twelve" fill="#C1CE20" d="M50,12.2c0.7,0,1.3-0.6,1.3-1.3v-8c0-0.7-0.6-1.3-1.3-1.3s-1.3,0.6-1.3,1.3v8
		C48.7,11.6,49.3,12.2,50,12.2z"/>
	<path id="bright-eleven" fill="#C1CE20" d="M33.4,14.7c0.2,0.5,0.7,0.8,1.2,0.8c0.2,0,0.4,0,0.5-0.1c0.7-0.3,1-1.1,0.7-1.7
		l-3.3-7.3c-0.3-0.7-1.1-1-1.7-0.7c-0.7,0.3-1,1.1-0.7,1.7L33.4,14.7z"/>
	<path id="bright-ten" fill="#C1CE20" d="M22.9,24.3c0.5-0.5,0.4-1.4-0.1-1.8l-6-5.4c-0.5-0.5-1.4-0.4-1.8,0.1
		c-0.5,0.5-0.4,1.4,0.1,1.8l6,5.4c0.2,0.2,0.6,0.3,0.9,0.3S22.6,24.6,22.9,24.3z"/>
	<path id="bright-nine" fill="#C1CE20" d="M6,35.8l7.7,2.5c0.1,0,0.3,0.1,0.4,0.1c0.5,0,1.1-0.3,1.2-0.9c0.2-0.7-0.2-1.4-0.8-1.6
		l-7.7-2.5c-0.7-0.2-1.4,0.2-1.6,0.8C4.9,34.8,5.3,35.6,6,35.8z"/>
	<path id="bright-eight" fill="#C1CE20" d="M13.7,52.5c-0.1-0.7-0.7-1.2-1.4-1.2l-8,0.8c-0.7,0.1-1.2,0.7-1.2,1.4
		c0.1,0.7,0.6,1.2,1.3,1.2h0.1l8-0.8C13.3,53.9,13.8,53.2,13.7,52.5z"/>
	<path id="bright-seven" fill="#C1CE20" d="M16.6,66.5l-7,4c-0.6,0.4-0.8,1.2-0.5,1.8c0.2,0.4,0.7,0.7,1.1,0.7
		c0.2,0,0.4-0.1,0.6-0.2l7-4c0.6-0.4,0.8-1.2,0.5-1.8C18,66.3,17.2,66.1,16.6,66.5z"/>
	<path id="bright-six" fill="#C1CE20" d="M28.5,78.2c-0.6-0.4-1.4-0.3-1.8,0.3L22,85c-0.4,0.6-0.3,1.4,0.3,1.8
		c0.2,0.2,0.5,0.2,0.8,0.2c0.4,0,0.8-0.2,1.1-0.5l4.7-6.5C29.3,79.5,29.1,78.7,28.5,78.2z"/>
	<path id="bright-five" fill="#C1CE20" d="M73.3,78.5c-0.4-0.6-1.2-0.7-1.8-0.3c-0.6,0.4-0.7,1.2-0.3,1.8l4.7,6.5
		c0.3,0.4,0.7,0.5,1.1,0.5c0.3,0,0.5-0.1,0.8-0.2c0.6-0.4,0.7-1.2,0.3-1.8C78.1,85,73.3,78.5,73.3,78.5z"/>
	<path id="bright-four" fill="#C1CE20" d="M90.3,70.5l-7-4c-0.6-0.4-1.4-0.1-1.8,0.5s-0.1,1.4,0.5,1.8l7,4c0.2,0.1,0.4,0.2,0.6,0.2
		c0.4,0,0.9-0.2,1.1-0.7C91.2,71.7,91,70.9,90.3,70.5z"/>
	<path id="bright-three" fill="#C1CE20" d="M95.7,52.2l-8-0.8c-0.7-0.1-1.4,0.4-1.4,1.2c-0.1,0.7,0.4,1.4,1.2,1.4l8,0.8h0.1
		c0.7,0,1.2-0.5,1.3-1.2C97,52.9,96.4,52.3,95.7,52.2z"/>
	<path id="bright-two" fill="#C1CE20" d="M84.7,37.4c0.2,0.5,0.7,0.9,1.2,0.9c0.1,0,0.3,0,0.4-0.1l7.7-2.5c0.7-0.2,1.1-1,0.8-1.6
		c-0.2-0.7-1-1.1-1.6-0.8l-7.7,2.5C84.9,36,84.5,36.7,84.7,37.4z"/>
	<path id="bright-one" fill="#C1CE20" d="M85,17.2c-0.5-0.5-1.3-0.6-1.8-0.1l-6,5.4c-0.5,0.5-0.6,1.3-0.1,1.8c0.3,0.3,0.6,0.4,1,0.4
		c0.3,0,0.6-0.1,0.9-0.3l6-5.4C85.5,18.5,85.5,17.7,85,17.2z"/>
</g>
</svg>
