<svg id="lightening" xmlns="http://www.w3.org/2000/svg" viewBox="0 0 100 100"><g id="blast-small" fill="#C1CE20"><path id="blast-twelve" d="M49.9 21.6c-.7 0-1.3-.6-1.3-1.3v-3c0-.7.6-1.3 1.3-1.3.7 0 1.3.6 1.3 1.3v3c0 .8-.6 1.3-1.3 1.3zm0-6.9c-.7 0-1.3-.6-1.3-1.3v-3c0-.7.6-1.3 1.3-1.3.7 0 1.3.6 1.3 1.3v3c0 .8-.6 1.3-1.3 1.3z"/><path id="blast-eleven" d="M34.6 25c-.4 0-.9-.2-1.1-.6l-1.1-1.9c-.4-.6-.1-1.4.5-1.7.6-.4 1.4-.1 1.7.5l1.1 1.9c.4.6.1 1.4-.5 1.7-.2.1-.4.1-.6.1zm-3.1-5.3c-.4 0-.9-.2-1.1-.6l-1.5-2.6c-.4-.6-.1-1.4.5-1.7.6-.4 1.4-.1 1.7.5l1.5 2.6c.4.6.1 1.4-.5 1.7-.2 0-.4.1-.6.1z"/><path id="blast-ten" d="M23.3 36.3c-.2 0-.4-.1-.6-.2l-2-1.1c-.6-.4-.8-1.1-.5-1.7.4-.6 1.1-.8 1.7-.5l1.9 1.1c.6.4.8 1.1.5 1.7-.1.5-.5.7-1 .7zM18 33.2c-.2 0-.4-.1-.6-.2l-2.6-1.5c-.6-.4-.8-1.1-.5-1.7.4-.6 1.1-.8 1.7-.5l2.6 1.5c.6.4.8 1.1.5 1.7-.3.5-.7.7-1.1.7z"/><path id="blast-nine" d="M19.9 51.7h-3c-.7 0-1.3-.6-1.3-1.3s.6-1.3 1.3-1.3h3c.7 0 1.3.6 1.3 1.3 0 .7-.6 1.3-1.3 1.3zm-6.9 0h-3c-.7 0-1.3-.6-1.3-1.3s.6-1.3 1.3-1.3h3c.7 0 1.3.6 1.3 1.3 0 .7-.6 1.3-1.3 1.3z"/><path id="blast-eight" d="M15.4 71.6c-.4 0-.9-.2-1.1-.6-.4-.6-.1-1.4.5-1.7l2.6-1.5c.6-.4 1.4-.1 1.7.5.4.6.1 1.4-.5 1.7L16 71.5c-.1 0-.4.1-.6.1zm6-3.4c-.4 0-.9-.2-1.1-.6-.4-.6-.1-1.4.5-1.7l2.6-1.5c.6-.4 1.4-.1 1.7.5.4.6.1 1.4-.5 1.7L22 68c-.2.1-.4.2-.6.2z"/><path id="blast-seven" d="M30 86.2c-.2 0-.4-.1-.6-.2-.6-.4-.8-1.1-.5-1.7l1.5-2.6c.4-.6 1.1-.8 1.7-.5.6.4.8 1.1.5 1.7l-1.5 2.6c-.2.5-.7.7-1.1.7zm3.5-6c-.2 0-.4-.1-.6-.2-.6-.4-.8-1.1-.5-1.7l1.5-2.6c.4-.6 1.1-.8 1.7-.5.6.4.8 1.1.5 1.7l-1.5 2.6c-.3.5-.7.7-1.1.7z"/><path id="blast-six" d="M49.9 91.5c-.7 0-1.3-.6-1.3-1.3v-3c0-.7.6-1.3 1.3-1.3s1.3.6 1.3 1.3v3c0 .8-.5 1.3-1.3 1.3zm0-6.9c-.7 0-1.3-.6-1.3-1.3v-2.8c0-.7.6-1.3 1.3-1.3s1.3.6 1.3 1.3v2.8c0 .8-.5 1.3-1.3 1.3z"/><path id="blast-five" d="M69.9 86.2c-.4 0-.9-.2-1.1-.6L67.3 83c-.4-.6-.1-1.4.5-1.7.6-.4 1.4-.1 1.7.5l1.5 2.6c.4.6.1 1.4-.5 1.7-.2 0-.4.1-.6.1zm-3.5-6c-.4 0-.9-.2-1.1-.6L63.9 77c-.4-.6-.1-1.4.5-1.7.6-.4 1.4-.1 1.7.5l1.5 2.6c.4.6.1 1.4-.5 1.7-.2.1-.4.1-.7.1z"/><path id="blast-four" d="M84.5 71.6c-.2 0-.4-.1-.6-.2L81.3 70c-.6-.4-.8-1.1-.5-1.7.4-.6 1.1-.8 1.7-.5l2.6 1.5c.6.4.8 1.1.5 1.7-.2.4-.7.6-1.1.6zm-6-3.4c-.2 0-.4-.1-.6-.2l-2.6-1.5c-.6-.4-.8-1.1-.5-1.7.4-.6 1.1-.8 1.7-.5l2.6 1.5c.6.4.8 1.1.5 1.7-.2.4-.6.7-1.1.7z"/><path id="blast-three" d="M89.8 51.7h-3c-.7 0-1.3-.6-1.3-1.3s.6-1.3 1.3-1.3h3c.7 0 1.3.6 1.3 1.3 0 .7-.6 1.3-1.3 1.3zm-6.9 0h-3c-.7 0-1.3-.6-1.3-1.3s.6-1.3 1.3-1.3h3c.7 0 1.3.6 1.3 1.3 0 .7-.6 1.3-1.3 1.3z"/><path id="blast-two" d="M76 36.6c-.4 0-.9-.2-1.1-.6-.4-.6-.1-1.4.5-1.7l2.6-1.5c.6-.4 1.4-.1 1.7.5.4.6.1 1.4-.5 1.7l-2.6 1.5c-.2.1-.4.1-.6.1zm5.9-3.4c-.4 0-.9-.2-1.1-.6-.4-.6-.1-1.4.5-1.7l2.6-1.5c.6-.4 1.4-.1 1.7.5.4.6.1 1.4-.5 1.7L82.6 33c-.2.1-.5.2-.7.2z"/><path id="blast-one" d="M65 25.7c-.2 0-.4-.1-.6-.2-.6-.4-.8-1.1-.5-1.7l1.5-2.6c.4-.6 1.1-.8 1.7-.5.6.4.8 1.1.5 1.7L66.1 25c-.3.4-.7.7-1.1.7zm3.4-6c-.2 0-.4-.1-.6-.2-.6-.4-.8-1.1-.5-1.7l1.5-2.6c.4-.6 1.1-.8 1.7-.5.6.4.8 1.1.5 1.7L69.5 19c-.2.5-.7.7-1.1.7z"/></g><g id="blast-big" fill="#C1CE20" style="opacity:0"><path id="blast-twelve-small" d="M49.9 16c-.8 0-1.6-.7-1.6-1.6v-3.6c0-.8.7-1.6 1.6-1.6.8 0 1.6.7 1.6 1.6v3.6c0 1-.8 1.6-1.6 1.6zm0-8.3c-.8 0-1.6-.7-1.6-1.6V2.6c0-.8.7-1.6 1.6-1.6.8 0 1.6.7 1.6 1.6v3.6c0 .9-.8 1.5-1.6 1.5z"/><path id="blast-eleven-small" d="M31.6 20c-.5 0-1.1-.2-1.3-.7L29 17.1c-.5-.7-.1-1.7.6-2 .7-.5 1.7-.1 2 .6l1.3 2.3c.5.7.1 1.7-.6 2h-.7zm-3.7-6.3c-.5 0-1.1-.2-1.3-.7l-1.8-3.1c-.5-.7-.1-1.7.6-2 .7-.5 1.7-.1 2 .6l1.8 3.1c.5.7.1 1.7-.6 2-.2 0-.5.1-.7.1z"/><path id="blast-ten-small" d="M18.1 33.6c-.2 0-.5-.1-.7-.2L15 32c-.7-.5-1-1.3-.6-2 .5-.7 1.3-1 2-.6l2.3 1.3c.7.5 1 1.3.6 2-.1.6-.6.9-1.2.9zm-6.3-3.7c-.2 0-.5-.1-.7-.2L8 27.9c-.7-.5-1-1.3-.6-2 .5-.7 1.3-1 2-.6l3.1 1.8c.7.5 1 1.3.6 2-.4.5-.9.8-1.3.8z"/><path id="blast-nine-small" d="M14 52h-3.6c-.8 0-1.6-.7-1.6-1.6s.7-1.6 1.6-1.6H14c.8 0 1.6.7 1.6 1.6 0 .9-.7 1.6-1.6 1.6zm-8.2 0H2.2c-.8 0-1.6-.7-1.6-1.6s.7-1.6 1.6-1.6h3.6c.8 0 1.6.7 1.6 1.6-.1.9-.8 1.6-1.6 1.6z"/><path id="blast-eight-small" d="M8.6 75.8c-.5 0-1.1-.2-1.3-.7-.5-.7-.1-1.7.6-2l3.1-1.8c.7-.5 1.7-.1 2 .6.5.7.1 1.7-.6 2l-3.1 1.8c-.1 0-.4.1-.7.1zm7.2-4.1c-.5 0-1.1-.2-1.3-.7-.5-.7-.1-1.7.6-2l3.1-1.8c.7-.5 1.7-.1 2 .6.5.7.1 1.7-.6 2l-3.1 1.7c-.2.1-.4.2-.7.2z"/><path id="blast-seven-small" d="M26.1 93.2c-.2 0-.5-.1-.7-.2-.7-.5-1-1.3-.6-2l1.8-3.1c.5-.7 1.3-1 2-.6.7.5 1 1.3.6 2l-1.8 3.1c-.2.6-.8.8-1.3.8zm4.2-7.1c-.2 0-.5-.1-.7-.2-.7-.5-1-1.3-.6-2l1.8-3.1c.5-.7 1.3-1 2-.6.7.5 1 1.3.6 2l-1.8 3.1c-.4.5-.8.8-1.3.8z"/><path id="blast-six-small" d="M49.9 99.6c-.8 0-1.6-.7-1.6-1.6v-3.6c0-.8.7-1.6 1.6-1.6s1.6.7 1.6 1.6V98c0 1-.6 1.6-1.6 1.6zm0-8.3c-.8 0-1.6-.7-1.6-1.6v-3.3c0-.8.7-1.6 1.6-1.6s1.6.7 1.6 1.6v3.3c0 1-.6 1.6-1.6 1.6z"/><path id="blast-five-small" d="M73.8 93.2c-.5 0-1.1-.2-1.3-.7l-1.8-3.1c-.5-.7-.1-1.7.6-2 .7-.5 1.7-.1 2 .6l1.8 3.1c.5.7.1 1.7-.6 2-.2 0-.4.1-.7.1zm-4.2-7.1c-.5 0-1.1-.2-1.3-.7l-1.7-3.1c-.5-.7-.1-1.7.6-2 .7-.5 1.7-.1 2 .6L71 84c.5.7.1 1.7-.6 2-.2.1-.4.1-.8.1z"/><path id="blast-four-small" d="M91.3 75.8c-.2 0-.5-.1-.7-.2l-3.1-1.7c-.7-.5-1-1.3-.6-2 .5-.7 1.3-1 2-.6L92 73c.7.5 1 1.3.6 2-.2.5-.8.8-1.3.8zm-7.2-4.1c-.2 0-.5-.1-.7-.2l-3.1-1.8c-.7-.5-1-1.3-.6-2 .5-.7 1.3-1 2-.6l3.1 1.8c.7.5 1 1.3.6 2-.2.4-.7.8-1.3.8z"/><path id="blast-three-small" d="M97.6 52H94c-.8 0-1.6-.7-1.6-1.6s.7-1.6 1.6-1.6h3.6c.8 0 1.6.7 1.6 1.6 0 .9-.8 1.6-1.6 1.6zm-8.2 0h-3.6c-.8 0-1.6-.7-1.6-1.6s.7-1.6 1.6-1.6h3.6c.8 0 1.6.7 1.6 1.6-.1.9-.8 1.6-1.6 1.6z"/><path id="blast-two_1_" d="M81.1 33.9c-.5 0-1.1-.2-1.3-.7-.5-.7-.1-1.7.6-2l3.1-1.8c.7-.5 1.7-.1 2 .6.5.7.1 1.7-.6 2l-3.1 1.8c-.2.1-.5.1-.7.1zm7.1-4c-.5 0-1.1-.2-1.3-.7-.5-.7-.1-1.7.6-2l3.1-1.8c.7-.5 1.7-.1 2 .6.5.7.1 1.7-.6 2l-3 1.7c-.2 0-.6.2-.8.2z"/><path id="blast-one-small" d="M68 20.9c-.2 0-.5-.1-.7-.2-.7-.5-1-1.3-.6-2l1.8-3.1c.5-.7 1.3-1 2-.6.7.5 1 1.3.6 2l-1.8 3c-.4.5-.9.9-1.3.9zm4-7.2c-.2 0-.5-.1-.7-.2-.7-.5-1-1.3-.6-2l1.8-3.1c.5-.7 1.3-1 2-.6.7.5 1 1.3.6 2l-1.8 3.1c-.2.6-.8.8-1.3.8z"/></g><g id="bolt" fill="#C1CE20"><path id="dot" d="M59.2 52.3c-.3 0-.7-.1-.9-.4l-.2-.2c0-.1-.1-.1-.1-.2s-.1-.2-.1-.2v-.2-.3s0-.2.1-.2c0-.1.1-.2.1-.2 0-.1.1-.1.2-.2l.2-.2c.1 0 .1-.1.2-.1s.2-.1.2-.1h.5c.1 0 .2 0 .2.1.1 0 .2.1.2.1.1 0 .1.1.2.2l.2.2c0 .1.1.1.1.2s.1.2.1.2v.5c0 .1 0 .2-.1.2 0 .1-.1.2-.1.2 0 .1-.1.1-.2.2-.1.3-.5.4-.8.4z"/><path id="upper-bolt" d="M55.4 52.3l-11.2-.1L59 25.6H43.4c-.7 0-1.3-.6-1.3-1.3s.6-1.3 1.3-1.3h20L48.6 49.6l6.9.1c.7 0 1.3.6 1.3 1.3-.1.7-.7 1.3-1.4 1.3z"/><path id="lower-bolt" d="M41 85.7l8.2-22.9H29.6l11.7-33.2c.2-.7 1-1 1.6-.8.7.2 1 1 .8 1.6L33.2 60.3h19.7l-5.4 14.9 21.7-22.7-6.3-.1c-.7 0-1.3-.6-1.3-1.3s.6-1.3 1.3-1.3l12.2.2L41 85.7z"/></g></svg>
