<svg id="magnet" xmlns="http://www.w3.org/2000/svg" viewBox="0 0 100 100"><g id="energy" fill="#C1CE20" opacity="0"><path id="energy-one" d="M48.5 12c-.3 0-.7-.1-.9-.4-.5-.5-.5-1.3.1-1.8l2.2-2c.5-.5 1.3-.5 1.8.1.5.5.5 1.3-.1 1.8l-2.2 2c-.3.2-.6.3-.9.3zm5.1-4.7c-.3 0-.7-.1-.9-.4-.5-.5-.5-1.3.1-1.8l2.2-2c.5-.5 1.3-.5 1.8.1.5.5.5 1.3-.1 1.8l-2.2 2c-.3.2-.6.3-.9.3z"/><path id="energy-two" d="M54.7 13.4c-.3 0-.7-.1-.9-.4-.5-.5-.5-1.3.1-1.8l2.2-2c.5-.5 1.3-.5 1.8.1.5.5.5 1.3-.1 1.8l-2.2 2c-.3.2-.6.3-.9.3zm5.1-4.7c-.3 0-.7-.1-.9-.4-.5-.5-.5-1.3.1-1.8l2.2-2c.4-.5 1.2-.5 1.7 0s.5 1.3-.1 1.8l-2.2 2c-.2.3-.5.4-.8.4z"/><path id="energy-three" d="M84.6 48.6c-.3 0-.7-.1-.9-.4-.5-.5-.5-1.3.1-1.8l2.2-2c.5-.5 1.3-.5 1.8.1.5.5.5 1.3-.1 1.8l-2.2 2c-.3.2-.6.3-.9.3zm5.1-4.7c-.3 0-.7-.1-.9-.4-.5-.5-.5-1.3.1-1.8l2.2-2c.5-.5 1.3-.5 1.8.1.5.5.5 1.3-.1 1.8l-2.2 2c-.3.2-.6.3-.9.3z"/><path id="energy-four" d="M90.1 50.3c-.3 0-.7-.1-.9-.4-.5-.5-.5-1.3.1-1.8l2.2-2c.5-.5 1.3-.5 1.8.1.5.5.5 1.3-.1 1.8L91 50c-.2.2-.5.3-.9.3zm5.1-4.7c-.3 0-.7-.1-.9-.4-.5-.5-.5-1.3.1-1.8l2.2-2c.5-.5 1.3-.5 1.8.1.5.5.5 1.3-.1 1.8l-2.2 2c-.3.2-.6.3-.9.3z"/></g><g id="body" fill="#C1CE20"><path id="inner-shape" d="M89.4 57.7s.1 0 0 0c0-.1.1-.1.1-.1v-.1-.1-.1-.1-.1-.1-.1-.1-.1-.1-.1-.1-.1-.1-.1-.1-.1-.1-.1-.1-.1-.1-.1-.1-.1l-9.3-9.6c-.4-.5-1.2-.5-1.7-.1-.2.1-.3.2-.5.3L49.5 74.9c-7.1 7.1-18.7 7-25.8-.1-3.4-3.4-5.3-8-5.3-12.9s1.9-9.5 5.4-12.9l6.9-6.8c.5-.5.5-1.3 0-1.8s-1.3-.5-1.8 0L22 47.2c-3.9 3.9-6.1 9.1-6.1 14.7s2.1 10.8 6 14.7c4.1 4.1 9.4 6.1 14.8 6.1 5.3 0 10.6-2 14.7-6L79 49.1l7.6 7.8-8 7.9-5.8-5.8c-.5-.5-1.3-.5-1.8 0s-.5 1.3 0 1.8l5.8 5.8-19.2 19.2c-.9.9-1.8 1.7-2.8 2.4-.6.4-.7 1.2-.2 1.8.3.3.6.5 1 .5.3 0 .6-.1.8-.3 1-.8 2-1.7 3-2.6l29.9-29.7.1-.2c0 .1 0 .1 0 0 0 .1 0 .1 0 0z"/><path id="outter-shape" d="M47.5 92.5c-5.8 2.4-12 3-18.2 1.9-6.3-1.2-12-4.2-16.5-8.8-5.9-6-9.2-13.9-9.2-22.4s3.3-16.4 9.3-22.4L42 12l7.7 7.7-8 7.9-5.8-5.6c-.5-.5-1.3-.5-1.8 0s-.5 1.3 0 1.8l5.7 5.7-4.3 4.3c-.5.5-.5 1.3 0 1.8.3.3.6.4.9.4.3 0 .7-.1.9-.4l5-5c.1 0 .1-.1.2-.2l.2-.2 9.5-9.5.1-.1h.1c.5-.5.5-1.3 0-1.8l-9.5-9.5-.1-.1c-.5-.4-1.2-.4-1.7.1L11.1 39C4.6 45.4 1.1 54 1 63.2c0 9.2 3.5 17.8 9.9 24.3 4.9 4.9 11.1 8.2 17.9 9.5 2.1.4 4.3.6 6.5.6 4.5 0 9-.9 13.2-2.6.7-.3 1-1 .7-1.7-.3-.7-1.1-1.1-1.7-.8z"/><path id="upper-dot" d="M34.2 37.2c0-.1-.1-.1-.2-.2l-.2-.2c-.1 0-.1-.1-.2-.1s-.2-.1-.2-.1h-.5c-.1 0-.2 0-.2.1-.1 0-.2.1-.2.1-.1 0-.1.1-.2.2l-.2.2c0 .1-.1.1-.1.2s-.1.2-.1.2v.6c0 .1 0 .2.1.2 0 .1.1.2.1.2 0 .1.1.1.2.2l.2.2c.1 0 .1.1.2.1s.2.1.2.1h.6c.1 0 .2 0 .2-.1.1 0 .2-.1.2-.1.1 0 .1-.1.2-.2l.2-.2c0-.1.1-.1.1-.2s.1-.2.1-.2v-.3-.3c0-.1 0-.2-.1-.2-.1-.1-.1-.2-.2-.2z"/><path id="lower-dot" d="M51.9 90.6c-.3 0-.7.1-.9.4-.2.2-.4.6-.4.9 0 .3.1.7.4.9l.2.2c.1 0 .1.1.2.1s.2.1.2.1h.6c.1 0 .2 0 .2-.1.1 0 .2-.1.2-.1.1 0 .1-.1.2-.2.2-.2.4-.6.4-.9 0-.3-.1-.7-.4-.9-.2-.3-.5-.4-.9-.4z"/></g><path id="bolt" fill="#C1CE20" d="M56.4 50.1l9.1-34.3 11.3 5.5 14.7-10.9L81 34l-9.7-4.2-14.9 20.3zm10.8-30.6l-4.8 18 8-11 9.3 4 5.5-12.2-8.1 6-9.9-4.8z"/></svg>
