<svg id="megaphone" xmlns="http://www.w3.org/2000/svg" viewBox="0 0 100 100"><g id="noise" fill="#C1CE20" style="opacity:0"><path id="upper-noise" d="M79.1 37.7c-.3 0-.6-.1-.8-.3-.6-.4-.7-1.3-.2-1.8l1.8-2.4c.4-.6 1.3-.7 1.8-.2.6.4.7 1.3.2 1.8l-1.8 2.4c-.2.3-.6.5-1 .5zm4.3-5.5c-.3 0-.6-.1-.8-.3-.6-.4-.7-1.3-.2-1.8l1.8-2.4c.4-.6 1.3-.7 1.8-.2.6.4.7 1.3.2 1.8l-1.8 2.4c-.3.3-.7.5-1 .5zm4.2-5.5c-.3 0-.6-.1-.8-.3-.6-.4-.7-1.3-.2-1.8l1.8-2.4c.4-.6 1.3-.7 1.8-.2.6.4.7 1.3.2 1.8l-1.8 2.4c-.2.3-.6.5-1 .5z"/><path id="lower-noise" d="M95.3 60.7c-.2 0-.5-.1-.7-.2l-2.5-1.7c-.6-.4-.8-1.2-.4-1.8.4-.6 1.2-.8 1.8-.4l2.5 1.7c.6.4.8 1.2.4 1.8-.2.4-.6.6-1.1.6zm-5.7-3.9c-.2 0-.5-.1-.7-.2l-2.5-1.7c-.6-.4-.8-1.2-.4-1.8.4-.6 1.2-.8 1.8-.4l2.5 1.7c.6.4.8 1.2.4 1.8-.3.4-.7.6-1.1.6zm-5.8-3.9c-.2 0-.5-.1-.7-.2L80.6 51c-.6-.4-.8-1.2-.4-1.8.4-.6 1.2-.8 1.8-.4l2.5 1.7c.6.4.8 1.2.4 1.8-.3.4-.7.6-1.1.6z"/><path id="center-noise" d="M80.3 44.6c-.6 0-1.2-.4-1.3-1.1-.1-.7.4-1.4 1.1-1.5l2.9-.5c.7-.1 1.4.4 1.5 1.1s-.4 1.4-1.1 1.5l-2.9.5h-.2zm6.9-1.1c-.6 0-1.2-.4-1.3-1.1-.1-.7.4-1.4 1.1-1.5l2.9-.5c.7-.1 1.4.4 1.5 1.1s-.4 1.3-1.1 1.5l-2.9.5h-.2zm6.9-1.2c-.6 0-1.2-.4-1.3-1.1-.1-.7.4-1.4 1.1-1.5l2.9-.5c.7-.1 1.4.4 1.5 1.1.1.7-.4 1.4-1.1 1.5l-2.9.5h-.2z"/></g><g id="body" fill="#C1CE20"><path id="hand-held" d="M74.9 39.7c-1.7-2.2-4-4-6.7-5V8.4c0-.7-.3-1.4-.8-1.9s-1.2-.8-1.9-.8h-2.9c-.7 0-1.4.3-1.9.8s-.8 1.2-.8 1.9v2.8L36.4 36.1v.3H6c-1.1 0-2.2.4-3 1.2-.8.8-1.2 1.8-1.2 3v18.2c0 1.1.4 2.2 1.2 3 .8.8 1.8 1.2 3 1.2h20.4v22.7c0 3.7-3 6.7-6.7 6.7-1.8 0-3.4-.7-4.7-2-1.3-1.3-2-2.9-2-4.7V71.8c0-.7-.6-1.3-1.3-1.3-.7 0-1.3.6-1.3 1.3v13.9c0 2.5 1 4.8 2.7 6.5 1.8 1.8 4.1 2.7 6.5 2.7 5.1 0 9.3-4.2 9.3-9.3v-2.1h3.4c.9 0 1.7-.7 1.8-1.6l2-9.6v-.1c0-1-.8-1.8-1.8-1.8H29v-7.5h7.3v.3l23.5 24.5v2.8c0 .7.3 1.4.8 1.9s1.2.8 1.9.8h2.9c.7 0 1.4-.3 1.9-.8s.8-1.2.8-1.9V62.4c2.6-1 5-2.7 6.7-5 2-2.6 3-5.7 3-8.9.1-3.2-1-6.3-2.9-8.8zM33.4 73.1L31.8 81H29v-7.9h4.4zM36 60.4H6c-.4 0-.8-.2-1.1-.5-.3-.3-.5-.7-.5-1.1V40.6c0-.4.2-.8.5-1.1.3-.4.7-.5 1.1-.5h30v21.4zm29.5 30.2h-3-.1V75.5c0-.7-.6-1.3-1.3-1.3-.7 0-1.3.6-1.3 1.3v8.4L39 62.2v-25L59.9 15v49.4c0 .7.6 1.3 1.3 1.3.7 0 1.3-.6 1.3-1.3v-56-.1h3.1v.1l-.1 82.2c.1 0 .1 0 0 0zm2.7-30.9V37.5c4.2 2 7.1 6.3 7.1 11.1s-2.9 9.1-7.1 11.1z"/><path id="dot" d="M11.8 67.9c.3 0 .7-.1.9-.4.2-.2.4-.6.4-.9v-.3c0-.1 0-.2-.1-.2 0-.1-.1-.2-.1-.2 0-.1-.1-.1-.2-.2-.3-.3-.7-.4-1.2-.4-.1 0-.2 0-.2.1-.1 0-.2.1-.2.1-.1 0-.1.1-.2.2l-.2.2c0 .1-.1.1-.1.2s-.1.2-.1.2v.3c0 .3.1.7.4.9.2.2.6.4.9.4z"/></g></svg>
