<?xml version="1.0" encoding="utf-8"?>
<!-- Generator: Adobe Illustrator 20.1.0, SVG Export Plug-In . SVG Version: 6.00 Build 0)  -->
<svg version="1.1" id="nurture" xmlns="http://www.w3.org/2000/svg" xmlns:xlink="http://www.w3.org/1999/xlink" x="0px" y="0px"
	 width="100px" height="100px" viewBox="0 0 100 100" enable-background="new 0 0 100 100" xml:space="preserve">
<g id="growth">
	<path id="big-leaf-left" fill="#C1CE20" d="M47.2,41.8c-0.7,0-1.2-0.5-1.3-1.2s0.5-1.3,1.2-1.4c1.8-0.1,3.7-0.6,5.7-1.3
		c0.4-1.8,1.2-7.4-2.3-11.9s-10.3-6.8-20.2-6.8c0.5,3.8,2.5,14.3,9.3,18.3c0.6,0.4,0.8,1.2,0.4,1.8c-0.4,0.6-1.2,0.8-1.8,0.4
		c-9.4-5.6-10.6-21-10.6-21.7l-0.1-1.4h1.4c11.5-0.3,19.5,2.4,23.7,7.9c5,6.5,2.6,14.4,2.5,14.8L55,39.8L54.4,40
		c-2.5,1-4.9,1.6-7.1,1.7C47.3,41.8,47.3,41.8,47.2,41.8z"/>
	<path id="big-leaf-right" fill="#C1CE20" d="M81.2,41.7c-3.4,0-6-1.1-6.2-1.1l-0.6-0.2l-0.2-0.6c-1.7-6.1-1-11.1,2-14.9
		c2.6-3.4,7-5.6,12.8-6.8c4.3-0.8,7.8-0.7,7.9-0.7h1.4l-0.1,1.4c-0.8,10.6-4,17.7-9.4,21C86.2,41.2,83.5,41.7,81.2,41.7L81.2,41.7z
		 M76.6,38.4c1.7,0.5,6.5,1.7,10.9-1s7.2-8.6,8.1-17.6c-3.5,0.1-12.9,1-17.3,6.5C75.9,29.4,75.3,33.4,76.6,38.4z"/>
	<path id="stem-left" fill="#C1CE20" d="M67,60.7h-0.2c-0.7-0.1-1.2-0.8-1.1-1.5c0-0.1,0.5-3.9-0.7-8.1c-1.5-5.5-5.1-9.2-10.6-11
		c-0.7-0.2-1.1-1-0.8-1.6c0.2-0.7,0.9-1.1,1.6-0.8c8,2.6,11.1,8.4,12.4,12.9c1.3,4.7,0.8,8.9,0.7,9C68.2,60.2,67.7,60.7,67,60.7z"/>
	<path id="stem-right" fill="#C1CE20" d="M66.6,52.2L66.6,52.2c-0.8-0.1-1.3-0.7-1.3-1.4c0-0.1,0.3-3,1.7-6c1.9-4.2,5-6.4,9-6.6
		c0.7,0,1.3,0.5,1.4,1.2c0,0.7-0.5,1.3-1.2,1.4c-2.9,0.1-5.2,1.8-6.7,5.1c-1.2,2.6-1.5,5.2-1.5,5.2C67.9,51.7,67.3,52.2,66.6,52.2z"
		/>
	<path id="vein-left" fill="#C1CE20" d="M48.2,35c-0.1,0-0.3,0-0.4-0.1c-0.1,0-2.5-0.9-5.2-2.5c-3.7-2.2-6.3-4.7-7.6-7.5
		c-0.3-0.7,0-1.4,0.6-1.7c0.7-0.3,1.4,0,1.7,0.6c1.3,2.8,4.3,5,6.5,6.3c2.5,1.5,4.7,2.2,4.7,2.2c0.7,0.2,1,1,0.8,1.7
		C49.3,34.7,48.8,35,48.2,35z"/>
	<path id="growth-dot" fill="#C1CE20" d="M42.8,41.2h-0.3c-0.1,0-0.2,0-0.2-0.1c-0.1,0-0.2-0.1-0.2-0.1c-0.1,0-0.1-0.1-0.2-0.2
		c-0.2-0.2-0.4-0.6-0.4-0.9c0-0.3,0.1-0.7,0.4-0.9l0.2-0.2c0.1,0,0.1-0.1,0.2-0.1s0.2-0.1,0.2-0.1c0.4-0.1,0.9,0.1,1.2,0.4
		c0.2,0.2,0.4,0.6,0.4,0.9v0.3c0,0.1,0,0.2-0.1,0.2c0,0.1-0.1,0.2-0.1,0.2c0,0.1-0.1,0.1-0.2,0.2C43.5,41,43.2,41.2,42.8,41.2z"/>
	<path id="vein-right" fill="#C1CE20" d="M80.1,34.1c-0.2,0-0.4,0-0.5-0.1c-0.7-0.3-1-1.1-0.7-1.7C79,32,81.8,25.8,90,23.1
		c0.7-0.2,1.4,0.1,1.6,0.8s-0.1,1.4-0.8,1.6c-7,2.3-9.5,7.7-9.5,7.8C81.1,33.8,80.6,34.1,80.1,34.1z"/>
</g>
<g id="buds" opacity="0">
	<path id="bud-leaf-right_1_" fill="#C1CE20" d="M62.8,24.6c-1.9,0-3.1-0.7-3.4-0.9c-3.7-2.2-4.1-8-4.1-8.3L55.2,14h1.4
		c4.4-0.1,7.4,0.9,9,3.1c2,2.6,1.1,5.8,1,5.9l-0.1,0.7l-0.6,0.2c-1.1,0.4-2,0.6-2.8,0.7C63.1,24.6,62.8,24.6,62.8,24.6z M60.9,21.6
		C61,21.7,61.7,22,63,22c0.4,0,0.8-0.1,1.3-0.2c0.1-0.7,0.1-2-0.7-3c-0.9-1.2-2.8-1.9-5.4-2C58.5,18.3,59.3,20.6,60.9,21.6z"/>
	<path id="bud-stem-left" fill="#C1CE20" d="M69.4,34.7h-0.2c-0.5-0.1-0.9-1.1-0.9-2.1c0-0.3,0.4-6.2-2.7-7.9
		c-1.4-0.8-0.9-1.4-0.6-2.2c0.2-1,0.8-1.5,1.2-1.1c3.7,2.1,4.3,8.6,4.1,11.8C70.3,34,69.9,34.7,69.4,34.7z"/>
	<path id="bud-stem-right" fill="#C1CE20" d="M68.7,36.5L68.7,36.5c-0.1-0.8,0.3-1.4,1-1.7c1.7-0.3,5.2-0.2,6.3,2.8
		c0.2,0.7-0.1,1.4-0.7,1.7c-0.7,0.2-1.4-0.1-1.7-0.7c-0.6-1.7-3.3-1.2-3.3-1.2C68.5,37.6,68.8,37.1,68.7,36.5z"/>
	<path id="bud-stem-right_1_" fill="#C1CE20" d="M69.2,29.2L69.2,29.2c-0.7,0.1-1.3-2.1-1.5-3.1C67.3,23.8,68,20,70,17.9
		c0.7-0.2,1.9-2,2.3-1.1c0,0-0.9,1.9-1.3,3.7c-0.6,2.8-0.7,3.9-0.7,5.2C70,31.6,69.8,29,69.2,29.2z"/>
	<path id="bud-leaf-right" fill="#C1CE20" d="M73.7,40.3c-0.4-1.3-0.3-2.4-0.3-2.5l0-0.6l0.5-0.4c2.1-1.4,4.1-1.7,6-1
		c1.6,0.7,2.9,1.9,4.1,4c0.8,1.4,1.1,2.7,1.2,2.8l0.4,1.3l-1.5,0.3c-3.9,0.9-6.9,0.5-8.7-1.2C74.5,42.1,74,41.2,73.7,40.3L73.7,40.3
		z M76,38.5c0.1,0.6,0.3,1.7,1.2,2.5c1,0.8,2.8,1.1,5,0.9c-0.6-1.4-1.7-3.1-3.1-3.6C78.1,37.9,77.1,38,76,38.5z"/>
	<path id="bud-leaf-right_2_" fill="#C1CE20" d="M72.7,17.8c-1.2,0.7-2.3,0.8-2.4,0.8l-0.6,0.1l-0.5-0.4c-1.8-1.8-2.5-3.7-2.2-5.6
		c0.3-1.7,1.3-3.2,3.1-4.8c1.3-1,2.4-1.7,2.5-1.7l1.2-0.7l0.6,1.4c1.7,3.6,1.8,6.6,0.6,8.8C74.4,16.7,73.5,17.4,72.7,17.8L72.7,17.8
		z M70.6,15.9c0.6-0.2,1.6-0.6,2.2-1.7c0.6-1.1,0.6-2.9-0.2-5.1c-1.2,0.9-2.7,2.3-2.9,3.8C69.5,14,69.8,15,70.6,15.9z"/>
</g>
<ellipse id="inside" fill="#FFFFFF" cx="67.4" cy="60.7" rx="8.1" ry="9.7"/>
<path id="hand" fill="#C1CE20" d="M90.1,76.3h-2.2c0.1-0.2,0.1-0.5,0.1-0.7c-1.3-10.1-5.3-17.5-12-22.1c-11.8-8.1-27.5-4.3-28.4-4.1
	l-3.2-3.2c-6.1-6.1-11.6-5.7-12.5-5.6H6.6c-2.9,0-5.2,2.3-5.2,5.2v27.9h15.7c2.4,1.8,16.8,12.5,21.6,16.2c4.1,3.2,7.5,3.5,8.6,3.5
	H90c4.7,0,8.5-3.8,8.5-8.5C98.6,80.1,94.8,76.3,90.1,76.3z M74.6,55.7c6,4.1,9.7,11,10.9,20.3c0,0.1,0.1,0.3,0.1,0.4l-18.1-0.1
	l-0.4,0.5c-2.8,3.5-5.8,5.3-9.3,5.3c-3.1,0.1-4.9-0.6-7.5-2.8c-0.7-0.6-12.9-12.6-13.4-13c-0.2-0.2-0.4-0.6-0.4-1.1
	c0.1-0.6,0.6-1.1,1.1-1.2s1,0.1,1.3,0.5l0.1,0.1l12,11.3c1.8,2,4.3,2.9,6.9,2.7c4-0.3,7.3-3.6,7.6-7.6c0.2-2.6-0.7-5.1-2.7-6.9
	c-0.3-0.3-7-6.8-12.9-12.5C54.2,50.9,65.8,49.7,74.6,55.7z M90.1,90.8H47.5c0,0-3.1,0.2-7.2-3c-5.2-4.1-21.8-16.3-22-16.5L18,71.1H4
	V45.8c0-1.4,1.2-2.6,2.6-2.6h25.7c0,0,4.8-0.7,10.4,4.9c6.1,6.1,18.3,17.8,18.4,18c1.3,1.2,2,3,1.9,4.8c-0.2,2.8-2.5,5-5.2,5.2
	c-1.8,0.1-3.6-0.5-4.8-1.9L41,62.8c-0.9-1.1-2.3-1.6-3.6-1.3c-1.7,0.3-3.1,1.7-3.3,3.4c-0.2,1.2,0.2,2.4,1.1,3.3l0.6,0.6l1.5,1.5
	c1.3,1.2,2.9,2.9,4.6,4.5c5.1,5,6.4,6.2,6.8,6.6c3.1,2.6,5.5,3.5,9.2,3.4c4.1-0.1,7.7-2,10.9-5.8l20.7,0.1h0.8
	c3.3,0,5.9,2.7,5.9,5.9S93.4,90.8,90.1,90.8z"/>
</svg>
