<?xml version="1.0" encoding="utf-8"?>
<!-- Generator: Adobe Illustrator 20.1.0, SVG Export Plug-In . SVG Version: 6.00 Build 0)  -->
<svg version="1.1" id="paper-airplane" xmlns="http://www.w3.org/2000/svg" xmlns:xlink="http://www.w3.org/1999/xlink" x="0px"
	 y="0px" viewBox="0 0 100 100" enable-background="new 0 0 100 100" xml:space="preserve">
<g id="plane">
	<path id="dot" fill="#C1CE20" d="M28.2,48.6H28c-0.1,0-0.2,0-0.2-0.1c-0.1,0-0.1-0.1-0.2-0.1s-0.1-0.1-0.2-0.2L27.2,48
		c0-0.1-0.1-0.1-0.1-0.2S27,47.6,27,47.6v-0.2v-0.2c0-0.1,0-0.2,0.1-0.2c0-0.1,0.1-0.1,0.1-0.2s0.1-0.1,0.2-0.2l0.2-0.2
		c0.1,0,0.1-0.1,0.2-0.1s0.2-0.1,0.2-0.1h0.5c0.1,0,0.2,0,0.2,0.1c0.1,0,0.1,0.1,0.2,0.1s0.1,0.1,0.2,0.2l0.2,0.2
		c0,0.1,0.1,0.1,0.1,0.2s0.1,0.2,0.1,0.2v0.4c0,0.1,0,0.2-0.1,0.2c0,0.1-0.1,0.1-0.1,0.2s-0.1,0.1-0.2,0.2l-0.2,0.2
		c-0.1,0-0.1,0.1-0.2,0.1s-0.2,0.1-0.2,0.1H28.2z"/>
	<path id="body" fill="#C1CE20" d="M31.9,44.8c-0.6,0.2-1,1-0.7,1.6c0.2,0.6,1,1,1.6,0.7l31-11.7L26.9,66.1l-20.7-9l18.3-6.9
		c0.6-0.2,1-1,0.7-1.6c-0.2-0.6-1-1-1.6-0.7L3.4,55.5c-0.6,0.3-1,0.8-1,1.5s0.4,1.3,1,1.5l22.7,9.9l6.6,25.1l15.1-16.8l16,6.6
		c0.9,0.4,1.9,0.3,2.7-0.2s1.4-1.3,1.5-2.3l3.6-51C71.6,29.8,31.9,44.8,31.9,44.8z M33.3,86.3L28.5,68L62,40.1L37.6,71l-0.2,0.2
		L33.3,86.3z M65.5,80.5c0,0.3-0.2,0.4-0.3,0.5c-0.1,0.1-0.3,0.1-0.5,0.1l-14.5-6l-6.4-3.3c-0.6-0.3-1.4-0.1-1.7,0.5
		c-0.3,0.6-0.1,1.4,0.5,1.7l2.9,1.5l-9.7,10.8l3.9-14l29-36.8C68.7,35.5,65.5,80.5,65.5,80.5z"/>
</g>
<g id="air" opacity="0">
	<g id="trail">
		<path id="ninteen" fill="#C1CE20" d="M7.8,90.5c-0.3,0-0.6-0.1-0.9-0.4c-0.4-0.4-0.8-0.9-1-1.3c-0.4-0.6-0.2-1.3,0.4-1.7
			c0.5-0.3,1.3-0.2,1.7,0.4c0.2,0.3,0.4,0.6,0.7,0.9c0.5,0.5,0.5,1.3,0,1.7C8.4,90.4,8.1,90.5,7.8,90.5z"/>
		<path id="eighteen" fill="#C1CE20" d="M13.9,91.2c-0.9-0.2-1.7-0.5-2.5-0.9c-0.6-0.3-1.4,0-1.6,0.6c-0.3,0.6,0,1.4,0.6,1.6
			c0.9,0.4,1.8,0.7,2.8,1h0.3c0.5,0,1-0.4,1.2-0.9C15,92,14.6,91.3,13.9,91.2z"/>
		<path id="seventeen" fill="#C1CE20" d="M20.1,91.8c-0.9,0-1.8,0-2.7-0.1c-0.7-0.1-1.3,0.5-1.4,1.1c-0.1,0.7,0.4,1.5,1.1,1.6
			c0.9,0.1,1.9,0.4,2.9,0.4c0.7,0,1.2-0.8,1.2-1.5C21.4,92.6,20.8,91.8,20.1,91.8z"/>
		<path id="sixteen" fill="#C1CE20" d="M26.4,91.2c-0.9,0.2-1.7,0.4-2.6,0.5c-0.7,0.1-1.1,0.7-1.1,1.4c0.1,0.6,0.6,1.1,1.2,1.1h0.2
			c1-0.1,2-0.3,2.9-0.6c0.7-0.2,1.1-0.8,0.9-1.5C27.7,91.4,27,91,26.4,91.2z"/>
		<path id="fifteen" fill="#C1CE20" d="M32.1,88.8c-0.7,0.5-1.5,0.9-2.3,1.2c-0.6,0.3-0.9,1-0.6,1.6c0.2,0.5,0.7,0.7,1.1,0.7
			c0.2,0,0.3,0,0.5-0.1c0.9-0.4,1.8-0.9,2.7-1.4c0.6-0.4,0.7-1.1,0.4-1.7C33.4,88.6,32.6,88.4,32.1,88.8z"/>
		<path id="fourteen" fill="#C1CE20" d="M36.1,84.9c-0.6,0.7-1.2,1.4-1.7,2.1c-0.5,0.5-0.4,1.3,0.1,1.7c0.3,0.3,0.7,0.4,1.1,0.3
			c0.2-0.1,0.4-0.2,0.6-0.4c0.7-0.7,1.3-1.5,1.9-2.2c0.4-0.5,0.3-1.3-0.2-1.7C37.3,84.2,36.5,84.3,36.1,84.9z"/>
		<path id="thirteen" fill="#C1CE20" d="M38.1,78.2C38,79.1,38,80,37.8,80.9c-0.1,0.7,0.4,1.3,1,1.4c0.4,0.1,0.8-0.1,1.1-0.4
			c0.2-0.2,0.3-0.4,0.3-0.6c0.1-0.9,0.2-1.9,0.3-2.9c0-0.7-0.5-1.3-1.2-1.3C38.7,77,38.1,77.5,38.1,78.2z"/>
		<path id="twelve" fill="#C1CE20" d="M36.4,72.9c0.3,0.7,0.5,1.4,0.7,2.1c0,0.1,0.1,0.3,0.1,0.4c0.1,0.6,0.6,1,1.2,1h0.3
			c0.7-0.1,1.1-0.8,0.9-1.5c0-0.2-0.1-0.3-0.1-0.5c-0.2-0.8-0.5-1.6-0.7-2.4c-0.2-0.6-1-1-1.6-0.7C36.5,71.5,36.2,72.2,36.4,72.9z"
			/>
		<path id="eleven" fill="#C1CE20" d="M34.8,69.8c0.2,0.3,0.6,0.5,1,0.5c0.2,0,0.5-0.1,0.7-0.2c0.6-0.4,0.7-1.2,0.3-1.7
			c-0.6-0.9-1.3-1.7-2.1-2.3c-0.5-0.5-1.3-0.4-1.7,0.1c-0.5,0.5-0.4,1.3,0.1,1.7C33.7,68.4,34.3,69.1,34.8,69.8z"/>
		<path id="ten" fill="#C1CE20" d="M28,65.9c0.8,0,1.6,0.1,2.3,0.3c0.1,0,0.3,0.1,0.4,0.1c0.5,0,1-0.3,1.2-0.8
			c0.2-0.6-0.1-1.3-0.8-1.6c-1.1-0.4-2.1-0.5-3.2-0.4c-0.7,0-1.2,0.6-1.2,1.3C26.8,65.4,27.3,66,28,65.9z"/>
		<path id="nine" fill="#C1CE20" d="M22.2,68.8c0.3,0,0.6-0.1,0.9-0.4c0.6-0.6,1.3-1.2,1.9-1.6c0.6-0.3,0.8-1.1,0.4-1.7
			c-0.3-0.6-1.1-0.8-1.7-0.4c-0.9,0.5-1.7,1.2-2.5,2c-0.5,0.5-0.5,1.3,0,1.7C21.6,68.7,21.9,68.8,22.2,68.8z"/>
		<path id="eight" fill="#C1CE20" d="M19.2,74.8c0.7,0,1.2-0.7,1.3-1.4c0-0.7,0.2-1.4,0.5-1.9c0-0.1,0.1-0.2,0.1-0.3
			c0.3-0.6,0.1-1.4-0.5-1.7c-0.6-0.3-1.3-0.1-1.7,0.5c-0.1,0.1-0.1,0.2-0.2,0.3c-0.5,0.9-0.7,2-0.8,3.1C18,74.1,18.5,74.8,19.2,74.8
			z"/>
		<path id="seven" fill="#C1CE20" d="M22.5,78.5c-0.5-0.7-1-1.4-1.3-2.1c-0.3-0.6-1-0.9-1.6-0.6s-0.9,1-0.6,1.6
			c0.4,0.9,1,1.8,1.7,2.7c0.2,0.3,0.6,0.4,1,0.4c0.3,0,0.6-0.1,0.8-0.3C22.9,79.8,22.9,79,22.5,78.5z"/>
		<path id="six" fill="#C1CE20" d="M27.3,81.9c-0.8-0.3-1.6-0.7-2.3-1.1c-0.6-0.4-1.3-0.2-1.7,0.4c-0.4,0.6-0.2,1.3,0.4,1.7
			c0.9,0.6,1.8,1,2.8,1.4c0.1,0.1,0.3,0.1,0.4,0.1c0.5,0,1-0.3,1.2-0.8C28.3,82.8,28,82.1,27.3,81.9z"/>
		<path id="five" fill="#C1CE20" d="M33.3,82.7c-0.9,0.1-1.8,0-2.6-0.1c-0.7-0.1-1.3,0.4-1.4,1.1s0.4,1.3,1.1,1.4
			c0.6,0.1,1.3,0.1,1.9,0.1h1.1c0.7,0,1.2-0.6,1.2-1.3C34.6,83.2,34,82.7,33.3,82.7z"/>
		<path id="four" fill="#C1CE20" d="M38.9,81c-0.8,0.4-1.7,0.7-2.5,1c-0.6,0.2-1,0.9-0.7,1.6c0.1,0.4,0.5,0.7,0.9,0.8
			c0.2,0.1,0.5,0,0.7,0c0.9-0.3,1.8-0.7,2.7-1.1c0.6-0.3,0.9-1,0.6-1.6C40.3,81,39.5,80.7,38.9,81z"/>
		<path id="three" fill="#C1CE20" d="M44.5,77.9c-0.7,0.6-1.5,1.1-2.2,1.6c-0.6,0.4-0.7,1.1-0.4,1.7c0.2,0.4,0.6,0.6,1,0.6
			c0.2,0,0.5-0.1,0.7-0.2c0.8-0.5,1.6-1.1,2.4-1.7c0.5-0.4,0.6-1.2,0.2-1.7C45.8,77.5,45,77.5,44.5,77.9z"/>
		<path id="two" fill="#C1CE20" d="M50.8,73.3c-0.5-0.4-1.3-0.4-1.7,0.1c-0.6,0.7-1.2,1.4-1.9,2c-0.5,0.5-0.5,1.3,0,1.7
			c0.2,0.2,0.6,0.4,0.9,0.4s0.6-0.1,0.9-0.4c0.7-0.7,1.3-1.4,2-2.1C51.4,74.5,51.3,73.7,50.8,73.3z"/>
		<path id="one" fill="#C1CE20" d="M52.3,72.5c-0.2,0-0.5-0.1-0.7-0.2c-0.6-0.4-0.7-1.2-0.3-1.7c0.5-0.7,0.7-1.1,0.7-1.1
			c0.4-0.6,1.1-0.8,1.7-0.4c0.6,0.4,0.8,1.1,0.4,1.7c0,0-0.3,0.5-0.8,1.3C53.1,72.3,52.7,72.5,52.3,72.5z"/>
	</g>
</g>
</svg>
