<svg id="piggybank" xmlns="http://www.w3.org/2000/svg" viewBox="0 0 100 100"><g id="main-body" fill="#C1CE20"><path id="body" d="M98.3 55.5c.1-3.4-1.3-5.7-3.6-6.1-2.9-.6-7.2-2.9-8.1-3.7C83.2 37 78.8 31.5 73 28.2c-3.5-1.9-8.7-3.9-20.6-3.9-10.2 0-19.8 3.3-27.1 9.4S14 47.9 14 56.5c0 10.1 5.5 19.4 15 25.6.2.1.5.2.7.2.4 0 .8-.2 1.1-.6.4-.6.2-1.4-.4-1.8-8.8-5.7-13.8-14.2-13.8-23.4 0-16.4 16.1-29.7 35.8-29.7 8.9 0 14.7 1.1 19.3 3.6 5.4 3 9.4 8.2 12.6 16.4l.1.2.1.2c1.1 1.2 6.2 4 9.7 4.7 1.2.2 1.6 2 1.5 3.5-.2 6.9-5.6 11.3-9.4 11.8h-.1-.1-.1-.1-.1-.1-.1v.4C80 78.7 67 85.8 52.6 85.8c-4.5 0-8.9-.7-13.1-2-.7-.2-1.4.2-1.6.8-.2.7.2 1.4.8 1.6 4.4 1.4 9.1 2.2 13.9 2.2 15.2 0 28.8-7.5 35-19 7.1-1.1 10.6-8.9 10.7-13.9z"/><path d="M34.3 84.6H34s-.2 0-.2-.1c-.1 0-.2-.1-.2-.1-.1 0-.1-.1-.2-.2l-.2-.2c0-.1-.1-.1-.1-.2s-.1-.2-.1-.2v-.3c0-.3.1-.7.4-.9l.2-.2c.1 0 .1-.1.2-.1s.2-.1.2-.1h.5c.1 0 .2 0 .2.1.1 0 .2.1.2.1.1 0 .1.1.2.2.2.2.4.6.4.9v.3c0 .1 0 .2-.1.2 0 .1-.1.2-.1.2 0 .1-.1.1-.2.2l-.2.2c-.1 0-.1.1-.2.1s-.2.1-.2.1h-.2z"/><path id="back-leg" d="M38.5 97.1h-9.3c-2.1 0-3.8-1.7-3.8-3.8V79.1c0-.7.6-1.3 1.3-1.3s1.3.6 1.3 1.3v14.2c0 .7.5 1.2 1.2 1.2h9.3c.7 0 1.2-.5 1.2-1.2v-6.5c0-.7.6-1.3 1.3-1.3s1.3.6 1.3 1.3v6.5c0 2.1-1.7 3.8-3.8 3.8z"/><path id="front-leg" d="M75.7 97.1h-9.3c-2.1 0-3.8-1.7-3.8-3.8v-6.6c0-.7.6-1.3 1.3-1.3.7 0 1.3.6 1.3 1.3v6.6c0 .7.5 1.2 1.2 1.2h9.3c.7 0 1.2-.5 1.2-1.2v-7.4c0-.7.6-1.3 1.3-1.3.7 0 1.3.6 1.3 1.3v7.4c0 2.1-1.7 3.8-3.8 3.8z"/>
<path id="tail" d="M15.3 48.7h-.2c-2.5-.4-5.8-1.5-7.3-4.2-.5-.8-.8-1.7-.9-2.6-2.3-.8-4.5-2.2-5.3-3.6-.4-.6-.1-1.4.5-1.8s1.4-.1 1.8.5 1.7 1.5 3.2 2.2c.1-.6.3-1.1.5-1.7 1-2.7 2.5-3.4 3.5-3.6 1.4-.2 2.9.6 3.8 2 .9 1.4 1 3 .3 4.3-.6 1.1-2 2.4-4.7 2.3h-.8c.1.2.2.5.3.7 1.1 1.9 4 2.7 5.5 2.9.7.1 1.2.8 1.1 1.5-.1.6-.7 1.1-1.3 1.1zm-5.8-8.8c.3 0 .6.1.9.1 1.2 0 2-.3 2.5-1.1.3-.4.1-1.1-.2-1.5-.4-.6-.9-.9-1.3-.9-.5.1-1 .8-1.4 1.9-.2.5-.4 1-.5 1.5z"/><path id="ear" d="M78.6 35.7c-.3 0-.6-.1-.8-.3-.6-.4-.7-1.3-.2-1.8l9.1-11.5c-3-1.9-5.9-2.5-8.6-1.8-5 1.3-7.8 6.5-7.9 6.5-.3.6-1.1.9-1.8.5-.6-.3-.9-1.1-.5-1.8.1-.3 3.4-6.2 9.5-7.8 3.5-.9 7.1-.1 10.8 2.2.6.4 1 1 1.1 1.6.1.7 0 1.4-.5 1.9l-9.3 11.7c-.2.4-.6.6-.9.6z"/></g><g id="behind-coin"><circle id="behind-coin-center" fill="#FFF" cx="47" cy="11.8" r="9.2"/><path id="behind-coin_-outer" fill="#C1CE20" d="M47 22.6c-6 0-10.8-4.9-10.8-10.8C36.2 5.8 41 1 47 1s10.8 4.9 10.8 10.8S52.9 22.6 47 22.6zm0-19c-4.5 0-8.2 3.7-8.2 8.2S42.4 20 47 20s8.2-3.7 8.2-8.2-3.7-8.2-8.2-8.2z"/></g>
<g id="big-coin"><circle id="coin-center_1_" fill="#FFF" cx="47" cy="11.8" r="9.2"/><path id="coin_-outter_1_" fill="#C1CE20" d="M47 22.6c-6 0-10.8-4.9-10.8-10.8C36.2 5.8 41 1 47 1s10.8 4.9 10.8 10.8S52.9 22.6 47 22.6zm0-19c-4.5 0-8.2 3.7-8.2 8.2S42.4 20 47 20s8.2-3.7 8.2-8.2-3.7-8.2-8.2-8.2z"/></g>
<circle id="white-body" fill="#FFF" cx="52" cy="57.9" r="24.4"/><path id="hair" fill="#C1CE20" d="M64.6 27h-.2c-.7-.1-1.2-.7-1.1-1.5 0-.2.5-3.8 2.8-7.5 2.1-3.5 6.3-7.6 13.8-7.5.7 0 1.3.6 1.3 1.3s-.6 1.3-1.3 1.3c-5.1-.1-9 2-11.6 6.2-2 3.2-2.5 6.5-2.5 6.6 0 .6-.5 1.1-1.2 1.1z"/><path id="eye" fill="#C1CE20" d="M71 51.9c-3 0-5.4-2.4-5.4-5.4s2.4-5.4 5.4-5.4 5.4 2.4 5.4 5.4-2.4 5.4-5.4 5.4zm0-8.2c-1.5 0-2.8 1.3-2.8 2.8s1.3 2.8 2.8 2.8 2.8-1.3 2.8-2.8c.1-1.5-1.2-2.8-2.8-2.8z"/><path id="slot" fill="#C1CE20" d="M40.9 37.5c-.5 0-1-.3-1.2-.8-.3-.7 0-1.4.7-1.7.5-.2 11.8-5 23.1 0 .7.3.9 1.1.7 1.7-.3.7-1 .9-1.7.7-10.3-4.5-21 0-21.1 0-.1.1-.3.1-.5.1z"/><g id="dollar-sign" fill="#C1CE20"><path id="upper-dollar" d="M57 52c-.1-.1-1.7-1.9-4.1-2.5v-5.6c0-.7-.6-1.3-1.3-1.3s-1.3.6-1.3 1.3v5.5c-.7.1-1.5.4-2.3.9-1.3.9-2.1 2.3-2.5 4.1s-.4 4.3 2.3 6.2c1.5 1.1 3.2 1.3 4.8 1.3.7 0 1.3-.6 1.3-1.3s-.6-1.3-1.3-1.3c-1.4 0-2.5-.1-3.3-.8-1.3-.9-1.7-2-1.3-3.6.7-2.8 2.5-3.1 3.6-3.1 2 .1 3.5 1.7 3.5 1.8.5.5 1.3.6 1.8.1.5-.3.5-1.2.1-1.7z"/><path id="lower-dollar" d="M59.4 64.5c0-.7-.7-1.3-1.4-1.2-.7 0-1.3.6-1.2 1.4.1 1.3-.6 2.6-1.7 3.5-.9.7-3 1.4-5 .8-1.5-.5-2.6-1.7-3.1-3.5-.2-.7-.9-1.1-1.6-.9-.7.2-1.1.9-.9 1.6 1 3.4 3.2 4.7 4.8 5.2.3.1.6.2.9.2v6.5c0 .7.6 1.3 1.3 1.3s1.3-.6 1.3-1.3v-6.5c1.5-.2 2.9-.8 3.9-1.5 1.8-1.3 2.8-3.5 2.7-5.6z"/><path d="M56.6 62.2h-.3s-.2 0-.2-.1c-.1 0-.2-.1-.2-.1-.1 0-.1-.1-.2-.2-.2-.2-.4-.6-.4-.9v-.3s0-.2.1-.2c0-.1.1-.2.1-.2 0-.1.1-.1.2-.2.2-.2.6-.4.9-.4.3 0 .7.1.9.4l.2.2c0 .1.1.1.1.2s.1.2.1.2v.3c0 .3-.1.7-.4.9-.2.3-.6.4-.9.4z"/></g></svg>
