<svg id="plattercoins" xmlns="http://www.w3.org/2000/svg" viewBox="0 0 100 100"><g id="base" fill="#C1CE20"><path id="coins" d="M89.7 85.8H80c.2-.3.2-.6.2-.9v-4.1h2.2c1 0 1.7-.8 1.7-1.7v-4.8c0-1-.8-1.7-1.7-1.7h-1.2V69c.6-.3 1-.9 1-1.6v-4.8c0-1-.8-1.7-1.7-1.7h-3.2v-3.3h1.3c1 0 1.7-.8 1.7-1.7V51c0-1-.8-1.7-1.7-1.7H57.7c-1 0-1.7.8-1.7 1.7v4.1h-1.3c-1 0-1.7.8-1.7 1.7v4.8c0 1 .8 1.7 1.7 1.7h3.2v3.5c-.6.3-1 .9-1 1.6v4.8c0 1 .8 1.7 1.7 1.7h1.2v3.3h-2.2c-1 0-1.7.8-1.7 1.7v4.8c0 .3.1.6.2.9h-6.6c.1-.3.2-.5.2-.9v-4.8c0-1-.8-1.7-1.7-1.7h-.7v-3.3h1.2c1 0 1.7-.8 1.7-1.7v-4.8c0-1-.8-1.7-1.7-1.7h-.7v-4.1c0-1-.8-1.7-1.7-1.7H30c-.7 0-1.3.6-1.3 1.3s.6 1.3 1.3 1.3h15.3v3.3H26v-1.7c0-.7-.6-1.3-1.3-1.3s-1.3.6-1.3 1.3v2.4c0 1 .8 1.7 1.7 1.7h.9v3.3h-1.2c-1 0-1.7.8-1.7 1.7V79c0 1 .8 1.7 1.7 1.7h.7v4.1c0 .3.1.6.2.9H10.3c-2.2 0-4 1.9-4 4.2v2.2c0 2.3 1.8 4.2 4 4.2h58.3c.7 0 1.3-.6 1.3-1.3s-.6-1.3-1.3-1.3H10.3c-.8 0-1.5-.7-1.5-1.6V90c0-.9.7-1.6 1.5-1.6h79.3c.8 0 1.5.7 1.5 1.6v2.2c0 .9-.7 1.6-1.5 1.6H76.7c-.7 0-1.3.6-1.3 1.3s.6 1.3 1.3 1.3h12.9c2.2 0 4-1.9 4-4.2V90c.1-2.3-1.7-4.2-3.9-4.2zm-8-10.8v3.3H62.4V75h19.3zm-2-11.6v3.3H60.4v-3.3h19.3zM58.5 51.7h19.3V55H58.5v-3.3zm-3.1 9.2v-3.3h19.3v3.3H55.4zm4.1 11.6v-3.3h19.3v3.3H59.5zm-1 8.3h19.3v3.3H58.5v-3.3zM28 84.2v-3.3h19.3v3.3H28zm.5-15h19.3v3.3H28.5v-3.3zm-3 5.8h19.3v3.3H25.5V75z"/><path id="base-dot" d="M72.5 93.6c-.1 0-.2 0-.2.1-.1 0-.1.1-.2.1s-.1.1-.2.2c-.2.2-.4.6-.4.9v.2c0 .1 0 .2.1.2 0 .1.1.1.1.2s.1.1.2.2l.2.2c.1 0 .1.1.2.1s.2.1.2.1h.2c.3 0 .7-.1.9-.4l.2-.2c0-.1.1-.1.1-.2s.1-.2.1-.2v-.2c0-.3-.1-.7-.4-.9-.3-.3-.7-.4-1.1-.4z"/></g><g id="cover"><path id="panel" fill="#FFF" d="M48.6 32.6c-19.7 2.1-36.1 20.1-38.5 41.2 13.2-.9 27.2-2.9 40.1-4.3 13-1.4 22.1-2.7 36.8-4-2.3-20.6-18.7-35-38.4-32.9z"/><path id="shine-three" fill="#C1CE20" d="M77 60.6c.1.3.4.6.7.7.3.1.6.1.9 0 .6-.3.9-1 .7-1.6-.3-.7-.6-1.5-1-2.2-.3-.6-1.1-.9-1.7-.6-.6.3-.9 1.1-.6 1.7.4.6.7 1.3 1 2z"/><path id="shine-two" fill="#C1CE20" d="M74.4 55.5c.2.3.4.4.6.5.3.1.7.1 1.1-.1.6-.4.8-1.1.4-1.7-3.1-5.2-7.2-9.4-12.2-12.4-.6-.4-1.4-.2-1.7.4-.4.6-.2 1.4.4 1.7 4.7 2.8 8.5 6.7 11.4 11.6z"/><path id="shine-one" fill="#C1CE20" d="M53.1 40.1c.1 0 .2.1.3.1 0 0 2.5.3 5.9 1.8.6.3 1.4 0 1.7-.7.3-.6 0-1.4-.7-1.7-3.8-1.6-6.5-2-6.6-2-.7-.1-1.3.4-1.4 1.1-.1.7.3 1.2.8 1.4z"/><path id="top-dot" fill="#C1CE20" d="M17.5 45.3v.2c0 .1 0 .2.1.2 0 .1.1.1.1.2s.1.1.2.2.1.1.2.1.1.1.2.1c.3.1.7.1 1 0 .3-.1.5-.4.7-.7 0-.1 0-.2.1-.2v-.2-.2c0-.1 0-.2-.1-.2 0-.1-.1-.1-.1-.2s-.1-.1-.2-.2-.1-.1-.2-.1c-.1-.1-.3-.1-.5-.2h-.4c-.1 0-.2 0-.2.1-.1 0-.1.1-.2.1s-.1.1-.2.2-.1.1-.1.2-.1.1-.1.2 0 .2-.1.2c-.2.1-.2.1-.2.2z"/><path id="body" fill="#C1CE20" d="M88.7 63.4C85.6 44.8 70.2 31.2 52 29.9c-.3-1.9-1.2-3.5-2.6-4.7-1.5-1.2-3.4-1.8-5.4-1.6-3.9.4-6.8 3.9-6.5 7.8-6.2 1.8-11.8 5.1-16.5 9.6-.5.5-.5 1.3 0 1.8s1.3.5 1.8 0C28.9 37 36.6 33.4 45 32.5c19.9-2.1 38 11.6 41.3 31.3 0 .2 0 .5-.2.7-.1.2-.3.3-.6.3l-73.6 7.9c-.2 0-.3-.1-.4-.1-.1-.1-.2-.2-.2-.3-.5-7.9 1.5-15.6 5.7-22.3.4-.6.2-1.4-.4-1.7-.6-.4-1.4-.2-1.7.4-4.5 7.1-6.6 15.3-6 23.7.1.8.4 1.6 1.1 2.1.3.2.6.4.9.5.4.2.9.2 1.4.2l73.6-7.9c.9-.1 1.8-.6 2.3-1.3.4-.7.7-1.7.5-2.6zM44.7 30c-1.6.2-3.1.4-4.7.8 0-2.4 1.8-4.4 4.3-4.7 2.4-.3 4.6 1.3 5.1 3.6-1.5.1-3.1.1-4.7.3z"/></g></svg>