<?xml version="1.0" encoding="utf-8"?>
<!-- Generator: Adobe Illustrator 20.1.0, SVG Export Plug-In . SVG Version: 6.00 Build 0)  -->
<svg version="1.1" id="plug" xmlns="http://www.w3.org/2000/svg" xmlns:xlink="http://www.w3.org/1999/xlink" x="0px" y="0px"
	 width="100px" height="100px" viewBox="0 0 100 100" enable-background="new 0 0 100 100" xml:space="preserve">
<g id="lower-plug">
	<path id="lower-plug-body" fill="#C1CE20" d="M58.3,74.2L26.4,42.1l-9.6,9.5l3.3,3.3l-5,5c-3.4,3.4-5.3,7.9-5.3,12.7
		c0,3,0.7,5.9,2.1,8.5L1,91.9l7.3,7.4l10.8-10.8c2.6,1.4,5.6,2.2,8.6,2.2h0.7c0.8,0,1.5-0.7,1.4-1.5c0-0.8-0.7-1.5-1.5-1.4
		c-4.2,0.2-8.3-1.5-11.2-4.4c-2.8-2.8-4.4-6.6-4.4-10.6s1.6-7.8,4.4-10.6l5-5l21.1,21.3l-5,5c-0.5,0.5-1.1,1-1.6,1.4
		c-0.7,0.5-0.8,1.4-0.3,2.1c0.3,0.4,0.7,0.6,1.2,0.6c0.3,0,0.6-0.1,0.9-0.3c0.7-0.5,1.3-1.1,1.9-1.7l5-5l3.3,3.3L58.3,74.2
		L58.3,74.2z M13.5,83.7c0.4,0.6,0.9,1.1,1.5,1.7c0.5,0.5,1.1,1,1.7,1.5l-8.3,8.2L5.3,92L13.5,83.7z M23.2,53.9L21,51.7l5.4-5.3
		l27.7,27.9l-5.4,5.3l-2.2-2.2L23.2,53.9L23.2,53.9z"/>
	<path id="left-prong" fill="#C1CE20" d="M36.3,56.3l-5.8-5.9L43,38c0.8-0.8,1.8-1.2,2.9-1.2c1.1,0,2.1,0.4,2.9,1.2
		c0.8,0.8,1.2,1.8,1.2,2.9c0,1.1-0.4,2.1-1.2,2.9L36.3,56.3z M34.7,50.5l1.6,1.6l10.4-10.3c0.2-0.2,0.3-0.5,0.3-0.8
		s-0.1-0.6-0.3-0.8s-0.5-0.3-0.8-0.3s-0.6,0.1-0.8,0.3L34.7,50.5z"/>
	<path id="right-prong" fill="#C1CE20" d="M50.3,70.4l-5.8-5.9L57,52.2c0.8-0.8,1.8-1.2,2.9-1.2c1.1,0,2.1,0.4,2.9,1.2
		S64,54,64,55.1s-0.4,2.1-1.2,2.9L50.3,70.4z M48.7,64.6l1.6,1.6l10.4-10.3c0.2-0.2,0.3-0.5,0.3-0.8s-0.1-0.6-0.3-0.8
		S60.2,54,59.9,54s-0.6,0.1-0.8,0.3L48.7,64.6z"/>
	<path id="plug-dot" fill="#C1CE20" d="M33.5,90.3h-0.3c-0.1,0-0.2,0-0.3-0.1c-0.1,0-0.2-0.1-0.3-0.1c-0.1-0.1-0.2-0.1-0.2-0.2
		l-0.2-0.2c-0.1-0.1-0.1-0.2-0.1-0.3c0-0.1-0.1-0.2-0.1-0.3v-0.3v-0.3c0-0.1,0-0.2,0.1-0.3c0-0.1,0.1-0.2,0.1-0.3
		c0.1-0.1,0.1-0.2,0.2-0.2l0.2-0.2c0.1-0.1,0.2-0.1,0.3-0.1s0.2-0.1,0.3-0.1c0.5-0.1,1,0.1,1.3,0.4l0.2,0.2c0.1,0.1,0.1,0.2,0.1,0.3
		c0,0.1,0.1,0.2,0.1,0.3v0.6c0,0.1,0,0.2-0.1,0.3c0,0.1-0.1,0.2-0.1,0.3c-0.1,0.1-0.1,0.2-0.2,0.2l-0.2,0.2
		c-0.1,0.1-0.2,0.1-0.3,0.1s-0.2,0.1-0.3,0.1H33.5z"/>
	<path id="round" fill="#C1CE20" d="M26.3,80.3c-1.7,0-3.2-0.7-4.4-1.8c-1.2-1.2-1.8-2.7-1.8-4.4c0-1.6,0.7-3.2,1.8-4.4
		c1.2-1.2,2.7-1.8,4.3-1.8s3.2,0.7,4.4,1.8c1.2,1.2,1.8,2.7,1.8,4.4c0,1.6-0.7,3.2-1.8,4.4C29.5,79.6,28,80.3,26.3,80.3z M26.3,70.9
		c-0.8,0-1.6,0.3-2.2,0.9s-0.9,1.4-0.9,2.3s0.3,1.7,0.9,2.3c0.6,0.6,1.4,0.9,2.3,0.9c0.8,0,1.6-0.3,2.2-0.9s0.9-1.4,0.9-2.3
		s-0.3-1.7-0.9-2.3C28,71.2,27.2,70.9,26.3,70.9z"/>
</g>
<g id="click" opacity="0">
	<path id="click-four" fill="#C1CE20" d="M73,92.4c-0.5,0-1-0.3-1.2-0.9l-1-2.8c-0.2-0.7,0.1-1.4,0.8-1.7c0.7-0.2,1.4,0.1,1.7,0.8
		l1,2.8c0.2,0.7-0.1,1.4-0.8,1.7C73.3,92.4,73.1,92.4,73,92.4z M70.6,85.9c-0.5,0-1-0.3-1.2-0.9l-1-2.8c-0.2-0.7,0.1-1.4,0.8-1.7
		c0.7-0.2,1.4,0.1,1.7,0.8l1,2.8c0.2,0.7-0.1,1.4-0.8,1.7C70.9,85.9,70.8,85.9,70.6,85.9z M68.3,79.3c-0.5,0-1-0.3-1.2-0.9l-1-2.8
		c-0.2-0.7,0.1-1.4,0.8-1.7c0.7-0.2,1.4,0.1,1.7,0.8l1,2.8c0.2,0.7-0.1,1.4-0.8,1.7C68.6,79.3,68.4,79.3,68.3,79.3z"/>
	<path id="click-six" fill="#C1CE20" d="M92.6,71.7c-0.1,0-0.2,0-0.4-0.1l-2.9-0.9c-0.7-0.2-1.1-0.9-0.9-1.6s0.9-1.1,1.6-0.9
		l2.9,0.9c0.7,0.2,1.1,0.9,0.9,1.6C93.7,71.3,93.2,71.7,92.6,71.7z M86,69.7c-0.1,0-0.2,0-0.4-0.1l-2.9-0.9
		c-0.7-0.2-1.1-0.9-0.9-1.6s0.9-1.1,1.6-0.9l2.9,0.9c0.7,0.2,1.1,0.9,0.9,1.6C87,69.3,86.5,69.7,86,69.7z M79.3,67.7
		c-0.1,0-0.2,0-0.4-0.1L76,66.7c-0.7-0.2-1.1-0.9-0.9-1.6s0.9-1.1,1.6-0.9l2.9,0.9c0.7,0.2,1.1,0.9,0.9,1.6
		C80.4,67.3,79.8,67.7,79.3,67.7z"/>
	<path id="click-five" fill="#C1CE20" d="M86.2,85.4c-0.3,0-0.6-0.1-0.9-0.4l-2.2-2c-0.5-0.5-0.5-1.3,0-1.8s1.3-0.5,1.8,0l2.2,2
		c0.5,0.5,0.5,1.3,0,1.8C86.9,85.3,86.6,85.4,86.2,85.4z M81.2,80.6c-0.3,0-0.6-0.1-0.9-0.4l-2.2-2c-0.5-0.5-0.5-1.3,0-1.8
		s1.3-0.5,1.8,0l2.2,2c0.5,0.5,0.5,1.3,0,1.8C81.9,80.5,81.5,80.6,81.2,80.6z M76.1,75.8c-0.3,0-0.6-0.1-0.9-0.4l-2.2-2
		c-0.5-0.5-0.5-1.3,0-1.8s1.3-0.5,1.8,0l2.2,2c0.5,0.5,0.5,1.3,0,1.8C76.8,75.7,76.5,75.8,76.1,75.8z"/>
	<path id="click-three" fill="#C1CE20" d="M35.3,25.1c-0.5,0-1-0.3-1.2-0.8l-1-2.8c-0.2-0.7,0.1-1.4,0.8-1.7
		c0.7-0.2,1.4,0.1,1.7,0.8l1,2.8c0.2,0.7-0.1,1.4-0.8,1.7C35.6,25,35.4,25.1,35.3,25.1z M32.9,18.5c-0.5,0-1-0.3-1.2-0.8l-1-2.8
		c-0.2-0.7,0.1-1.4,0.8-1.7c0.7-0.2,1.4,0.1,1.7,0.8l1,2.8c0.2,0.7-0.1,1.4-0.8,1.7C33.4,18.5,32.9,18.5,32.9,18.5z M30.5,12
		c-0.5,0-1-0.3-1.2-0.8l-1-2.8C28,7.7,28.3,7,29,6.7c0.7-0.2,1.4,0.1,1.7,0.8l1,2.8c0.2,0.7-0.1,1.4-0.8,1.7
		C30.9,12,30.5,12,30.5,12z"/>
	<path id="click-one" fill="#C1CE20" d="M26.2,34.8c-0.1,0-0.2,0-0.4-0.1L23,33.9c-0.7-0.2-1.1-0.9-0.9-1.6c0.2-0.7,0.9-1.1,1.6-0.9
		l2.9,0.8c0.7,0.2,1.1,0.9,0.9,1.6C27.2,34.5,26.7,34.8,26.2,34.8z M19.5,32.9c-0.1,0-0.2,0-0.4-0.1L16.3,32
		c-0.7-0.2-1.1-0.9-0.9-1.6c0.2-0.7,0.9-1.1,1.6-0.9l2.9,0.8c0.7,0.2,1.1,0.9,0.9,1.6C20.6,32.5,20.1,32.9,19.5,32.9z M12.8,30.9
		c-0.1,0-0.2,0-0.4-0.1L9.6,30c-0.7-0.2-1.1-0.9-0.9-1.6c0.2-0.7,0.9-1.1,1.6-0.9l2.9,0.8c0.7,0.2,1.1,0.9,0.9,1.6
		C13.9,30.5,13.4,30.9,12.8,30.9z"/>
	<path id="click-two" fill="#C1CE20" d="M28.6,27.9c-0.3,0-0.6-0.1-0.9-0.3l-2.2-2c-0.5-0.6-0.5-1.4,0-1.9s1.3-0.5,1.8-0.1l2.2,2
		c0.5,0.5,0.5,1.3,0.1,1.8C29.3,27.7,29,27.9,28.6,27.9z M23.5,23.1c-0.3,0-0.6-0.1-0.9-0.3l-2.2-2c-0.5-0.5-0.5-1.3-0.1-1.8
		s1.3-0.5,1.8-0.1l2.2,2c0.5,0.5,0.5,1.3,0.1,1.8C24.2,23,23.9,23.1,23.5,23.1z M18.5,18.4c-0.3,0-0.6-0.1-0.9-0.3l-2.2-2
		c-0.5-0.5-0.5-1.3-0.1-1.8c0.5-0.5,1.3-0.5,1.8-0.1l2.2,2c0.5,0.5,0.5,1.3,0.1,1.8C19.1,18.2,18.8,18.4,18.5,18.4z"/>
</g>
<g id="top-plug">
	<path id="panel" fill="none" d="M46.3,25.8L74,53.7l5.3-5.3l-1.4-3.5l11.5-16.2l-1.9-9l-5.4-5.4l-7.8-3.6L54.9,20.8l-3.2-0.3
		L46.3,25.8z"/>
	<path id="top-plug-body" fill="#C1CE20" d="M99.3,8.1L92,0.8L81.2,11.5c-2.6-1.4-5.5-2.2-8.5-2.2h-0.1c-4.8,0-9.3,1.9-12.7,5.2
		L58,16.4c-0.6,0.6-0.6,1.5,0,2.1s1.5,0.6,2.1,0l1.9-1.9c2.8-2.8,6.6-4.4,10.6-4.4h0.1c4,0,7.8,1.6,10.6,4.4
		c2.8,2.8,4.4,6.6,4.4,10.6s-1.6,7.8-4.4,10.6l-5,5L51.7,16.3l-9.6,9.5L74,57.9l9.6-9.5l-3.3-3.3l5-5c5.8-5.7,6.8-14.4,3.2-21.2
		L99.3,8.1z M74,53.7L46.3,25.8l5.4-5.3l27.7,27.9L74,53.7z M92,5l3.1,3.1l-8.3,8.2c-0.4-0.6-0.9-1.1-1.5-1.7
		c-0.5-0.5-1.1-1-1.6-1.5L92,5z"/>
</g>
</svg>
