<?xml version="1.0" encoding="utf-8"?>
<!-- Generator: Adobe Illustrator 20.1.0, SVG Export Plug-In . SVG Version: 6.00 Build 0)  -->
<svg version="1.1" id="rocketlaunch" xmlns="http://www.w3.org/2000/svg" xmlns:xlink="http://www.w3.org/1999/xlink" x="0px"
	 y="0px" width="100px" height="100px" viewBox="0 0 100 100" enable-background="new 0 0 100 100" xml:space="preserve">
<g id="turbo" opacity="0">
	<path id="lower-turbo" fill="#C1CE20" d="M24.5,81.4c0.5-0.5,0.5-1.2,0.1-1.7c-0.5-0.5-1.2-0.5-1.7-0.1L13,88.7
		c-1.1,1-1.7,2.3-1.7,3.8c0,1.4,0.5,2.8,1.5,3.9s2.3,1.7,3.8,1.7h0.2c1.4,0,2.7-0.5,3.7-1.5c1.1-1,1.7-2.3,1.7-3.8
		c0-1.4-0.5-2.8-1.5-3.9c-0.5-0.5-1.2-0.5-1.7-0.1c-0.5,0.5-0.5,1.2-0.1,1.7c0.5,0.6,0.8,1.3,0.8,2.1s-0.4,1.5-0.9,2.1
		c-0.6,0.5-1.3,0.8-2.1,0.8s-1.5-0.4-2.1-0.9c-0.5-0.6-0.8-1.3-0.8-2.1s0.4-1.5,0.9-2.1C14.7,90.4,24.5,81.4,24.5,81.4z"/>
	<path id="top-turbo" fill="#C1CE20" d="M18.8,73.4c-0.5-0.5-1.2-0.5-1.7-0.1l-9.8,9.2C6,83.7,4.1,83.6,3,82.4s-1.1-3.1,0.1-4.2
		c0.6-0.5,1.3-0.8,2.1-0.8s1.5,0.4,2.1,0.9c0.5,0.5,1.2,0.5,1.7,0.1c0.5-0.5,0.5-1.2,0.1-1.7c-1-1.1-2.3-1.7-3.8-1.7
		c-1.4,0-2.8,0.5-3.9,1.5c-2.2,2-2.3,5.5-0.3,7.7c1.1,1.1,2.5,1.7,4,1.7c1.3,0,2.7-0.5,3.7-1.5l9.8-9.2
		C19.2,74.7,19.2,73.9,18.8,73.4z"/>
	<path id="center-turbo" fill="#C1CE20" d="M12.4,86.9L24.1,76c0.5-0.5,0.5-1.2,0.1-1.7c-0.5-0.5-1.2-0.5-1.7-0.1L10.7,85.1
		c-0.5,0.5-0.5,1.2-0.1,1.7c0.2,0.3,0.6,0.4,0.9,0.4C11.8,87.2,12.1,87.1,12.4,86.9z"/>
</g>
<g id="ship">
	<path id="panel_1_" fill="#FFFFFF" d="M0,68.4h39.2v31.2H0V68.4z"/>
	<path id="ship-body" fill="#C1CE20" d="M75.1,28.4c-0.2-1.6-1.3-2.8-2.9-3.1c-3.4-0.5-12.5-1.5-22.4,1.6C44.3,28.6,39.3,31.4,35,35
		c-4,3.4-7.4,7.5-10.2,12.4c-2.9-0.2-12-0.5-18,5.3c-5.3,5.1-8,14.7-3.1,21.3c0.4,0.6,1.1,1,1.9,1h0.1c0.8,0,1.4-0.4,1.8-1.1
		c1.2-2,4.2-5.3,10.5-5.6c0.2,0.3,0.3,0.5,0.6,0.8l9.9,9.9c-3.1,2.8-9.7,7.8-12.7,5.2c-0.9-1-1.3-2-1.2-3.1c0.1-2.7,2.9-5,3-5.1
		c0.5-0.4,0.6-1.2,0.2-1.7s-1.2-0.6-1.7-0.2c-0.2,0.1-3.7,3-3.9,6.8c-0.1,1.7,0.5,3.3,1.8,4.8l0.2,0.2l0.3,0.3
		c0.1,0.1,0.3,0.2,0.5,0.3c0.9,0.6,1.9,0.8,3,0.8c2.4,0,5-1.2,7.1-2.6c2.2-1.4,4.2-3.1,5.3-4.1l1.2,1.2c0.2,0.2,0.4,0.3,0.6,0.5
		c-0.4,6.4-3.8,9.4-5.8,10.6c-0.6,0.3-1,1-1,1.6c-0.1,0.7,0.2,1.4,0.8,1.8c2.3,1.9,5.2,2.8,8.4,2.8c1,0,2-0.1,3.1-0.3
		c3.8-0.7,7.5-2.7,10.1-5.4c6.3-6.5,5.4-16.8,5.2-18.6c2.1-1.4,4.3-2.9,6.4-4.7c5.5-4.7,9.6-10.2,12.3-16.4
		C74.8,46.3,76,37.8,75.1,28.4L75.1,28.4z M45.7,91.8c-2.2,2.3-5.5,4-8.8,4.7c-2.4,0.5-6,0.5-9.1-1.7c2.1-1.4,6-4.8,6.5-11.9
		c0.1,0,0.2,0,0.3-0.1c2.9-0.8,9-2.6,15.6-6.4C50.5,79.4,50.4,87,45.7,91.8z M71,48.2L55.1,32.4c-0.5-0.5-1.3-0.5-1.7,0
		c-0.5,0.5-0.5,1.3,0,1.7l16.7,16.7c-2.5,6.7-6.7,12.5-12.5,17.5c-5.3,4.5-11,7.5-15.6,9.4L28,63.8c-0.5-0.5-1.3-0.5-1.7,0
		c-0.5,0.5-0.5,1.3,0,1.7l13.2,13.2c-2.4,0.9-4.2,1.4-5.2,1.7c-0.3,0.1-0.7,0-1-0.3l-13-12.8c-0.2-0.2-0.3-0.6-0.3-0.9
		c0.4-1.9,0.8-3.1,1.5-5.2c0.2-0.6-0.1-1.3-0.8-1.6s-1.3,0.1-1.6,0.8c-0.7,2.2-1.1,3.4-1.6,5.4v0.1c-6.9,0.4-10.4,4.1-12,6.5
		c-2.3-3.2-2.2-6.7-1.7-9.2c0.6-3.2,2.4-6.4,4.6-8.6c4.6-4.4,11.6-4.8,15-4.7c-0.4,0.8-0.8,1.5-1.1,2.3c-0.3,0.6,0,1.3,0.6,1.6
		s1.3,0,1.6-0.6c5.7-12.3,14.4-20.4,26-24c9.4-2.9,18-2.1,21.3-1.5c0.4,0.1,0.8,0.4,0.8,0.9C73.3,35.7,72.8,42.3,71,48.2L71,48.2z"
		/>
	<path id="ship-window" fill="#C1CE20" d="M42.4,41.9c-2,2-3.1,4.7-3.1,7.5s1.1,5.5,3.1,7.5c2.1,2.1,4.8,3.1,7.5,3.1s5.4-1,7.5-3.1
		c4.1-4.1,4.1-10.9,0-15c-2-2-4.7-3.1-7.5-3.1C47,38.8,44.4,39.9,42.4,41.9z M55.6,55.1c-3.2,3.2-8.3,3.2-11.5,0
		c-1.5-1.5-2.4-3.6-2.4-5.7c0-2.2,0.8-4.2,2.4-5.7c1.5-1.5,3.6-2.4,5.7-2.4c2.2,0,4.2,0.8,5.7,2.4C58.8,46.8,58.8,52,55.6,55.1z"/>
	<path id="ship-dot" fill="#C1CE20" d="M22.8,55.9c0-0.1-0.1-0.1-0.1-0.2s-0.1-0.1-0.2-0.2c-0.2-0.2-0.5-0.4-0.9-0.4
		s-0.6,0.1-0.9,0.4l-0.2,0.2c0,0.1-0.1,0.1-0.1,0.2s-0.1,0.2-0.1,0.2v0.4c0,0.1,0,0.2,0.1,0.2c0,0.1,0.1,0.1,0.1,0.2
		s0.1,0.1,0.2,0.2c0.2,0.2,0.5,0.4,0.9,0.4s0.6-0.1,0.9-0.4l0.2-0.2c0-0.1,0.1-0.1,0.1-0.2s0.1-0.2,0.1-0.2v-0.2v-0.2
		C22.8,56,22.8,55.9,22.8,55.9z"/>
</g>
</svg>
