<svg id="rocket" xmlns="http://www.w3.org/2000/svg" viewBox="0 0 100 100"><g id="aircraft" fill="#C1CE20"><path id="body" d="M93.6 32.6c2.5-7.2 3.4-15.1 2.5-23.7-.2-1.7-1.4-3-3.1-3.3C89.4 5 79.8 4 69.3 7.3c-5.8 1.8-11.1 4.7-15.7 8.6-4.2 3.6-7.8 8-10.8 13.2-3.1-.2-12.7-.5-19 5.6-5.6 5.4-8.5 15.6-3.2 22.5.5.6 1.2 1 2 1h.1c.8 0 1.5-.5 1.9-1.1 1.3-2.1 4.4-5.6 11.1-5.9.2.3.4.6.6.8l10.5 10.5c-3.3 3-10.3 8.2-13.5 5.5-.9-1-1.3-2.1-1.3-3.3.1-2.9 3.1-5.3 3.1-5.4.6-.5.6-1.3.2-1.8-.5-.6-1.3-.6-1.8-.2-.2.1-3.9 3.2-4.1 7.2-.1 1.8.5 3.5 1.9 5 .1.1.2.1.2.2l.3.3c.2.2.3.3.5.3 1 .6 2.1.9 3.2.9 2.6 0 5.3-1.3 7.6-2.7 2.4-1.5 4.4-3.3 5.6-4.3l1.3 1.3c.2.2.4.3.6.5-.4 6.8-4 9.9-6.2 11.2-.6.4-1 1-1.1 1.7-.1.7.3 1.4.8 1.9 2.5 2 5.5 3 8.9 3 1.1 0 2.2-.1 3.3-.3 4-.8 7.9-2.8 10.7-5.7 6.6-6.9 5.8-17.8 5.5-19.7 4.7-3 9.5-6.9 13.6-12 .4-.6.4-1.4-.2-1.8-.6-.4-1.4-.4-1.8.2-6.9 8.7-16.1 13.8-23 16.6L46.2 46.3c-.5-.5-1.3-.5-1.8 0s-.5 1.3 0 1.8l14 14c-2.4.9-4.4 1.4-5.5 1.8-.4.1-.7 0-1-.3L38.2 50c-.3-.3-.4-.6-.3-1 .5-2 .8-3.3 1.6-5.5.2-.7-.1-1.4-.8-1.7-.7-.1-1.5.2-1.7.9-.8 2.3-1.2 3.6-1.7 5.7v.1c-7.5.5-11.2 4.4-12.8 6.9-2.4-3.3-2.3-7.1-1.8-9.8.7-3.4 2.5-6.8 4.9-9.1 4.8-4.7 12.3-5.1 15.8-4.9-.4.8-.8 1.6-1.2 2.5-.3.7 0 1.4.6 1.7.7.3 1.4 0 1.7-.6 6-13 15.2-21.5 27.5-25.4 9.9-3.1 19-2.2 22.5-1.6.5.1.8.5.9.9.7 7.5.1 14.4-1.8 20.7L75 13.1c-.5-.5-1.3-.5-1.8 0s-.5 1.3 0 1.8l17.6 17.6c-.6 1.6-1.3 3.1-2.1 4.7-.3.6-.1 1.4.6 1.8.2.1.4.1.6.1.5 0 .9-.3 1.2-.7.9-1.8 1.8-3.7 2.5-5.7-.1 0-.1-.1 0-.1zM61.1 63.9c.1 0 .1 0 .1-.1 2.6-1.1 5.6-2.4 8.7-4.2.2 3.2 0 11.3-4.9 16.4-2.3 2.4-5.8 4.3-9.3 4.9-2.6.5-6.3.6-9.6-1.8 2.3-1.5 6.4-5.1 6.9-12.6.1 0 .2 0 .3-.1 1.7-.4 4.4-1.2 7.8-2.5z"/><path id="window" d="M61.5 23.1c-4.4 4.4-4.4 11.5 0 15.9 2.2 2.2 5.1 3.3 7.9 3.3 2.9 0 5.7-1.1 7.9-3.3 4.4-4.4 4.4-11.5 0-15.9-4.3-4.3-11.4-4.3-15.8 0zm14 14.1c-3.4 3.4-8.8 3.4-12.2 0-3.4-3.4-3.4-8.8 0-12.2 1.7-1.7 3.9-2.5 6.1-2.5 2.2 0 4.4.8 6.1 2.5 3.3 3.3 3.3 8.8 0 12.2z"/><path id="left-dot" d="M40.7 37.9c0-.1-.1-.1-.2-.2l-.2-.2c-.1 0-.1-.1-.2-.1s-.2-.1-.2-.1h-.5c-.1 0-.2 0-.2.1-.1 0-.2.1-.2.1-.1 0-.1.1-.2.2-.2.2-.4.6-.4.9s.1.7.4.9l.2.2c.1 0 .1.1.2.1s.2.1.2.1h.6c.1 0 .2 0 .2-.1.1 0 .2-.1.2-.1.1 0 .1-.1.2-.2l.2-.2c0-.1.1-.1.1-.2s.1-.2.1-.2v-.3-.3c0-.1 0-.2-.1-.2s-.1-.1-.2-.2z"/><path id="right-dot" d="M87.3 40.4c-.1 0-.2 0-.2.1-.1 0-.2.1-.2.1-.1 0-.1.1-.2.2-.2.2-.4.6-.4.9s.1.7.4.9l.2.2c.1 0 .1.1.2.1s.2.1.2.1h.3c.3 0 .7-.1.9-.4.2-.2.4-.6.4-.9s-.1-.7-.4-.9c-.3-.4-.7-.5-1.2-.4z"/></g>
<g id="fire" fill="#C1CE20" opacity="0"><path id="lower-fire" d="M23.8 96.7c-.7 0-1.3-.5-1.3-1.2s.5-1.3 1.2-1.4c.7 0 1.4-.3 1.9-.8s1.4-.4 1.8.1c.5.5.4 1.4-.1 1.8-.8.9-2.1 1.4-3.5 1.5.1 0 .1 0 0 0zm-3.5-1.4c-.4 0-.7-.1-1-.4-.9-1-1.4-2.2-1.5-3.5 0-.7.5-1.3 1.2-1.4.7 0 1.3.5 1.4 1.2 0 .7.3 1.4.8 1.9s.4 1.4-.1 1.8c-.2.2-.5.4-.8.4zM28 92c-.7 0-1.2-.5-1.3-1.2-.1-.7-.3-1.4-.8-1.9s-.5-1.4.1-1.8 1.4-.5 1.8.1c.9 1 1.4 2.2 1.5 3.5 0 .6-.5 1.2-1.3 1.3.1 0 0 0 0 0zm-7.4-3c-.3 0-.7-.1-.9-.4-.5-.5-.5-1.3.1-1.8l2.2-2.1c.5-.5 1.3-.5 1.8.1.5.5.5 1.3-.1 1.8l-2.2 2.1c-.2.1-.5.3-.9.3zm5.1-4.9c-.3 0-.7-.1-.9-.4-.5-.5-.5-1.3.1-1.8l2.2-2.1c.5-.5 1.3-.5 1.8 0s.5 1.3-.1 1.8l-2.2 2.1c-.2.3-.5.4-.9.4zm5.1-4.8c-.3 0-.7-.1-.9-.4-.5-.5-.5-1.3.1-1.8l2.2-2.1c.5-.5 1.3-.5 1.8.1.5.5.5 1.3-.1 1.8L31.7 79c-.2.2-.5.3-.9.3z"/><path id="top-fire" d="M8 80.5h-.2c-1.3-.2-2.5-.8-3.4-1.7-.5-.5-.5-1.3 0-1.8s1.3-.5 1.8 0 1.1.8 1.9.9c.7.1 1.2.7 1.1 1.5 0 .6-.6 1.1-1.2 1.1zm3.6-1.3c-.3 0-.7-.1-.9-.4-.5-.5-.5-1.3 0-1.8l2.2-2.1c.5-.5 1.3-.5 1.8 0s.5 1.3 0 1.8l-2.2 2.1c-.2.3-.5.4-.9.4zm-7.5-3.7h-.2c-.7-.1-1.2-.7-1.1-1.5.2-1.3.8-2.5 1.7-3.4.5-.5 1.3-.5 1.8 0s.5 1.3 0 1.8-.8 1.1-.9 1.9c-.1.7-.7 1.2-1.3 1.2zm12.6-1.1c-.3 0-.7-.1-.9-.4-.5-.5-.5-1.3 0-1.8l2.2-2.1c.5-.5 1.3-.5 1.8 0s.5 1.3 0 1.8L17.6 74c-.2.3-.6.4-.9.4zm-5-1.4c-.3 0-.7-.1-1-.4-.5-.5-1.1-.9-1.8-1-.7-.1-1.2-.8-1.1-1.5.1-.7.8-1.2 1.5-1.1 1.3.2 2.5.8 3.4 1.8.5.5.5 1.4-.1 1.8-.2.3-.5.4-.9.4zm10.1-3.4c-.3 0-.7-.1-.9-.4-.5-.5-.5-1.3 0-1.8l2.2-2.1c.5-.5 1.3-.5 1.8 0s.5 1.3 0 1.8l-2.2 2.1c-.2.2-.6.4-.9.4z"/><path id="center-fire" d="M8 91.1c-.4 0-.7-.1-1-.4-.5-.5-.5-1.4.1-1.8l2.2-2c.5-.5 1.4-.5 1.8.1.5.5.5 1.4-.1 1.8l-2.2 2c-.2.2-.5.3-.8.3zm5.2-4.7c-.4 0-.7-.1-1-.4-.5-.5-.5-1.4.1-1.8l2.2-2c.5-.5 1.4-.5 1.8.1.5.5.5 1.4-.1 1.8L14 86c-.2.3-.5.4-.8.4zm5.1-4.8c-.4 0-.7-.1-1-.4-.5-.5-.5-1.4.1-1.8l2.2-2c.5-.5 1.4-.5 1.8.1.5.5.5 1.4-.1 1.8l-2.2 2c-.1.2-.5.3-.8.3z"/></g></svg>
