<?xml version="1.0" encoding="utf-8"?>
<!-- Generator: Adobe Illustrator 20.1.0, SVG Export Plug-In . SVG Version: 6.00 Build 0)  -->
<svg version="1.1" id="sneaker" xmlns="http://www.w3.org/2000/svg" xmlns:xlink="http://www.w3.org/1999/xlink" x="0px" y="0px"
	 width="100px" height="100px" viewBox="0 0 100 100" enable-background="new 0 0 100 100" xml:space="preserve">
<g id="dashes" opacity="0">
	<path id="dash-four" fill="#C1CE20" d="M32.1,24.7h-2.9c-0.7,0-1.3-0.6-1.3-1.3s0.6-1.3,1.3-1.3h2.9c0.7,0,1.3,0.6,1.3,1.3
		S32.8,24.7,32.1,24.7z M25.3,24.7h-2.9c-0.7,0-1.3-0.6-1.3-1.3s0.6-1.3,1.3-1.3h2.9c0.7,0,1.3,0.6,1.3,1.3S26,24.7,25.3,24.7z
		 M18.4,24.7h-2.9c-0.7,0-1.3-0.6-1.3-1.3s0.6-1.3,1.3-1.3h2.9c0.7,0,1.3,0.6,1.3,1.3S19.1,24.7,18.4,24.7z M11.6,24.7H8.7
		c-0.7,0-1.3-0.6-1.3-1.3s0.6-1.3,1.3-1.3h2.9c0.7,0,1.3,0.6,1.3,1.3S12.3,24.7,11.6,24.7z"/>
	<path id="dash-three" fill="#C1CE20" d="M26.1,30.9h-2.9c-0.7,0-1.3-0.6-1.3-1.3s0.6-1.3,1.3-1.3h2.9c0.7,0,1.3,0.6,1.3,1.3
		S26.8,30.9,26.1,30.9z M19.2,30.9h-2.9c-0.7,0-1.3-0.6-1.3-1.3s0.6-1.3,1.3-1.3h2.9c0.7,0,1.3,0.6,1.3,1.3S19.9,30.9,19.2,30.9z
		 M12.4,30.9H9.5c-0.7,0-1.3-0.6-1.3-1.3s0.6-1.3,1.3-1.3h2.9c0.7,0,1.3,0.6,1.3,1.3S13.1,30.9,12.4,30.9z M5.6,30.9h-3
		c-0.7,0-1.3-0.6-1.3-1.3s0.6-1.3,1.3-1.3h2.9c0.7,0,1.3,0.6,1.3,1.3S6.3,30.9,5.6,30.9z"/>
	<path id="sash-two" fill="#C1CE20" d="M35,79.5h-2.9c-0.7,0-1.3-0.6-1.3-1.3s0.6-1.3,1.3-1.3H35c0.7,0,1.3,0.6,1.3,1.3
		S35.7,79.5,35,79.5z M28.2,79.5h-2.9c-0.7,0-1.3-0.6-1.3-1.3s0.6-1.3,1.3-1.3h2.9c0.7,0,1.3,0.6,1.3,1.3S28.9,79.5,28.2,79.5z
		 M21.4,79.5h-2.9c-0.7,0-1.3-0.6-1.3-1.3s0.6-1.3,1.3-1.3h2.9c0.7,0,1.3,0.6,1.3,1.3S22.1,79.5,21.4,79.5z M14.5,79.5h-2.9
		c-0.7,0-1.3-0.6-1.3-1.3s0.6-1.3,1.3-1.3h2.9c0.7,0,1.3,0.6,1.3,1.3S15.2,79.5,14.5,79.5z"/>
	<path id="dash-one" fill="#C1CE20" d="M48.2,85.9h-2.9c-0.7,0-1.3-0.6-1.3-1.3c0-0.7,0.6-1.3,1.3-1.3h2.9c0.7,0,1.3,0.6,1.3,1.3
		C49.4,85.4,48.9,85.9,48.2,85.9z M41.3,85.9h-2.9c-0.7,0-1.3-0.6-1.3-1.3c0-0.7,0.6-1.3,1.3-1.3h2.9c0.7,0,1.3,0.6,1.3,1.3
		C42.6,85.4,42,85.9,41.3,85.9z M34.5,85.9h-2.9c-0.7,0-1.3-0.6-1.3-1.3c0-0.7,0.6-1.3,1.3-1.3h2.9c0.7,0,1.3,0.6,1.3,1.3
		C35.8,85.4,35.2,85.9,34.5,85.9z M27.7,85.9h-2.9c-0.7,0-1.3-0.6-1.3-1.3c0-0.7,0.6-1.3,1.3-1.3h2.9c0.7,0,1.3,0.6,1.3,1.3
		C28.9,85.4,28.4,85.9,27.7,85.9z M20.8,85.9h-2.9c-0.7,0-1.3-0.6-1.3-1.3c0-0.7,0.6-1.3,1.3-1.3h2.9c0.7,0,1.3,0.6,1.3,1.3
		C22.1,85.4,21.5,85.9,20.8,85.9z"/>
</g>
<g id="stars" opacity="0">
	<path id="stars-four" fill="#C1CE20" d="M11.1,64.4c-0.5,0-0.9-0.3-1.1-0.7c-0.3-0.7-0.1-1.4,0.6-1.8l2.6-1.4
		c0.6-0.3,1.4-0.1,1.7,0.6c0.3,0.7,0.1,1.4-0.6,1.8l-2.6,1.4C11.5,64.4,11.3,64.4,11.1,64.4z M19,60.3c-0.5,0-0.9-0.3-1.1-0.7
		c-0.3-0.7-0.1-1.4,0.6-1.8l2.6-1.4c0.6-0.3,1.4-0.1,1.7,0.6c0.3,0.7,0.1,1.4-0.6,1.8l-2.6,1.4C19.4,60.3,19.2,60.3,19,60.3z"/>
	<path id="stars-three" fill="#C1CE20" d="M19,67.2c-0.5,0-0.9-0.3-1.1-0.7l-1.3-2.7c-0.3-0.7-0.1-1.4,0.6-1.8
		c0.6-0.3,1.4-0.1,1.7,0.6l1.3,2.7c0.3,0.7,0.1,1.4-0.6,1.8C19.3,67.2,19.1,67.2,19,67.2z M15,59.1c-0.5,0-0.9-0.3-1.1-0.7l-1.3-2.7
		c-0.3-0.7-0.1-1.4,0.6-1.8c0.6-0.3,1.4-0.1,1.7,0.6l1.3,2.7c0.3,0.7,0.1,1.4-0.6,1.8C15.4,59,15.2,59.1,15,59.1z"/>
	<path id="stars-two" fill="#C1CE20" d="M17.2,13.3c-0.5,0-0.9-0.3-1.1-0.7c-0.3-0.7-0.1-1.4,0.6-1.8l2.6-1.4
		c0.6-0.3,1.4-0.1,1.7,0.6c0.3,0.7,0.1,1.4-0.6,1.8l-2.6,1.4C17.6,13.3,17.4,13.3,17.2,13.3z M25.1,9.2c-0.5,0-0.9-0.3-1.1-0.7
		c-0.3-0.7-0.1-1.4,0.6-1.8l2.6-1.4c0.6-0.3,1.4-0.1,1.7,0.6c0.3,0.7,0.1,1.4-0.6,1.8l-2.6,1.4C25.4,9.2,25.2,9.2,25.1,9.2z"/>
	<path id="stars-one" fill="#C1CE20" d="M25,16.1c-0.5,0-0.9-0.3-1.1-0.7l-1.3-2.7c-0.3-0.7-0.1-1.4,0.6-1.8
		c0.6-0.3,1.4-0.1,1.7,0.6l1.3,2.7c0.3,0.7,0.1,1.4-0.6,1.8C25.4,16.1,25.2,16.1,25,16.1z M21.1,8c-0.5,0-0.9-0.3-1.1-0.7l-1.3-2.7
		c-0.3-0.7-0.1-1.4,0.6-1.8c0.6-0.3,1.4-0.1,1.7,0.6l1.3,2.7c0.3,0.7,0.1,1.4-0.6,1.8C21.5,7.9,21.3,8,21.1,8z"/>
</g>
<g id="shoe">
	<path id="body" fill="#C1CE20" d="M74.1,67.5L72,66.4c-0.6-0.3-1.4,0-1.7,0.6c-0.3,0.7,0,1.4,0.6,1.8l2.1,1.1
		c2.3,1.2,3.7,3.6,3.7,6.2v10.5H51.1c-2.9,0-5.7-1.2-7.7-3.3L5,44.2l3.7-4l6.1,6.2c0.2,0.2,0.6,0.4,0.9,0.4c0.3,0,0.7-0.1,0.9-0.4
		c0.5-0.5,0.5-1.4,0-1.9l-6.1-6.2L27,20.2c0.5,2.5,1.6,5.9,4.4,9c4.2,4.6,10.7,6.8,19.4,6.5l2.2,8.8c-1.1,0.2-2.8,0.5-4.4,0.7
		c-1.5,0.2-2.9,0.5-4,0.7c-0.5,0.1-1,0.2-1.3,0.2c-0.2,0-0.3,0.1-0.4,0.1c-1.2,0.2-1.2,1.3-1.2,1.4c0.1,0.7,0.6,1.2,1.3,1.2
		c0.1,0,0.2,0,0.4-0.1c0.7-0.1,6.1-1.1,10.3-1.8l1.2,4.7c-1.1,0.2-2.9,0.5-4.7,0.8c-1.5,0.2-2.9,0.5-4,0.7c-0.5,0.1-1,0.2-1.3,0.2
		c-0.2,0-0.3,0.1-0.4,0.1c-1.2,0.2-1.2,1.3-1.2,1.4c0.1,0.7,0.6,1.2,1.3,1.2c0.1,0,0.2,0,0.4-0.1c0.8-0.2,6.4-1.1,10.6-1.8l1.5,5.9
		c0.3,1.1,1,2,1.9,2.5l4,2c0.6,0.3,1.4,0,1.7-0.6c0.3-0.7,0-1.4-0.6-1.8l-4-2c-0.3-0.2-0.5-0.4-0.6-0.8L52.8,33l-1,0.1
		c-8.4,0.5-14.6-1.4-18.5-5.6c-3-3.3-3.7-7.2-3.9-9.2c-0.1-0.7-0.5-1.3-1.2-1.5c-0.6-0.2-1.4-0.1-1.8,0.5L7.7,37.4l-6.3,6.8
		l40.2,40.9c2.6,2.6,5.9,4,9.5,4h28.1v-13C79.2,72.5,77.2,69.1,74.1,67.5z"/>
	<path id="outer-dot" fill="#C1CE20" d="M66.3,66.1c0,0.1,0.1,0.2,0.1,0.2c0,0.1,0.1,0.1,0.2,0.2l0.2,0.2c0.1,0,0.1,0.1,0.2,0.1
		s0.2,0.1,0.2,0.1h0.4c0.1,0,0.2,0,0.2-0.1c0.1,0,0.2-0.1,0.2-0.1c0.1,0,0.1-0.1,0.2-0.2l0.2-0.2c0-0.1,0.1-0.1,0.1-0.2
		s0.1-0.2,0.1-0.2v-0.3c0-0.3-0.1-0.7-0.4-0.9c-0.3-0.3-0.7-0.4-1.1-0.4c-0.1,0-0.2,0-0.2,0.1c-0.1,0-0.2,0.1-0.2,0.1
		c-0.1,0-0.1,0.1-0.2,0.2c-0.2,0.2-0.4,0.6-0.4,0.9v0.3C66.2,65.9,66.2,66,66.3,66.1L66.3,66.1z"/>
	<path id="inner-dot" fill="#C1CE20" d="M20,47.9c0-0.1-0.1-0.1-0.2-0.2l-0.2-0.2c-0.1,0-0.1-0.1-0.2-0.1s-0.2-0.1-0.2-0.1h-0.5
		c-0.1,0-0.2,0-0.2,0.1c-0.1,0-0.2,0.1-0.2,0.1c-0.1,0-0.1,0.1-0.2,0.2l-0.2,0.2c0,0.1-0.1,0.1-0.1,0.2s-0.1,0.2-0.1,0.2v0.3
		c0,0.3,0.1,0.7,0.4,0.9l0.2,0.2c0.1,0,0.1,0.1,0.2,0.1s0.2,0.1,0.2,0.1h0.4c0.1,0,0.2,0,0.2-0.1c0.1,0,0.2-0.1,0.2-0.1
		c0.1,0,0.1-0.1,0.2-0.2c0.2-0.2,0.4-0.6,0.4-0.9v-0.3c0-0.1,0-0.2-0.1-0.2C20.1,48,20,48,20,47.9z"/>
	<path id="stripe" fill="#C1CE20" d="M48.3,76.6L23,51.1c-0.5-0.5-1.3-0.5-1.8,0s-0.5,1.4,0,1.9l25.2,25.5c1.7,1.7,3.9,2.6,6.2,2.6
		h19.7c0.7,0,1.3-0.6,1.3-1.3c0-0.7-0.6-1.3-1.3-1.3H52.7C51,78.5,49.5,77.8,48.3,76.6z"/>
</g>
</svg>
