<?xml version="1.0" encoding="utf-8"?>
<!-- Generator: Adobe Illustrator 20.1.0, SVG Export Plug-In . SVG Version: 6.00 Build 0)  -->
<svg version="1.1" id="spraypaint" xmlns="http://www.w3.org/2000/svg" xmlns:xlink="http://www.w3.org/1999/xlink" x="0px" y="0px"
	 width="100px" height="100px" viewBox="0 0 100 100" enable-background="new 0 0 100 100" xml:space="preserve">
<path id="can" fill="#C1CE20" d="M62.9,34.5l-3.5-0.6c0.2-4.1-1.1-8.1-3.5-11.4c-1.9-2.6-4.5-4.6-7.4-5.9l1.4-7.5l-7-1.4l-1.4,7.5
	c-3.2,0-6.4,0.9-9.1,2.7c-3.5,2.2-6.1,5.5-7.4,9.4l-3.5-0.6c-0.7-0.1-1.2,0-1.7,0.2c-0.4,0.3-0.8,0.8-0.9,1.4l-0.4,2
	c-0.2,1.2,0.5,2.3,1.7,2.6l0.9,0.2l-9.4,49.2L10.8,82c-1.2-0.2-2.3,0.5-2.6,1.7l-0.4,2c-0.1,0.5,0,1.1,0.3,1.6
	c0.3,0.4,0.8,0.8,1.4,0.9l41.4,8h0.9c0.8-0.2,1.4-0.9,1.5-1.6l0.4-2c0.1-0.5,0-1.1-0.3-1.6c-0.3-0.4-0.8-0.8-1.4-0.9l-0.9-0.2
	l9.4-49.2l0.9,0.2h0.9c0.8-0.2,1.4-0.9,1.5-1.6l0.4-2C64.8,35.9,64,34.8,62.9,34.5z M45,10.8l1.8,0.3L46,15.5l-1.8-0.3
	C44.2,15.2,45,10.8,45,10.8z M33.7,20.2c3.2-2,7-2.8,10.8-2c3.7,0.7,7,2.8,9.3,5.8c2,2.8,3,6,2.9,9.4l-29.2-5.6
	C28.6,24.6,30.8,22,33.7,20.2z M51.3,92.4L51,93.5l-40.5-7.7l0.2-1.1l0.4,0.1l39.6,7.6C50.7,92.4,51.3,92.4,51.3,92.4z M54.3,60.3
	L41.9,58c-0.7-0.1-1.4,0.4-1.5,1c-0.1,0.7,0.4,1.4,1,1.5l12.4,2.3l-0.7,3.9l-7.8-1.5c-0.7-0.1-1.4,0.4-1.5,1c-0.1,0.7,0.4,1.4,1,1.5
	l7.8,1.5l-1.4,7.5l-19.9-3.8l4.6-23.6l19.9,3.8C55.8,53.1,54.3,60.3,54.3,60.3z M56.2,50.5l-22.4-4.3l-5.5,28.7l22.4,4.3l-1.9,10
	l-34.5-6.6l9.4-49.2l17.6,3.4L58.2,40C58.2,40,56.2,50.5,56.2,50.5z M61.7,38.1l-40.6-7.8l0.2-1.1L61.8,37
	C61.8,37,61.7,38.1,61.7,38.1z"/>
<g id="paint" opacity="0">
	<path id="lower-paint" fill="#C1CE20" d="M85.4,57.3c-0.7,0-1.3-0.5-1.3-1.2s0.5-1.3,1.2-1.4c0.9-0.1,1.7-0.2,2.4-0.6
		c0.6-0.3,1.4,0,1.7,0.6c0.3,0.6,0,1.4-0.6,1.7C87.9,57,86.7,57.3,85.4,57.3C85.5,57.3,85.5,57.3,85.4,57.3z M81.7,56.2
		c-0.2,0-0.5-0.1-0.7-0.2l-2.6-1.5c-0.6-0.4-0.8-1.2-0.5-1.8c0.4-0.6,1.2-0.8,1.8-0.5l2.6,1.5c0.6,0.4,0.8,1.2,0.5,1.8
		C82.6,55.9,82.2,56.2,81.7,56.2z M91.2,54c-0.2,0-0.5-0.1-0.7-0.2c-0.6-0.4-0.8-1.2-0.4-1.8l0.3-0.6c0.3-0.6,0.5-1.2,0.7-1.8
		c0.2-0.7,0.9-1.1,1.6-0.9c0.7,0.2,1.1,0.9,0.9,1.6c-0.2,0.8-0.5,1.5-0.8,2.3c-0.1,0.3-0.3,0.6-0.4,0.8C92.1,53.7,91.7,54,91.2,54z
		 M84,52c-0.6,0-1.1-0.4-1.2-0.9c-0.2-0.7,0.2-1.4,0.8-1.6c0.9-0.3,1-0.8,1.1-1c0.1-0.7,0.8-1.2,1.5-1.1c0.7,0.1,1.2,0.8,1.1,1.5
		C87,50.3,86,51.5,84.4,52H84z M77.8,51.3h-0.2c-0.7-0.1-1.2-0.8-1.1-1.5c0.2-1,0.5-2.1,1.1-3.2l0.1-0.1c0.4-0.6,1.1-0.8,1.8-0.5
		c0.6,0.4,0.8,1.1,0.5,1.8v0.1c-0.4,0.8-0.7,1.6-0.8,2.3C79,50.9,78.4,51.3,77.8,51.3z M92.6,47.3c-0.6,0-1.2-0.4-1.3-1.1
		c-0.2-1-0.5-1.7-0.7-2c-0.5-0.4-0.6-1.2-0.2-1.7c0.4-0.6,1.2-0.7,1.8-0.3c0.4,0.3,0.7,0.8,0.9,1.3c0.3,0.7,0.6,1.5,0.7,2.3
		c0.1,0.7-0.3,1.4-1,1.5C92.7,47.2,92.6,47.3,92.6,47.3z M84.4,46.5c-0.3,0-0.6-0.1-0.8-0.3c-0.3-0.2-0.7-0.5-1.2-0.5
		c-0.2,0-0.3,0-0.5,0.1c-0.7,0.2-1.4-0.2-1.6-0.9s0.2-1.4,0.9-1.6c0.4-0.1,0.8-0.2,1.2-0.2c1,0,2,0.3,2.8,1c0.6,0.4,0.7,1.3,0.2,1.8
		C85.2,46.3,84.8,46.5,84.4,46.5z M88.1,42.2c-0.3,0-0.5-0.1-0.7-0.2c-1.2-0.8-2-1.4-2.5-1.8c-0.6-0.4-0.7-1.2-0.2-1.8
		c0.4-0.6,1.2-0.7,1.8-0.2c0.4,0.3,1.2,0.9,2.4,1.7c0.6,0.4,0.7,1.2,0.3,1.8C88.9,42,88.5,42.2,88.1,42.2L88.1,42.2z M82.6,38.4
		c-0.2,0-0.5-0.1-0.7-0.2l-2.5-1.6c-0.6-0.4-0.8-1.2-0.4-1.8s1.2-0.8,1.8-0.4l2.5,1.6c0.6,0.4,0.8,1.2,0.4,1.8
		C83.4,38.2,83,38.4,82.6,38.4z M76.7,34.7c-0.2,0-0.5-0.1-0.7-0.2l-2.5-1.6c-0.6-0.4-0.8-1.2-0.4-1.8c0.4-0.6,1.2-0.8,1.8-0.4
		l2.5,1.6c0.6,0.4,0.8,1.2,0.4,1.8C77.5,34.5,77.1,34.7,76.7,34.7z M70.8,31c-0.2,0-0.5-0.1-0.7-0.2l-2.5-1.6
		c-0.6-0.4-0.8-1.2-0.4-1.8c0.4-0.6,1.2-0.8,1.8-0.4l2.5,1.6c0.6,0.4,0.8,1.2,0.4,1.8C71.6,30.8,71.2,31,70.8,31z"/>
	<path id="middle-paint" fill="#C1CE20" d="M93,32.3c-0.1,0-0.3,0-0.4-0.1l-1.4-0.5c-0.7-0.2-1-1-0.8-1.7s1-1,1.7-0.8l1.4,0.5
		c0.7,0.2,1,1,0.8,1.7C94.1,31.9,93.6,32.3,93,32.3z M87.9,30.5c-0.1,0-0.3,0-0.4-0.1l-2.8-1c-0.7-0.2-1-1-0.8-1.7s1-1,1.7-0.8
		l2.8,1c0.7,0.2,1,1,0.8,1.7C88.9,30.1,88.4,30.5,87.9,30.5z M81.3,28.2c-0.1,0-0.3,0-0.4-0.1l-2.8-1c-0.7-0.2-1-1-0.8-1.7
		s1-1,1.7-0.8l2.8,1c0.7,0.2,1,1,0.8,1.7C82.3,27.9,81.8,28.2,81.3,28.2z M74.7,25.9c-0.1,0-0.3,0-0.4-0.1l-2.8-1
		c-0.7-0.2-1-1-0.8-1.7s1-1,1.7-0.8l2.8,1c0.7,0.2,1,1,0.8,1.7C75.7,25.6,75.2,25.9,74.7,25.9z M68.1,23.6c-0.1,0-0.3,0-0.4-0.1
		l-2.8-1c-0.7-0.2-1-1-0.8-1.7s1-1,1.7-0.8l2.8,1c0.7,0.2,1,1,0.8,1.7C69.1,23.3,68.6,23.6,68.1,23.6z"/>
	<path id="upper-paint" fill="#C1CE20" d="M92,19.9h-0.2c-0.7,0-1.3-0.6-1.3-1.3c0-0.7,0.5-1.2,1.2-1.3c0.3-0.2,0.9-0.6,1.6-1.3
		c0.5-0.5,1.3-0.6,1.8-0.1s0.6,1.3,0.1,1.8c-0.5,0.6-1.2,1.1-1.8,1.5C92.7,19.7,92.3,19.9,92,19.9z M87.8,19.8h-3
		c-0.7,0-1.3-0.6-1.3-1.3c0-0.7,0.6-1.3,1.3-1.3h3c0.7,0,1.3,0.6,1.3,1.3C89.1,19.2,88.5,19.8,87.8,19.8z M80.8,19.7l-3.1-0.3
		c-0.7-0.1-1.2-0.7-1.2-1.4s0.7-1.2,1.4-1.2l3,0.3c0.7,0.1,1.2,0.7,1.2,1.4C82,19.2,81.5,19.7,80.8,19.7z M73.8,19.1l-3.1-0.3
		c-0.7-0.1-1.2-0.7-1.2-1.4c0.1-0.7,0.7-1.2,1.4-1.2l3,0.3c0.7,0.1,1.2,0.7,1.2,1.4S74.5,19.1,73.8,19.1z M96.1,14.7
		c-0.1,0-0.3,0-0.4-0.1c-0.7-0.2-1.1-0.9-0.9-1.6c0.2-0.6,0.3-1.2,0.4-1.9v-0.7c0-0.7,0.6-1.3,1.3-1.3c0.7,0,1.3,0.6,1.3,1.3
		c0,0.3,0,0.6-0.1,0.9c-0.1,0.8-0.3,1.6-0.5,2.4C97.2,14.3,96.7,14.7,96.1,14.7z M86.5,14.6c-1.3,0-2.4-0.5-3.3-1.4
		c-0.5-0.5-0.4-1.4,0.1-1.8c0.5-0.5,1.4-0.4,1.8,0.1c0.3,0.4,0.8,0.6,1.3,0.6h0.3c0.7-0.1,1.4,0.4,1.4,1.1c0.1,0.7-0.4,1.4-1.1,1.4
		C86.9,14.5,86.7,14.6,86.5,14.6z M90.1,12.4c-0.2,0-0.3,0-0.5-0.1c-0.7-0.3-1-1-0.7-1.7c0.1-0.1,0.1-0.3,0.1-0.4
		c0-0.3-0.2-0.7-0.5-1c-0.5-0.5-0.4-1.4,0.1-1.8C89.1,6.9,90,7,90.4,7.5c0.7,0.8,1.1,1.8,1.1,2.7c0,0.5-0.1,1-0.3,1.4
		C91,12.1,90.6,12.4,90.1,12.4z M83.2,9.8C83.2,9.8,83.1,9.8,83.2,9.8c-0.8,0-1.3-0.6-1.3-1.4V8.3C82,7.1,82.2,6,82.6,5.1
		c0.3-0.7,1.1-1,1.7-0.7c0.7,0.3,1,1,0.7,1.7s-0.5,1.5-0.5,2.4v0.1C84.4,9.3,83.9,9.8,83.2,9.8L83.2,9.8z M95.6,8
		c-0.4,0-0.8-0.2-1.1-0.6c-0.4-0.7-1-1.3-1.7-1.8c-0.6-0.4-0.7-1.2-0.3-1.8c0.4-0.6,1.2-0.7,1.8-0.3C95.2,4.2,96,5,96.6,6
		c0.4,0.6,0.2,1.4-0.4,1.8C96,7.9,95.8,8,95.6,8z M89.7,4.9l-3-0.1c-0.7,0-1.3-0.6-1.3-1.3s0.6-1.3,1.3-1.3l3,0.1
		c0.7,0,1.3,0.6,1.3,1.3S90.4,4.9,89.7,4.9z"/>
</g>
</svg>
