<?xml version="1.0" encoding="utf-8"?>
<!-- Generator: Adobe Illustrator 20.1.0, SVG Export Plug-In . SVG Version: 6.00 Build 0)  -->
<svg version="1.1" id="sprinkles-tablet" xmlns="http://www.w3.org/2000/svg" xmlns:xlink="http://www.w3.org/1999/xlink" x="0px"
	 y="0px"  viewBox="0 0 768 145" enable-background="new 0 0 768 145" xml:space="preserve">
<path class="sprinkle-1" id="small-chart-center-two" fill="#D0DD29" d="M670.1,32.1l3.8-6.6c0.6-1,1.6-1.5,2.7-1.5h7.6c1.1,0,2.1,0.6,2.7,1.5l3.8,6.6
	c0.6,1,0.6,2.1,0,3.1l-3.8,6.6c-0.6,1-1.6,1.5-2.7,1.5h-7.6c-1.1,0-2.1-0.6-2.7-1.5l-3.8-6.6C669.6,34.2,669.6,33,670.1,32.1"/>
<path class="sprinkle-2" id="big-lt-gray-center" fill="#E0E1E0" d="M298.5,80.5h-11.6c-2.1,0-4-1.1-5.1-2.9l-5.8-10c-1-1.8-1-4,0-5.8l5.8-10
	c1-1.8,3-2.9,5.1-2.9h11.6c2.1,0,4,1.1,5.1,2.9l5.8,10c1,1.8,1,4,0,5.9l-5.8,10C302.5,79.4,300.6,80.5,298.5,80.5z M277.8,62.7
	c-0.7,1.2-0.7,2.7,0,3.8l5.8,10c0.7,1.2,2,1.9,3.3,1.9h11.6c1.4,0,2.6-0.7,3.3-1.9l5.8-10c0.7-1.2,0.7-2.7,0-3.8l-5.8-10
	c-0.7-1.2-2-1.9-3.3-1.9h-11.6c-1.4,0-2.6,0.7-3.3,1.9L277.8,62.7z"/>
<path class="sprinkle-3" id="small-chart-center-one" fill="#D0DD29" d="M173.1,84.4l3.7-6.5c0.6-1,1.6-1.6,2.7-1.6h7.5c1.1,0,2.1,0.6,2.7,1.6l3.7,6.5
	c0.6,1,0.6,2.1,0,3.1l-3.7,6.5c-0.6,1-1.6,1.6-2.7,1.6h-7.5c-1.1,0-2.1-0.6-2.7-1.6l-3.7-6.5C172.5,86.5,172.5,85.3,173.1,84.4"/>
<path class="sprinkle-1" id="med-chart-left" fill="#D0DD29" d="M18.9,108.4l6.3-10.9c0.7-1.2,2-2,3.4-2h12.5c1.4,0,2.7,0.7,3.4,2l6.3,10.9
	c0.7,1.2,0.7,2.7,0,3.9l-6.3,10.9c-0.7,1.2-2,2-3.4,2H28.6c-1.4,0-2.7-0.7-3.4-2l-6.3-10.9C18.2,111.1,18.2,109.6,18.9,108.4"/>
<path class="sprinkle-2" id="chart-loop-lower" fill="#D0DD29" d="M506.9,110.3h-11.5c-2.1,0-4-1.1-5-2.9l-5.8-10c-1-1.8-1-4,0-5.8l5.8-10
	c1-1.8,3-2.9,5-2.9h11.5c2.1,0,4,1.1,5,2.9l5.8,10c1,1.8,1,4,0,5.8l-5.8,10C510.9,109.1,508.9,110.3,506.9,110.3L506.9,110.3z
	 M495.3,80.7c-1.4,0-2.6,0.7-3.3,1.9l-5.8,10c-0.7,1.2-0.7,2.6,0,3.8l5.8,10c0.7,1.2,1.9,1.9,3.3,1.9h11.5c1.4,0,2.6-0.7,3.3-1.9
	l5.8-10c0.7-1.2,0.7-2.6,0-3.8l-5.8-10c-0.7-1.2-1.9-1.9-3.3-1.9H495.3z"/>
<path class="sprinkle-3" id="small-teal-center" fill="#1EAEB4" d="M218.2,42.3l3.8-6.7c0.6-1,1.6-1.6,2.7-1.6h7.7c1.1,0,2.1,0.6,2.7,1.6l3.8,6.7
	c0.6,1,0.6,2.1,0,3.1l-3.8,6.7c-0.6,1-1.6,1.6-2.7,1.6h-7.7c-1.1,0-2.1-0.6-2.7-1.6l-3.8-6.7C217.6,44.4,217.6,43.2,218.2,42.3"/>
<path class="sprinkle-1" id="med-gray-right" fill="#ABB3BE" d="M696.3,85.9l6.3-10.9c0.7-1.2,2-2,3.4-2h12.5c1.4,0,2.7,0.7,3.4,2l6.3,10.9
	c0.7,1.2,0.7,2.7,0,3.9l-6.3,10.9c-0.7,1.2-2,2-3.4,2H706c-1.4,0-2.7-0.7-3.4-2l-6.3-10.9C695.6,88.6,695.6,87.1,696.3,85.9"/>
<path class="sprinkle-2" id="teal-loop-right" fill="#1FAEB4" d="M599.2,59.5h-10.6c-2.4,0-4.5-1.3-5.7-3.3l-5.3-9.1c-1.2-2-1.2-4.6,0-6.6l5.3-9.1
	c1.2-2,3.4-3.3,5.7-3.3h10.6c2.4,0,4.5,1.3,5.7,3.3l5.3,9.1c1.2,2,1.2,4.6,0,6.6l-5.3,9.1C603.7,58.2,601.5,59.5,599.2,59.5z
	 M584.7,55.2c0.8,1.4,2.3,2.3,4,2.3h10.6c1.6,0,3.2-0.9,4-2.3l5.3-9.1c0.8-1.4,0.8-3.2,0-4.6l-5.3-9.1c-0.8-1.4-2.3-2.3-4-2.3h-10.6
	c-1.6,0-3.2,0.9-4,2.3l-5.3,9.1c-0.8,1.4-0.8,3.2,0,4.6C579.4,46.1,584.7,55.2,584.7,55.2z"/>
<path class="sprinkle-3" id="small-black-center" fill="#343F49" d="M373.1,74.1l3.8-7.1c0.5-1,1.5-1.6,2.6-1.7l8-0.3c1.1,0,2.2,0.5,2.8,1.5l4.3,6.8
	c0.6,0.9,0.6,2.1,0.1,3.1l-3.8,7.1c-0.5,1-1.5,1.6-2.6,1.7l-8,0.3c-1.1,0-2.2-0.5-2.8-1.5l-4.3-6.8
	C372.6,76.3,372.6,75.1,373.1,74.1"/>
<path class="sprinkle-1" id="chart-loop-two-left" fill="#D0DD29" d="M74.6,54.9H63c-2.1,0-4-1.1-5.1-2.9l-5.8-10c-1-1.8-1-4,0-5.8l5.8-10
	c1-1.8,3-2.9,5.1-2.9h11.6c2.1,0,4,1.1,5.1,2.9l5.8,10c1,1.8,1,4,0,5.9l-5.8,10C78.6,53.8,76.6,54.9,74.6,54.9z M63,25.1
	c-1.4,0-2.6,0.7-3.3,1.9l-5.8,10c-0.7,1.2-0.7,2.7,0,3.8l5.8,10c0.7,1.2,2,1.9,3.3,1.9h11.6c1.4,0,2.6-0.7,3.3-1.9l5.8-10
	c0.7-1.2,0.7-2.7,0-3.8l-5.8-10c-0.7-1.2-2-1.9-3.3-1.9H63z"/>
</svg>
