<?xml version="1.0" encoding="utf-8"?>
<!-- Generator: Adobe Illustrator 20.1.0, SVG Export Plug-In . SVG Version: 6.00 Build 0)  -->
<svg version="1.1" id="sprinkles-mobile" xmlns="http://www.w3.org/2000/svg" xmlns:xlink="http://www.w3.org/1999/xlink" x="0px"
	 y="0px"  viewBox="0 0 375 73" enable-background="new 0 0 375 73" xml:space="preserve">
<path class="msprinkle-1" id="teal-loop-right" fill="#1FAEB4" d="M300.9,30.3h-5.3c-1.2,0-2.2-0.6-2.8-1.6l-2.6-4.5c-0.6-1-0.6-2.3,0-3.3l2.6-4.5
	c0.6-1,1.7-1.6,2.8-1.6h5.3c1.2,0,2.2,0.6,2.8,1.6l2.6,4.5c0.6,1,0.6,2.3,0,3.3l-2.6,4.5C303.2,29.7,302.1,30.3,300.9,30.3z
	 M293.7,28.2c0.4,0.7,1.1,1.1,2,1.1h5.3c0.8,0,1.6-0.4,2-1.1l2.6-4.5c0.4-0.7,0.4-1.6,0-2.3l-2.6-4.5c-0.4-0.7-1.1-1.1-2-1.1h-5.3
	c-0.8,0-1.6,0.4-2,1.1l-2.6,4.5c-0.4,0.7-0.4,1.6,0,2.3L293.7,28.2z"/>
<path class="msprinkle-2" id="chart-loop-lower" fill="#D0DD29" d="M255,55.6h-5.7c-1,0-2-0.5-2.5-1.4l-2.9-5c-0.5-0.9-0.5-2,0-2.9l2.9-5
	c0.5-0.9,1.5-1.4,2.5-1.4h5.7c1,0,2,0.5,2.5,1.4l2.9,5c0.5,0.9,0.5,2,0,2.9l-2.9,5C257,55,256,55.6,255,55.6z M249.2,40.9
	c-0.7,0-1.3,0.3-1.6,0.9l-2.9,5c-0.3,0.6-0.3,1.3,0,1.9l2.9,5c0.3,0.6,0.9,0.9,1.6,0.9h5.7c0.7,0,1.3-0.3,1.6-0.9l2.9-5
	c0.3-0.6,0.3-1.3,0-1.9l-2.9-5c-0.3-0.6-0.9-0.9-1.6-0.9H249.2z"/>
<path class="msprinkle-3" id="small-chart-center-one" fill="#D0DD29" d="M89,42.7l1.8-3.2c0.3-0.5,0.8-0.8,1.3-0.8h3.7c0.5,0,1,0.3,1.3,0.8l1.8,3.2
	c0.3,0.5,0.3,1,0,1.5l-1.8,3.2c-0.3,0.5-0.8,0.8-1.3,0.8h-3.7c-0.5,0-1-0.3-1.3-0.8L89,44.3C88.7,43.8,88.7,43.2,89,42.7"/>
<path class="msprinkle-1" id="med-gray-right" fill="#ABB3BE" d="M349.2,43.5l3.1-5.4c0.3-0.6,1-1,1.7-1h6.2c0.7,0,1.3,0.3,1.7,1l3.1,5.4
	c0.3,0.6,0.3,1.3,0,1.9l-3.1,5.4c-0.3,0.6-1,1-1.7,1H354c-0.7,0-1.3-0.3-1.7-1l-3.1-5.4C348.9,44.8,348.9,44.1,349.2,43.5"/>
<path class="msprinkle-2" id="small-black-center" fill="#343F49" d="M188.5,37.6l1.9-3.5c0.2-0.5,0.7-0.8,1.3-0.8l4-0.1c0.5,0,1.1,0.2,1.4,0.7l2.1,3.4
	c0.3,0.4,0.3,1,0,1.5l-1.9,3.5c-0.2,0.5-0.7,0.8-1.3,0.8l-4,0.1c-0.5,0-1.1-0.2-1.4-0.7l-2.1-3.4C188.2,38.7,188.2,38.1,188.5,37.6"
	/>
<path class="msprinkle-3" id="chart-loop-two-left" fill="#D0DD29" d="M40,28h-5.8c-1,0-2-0.5-2.5-1.4l-2.9-5c-0.5-0.9-0.5-2,0-2.9l2.9-5
	c0.5-0.9,1.5-1.4,2.5-1.4H40c1,0,2,0.5,2.5,1.4l2.9,5c0.5,0.9,0.5,2,0,2.9l-2.9,5C42,27.5,41,28,40,28z M34.2,13.2
	c-0.7,0-1.3,0.3-1.6,0.9l-2.9,5c-0.3,0.6-0.3,1.3,0,1.9l2.9,5c0.3,0.6,1,0.9,1.6,0.9H40c0.7,0,1.3-0.3,1.6-0.9l2.9-5
	c0.3-0.6,0.3-1.3,0-1.9l-2.9-5c-0.3-0.6-1-0.9-1.6-0.9C40,13.2,34.2,13.2,34.2,13.2z"/>
<path class="msprinkle-1" id="small-teal-center" fill="#1EAEB4" d="M111.4,21.8l1.9-3.3c0.3-0.5,0.8-0.8,1.3-0.8h3.8c0.5,0,1,0.3,1.3,0.8l1.9,3.3
	c0.3,0.5,0.3,1,0,1.5l-1.9,3.3c-0.3,0.5-0.8,0.8-1.3,0.8h-3.8c-0.5,0-1-0.3-1.3-0.8l-1.9-3.3C111.1,22.8,111.1,22.2,111.4,21.8"/>
<path class="msprinkle-2" id="small-chart-center-two" fill="#D0DD29" d="M336.2,16.7l1.9-3.3c0.3-0.5,0.8-0.7,1.3-0.7h3.8c0.5,0,1,0.3,1.3,0.7l1.9,3.3
	c0.3,0.5,0.3,1,0,1.5l-1.9,3.3c-0.3,0.5-0.8,0.7-1.3,0.7h-3.8c-0.5,0-1-0.3-1.3-0.7l-1.9-3.3C335.9,17.7,335.9,17.1,336.2,16.7"/>
<path class="msprinkle-3" id="big-lt-gray-center" fill="#E0E1E0" d="M151.4,40.8h-5.8c-1,0-2-0.5-2.5-1.4l-2.9-5c-0.5-0.9-0.5-2,0-2.9l2.9-5
	c0.5-0.9,1.5-1.4,2.5-1.4h5.8c1,0,2,0.5,2.5,1.4l2.9,5c0.5,0.9,0.5,2,0,2.9l-2.9,5C153.3,40.2,152.4,40.8,151.4,40.8z M141.1,31.9
	c-0.3,0.6-0.3,1.3,0,1.9l2.9,5c0.3,0.6,1,0.9,1.6,0.9h5.8c0.7,0,1.3-0.3,1.6-0.9l2.9-5c0.3-0.6,0.3-1.3,0-1.9l-2.9-5
	c-0.3-0.6-1-0.9-1.6-0.9h-5.8c-0.7,0-1.3,0.3-1.6,0.9L141.1,31.9z"/>
<path class="msprinkle-1" id="big-teal-left" fill="#1EAEB4" d="M19,54l-2.2-4.6c-0.4-0.9-0.3-1.9,0.2-2.8l2.8-4.2c0.5-0.8,1.5-1.3,2.5-1.2l5.1,0.3
	c1,0,1.9,0.6,2.3,1.5l2.2,4.6c0.4,0.9,0.3,1.9-0.2,2.8l-2.8,4.2c-0.5,0.8-1.5,1.3-2.5,1.2l-5.1-0.3C20.3,55.5,19.4,54.9,19,54"/>
</svg>
