<svg id="traffic_light" xmlns="http://www.w3.org/2000/svg" viewBox="0 0 100 100"><g id="light" fill="#C1CE20"><path id="top-round" d="M49.7 34.7c6.9 0 12.5-5.6 12.5-12.5S56.6 9.6 49.7 9.6s-12.5 5.6-12.5 12.5 5.6 12.6 12.5 12.6zm0-22.5c5.5 0 10 4.5 10 10s-4.5 10-10 10-10-4.5-10-10 4.5-10 10-10z"/><path id="middle-round" d="M38.9 53.6c.7-.1 1.1-.8 1-1.5-.1-.7-.2-1.4-.2-2.1 0-5.5 4.5-10 10-10s10 4.5 10 10-4.5 10-10 10c-2 0-4-.6-5.7-1.8-.6-.4-1.4-.3-1.8.3-.4.6-.3 1.4.3 1.8 2.1 1.5 4.6 2.2 7.1 2.2 6.9 0 12.5-5.6 12.5-12.5s-5.6-12.5-12.5-12.5S37.1 43.1 37.1 50c0 .9.1 1.8.3 2.6.2.7.8 1.2 1.5 1z"/><path id="lower-round" d="M49.7 90.4c6.9 0 12.5-5.6 12.5-12.5s-5.6-12.5-12.5-12.5S37.2 71 37.2 77.9s5.6 12.5 12.5 12.5zm0-22.6c5.5 0 10 4.5 10 10s-4.5 10-10 10-10-4.5-10-10 4.5-10 10-10z"/><path id="body" d="M85.2 11V9.7H72.6c-.7 0-1.3.6-1.3 1.3s.6 1.3 1.3 1.3h10c-.6 6.9-6.3 12.5-13.3 12.9V3.8H30.1v5.9H14.5V11c0 8.8 6.8 16.1 15.5 16.7v9.7H14.5v1.3c0 8.8 6.8 16.1 15.5 16.7v25.2c-6.8-.6-12.3-6.1-12.9-12.9h9.6c.7 0 1.3-.6 1.3-1.3s-.6-1.3-1.3-1.3H14.5v1.3c0 8.8 6.8 16.1 15.5 16.7V96h39.3V83.3c8.8-.5 15.9-7.8 15.9-16.8v-1.3H69.3v-9.7c8.8-.5 15.9-7.8 15.9-16.8v-1.3H69.3v-9.7c8.9-.4 15.9-7.7 15.9-16.7zm-68 1.3h12.9v12.9c-6.9-.6-12.3-6.1-12.9-12.9zm0 27.7h12.9v12.9c-6.9-.6-12.3-6.1-12.9-12.9zm49.6 53.6H32.6V6.4h34.1v87.2zm15.8-25.8c-.6 6.9-6.3 12.5-13.3 12.9V67.8h13.3zm0-27.8c-.6 7-6.3 12.5-13.3 12.9V40h13.3z"/><path id="dot" d="M39.8 57.8h-.3c-.1 0-.2 0-.2-.1-.1 0-.2-.1-.2-.1-.1 0-.1-.1-.2-.2l-.2-.2c0-.1-.1-.1-.1-.2s-.1-.2-.1-.2v-.3-.3c0-.1 0-.2.1-.2 0-.1.1-.2.1-.2 0-.1.1-.1.2-.2l.2-.2c.1 0 .1-.1.2-.1s.2-.1.2-.1c.4-.1.9.1 1.2.3l.2.2c0 .1.1.1.1.2s.1.2.1.2v.6c0 .1 0 .2-.1.2 0 .1-.1.2-.1.2 0 .1-.1.1-.2.2-.2.4-.6.5-.9.5z"/></g><g id="lower-lights" fill="#C1CE20" opacity="0"><path id="lower-six" d="M94 84.9c-.2 0-.4 0-.6-.1l-2.6-1.4c-.6-.3-.9-1.1-.5-1.7.3-.6 1.1-.9 1.7-.5l2.6 1.4c.6.3.9 1.1.5 1.7-.2.3-.7.6-1.1.6zm-6.1-3.3c-.2 0-.4 0-.6-.1l-2.6-1.4c-.6-.3-.9-1.1-.5-1.7.3-.6 1.1-.9 1.7-.5l2.6 1.4c.6.3.9 1.1.5 1.7-.2.4-.7.6-1.1.6z"/><path id="lower-five" d="M88.8 91.3c-.4 0-.7-.2-1-.4l-1.9-2.3c-.5-.5-.4-1.4.1-1.8.5-.5 1.3-.4 1.8.1l1.9 2.3c.5.5.4 1.4-.1 1.8-.2.2-.5.3-.8.3zm-4.5-5.2c-.4 0-.7-.2-1-.4l-1.9-2.3c-.4-.6-.4-1.4.2-1.8.5-.5 1.4-.4 1.8.1l1.9 2.3c.5.5.4 1.4-.1 1.8-.3.2-.6.3-.9.3z"/><path id="lower-four" d="M97 76.9h-.1l-2.9-.3c-.7-.1-1.2-.7-1.1-1.4.1-.7.7-1.2 1.4-1.1l2.9.3c.7.1 1.2.7 1.1 1.4-.1.7-.6 1.1-1.3 1.1zm-6.9-.7H90l-2.9-.3c-.7-.1-1.2-.7-1.1-1.4.1-.7.7-1.2 1.4-1.1l2.9.3c.7.1 1.2.7 1.1 1.4-.1.6-.6 1.1-1.3 1.1z"/><path id="lower-three" d="M5.7 84.9c-.5 0-.9-.2-1.1-.7-.3-.6-.1-1.4.5-1.7l2.6-1.4c.6-.3 1.4-.1 1.7.5.4.6.2 1.4-.4 1.7l-2.6 1.4c-.2.1-.4.2-.7.2zm6.2-3.3c-.5 0-.9-.2-1.1-.7-.3-.6-.1-1.4.5-1.7l2.6-1.4c.6-.3 1.4-.1 1.7.5.3.6.1 1.4-.5 1.7l-2.6 1.4c-.2.2-.4.2-.6.2z"/><path id="lower-two" d="M10.9 91.3c-.3 0-.6-.1-.8-.3-.5-.5-.6-1.3-.1-1.8l1.9-2.3c.5-.5 1.3-.6 1.8-.1s.6 1.3.1 1.8l-1.9 2.3c-.3.3-.6.4-1 .4zm4.5-5.2c-.3 0-.6-.1-.8-.3-.6-.5-.6-1.3-.2-1.8l1.9-2.3c.5-.5 1.3-.6 1.8-.1s.6 1.3.1 1.8l-1.9 2.3c-.2.2-.5.4-.9.4z"/><path id="lower-one" d="M2.7 76.9c-.6 0-1.2-.5-1.3-1.1-.1-.7.4-1.3 1.1-1.4l3-.4c.7-.1 1.3.4 1.4 1.1.1.7-.4 1.3-1.1 1.4l-2.9.3c-.1.1-.1.1-.2.1zm6.9-.7c-.6 0-1.2-.5-1.3-1.1-.1-.7.4-1.3 1.1-1.4l2.9-.3c.7-.1 1.3.4 1.4 1.1.1.7-.4 1.3-1.1 1.4l-2.9.3h-.1z"/></g><g id="upper-lights" fill="#C1CE20"><path id="six" d="M94 29.2c-.2 0-.4 0-.6-.1l-2.6-1.4c-.6-.3-.9-1.1-.5-1.7.3-.6 1.1-.9 1.7-.5l2.6 1.4c.6.3.9 1.1.5 1.7-.2.3-.7.6-1.1.6zm-6.1-3.3c-.2 0-.4 0-.6-.1l-2.6-1.4c-.6-.3-.9-1.1-.5-1.7.3-.6 1.1-.9 1.7-.5l2.6 1.4c.6.3.9 1.1.5 1.7-.2.4-.7.6-1.1.6z"/><path id="five" d="M88.8 35.6c-.4 0-.7-.2-1-.4l-1.9-2.3c-.5-.5-.4-1.4.1-1.8.5-.5 1.3-.4 1.8.1l1.9 2.3c.5.5.4 1.4-.1 1.8-.2.2-.5.3-.8.3zm-4.5-5.2c-.4 0-.7-.2-1-.4l-1.9-2.3c-.5-.5-.4-1.4.1-1.8.5-.5 1.4-.4 1.8.1l1.9 2.3c.5.5.4 1.4-.1 1.8-.2.2-.5.3-.8.3z"/><path id="four" d="M97 21.2h-.1l-2.9-.3c-.7-.1-1.2-.7-1.1-1.4.1-.7.7-1.2 1.4-1.1l2.9.3c.7.1 1.2.7 1.1 1.4-.1.6-.6 1.1-1.3 1.1zm-6.9-.7H90l-2.9-.3c-.7-.1-1.2-.7-1.1-1.4.1-.7.7-1.2 1.4-1.1l2.9.3c.7.1 1.2.7 1.1 1.4-.1.6-.6 1.1-1.3 1.1z"/><path id="three" d="M5.7 29.2c-.5 0-.9-.2-1.1-.7-.3-.6-.1-1.4.5-1.7l2.6-1.4c.6-.3 1.4-.1 1.7.5.3.6.1 1.4-.5 1.7L6.3 29c-.1.1-.3.2-.6.2zm6.2-3.3c-.5 0-.9-.2-1.1-.7-.3-.6-.1-1.4.5-1.7l2.6-1.4c.6-.3 1.4-.1 1.7.5.3.6.1 1.4-.5 1.7l-2.6 1.4c-.2.2-.4.2-.6.2z"/><path id="two" d="M10.9 35.6c-.3 0-.6-.1-.8-.3-.5-.5-.6-1.3-.1-1.8l1.9-2.3c.5-.5 1.3-.6 1.8-.1s.6 1.3.1 1.8l-1.9 2.3c-.3.3-.6.4-1 .4zm4.5-5.2c-.3 0-.6-.1-.8-.3-.5-.5-.6-1.3-.1-1.8l1.9-2.3c.5-.5 1.3-.6 1.8-.1s.6 1.3.1 1.8L16.4 30c-.3.2-.6.4-1 .4z"/><path id="one" d="M2.7 21.2c-.6 0-1.2-.5-1.3-1.1-.1-.7.4-1.3 1.1-1.4l2.9-.3c.7-.1 1.3.4 1.4 1.1.1.7-.4 1.3-1.1 1.4l-2.9.3h-.1zm6.9-.7c-.6 0-1.2-.5-1.3-1.1-.1-.7.4-1.3 1.1-1.4l2.9-.3c.7-.1 1.3.4 1.4 1.1.1.7-.4 1.3-1.1 1.4l-2.9.3h-.1z"/></g></svg>
