<svg id="windmill" xmlns="http://www.w3.org/2000/svg" viewBox="0 0 100 100"><g id="air" fill="#C1CE20"><path id="left-outer-five" d="M17.3 57.2c-.5 0-1-.3-1.2-.8-.2-.5-.3-1-.5-1.4-.2-.7.2-1.4.8-1.6.7-.2 1.4.2 1.6.8.1.4.3.9.5 1.3.2.7-.1 1.4-.8 1.6-.1.1-.3.1-.4.1z"/><path id="left-outer-three" d="M16 52.5c-.6 0-1.1-.4-1.2-1-.2-.9-.3-1.8-.4-2.6-.1-.7.4-1.3 1.1-1.4.7-.1 1.3.4 1.4 1.1.1.8.2 1.6.4 2.4.1.7-.3 1.4-1 1.5-.2-.1-.2 0-.3 0zm-.7-6c-.7 0-1.2-.5-1.3-1.2v-1.2-1.5c0-.7.6-1.2 1.3-1.2.7 0 1.2.6 1.2 1.3v2.5c.1.7-.5 1.3-1.2 1.3zm.3-6h-.2c-.7-.1-1.2-.7-1.1-1.4.1-.9.3-1.8.5-2.6.1-.7.8-1.1 1.5-1 .7.1 1.1.8 1 1.5-.2.8-.3 1.6-.4 2.4-.1.6-.7 1.1-1.3 1.1z"/><path id="left-outer-one" d="M16.9 34.6c-.1 0-.3 0-.4-.1-.7-.2-1-.9-.8-1.6.2-.5.3-1 .5-1.4.2-.7 1-1 1.6-.8.7.2 1 1 .8 1.6-.2.4-.3.9-.5 1.3-.1.7-.6 1-1.2 1z"/><path id="right-outer-five" d="M82.6 58.4c-.2 0-.3 0-.5-.1-.7-.3-1-1-.7-1.7.2-.4.3-.9.5-1.3.2-.7 1-1 1.6-.8.7.2 1 1 .8 1.6-.2.5-.3 1-.5 1.4-.2.6-.7.9-1.2.9z"/><path id="right-outer-three" d="M84.2 53.4h-.3c-.7-.2-1.1-.8-.9-1.5.2-.9.4-1.8.5-2.7.1-.7.8-1.2 1.4-1.1.7.1 1.2.8 1.1 1.4-.1 1-.3 1.9-.6 2.9-.1.6-.6 1-1.2 1zm.9-6.6c-.8 0-1.3-.6-1.3-1.3v-1.4-1.4c0-.7.5-1.3 1.2-1.3s1.3.5 1.3 1.2v3c0 .6-.5 1.2-1.2 1.2zm-.4-6.7c-.6 0-1.2-.5-1.3-1.1-.1-.9-.3-1.8-.5-2.7-.2-.7.3-1.4.9-1.5.7-.2 1.4.3 1.5.9.2 1 .4 1.9.6 2.9.1.7-.4 1.3-1.1 1.4.1.1 0 .1-.1.1z"/><path id="right-outer-one" d="M83.1 33.7c-.5 0-1-.3-1.2-.8-.2-.4-.3-.9-.5-1.3-.3-.7.1-1.4.7-1.7.7-.3 1.4.1 1.7.7.2.5.4.9.5 1.4.2.7-.1 1.4-.8 1.6-.1.1-.2.1-.4.1z"/><path id="top-left" d="M38.2 12.5c-.5 0-1-.3-1.2-.8-.2-.7.1-1.4.8-1.6.5-.2 1-.3 1.4-.5.7-.2 1.4.2 1.6.8.2.6-.1 1.4-.8 1.6-.4.1-.9.3-1.3.5h-.5z"/><path id="top-center-three" d="M57.8 11.2h-.3c-.8-.2-1.7-.3-2.5-.5-.7-.1-1.2-.7-1.1-1.4.1-.7.7-1.2 1.4-1.1.9.1 1.8.3 2.7.5.7.2 1.1.8 1 1.5-.1.6-.6 1-1.2 1zM43 11.1c-.6 0-1.1-.4-1.2-1-.1-.7.3-1.4 1-1.5.9-.2 1.8-.3 2.7-.5.7-.1 1.3.4 1.4 1.1.1.7-.4 1.3-1.1 1.4-.8.1-1.7.3-2.5.4-.1.1-.2.1-.3.1zm8.7-.7h-2.6c-.7 0-1.3-.5-1.3-1.2s.5-1.3 1.2-1.3h2.7c.7 0 1.2.6 1.2 1.3.1.7-.5 1.2-1.2 1.2z"/><path id="top-right" d="M62.6 12.7c-.2 0-.3 0-.5-.1-.4-.2-.9-.3-1.3-.5-.7-.2-1-.9-.8-1.6.2-.7.9-1 1.6-.8.5.2 1 .3 1.4.5.7.2 1 1 .7 1.6-.1.6-.6.9-1.1.9z"/><path id="left-inner-three" d="M23.3 51.8c-.6 0-1.1-.4-1.2-1l-.3-1.5c-.1-.7.3-1.4 1-1.5.7-.1 1.4.3 1.5 1 .1.5.2.9.3 1.4.2.7-.2 1.4-.9 1.5-.2.1-.3.1-.4.1z"/><path id="left-inner-two" d="M22.5 46.6c-.7 0-1.2-.5-1.3-1.2v-1.3c0-.6 0-1.1.1-1.7 0-.7.6-1.2 1.3-1.2.7 0 1.2.6 1.2 1.3v2.8c.1.7-.5 1.3-1.3 1.3.1 0 .1 0 0 0z"/><path id="left-inner-one" d="M23.1 39.9h-.3c-.7-.1-1.1-.8-1-1.5.1-.5.2-1 .4-1.5.2-.7.9-1.1 1.6-.9.7.2 1.1.9.9 1.6-.1.4-.2.9-.3 1.4-.2.5-.7.9-1.3.9z"/><path id="right-inner-three" d="M76.8 52.9c-.1 0-.2 0-.4-.1-.7-.2-1.1-.9-.9-1.6.1-.4.3-.9.4-1.3.2-.7.9-1.1 1.5-.9.7.2 1.1.9.9 1.5-.1.5-.3 1-.4 1.5-.1.6-.6.9-1.1.9z"/><path id="right-inner-two" d="M77.8 47.3s-.1 0 0 0c-.8-.1-1.3-.7-1.3-1.4 0-.6.1-1.2.1-1.8v-1.2c0-.7.5-1.3 1.2-1.3s1.3.5 1.3 1.2v1.3c0 .7 0 1.4-.1 2 0 .7-.5 1.2-1.2 1.2z"/><path id="right-inner-one" d="M77.3 39.8c-.6 0-1.1-.4-1.2-1-.1-.5-.2-.9-.3-1.4-.2-.7.2-1.4.9-1.6.7-.2 1.4.2 1.6.9.1.5.3 1 .4 1.5.1.7-.3 1.4-1 1.5-.2.1-.3.1-.4.1z"/><path id="top-three" d="M57.8 18.8c-.1 0-.2 0-.4-.1-.4-.1-.9-.3-1.3-.4-.7-.2-1.1-.9-.9-1.5.2-.7.9-1.1 1.5-.9.5.1 1 .3 1.5.4.7.2 1.1.9.8 1.6-.2.5-.7.9-1.2.9z"/><path id="top-two" d="M52.1 17.7s-.1 0 0 0c-1.1-.1-2.2-.1-3.2 0-.7 0-1.3-.5-1.3-1.2s.5-1.3 1.2-1.3c1.1-.1 2.3 0 3.4 0 .7.1 1.2.7 1.2 1.4-.1.6-.6 1.1-1.3 1.1z"/><path id="top-one" d="M43.1 18.6c-.6 0-1.1-.4-1.2-.9-.2-.7.2-1.4.9-1.6.5-.1 1-.3 1.5-.4.7-.1 1.4.3 1.5 1 .1.7-.3 1.4-1 1.5-.5.1-.9.2-1.4.3 0 .1-.1.1-.3.1z"/><path id="lowest-right-three" d="M73 70.4c-.4 0-.7-.2-1-.4-.5-.5-.4-1.3.1-1.8.4-.3.7-.6 1-.9.5-.5 1.3-.5 1.8.1.5.5.5 1.3-.1 1.8-.4.3-.7.7-1.1 1-.1.1-.4.2-.7.2z"/><path id="lowest-right-two" d="M68.3 73.9c-.4 0-.8-.2-1.1-.6-.4-.6-.2-1.4.4-1.8.7-.4 1.4-.9 2-1.4.6-.4 1.4-.3 1.8.3.4.6.3 1.4-.3 1.8L69 73.7c-.2.1-.5.2-.7.2z"/><path id="lowest-right-one" d="M64.1 76.3c-.5 0-.9-.3-1.1-.7-.3-.6 0-1.4.6-1.7.4-.2.8-.4 1.3-.6.6-.3 1.4-.1 1.7.5.3.6.1 1.4-.5 1.7-.5.3-.9.5-1.4.7-.2 0-.4.1-.6.1z"/><path id="lower-right-two" d="M67.2 65.9c-.4 0-.8-.2-1-.5-.4-.6-.3-1.4.3-1.8.4-.3.8-.6 1.1-.9.6-.4 1.4-.3 1.8.2.4.6.3 1.4-.2 1.8l-1.2.9c-.3.3-.5.3-.8.3z"/><path id="lower-right-one" d="M63 68.7c-.5 0-.9-.3-1.1-.7-.3-.6-.1-1.4.5-1.7.3-.2.7-.4 1.2-.7.6-.4 1.4-.2 1.8.4.4.6.2 1.4-.4 1.8-.5.3-1 .6-1.4.8-.2 0-.4.1-.6.1z"/></g><path id="base" fill="#C1CE20" d="M76.4 96.4H63.7l-4.5-27.6c-.1-.7-.8-1.2-1.5-1-.7.1-1.2.8-1 1.5l1.8 11.3h-6.6c-.7 0-1.3.6-1.3 1.3 0 .7.6 1.3 1.3 1.3h7l1.3 7.9h-5.1c-.7 0-1.3.6-1.3 1.3s.6 1.3 1.3 1.3h5.5l.5 3H38.6l1.2-7.5h7.8c.7 0 1.3-.6 1.3-1.3s-.6-1.3-1.3-1.3h-7.4l1.4-8.6h6.9c.7 0 1.3-.6 1.3-1.3s-.6-1.3-1.3-1.3H42l1-6.1c.1-.7-.4-1.3-1-1.5-.7-.1-1.3.4-1.5 1L36 96.4H23.3c-.7 0-1.3.6-1.3 1.3 0 .7.6 1.3 1.3 1.3H76.4c.7 0 1.3-.6 1.3-1.3-.1-.7-.6-1.3-1.3-1.3z"/><g id="body"><g id="wings"><path id="panel-four" fill="#FFF" d="M26 75l13.3-13.2c.3-.3.6-.4.9-.4l.6-15.6-22 22L26 75z"/><path id="mill-dot" fill="#C1CE20" d="M44.2 59.3c0-.1-.1-.2-.1-.2 0-.1-.1-.1-.2-.2-.3-.3-.7-.4-1.1-.3-.1 0-.2 0-.2.1-.1 0-.2.1-.2.1-.1 0-.1.1-.2.2-.2-.1-.2 0-.3 0 0 .1-.1.1-.1.2s-.1.2-.1.2v.2c0 .3.1.7.4.9l.2.2c.1 0 .1.1.2.1s.2.1.2.1h.4c.1 0 .2 0 .2-.1.1 0 .2-.1.2-.1.1 0 .1-.1.2-.2.2-.2.4-.6.4-.9v-.2c.1 0 .1-.1.1-.1z"/><path id="panel-two" fill="#FFF" d="M56.1 37.8c1.3 1.3 2.1 2.9 2.4 4.6l22.3-22.3-7.1-7.1-22.3 22.4c1.8.3 3.4 1.1 4.7 2.4z"/><path id="mill-wings" fill="#C1CE20" d="M84.4 20.1L73.7 9.4 49.8 33.3 26 9.4 15.3 20.1 39.1 44 15.3 67.9 26 78.6l15.1-14.9c.5-.5.5-1.3 0-1.8-.2-.2-.5-.4-.9-.4-.3 0-.7.1-.9.4L26 75l-7.1-7.1 22-22 .3-.3c.3 1.8 1.2 3.4 2.5 4.7 1.3 1.3 3 2.1 4.7 2.4L45.2 56c-.5.5-.5 1.3 0 1.8.2.2.6.4.9.4.3 0 .7-.1.9-.4l2.9-3.1 23.8 23.8 10.7-10.7L60.5 44l23.9-23.9zM56.1 50.3c1.3-1.3 2.1-3 2.4-4.7l22.3 22.3-7.1 7.1-22.2-22.2c1.7-.4 3.3-1.2 4.6-2.5zm-15-7.9L18.9 20.1 26 13l22.3 22.3c-1.8.3-3.4 1.2-4.7 2.5-1.3 1.3-2.1 2.9-2.5 4.6zM73.7 13l7.1 7.1-22.3 22.3c-.3-1.7-1.1-3.3-2.4-4.6-1.3-1.3-2.9-2.1-4.7-2.5L73.7 13zM43.5 44.1c0-1.6.6-3.1 1.6-4.2.1-.1.1-.2.2-.2l.1-.1c1.2-1.1 2.7-1.7 4.3-1.7.9 0 1.8.2 2.5.5s1.3.8 1.9 1.3c.9.9 1.5 2.1 1.7 3.2.3 1.8-.1 3.6-1.2 5.1-.2.2-.3.4-.5.6-.2.2-.4.3-.6.5-2.5 2-6.1 1.8-8.4-.5-.9-1.3-1.6-2.8-1.6-4.5z"/><path id="panel-three" fill="#FFF" d="M73.7 75l7.1-7.1-22.3-22.3c-.3 1.7-1.1 3.4-2.4 4.7-1.3 1.3-2.9 2.1-4.6 2.4L73.7 75z"/><path id="panel-one" fill="#FFF" d="M26 13l-7.1 7.1 22.3 22.3c.3-1.7 1.2-3.3 2.4-4.6 1.3-1.3 2.9-2.1 4.7-2.5L26 13z"/></g></g></svg>