<svg xmlns="http://www.w3.org/2000/svg" id="test" viewBox="0 0 500 500"><style>.st0{fill:#C1CE20;} .st1{fill:#FFFFFF;} .st2{fill:none;stroke:#C1CE20;stroke-width:13;stroke-linecap:round;stroke-miterlimit:10;}</style><path id="two-body" d="M493.3 279.1c.4-17-6.4-28.5-18.2-30.8-14.8-2.9-36-14.6-40.6-18.6-17.4-43.6-39.3-71.6-68.9-87.9-17.7-9.8-43.9-19.8-103.4-19.8-51.4 0-99.7 16.7-136.1 47.1-36.7 30.7-57 71.6-57 115.1 0 50.8 27.5 97.7 75.3 128.6 1.1.7 2.3 1 3.5 1 2.1 0 4.2-1 5.5-3 2-3 1.1-7-1.9-9-44.1-28.5-69.4-71.4-69.4-117.7 0-82.3 80.8-149.2 180.1-149.2 45 0 74.1 5.4 97.1 18.2 27 15 47.2 41.2 63.6 82.6l.4 1 .7.8c5.3 6.2 31.3 20.1 48.6 23.5 6 1.2 7.9 9.9 7.7 17.7-.9 34.6-27.9 56.9-47.1 59.6h-.2c-.1 0-.3 0-.4.1-.1 0-.2.1-.3.1-.1 0-.2.1-.3.1-.1 0-.2.1-.3.1-.1 0-.2.1-.2.1-.1.1-.2.1-.3.2-.1 0-.2.1-.2.1-.1.1-.2.1-.3.2-.1.1-.2.1-.2.2-.1.1-.2.1-.2.2-.1.1-.2.1-.3.2l-.2.2-.3.3-.2.2c-.1.1-.2.2-.2.3-.1.1-.1.2-.2.3-.1.1-.1.2-.2.3-.1.1-.1.2-.2.4 0 .1-.1.1-.1.2-28.2 55.6-93.4 91.6-166.1 91.6-22.7 0-44.8-3.5-65.7-10.3-3.4-1.1-7.1.8-8.2 4.2-1.1 3.4.8 7.1 4.2 8.2 22.2 7.2 45.7 10.9 69.8 10.9 76.3 0 145.1-37.5 176.2-95.8 36.2-7.6 54.1-46.7 54.7-71.8z" class="st0"/><g id="two-big-coin-behind"><circle id="two-coin-center-behind" cx="234.9" cy="59" r="46.3" class="st1"/><path id="two-coin_-outter-behind" d="M234.9 113.4c-30 0-54.4-24.4-54.4-54.4s24.4-54.4 54.4-54.4S289.3 29 289.3 59s-24.4 54.4-54.4 54.4zm0-95.8c-22.8 0-41.4 18.6-41.4 41.4s18.6 41.4 41.4 41.4 41.4-18.6 41.4-41.4-18.6-41.4-41.4-41.4z" class="st0"/></g><g id="two-big-coin"><circle id="two-coin-center" cx="234.9" cy="59" r="46.3" class="st1"/><path id="two-coin_-outter" d="M234.9 113.4c-30 0-54.4-24.4-54.4-54.4s24.4-54.4 54.4-54.4S289.3 29 289.3 59s-24.4 54.4-54.4 54.4zm0-95.8c-22.8 0-41.4 18.6-41.4 41.4s18.6 41.4 41.4 41.4 41.4-18.6 41.4-41.4-18.6-41.4-41.4-41.4z" class="st0"/></g><circle id="two-white-body" cx="260" cy="291" r="122.8" class="st1"/><path id="two-ear" d="M393.8 179.2c-1.4 0-2.8-.5-4-1.4-2.8-2.2-3.3-6.3-1-9.1l46-57.9c-15.1-9.6-29.7-12.7-43.4-9.2-25 6.4-39.4 32.5-39.6 32.8-1.7 3.2-5.6 4.3-8.8 2.6-3.2-1.7-4.3-5.7-2.6-8.8.7-1.3 17.3-31.4 47.8-39.2 17.5-4.5 35.8-.7 54.3 11.3 2.9 1.9 4.9 4.9 5.5 8.2.6 3.4-.2 6.8-2.3 9.5l-.1.1-46.6 58.6c-1.4 1.7-3.3 2.5-5.2 2.5z" class="st0"/><path id="two-hair" d="M323.6 135.4c-.3 0-.6 0-.9-.1-3.6-.5-6-3.8-5.6-7.3.1-.8 2.7-19.3 14.1-37.8C342 72.7 362.8 52 400.8 52.5c3.6 0 6.5 3 6.4 6.6 0 3.6-2.9 6.4-6.5 6.4h-.1c-25.5-.3-45 10.2-58.1 31.2-10.1 16.2-12.5 32.9-12.5 33.1-.4 3.3-3.2 5.6-6.4 5.6z" class="st0"/><path id="two-eye" d="M356 261c-15 0-27.1-12.2-27.1-27.1s12.2-27.1 27.1-27.1 27.1 12.2 27.1 27.1S370.9 261 356 261zm0-41.3c-7.8 0-14.1 6.3-14.1 14.1S348.2 248 356 248s14.1-6.3 14.1-14.1-6.3-14.2-14.1-14.2z" class="st0"/><path id="two-slot" d="M204.4 188.5c-2.5 0-4.9-1.5-6-3.9-1.4-3.3.1-7.1 3.4-8.5 2.4-1 59.4-25 116.4 0 3.3 1.4 4.8 5.3 3.3 8.6-1.4 3.3-5.3 4.8-8.6 3.3-51.8-22.8-105.4-.2-106 0-.8.4-1.7.5-2.5.5z" class="st0"/><path id="two-tail" d="M75.6 244.6c-.4 0-.7 0-1.1-.1-12.4-2-28.9-7.3-37-20.9-2.4-4-3.8-8.4-4.3-13.2-11.8-4-22.8-11-26.8-18.1-1.8-3.1-.7-7.1 2.4-8.9s7.1-.7 8.9 2.4c1.8 3.2 8.4 7.7 16.2 10.9.6-2.8 1.4-5.7 2.4-8.6 4.8-13.6 12.4-17.2 17.9-17.9 7.1-.9 14.5 3 19.1 10.2 4.6 7 5.2 15.3 1.5 21.5-3.2 5.4-9.9 11.9-23.8 11.8-1.3 0-2.6-.1-3.9-.2.4 1.2.9 2.4 1.6 3.5 5.8 9.7 19.9 13.4 27.9 14.7 3.5.6 5.9 3.9 5.4 7.5-.5 3.1-3.3 5.4-6.4 5.4zm-29-44.3c1.6.2 3.2.4 4.7.4 6.1 0 10.3-1.8 12.4-5.4 1.3-2.2.3-5.5-1.2-7.8-1.8-2.8-4.6-4.6-6.7-4.4-2.5.3-5.2 3.8-7.1 9.3-1 2.9-1.7 5.5-2.1 7.9z" class="st0"/><path id="two-back-leg" d="M192.4 488.3h-46.7c-10.5 0-19.1-8.6-19.1-19.1v-71.5c0-3.6 2.9-6.5 6.5-6.5s6.5 2.9 6.5 6.5v71.5c0 3.3 2.7 6.1 6.1 6.1h46.7c3.3 0 6.1-2.7 6.1-6.1v-32.7c0-3.6 2.9-6.5 6.5-6.5s6.5 2.9 6.5 6.5v32.7c0 10.5-8.6 19.1-19.1 19.1z" class="st0"/><path id="two-front-leg" d="M379.3 488.3h-46.7c-10.5 0-19.1-8.6-19.1-19.1v-33.1c0-3.6 2.9-6.5 6.5-6.5s6.5 2.9 6.5 6.5v33.1c0 3.3 2.7 6.1 6.1 6.1h46.7c3.3 0 6.1-2.7 6.1-6.1V432c0-3.6 2.9-6.5 6.5-6.5s6.5 2.9 6.5 6.5v37.2c0 10.5-8.6 19.1-19.1 19.1z" class="st0"/><path id="two-upper-dollar" d="M285.3 261.3c-.4-.5-8.3-9.6-20.8-12.5v-28c0-3.6-2.9-6.5-6.5-6.5s-6.5 2.9-6.5 6.5v27.6c-3.6.6-7.6 2-11.5 4.7-6.4 4.5-10.7 11.3-12.8 20.4-2.1 8.9-1.8 21.5 11.5 31.4 7.5 5.6 16.1 6.4 24.3 6.4 3.6 0 6.5-2.9 6.5-6.5s-2.9-6.5-6.5-6.5c-7.1 0-12.4-.7-16.6-3.8-6.4-4.7-8.4-10.2-6.6-17.9 3.3-14 12.7-15.8 17.9-15.6 10.1.4 17.4 8.7 17.6 8.8 2.3 2.7 6.4 3 9.1.7 2.8-2.4 3.2-6.5.9-9.2z" class="st0"/><path id="two-lower-dollar" d="M297.5 324c-.2-3.6-3.3-6.3-6.8-6.2-3.6.2-6.3 3.2-6.2 6.8.3 6.5-3 13.3-8.6 17.7-4.4 3.4-15.3 7-25 4-7.5-2.4-12.9-8.4-15.8-17.8-1.1-3.4-4.7-5.4-8.1-4.3-3.4 1.1-5.4 4.7-4.3 8.1 5.3 17.1 16.1 23.8 24.3 26.4 1.5.5 3 .8 4.5 1.1v32.8c0 3.6 2.9 6.5 6.5 6.5s6.5-2.9 6.5-6.5v-32.5c7.7-1 14.8-3.9 19.4-7.5 8.9-6.9 14.2-17.9 13.6-28.6z" class="st0"/><path id="two-body-dot" d="M171.1 418.8" class="st2"/><path id="two-money-dot" d="M283.3 306.3" class="st2"/></svg>