<svg version="1.1" xmlns="http://www.w3.org/2000/svg" xmlns:xlink="http://www.w3.org/1999/xlink" x="0px" y="0px"
	 viewBox="0 0 500 500" id="test" style="enable-background:new 0 0 500 500;" xml:space="preserve">
<style type="text/css">
	.st0{fill:#C1CE20;}
	.st1{fill:#FFFFFF;}
	.st2{fill:none;stroke:#C1CE20;stroke-width:13;stroke-linecap:round;stroke-miterlimit:10;}
</style>
<path id="two-body" class="st0" d="M493.3,279.1c0.4-17-6.4-28.5-18.2-30.8c-14.8-2.9-36-14.6-40.6-18.6c-17.4-43.6-39.3-71.6-68.9-87.9
	c-17.7-9.8-43.9-19.8-103.4-19.8c-51.4,0-99.7,16.7-136.1,47.1c-36.7,30.7-57,71.6-57,115.1c0,50.8,27.5,97.7,75.3,128.6
	c1.1,0.7,2.3,1,3.5,1c2.1,0,4.2-1,5.5-3c2-3,1.1-7-1.9-9c-44.1-28.5-69.4-71.4-69.4-117.7c0-82.3,80.8-149.2,180.1-149.2
	c45,0,74.1,5.4,97.1,18.2c27,15,47.2,41.2,63.6,82.6l0.4,1l0.7,0.8c5.3,6.2,31.3,20.1,48.6,23.5c6,1.2,7.9,9.9,7.7,17.7
	c-0.9,34.6-27.9,56.9-47.1,59.6c-0.1,0-0.1,0-0.2,0c-0.1,0-0.3,0-0.4,0.1c-0.1,0-0.2,0.1-0.3,0.1c-0.1,0-0.2,0.1-0.3,0.1
	c-0.1,0-0.2,0.1-0.3,0.1c-0.1,0-0.2,0.1-0.2,0.1c-0.1,0.1-0.2,0.1-0.3,0.2c-0.1,0-0.2,0.1-0.2,0.1c-0.1,0.1-0.2,0.1-0.3,0.2
	c-0.1,0.1-0.2,0.1-0.2,0.2c-0.1,0.1-0.2,0.1-0.2,0.2c-0.1,0.1-0.2,0.1-0.3,0.2c-0.1,0.1-0.1,0.1-0.2,0.2c-0.1,0.1-0.2,0.2-0.3,0.3
	c-0.1,0.1-0.1,0.1-0.2,0.2c-0.1,0.1-0.2,0.2-0.2,0.3c-0.1,0.1-0.1,0.2-0.2,0.3c-0.1,0.1-0.1,0.2-0.2,0.3c-0.1,0.1-0.1,0.2-0.2,0.4
	c0,0.1-0.1,0.1-0.1,0.2c-28.2,55.6-93.4,91.6-166.1,91.6c-22.7,0-44.8-3.5-65.7-10.3c-3.4-1.1-7.1,0.8-8.2,4.2
	c-1.1,3.4,0.8,7.1,4.2,8.2c22.2,7.2,45.7,10.9,69.8,10.9c76.3,0,145.1-37.5,176.2-95.8C474.8,343.3,492.7,304.2,493.3,279.1z"/>

  <g id="two-big-coin-behind">
	<circle id="two-coin-center-behind" class="st1" cx="234.9" cy="59" r="46.3"/>
	<path id="two-coin_-outter-behind" class="st0" d="M234.9,113.4c-30,0-54.4-24.4-54.4-54.4c0-30,24.4-54.4,54.4-54.4S289.3,29,289.3,59
		C289.3,89,264.9,113.4,234.9,113.4z M234.9,17.6c-22.8,0-41.4,18.6-41.4,41.4s18.6,41.4,41.4,41.4s41.4-18.6,41.4-41.4
		S257.7,17.6,234.9,17.6z"/>
</g>

  <g id="two-big-coin">
	<circle id="two-coin-center" class="st1" cx="234.9" cy="59" r="46.3"/>
	<path id="two-coin_-outter" class="st0" d="M234.9,113.4c-30,0-54.4-24.4-54.4-54.4c0-30,24.4-54.4,54.4-54.4S289.3,29,289.3,59
		C289.3,89,264.9,113.4,234.9,113.4z M234.9,17.6c-22.8,0-41.4,18.6-41.4,41.4s18.6,41.4,41.4,41.4s41.4-18.6,41.4-41.4
		S257.7,17.6,234.9,17.6z"/>
</g>
<circle id="two-white-body" class="st1" cx="260" cy="291" r="122.8"/>
<path id="two-ear" class="st0" d="M393.8,179.2c-1.4,0-2.8-0.5-4-1.4c-2.8-2.2-3.3-6.3-1-9.1l46-57.9c-15.1-9.6-29.7-12.7-43.4-9.2
	c-25,6.4-39.4,32.5-39.6,32.8c-1.7,3.2-5.6,4.3-8.8,2.6c-3.2-1.7-4.3-5.7-2.6-8.8c0.7-1.3,17.3-31.4,47.8-39.2
	c17.5-4.5,35.8-0.7,54.3,11.3c2.9,1.9,4.9,4.9,5.5,8.2c0.6,3.4-0.2,6.8-2.3,9.5l-0.1,0.1l-46.6,58.6
	C397.6,178.4,395.7,179.2,393.8,179.2z"/>
<path id="two-hair" class="st0" d="M323.6,135.4c-0.3,0-0.6,0-0.9-0.1c-3.6-0.5-6-3.8-5.6-7.3c0.1-0.8,2.7-19.3,14.1-37.8
	c10.8-17.5,31.6-38.2,69.6-37.7c3.6,0,6.5,3,6.4,6.6c0,3.6-2.9,6.4-6.5,6.4c0,0-0.1,0-0.1,0c-25.5-0.3-45,10.2-58.1,31.2
	c-10.1,16.2-12.5,32.9-12.5,33.1C329.6,133.1,326.8,135.4,323.6,135.4z"/>
<path id="two-eye" class="st0" d="M356,261c-15,0-27.1-12.2-27.1-27.1s12.2-27.1,27.1-27.1s27.1,12.2,27.1,27.1S370.9,261,356,261z
	 M356,219.7c-7.8,0-14.1,6.3-14.1,14.1S348.2,248,356,248s14.1-6.3,14.1-14.1S363.8,219.7,356,219.7z"/>
<path id="two-slot" class="st0" d="M204.4,188.5c-2.5,0-4.9-1.5-6-3.9c-1.4-3.3,0.1-7.1,3.4-8.5c2.4-1,59.4-25,116.4,0
	c3.3,1.4,4.8,5.3,3.3,8.6c-1.4,3.3-5.3,4.8-8.6,3.3c-51.8-22.8-105.4-0.2-106,0C206.1,188.4,205.2,188.5,204.4,188.5z"/>
<path id="two-tail" class="st0" d="M75.6,244.6c-0.4,0-0.7,0-1.1-0.1c-12.4-2-28.9-7.3-37-20.9c-2.4-4-3.8-8.4-4.3-13.2
	c-11.8-4-22.8-11-26.8-18.1c-1.8-3.1-0.7-7.1,2.4-8.9s7.1-0.7,8.9,2.4c1.8,3.2,8.4,7.7,16.2,10.9c0.6-2.8,1.4-5.7,2.4-8.6
	c4.8-13.6,12.4-17.2,17.9-17.9c7.1-0.9,14.5,3,19.1,10.2c4.6,7,5.2,15.3,1.5,21.5c-3.2,5.4-9.9,11.9-23.8,11.8
	c-1.3,0-2.6-0.1-3.9-0.2c0.4,1.2,0.9,2.4,1.6,3.5c5.8,9.7,19.9,13.4,27.9,14.7c3.5,0.6,5.9,3.9,5.4,7.5
	C81.5,242.3,78.7,244.6,75.6,244.6z M46.6,200.3c1.6,0.2,3.2,0.4,4.7,0.4c6.1,0,10.3-1.8,12.4-5.4c1.3-2.2,0.3-5.5-1.2-7.8
	c-1.8-2.8-4.6-4.6-6.7-4.4c-2.5,0.3-5.2,3.8-7.1,9.3C47.7,195.3,47,197.9,46.6,200.3z"/>
<path id="two-back-leg" class="st0" d="M192.4,488.3h-46.7c-10.5,0-19.1-8.6-19.1-19.1v-71.5c0-3.6,2.9-6.5,6.5-6.5s6.5,2.9,6.5,6.5
	v71.5c0,3.3,2.7,6.1,6.1,6.1h46.7c3.3,0,6.1-2.7,6.1-6.1v-32.7c0-3.6,2.9-6.5,6.5-6.5s6.5,2.9,6.5,6.5v32.7
	C211.5,479.7,202.9,488.3,192.4,488.3z"/>
<path id="two-front-leg" class="st0" d="M379.3,488.3h-46.7c-10.5,0-19.1-8.6-19.1-19.1v-33.1c0-3.6,2.9-6.5,6.5-6.5s6.5,2.9,6.5,6.5
	v33.1c0,3.3,2.7,6.1,6.1,6.1h46.7c3.3,0,6.1-2.7,6.1-6.1V432c0-3.6,2.9-6.5,6.5-6.5s6.5,2.9,6.5,6.5v37.2
	C398.4,479.7,389.8,488.3,379.3,488.3z"/>
<path id="two-upper-dollar" class="st0" d="M285.3,261.3c-0.4-0.5-8.3-9.6-20.8-12.5v-28c0-3.6-2.9-6.5-6.5-6.5s-6.5,2.9-6.5,6.5v27.6
	c-3.6,0.6-7.6,2-11.5,4.7c-6.4,4.5-10.7,11.3-12.8,20.4c-2.1,8.9-1.8,21.5,11.5,31.4c7.5,5.6,16.1,6.4,24.3,6.4c0,0,0,0,0,0
	c3.6,0,6.5-2.9,6.5-6.5c0-3.6-2.9-6.5-6.5-6.5c-7.1,0-12.4-0.7-16.6-3.8c-6.4-4.7-8.4-10.2-6.6-17.9c3.3-14,12.7-15.8,17.9-15.6
	c10.1,0.4,17.4,8.7,17.6,8.8c2.3,2.7,6.4,3,9.1,0.7C287.2,268.1,287.6,264,285.3,261.3z"/>
<path id="two-lower-dollar" class="st0" d="M297.5,324c-0.2-3.6-3.3-6.3-6.8-6.2c-3.6,0.2-6.3,3.2-6.2,6.8c0.3,6.5-3,13.3-8.6,17.7
	c-4.4,3.4-15.3,7-25,4c-7.5-2.4-12.9-8.4-15.8-17.8c-1.1-3.4-4.7-5.4-8.1-4.3c-3.4,1.1-5.4,4.7-4.3,8.1
	c5.3,17.1,16.1,23.8,24.3,26.4c1.5,0.5,3,0.8,4.5,1.1v32.8c0,3.6,2.9,6.5,6.5,6.5s6.5-2.9,6.5-6.5v-32.5c7.7-1,14.8-3.9,19.4-7.5
	C292.8,345.7,298.1,334.7,297.5,324z"/>
<line id="two-body-dot" class="st2" x1="171.1" y1="418.8" x2="171.1" y2="418.8"/>
<line id="two-money-dot" class="st2" x1="283.3" y1="306.3" x2="283.3" y2="306.3"/>
</svg>
